<?xml version="1.0" encoding="UTF-8"?><svg id="Calque_2" xmlns="http://www.w3.org/2000/svg" viewBox="0 0 580.89 580.89"><defs><style>.cls-1{fill:#eca380;}</style></defs><g id="Calque_2-2"><g id="Calque_1-2"><path class="cls-1" d="M290.45,0C130.03,0,0,130.04,0,290.45s130.03,290.44,290.45,290.44,290.44-130.03,290.44-290.44S450.86,0,290.45,0Zm165.23,382.56c-26.16,21.2-55.78,39.27-90.53,55.29-18.46,8.53-37.41,16.17-56.33,22.71-3.21,1.11-6.42,2.25-9.62,3.4l-5.6,2c-.85,.29-1.42,.49-1.89,.61-.47,.13-.84,.19-1.29,.19-.9-.01-1.47-.23-3.17-.8l-5.61-2c-3.19-1.15-6.39-2.29-9.61-3.4-18.91-6.54-37.87-14.18-56.33-22.71-34.75-16.02-64.36-34.1-90.54-55.29l-1.61-1.3,52.83,6.51c6.38,4.01,15.75,9.24,22.54,13.03,21.37,11.55,54.57,27.55,91.51,38.24,36.94-10.69,70.15-26.69,91.52-38.24,6.8-3.8,16.17-9.02,22.54-13.03l52.81-6.51-1.62,1.3Zm0-114.14c-26.16,21.19-55.78,39.26-90.53,55.28-18.46,8.53-37.41,16.18-56.33,22.72-3.21,1.1-6.42,2.25-9.62,3.39l-5.6,2c-.85,.28-1.42,.48-1.89,.61-.47,.13-.84,.19-1.29,.19-.9-.01-1.47-.23-3.17-.8l-5.61-2c-3.19-1.14-6.39-2.29-9.61-3.39-18.91-6.54-37.87-14.19-56.33-22.72-34.75-16.02-64.36-34.1-90.54-55.28l-1.61-1.31,52.83,6.51c6.38,4.01,15.75,9.24,22.54,13.04,21.37,11.54,54.57,27.54,91.51,38.23,36.94-10.69,70.15-26.69,91.52-38.23,6.8-3.81,16.17-9.03,22.54-13.04l52.81-6.51-1.62,1.31Zm0-114.15c-26.16,21.19-55.78,39.27-90.53,55.29-18.46,8.52-37.41,16.17-56.33,22.71-3.21,1.11-6.42,2.25-9.62,3.39l-5.6,2c-.85,.29-1.42,.49-1.89,.62-.47,.13-.84,.19-1.29,.19-.9-.02-1.47-.24-3.17-.81l-5.61-2c-3.19-1.14-6.39-2.28-9.61-3.39-18.91-6.54-37.87-14.19-56.33-22.71-34.75-16.02-64.36-34.11-90.54-55.29l-1.61-1.31,52.83,6.52c6.38,4.01,15.75,9.24,22.54,13.03,21.37,11.55,54.57,27.54,91.51,38.23,36.94-10.69,70.15-26.68,91.52-38.23,6.8-3.8,16.17-9.02,22.54-13.03l52.81-6.52-1.62,1.31Z"/></g></g></svg>