<svg width="67" height="51" viewBox="0 0 67 51" fill="none" xmlns="http://www.w3.org/2000/svg">
<g clip-path="url(#clip0_150_405)">
<path d="M53.6041 20.0727C52.4893 26.3362 50.4356 31.4856 48.0325 35.663H16.8221C14.4113 31.4701 12.3525 26.3026 11.2402 20.0107C21.7202 24.1881 31.3124 25.8942 31.8762 25.9898L32.4987 26.0984L33.1212 25.9898C33.6824 25.8942 43.1853 24.2062 53.6041 20.0727Z" fill="white"/>
<path d="M64.9591 12.1651V12.1393H61.3875V14.3055C58.9614 15.6472 56.4409 16.8337 53.9459 17.8755C42.9889 22.4561 32.4987 24.2786 32.4987 24.2786C32.4987 24.2786 21.9115 22.4406 10.8984 17.8108C7.18395 16.2495 3.42105 14.3728 0 12.1393C13.5643 3.28815 32.4987 0 32.4987 0C32.4987 0 51.4356 3.28815 64.9999 12.1393C64.9872 12.147 64.9719 12.1574 64.9591 12.1651Z" fill="white"/>
<path d="M65.3444 42.7331L66.1582 50.7699L63.9463 51L63.4616 46.197L62.9744 51L60.7651 50.7699L61.5457 43.0485C60.2472 42.4306 59.3467 41.0916 59.3467 39.5406C59.3467 37.9896 60.1732 36.7617 61.3876 36.1102V12.1393H64.9591V36.1102C66.1735 36.7617 67 38.0542 67 39.5406C67 40.8641 66.3444 42.0325 65.3444 42.7331Z" fill="white"/>
</g>
<defs>
<clipPath id="clip0_150_405">
<rect width="67" height="51" fill="white"/>
</clipPath>
</defs>
</svg>
