<svg width="53" height="56" viewBox="0 0 53 56" fill="none" xmlns="http://www.w3.org/2000/svg">
<g clip-path="url(#clip0_150_415)">
<path d="M40.3628 22.039C39.1467 23.2646 37.9305 24.4934 36.7112 25.7191C37.5587 28.1066 38.3369 31.0895 38.4378 34.1934C38.2456 40.1305 35.5423 45.692 34.6412 47.392C32.962 48.3056 27.4862 51.0274 21.5819 51.2216C15.7059 51.0306 10.2049 48.3024 8.51932 47.3888C7.61824 45.6856 4.91814 40.1273 4.72595 34.1934C4.91814 28.2563 7.61824 22.698 8.51932 20.998C10.2049 20.0844 15.7091 17.3561 21.5819 17.1619C23.1761 17.2129 24.7419 17.4516 26.2133 17.7923C27.4956 16.4934 28.7779 15.1946 30.0602 13.8989C27.5838 13.1126 24.6852 12.4759 21.6512 12.3868H21.5125C13.198 12.6351 5.87594 17.006 5.57032 17.1938L5.05992 17.5026L4.75431 18.0151C4.57157 18.3271 0.24575 25.7222 0 34.1234V34.2634C0.24575 42.6645 4.57157 50.0597 4.75431 50.3717L5.05992 50.8842L5.57032 51.193C5.87594 51.3808 13.198 55.7517 21.5125 55.9968H21.5819H21.6512C29.9657 55.7517 37.2846 51.3776 37.5934 51.193L38.1038 50.8842L38.4063 50.3685C38.5921 50.0597 42.918 42.6614 43.1637 34.2634V34.1234C43.0251 29.4278 41.6136 25.0442 40.3628 22.039ZM38.4063 18.0151L38.1038 17.4994L37.5934 17.1938C37.439 17.0983 35.5644 15.9777 32.6942 14.8412C31.4623 16.0859 30.2304 17.3307 29.0016 18.5786C31.6544 19.454 33.7244 20.4982 34.6444 20.998C34.8901 21.4596 35.2651 22.1982 35.6904 23.1532C36.875 21.9594 38.0597 20.7656 39.2412 19.5718C38.7812 18.6486 38.4567 18.0947 38.4063 18.0151Z" fill="white"/>
<path d="M44.793 2.64227H44.7898C44.7299 2.69639 44.6323 2.76961 44.5504 2.85556C44.3676 3.0402 44.188 3.22166 44.0053 3.4063C40.234 7.21689 36.4627 11.0275 32.6945 14.8412C31.4626 16.086 30.2307 17.3307 29.002 18.5786C28.1009 19.4859 27.203 20.3964 26.305 21.3068C26.0372 21.5742 25.8009 21.9085 25.6528 22.2555C24.5879 24.7163 23.5482 27.1898 22.4959 29.6602C22.3321 30.0454 22.1493 30.4274 22.5117 30.7967C22.8708 31.1596 23.2552 30.9877 23.6364 30.8221C25.9868 29.7971 28.3435 28.7943 30.6781 27.7437C31.1854 27.5177 31.68 27.1866 32.0707 26.7951C33.2774 25.5822 34.4841 24.3661 35.6908 23.1532C36.8754 21.9594 38.0601 20.7656 39.2415 19.5718C42.7009 16.0796 46.1603 12.5874 49.6197 9.0983L49.6922 9.02508C49.9348 8.77677 50.2278 8.58258 50.4736 8.38203C48.5139 6.39874 46.6613 4.53006 44.793 2.64227ZM26.9635 27.0307C26.8217 27.0911 26.5445 26.9956 26.4184 26.8747C26.2924 26.7569 26.1727 26.4735 26.2294 26.3398C26.7115 25.1683 27.2313 24.0159 27.7134 22.9145C28.5829 23.7867 29.4368 24.6494 30.3189 25.5408C29.2288 26.0311 28.104 26.55 26.9635 27.0307Z" fill="white"/>
<path d="M52.159 6.48151C51.9227 6.7712 51.6423 7.02906 51.3997 7.29329C49.5188 5.38959 47.6725 3.51772 45.7979 1.62039C46.0436 1.33388 46.302 1.06965 46.5761 0.843628L52.159 6.48151Z" fill="white"/>
<path d="M44.793 2.64227H44.7898C44.7299 2.69639 44.6323 2.76961 44.5504 2.85556C44.3676 3.0402 44.188 3.22166 44.0053 3.4063C40.234 7.21689 36.4627 11.0275 32.6945 14.8412C31.4626 16.086 30.2307 17.3307 29.002 18.5786C28.1009 19.4859 27.203 20.3964 26.305 21.3068C26.0372 21.5742 25.8009 21.9085 25.6528 22.2555C24.5879 24.7163 23.5482 27.1898 22.4959 29.6602C22.3321 30.0454 22.1493 30.4274 22.5117 30.7967C22.8708 31.1596 23.2552 30.9877 23.6364 30.8221C25.9868 29.7971 28.3435 28.7943 30.6781 27.7437C31.1854 27.5177 31.68 27.1866 32.0707 26.7951C33.2774 25.5822 34.4841 24.3661 35.6908 23.1532C36.8754 21.9594 38.0601 20.7656 39.2415 19.5718C42.7009 16.0796 46.1603 12.5874 49.6197 9.0983L49.6922 9.02508C49.9348 8.77677 50.2278 8.58258 50.4736 8.38203C48.5139 6.39874 46.6613 4.53006 44.793 2.64227ZM26.9635 27.0307C26.8217 27.0911 26.5445 26.9956 26.4184 26.8747C26.2924 26.7569 26.1727 26.4735 26.2294 26.3398C26.7115 25.1683 27.2313 24.0159 27.7134 22.9145C28.5829 23.7867 29.4368 24.6494 30.3189 25.5408C29.2288 26.0311 28.104 26.55 26.9635 27.0307Z" fill="white"/>
<path d="M50.4731 8.38203C50.2274 8.58258 49.9344 8.77677 49.6918 9.02508L49.6193 9.0983L44.0049 3.4063C44.1876 3.22166 44.3672 3.0402 44.5499 2.85556C44.6319 2.76961 44.7295 2.69639 44.7894 2.64227H44.7925C46.6609 4.53006 48.5134 6.39874 50.4731 8.38203Z" fill="white"/>
<path d="M52.2504 6.37008C52.222 6.40828 52.1936 6.44648 52.159 6.4815C51.9227 6.77119 51.6423 7.02905 51.3997 7.29328C49.5188 5.38958 47.6725 3.51771 45.7979 1.62038C46.0436 1.33387 46.302 1.06964 46.5761 0.843615C47.181 0.346997 47.8804 0.0254694 48.7468 1.86986e-06C49.5188 -0.0222823 50.1772 0.23876 50.7254 0.789496C51.1413 1.20971 51.5352 1.65858 51.9794 2.04696C53.3657 3.25667 53.2239 5.06168 52.2504 6.37008Z" fill="white"/>
<path d="M52.2504 6.37008C52.222 6.40828 52.1936 6.44648 52.159 6.4815C51.9227 6.77119 51.6423 7.02905 51.3997 7.29328C49.5188 5.38958 47.6725 3.51771 45.7979 1.62038C46.0436 1.33387 46.302 1.06964 46.5761 0.843615C47.181 0.346997 47.8804 0.0254694 48.7468 1.86986e-06C49.5188 -0.0222823 50.1772 0.23876 50.7254 0.789496C51.1413 1.20971 51.5352 1.65858 51.9794 2.04696C53.3657 3.25667 53.2239 5.06168 52.2504 6.37008Z" fill="white"/>
</g>
<defs>
<clipPath id="clip0_150_415">
<rect width="53" height="56" fill="white"/>
</clipPath>
</defs>
</svg>
