<?xml version="1.0" encoding="UTF-8"?><svg id="Calque_2" xmlns="http://www.w3.org/2000/svg" viewBox="0 0 744.27 736.77"><defs><style>.cls-1{fill:#eca380;}</style></defs><g id="Calque_2-2"><g id="Calque_1-2"><g><path class="cls-1" d="M397.57,62.77c-3.72-4.64-5.08-10.32-4.09-17.05,.26-1.75,.52-3.05,.78-3.91l5.52-20.01c1.36-5.02,3.69-9.29,6.99-12.79s7.28-6.01,11.93-7.52c4.66-1.51,9.67-1.87,15.06-1.08,7.47,1.1,13.09,3.85,16.88,8.26,3.78,4.41,5.21,9.81,4.27,16.2-.1,.67-.34,1.81-.71,3.4-.04,.27-.23,.48-.56,.64s-.71,.24-1.12,.25l-15.79-1.29-.3-.04c-.81-.12-1.09-.54-.85-1.26,.12-.33,.22-.83,.32-1.5,.35-2.35-.05-4.3-1.2-5.85-1.15-1.54-2.9-2.49-5.25-2.84-2.62-.39-4.95,.11-6.97,1.5-2.03,1.39-3.41,3.43-4.15,6.14l-5.82,21.31c-.12,.33-.23,.83-.32,1.5-.34,2.29,.08,4.21,1.27,5.75,1.18,1.55,2.91,2.49,5.2,2.83,2.62,.39,4.93-.11,6.92-1.51,1.99-1.39,3.35-3.41,4.09-6.05,.12-.33,.33-.59,.63-.78,.3-.2,.69-.22,1.15-.09l15.32,3.08c.92,.27,1.31,.67,1.16,1.2-1.32,4.75-3.6,8.78-6.83,12.09-3.24,3.3-7.17,5.66-11.82,7.07-4.64,1.41-9.65,1.72-15.04,.93-7.4-1.09-12.96-3.95-16.67-8.59h0Z"/><path class="cls-1" d="M445.46,75.03c-.14-.33-.1-.72,.12-1.14l30.24-61.87c.22-.43,.5-.73,.85-.9,.34-.17,.74-.18,1.19-.02l14.76,5.08c.45,.15,.74,.4,.88,.73s.09,.72-.12,1.14l-23.36,47.84c-.13,.39-.04,.63,.28,.74l28.84,9.92c.45,.15,.74,.4,.88,.73s.09,.72-.12,1.14l-5.89,12.1c-.22,.43-.52,.72-.9,.88-.38,.16-.79,.16-1.24,0l-45.53-15.66c-.45-.15-.74-.4-.88-.73v.02Z"/><path class="cls-1" d="M496.68,93.87c-.09-.35,0-.72,.27-1.12l38.08-57.37c.27-.4,.59-.65,.96-.78,.36-.12,.76-.08,1.19,.14l13.96,6.97c.42,.21,.68,.49,.78,.84,.09,.35,0,.72-.27,1.12l-37.99,57.42c-.27,.4-.61,.65-1,.75-.4,.11-.81,.05-1.23-.16l-13.96-6.97c-.43-.21-.69-.49-.78-.84h-.01Z"/><path class="cls-1" d="M598.56,78.83c1.23,5.86-.12,11.68-4.07,17.47-.77,1.12-1.67,2.27-2.72,3.45l-13.22,15.06c-3.93,4.56-8.58,7.61-13.94,9.14s-10.83,1.43-16.39-.31c-.36-.08-.61,0-.77,.22l-4.89,5.55c-.32,.35-.69,.56-1.1,.61s-.81-.06-1.2-.32l-12.9-8.79c-.39-.27-.61-.58-.66-.94-.04-.36,.1-.72,.42-1.07l4.84-5.47c.21-.19,.23-.46,.07-.82-2.92-3.8-4.43-7.87-4.51-12.21-.09-4.34,1.3-8.62,4.18-12.83,.96-1.4,1.74-2.43,2.35-3.09l13.23-15.06c3.57-4.15,7.65-7.15,12.24-9,4.59-1.85,9.33-2.49,14.21-1.92,4.88,.57,9.51,2.35,13.89,5.33,6.07,4.14,9.72,9.13,10.95,14.99h-.01Zm-48.81,15.75c-.29,.3-.64,.76-1.06,1.38-1.42,2.08-2,4.09-1.76,6.02,.24,1.94,1.26,3.52,3.06,4.74,2.08,1.42,4.37,1.89,6.87,1.41,2.5-.47,4.74-1.85,6.71-4.13l13.51-15.48c.29-.3,.64-.76,1.06-1.38,1.42-2.08,2-4.09,1.76-6.02-.25-1.94-1.29-3.54-3.15-4.8-2.08-1.42-4.37-1.87-6.86-1.34-2.5,.52-4.71,1.9-6.63,4.12l-13.51,15.48h0Z"/><path class="cls-1" d="M574.95,138.59c-.28-5.87,1.97-11.18,6.74-15.93,.58-.58,1.49-1.39,2.75-2.45l35.9-27.84c.38-.29,.77-.43,1.15-.43s.75,.17,1.08,.51l11.01,11.06c.33,.34,.49,.69,.47,1.05-.03,.36-.23,.68-.62,.97l-35.83,27.91c-.29,.19-.7,.55-1.23,1.08-1.64,1.63-2.47,3.4-2.5,5.3-.03,1.9,.77,3.67,2.41,5.31,1.77,1.78,3.88,2.71,6.31,2.79,2.43,.08,4.75-.75,6.96-2.48l35.83-27.91c.38-.29,.78-.42,1.19-.39s.76,.18,1.04,.47l11.09,11.13c.29,.29,.42,.61,.39,.97-.03,.36-.23,.68-.61,.97l-35.83,27.91c-4.04,3.17-8.41,5.14-13.1,5.92s-9.31,.39-13.85-1.18c-4.54-1.57-8.71-4.26-12.5-8.07-5.23-5.25-7.99-10.81-8.26-16.68h0Z"/><path class="cls-1" d="M683.37,192.52c-.38-.07-.7-.3-.97-.7l-16.64-24.33c-.19-.28-.49-.36-.91-.24l-8.38,4.37c-.38,.17-.45,.43-.22,.77l10.31,15.07c.23,.34,.3,.68,.21,1.03-.09,.35-.35,.63-.78,.84l-11.87,6.14c-.43,.21-.84,.28-1.21,.21-.38-.07-.7-.3-.97-.7l-10.31-15.07c-.23-.34-.51-.39-.85-.16l-9.34,4.78c-.34,.23-.41,.48-.22,.77l16.64,24.33c.27,.39,.36,.76,.27,1.11-.09,.35-.35,.63-.78,.84l-11.95,6.2c-.43,.21-.85,.27-1.24,.17-.4-.1-.71-.32-.94-.65l-26.66-38.98c-.27-.39-.36-.76-.27-1.11,.09-.35,.35-.63,.78-.84l61.19-31.59c.43-.21,.84-.28,1.21-.21,.38,.07,.7,.3,.97,.7l26.66,38.98c.23,.34,.3,.68,.21,1.03-.09,.35-.35,.63-.78,.84l-11.95,6.2c-.43,.21-.84,.28-1.21,.21h0Z"/><path class="cls-1" d="M635.77,220.18c.15-.33,.46-.56,.92-.69l14.24-4.41c.56-.25,1.24-.22,2.05,.08l46.5,15.29c.27,.1,.45,.09,.55-.02,.09-.12,.09-.3-.02-.55l-11.28-25.01c-.2-.43-.22-.82-.07-1.14,.15-.33,.46-.56,.92-.69l12.85-4c.46-.13,.88-.12,1.25,.05s.64,.44,.81,.81l19.58,43.42c.2,.43,.22,.81,.07,1.14-.15,.33-.46,.56-.92,.69l-14.14,4.36c-.8,.21-1.52,.2-2.14-.04l-46.63-15.57c-.24-.04-.42-.02-.53,.07-.11,.09-.11,.25,0,.5l11.4,25.29c.17,.37,.17,.72,.03,1.05-.15,.33-.46,.56-.92,.69l-12.85,4c-.46,.13-.87,.13-1.23,0-.36-.14-.64-.42-.83-.86l-19.58-43.42c-.17-.37-.18-.72-.03-1.05h0Z"/><path class="cls-1" d="M662.8,288.49c.21-.29,.55-.46,1.03-.51l68.46-7.43c.48-.04,.88,.04,1.21,.24,.33,.2,.54,.53,.65,1l3.58,15.19c.11,.46,.06,.84-.15,1.14-.21,.29-.56,.46-1.03,.51l-68.44,7.53c-.48,.04-.89-.05-1.22-.29-.34-.24-.56-.59-.67-1.05l-3.58-15.19c-.11-.46-.06-.84,.15-1.14h0Z"/><path class="cls-1" d="M674.89,319.36c3.61-4.72,8.81-7.4,15.58-8.04,1.76-.17,3.09-.23,3.98-.17l20.75,.58c5.2,.12,9.9,1.36,14.08,3.73,4.19,2.37,7.57,5.63,10.15,9.79s4.13,8.95,4.65,14.36c.72,7.51-.61,13.63-3.99,18.36-3.38,4.73-8.28,7.4-14.71,8.01-.68,.06-1.83,.11-3.47,.13-.27,.03-.52-.1-.75-.39s-.4-.63-.51-1.03l-2.51-15.64-.03-.3c-.08-.81,.26-1.19,1.02-1.12,.34,.03,.86,.02,1.53-.04,2.37-.23,4.17-1.08,5.39-2.56,1.22-1.48,1.72-3.41,1.5-5.78-.25-2.64-1.29-4.78-3.12-6.41-1.83-1.64-4.15-2.49-6.96-2.56l-22.08-.56c-.35-.04-.86-.02-1.53,.04-2.3,.22-4.06,1.09-5.28,2.6-1.22,1.52-1.72,3.43-1.5,5.73,.25,2.64,1.29,4.76,3.12,6.36,1.83,1.6,4.11,2.44,6.85,2.52,.34,.03,.65,.18,.91,.43,.26,.25,.38,.61,.36,1.09l.67,15.61c-.05,.96-.34,1.43-.89,1.42-4.93-.15-9.39-1.39-13.37-3.75-3.98-2.35-7.21-5.61-9.69-9.78s-3.98-8.96-4.5-14.38c-.71-7.45,.74-13.53,4.36-18.24h0Z"/><path class="cls-1" d="M673.5,369.59c.28-.23,.66-.3,1.13-.21l67.95,11.15c.47,.08,.84,.27,1.1,.55,.26,.28,.38,.66,.36,1.14l-.62,15.59c-.02,.47-.17,.83-.45,1.05-.28,.23-.66,.3-1.13,.21l-67.96-11.05c-.47-.09-.84-.29-1.1-.6-.26-.32-.38-.71-.36-1.19l.61-15.59c.02-.48,.17-.83,.45-1.05h.02Z"/></g><g><path class="cls-1" d="M346.73,674c3.72,4.64,5.08,10.32,4.09,17.05-.26,1.75-.52,3.05-.78,3.91l-5.52,20.01c-1.36,5.02-3.69,9.29-6.99,12.79s-7.28,6.01-11.93,7.52c-4.66,1.51-9.67,1.88-15.06,1.08-7.47-1.1-13.09-3.85-16.88-8.26-3.78-4.41-5.21-9.8-4.27-16.2,.1-.67,.33-1.81,.71-3.4,.04-.27,.23-.48,.56-.64,.33-.16,.71-.24,1.12-.25l15.79,1.29,.3,.04c.81,.12,1.09,.54,.85,1.26-.12,.33-.22,.83-.32,1.5-.35,2.35,.05,4.3,1.2,5.85,1.15,1.54,2.9,2.49,5.25,2.84,2.62,.39,4.95-.12,6.97-1.5,2.03-1.39,3.41-3.43,4.15-6.14l5.82-21.31c.12-.33,.23-.83,.32-1.5,.34-2.29-.08-4.21-1.27-5.75-1.18-1.55-2.92-2.49-5.2-2.83-2.62-.39-4.93,.12-6.92,1.51-1.99,1.39-3.35,3.41-4.09,6.05-.12,.33-.33,.59-.63,.78-.3,.2-.68,.22-1.15,.09l-15.32-3.08c-.92-.27-1.31-.67-1.16-1.2,1.32-4.75,3.6-8.79,6.83-12.09,3.24-3.3,7.17-5.66,11.81-7.08,4.64-1.41,9.65-1.72,15.04-.93,7.4,1.09,12.96,3.95,16.68,8.59h0Z"/><path class="cls-1" d="M298.84,661.75c.14,.33,.1,.71-.12,1.14l-30.23,61.87c-.22,.43-.5,.73-.85,.9-.34,.17-.74,.18-1.19,.02l-14.76-5.07c-.45-.16-.74-.4-.88-.73-.14-.34-.09-.72,.12-1.14l23.36-47.84c.13-.39,.04-.63-.28-.75l-28.84-9.92c-.45-.15-.74-.4-.88-.73-.14-.33-.09-.72,.12-1.14l5.89-12.1c.22-.43,.52-.72,.9-.88,.38-.16,.79-.16,1.24,0l45.53,15.66c.45,.16,.74,.4,.88,.73v-.02Z"/><path class="cls-1" d="M247.62,642.91c.09,.35,0,.72-.27,1.12l-38.08,57.38c-.27,.4-.59,.65-.96,.78-.36,.12-.76,.08-1.19-.14l-13.97-6.96c-.42-.21-.68-.49-.78-.84-.09-.35,0-.72,.27-1.12l37.99-57.42c.27-.39,.61-.65,1-.75,.4-.11,.81-.05,1.23,.16l13.97,6.96c.43,.21,.68,.49,.78,.84h.01Z"/><path class="cls-1" d="M145.74,657.97c-1.23-5.86,.12-11.68,4.07-17.47,.77-1.12,1.67-2.28,2.72-3.45l13.22-15.06c3.93-4.56,8.58-7.61,13.94-9.14s10.83-1.43,16.39,.31c.36,.08,.61,0,.77-.22l4.89-5.55c.32-.35,.69-.56,1.1-.61s.81,.06,1.2,.32l12.9,8.79c.39,.27,.61,.58,.66,.94,.04,.36-.1,.72-.42,1.07l-4.84,5.47c-.21,.19-.23,.46-.07,.82,2.92,3.8,4.43,7.87,4.52,12.21,.09,4.34-1.3,8.62-4.18,12.83-.96,1.4-1.74,2.43-2.35,3.09l-13.22,15.06c-3.57,4.15-7.65,7.15-12.24,9-4.59,1.85-9.33,2.49-14.21,1.92s-9.51-2.35-13.89-5.33c-6.07-4.14-9.72-9.13-10.95-14.99h-.01Zm48.81-15.75c.29-.3,.64-.76,1.06-1.38,1.42-2.08,2-4.09,1.76-6.02-.24-1.94-1.26-3.52-3.06-4.74-2.08-1.42-4.37-1.89-6.88-1.41-2.5,.47-4.74,1.85-6.7,4.13l-13.51,15.48c-.29,.3-.64,.76-1.06,1.38-1.42,2.08-2,4.09-1.76,6.02,.25,1.94,1.29,3.54,3.15,4.8,2.08,1.42,4.37,1.87,6.86,1.34,2.5-.52,4.71-1.9,6.63-4.12l13.51-15.48h0Z"/><path class="cls-1" d="M169.35,598.2c.28,5.87-1.97,11.18-6.74,15.93-.58,.58-1.49,1.39-2.75,2.45l-35.9,27.85c-.38,.29-.77,.43-1.15,.43s-.75-.17-1.08-.51l-11.01-11.06c-.33-.34-.49-.69-.47-1.05,.03-.36,.23-.68,.62-.97l35.83-27.92c.29-.19,.7-.55,1.23-1.08,1.64-1.63,2.47-3.4,2.5-5.3,.03-1.9-.77-3.67-2.41-5.3-1.77-1.78-3.88-2.71-6.31-2.79-2.43-.08-4.75,.75-6.96,2.47l-35.83,27.92c-.38,.29-.78,.42-1.19,.39-.41-.03-.76-.18-1.04-.47l-11.09-11.13c-.29-.29-.42-.61-.4-.97,.03-.36,.23-.69,.62-.97l35.83-27.92c4.04-3.17,8.41-5.14,13.1-5.93s9.31-.39,13.85,1.18c4.54,1.57,8.71,4.26,12.5,8.06,5.23,5.25,7.99,10.81,8.26,16.68h0Z"/><path class="cls-1" d="M60.92,544.28c.38,.07,.7,.3,.97,.7l16.64,24.33c.19,.28,.5,.36,.91,.24l8.38-4.37c.38-.17,.45-.43,.22-.77l-10.31-15.07c-.23-.34-.3-.68-.21-1.03,.09-.35,.35-.63,.78-.84l11.87-6.14c.43-.21,.84-.28,1.21-.21,.38,.07,.7,.3,.97,.7l10.31,15.07c.23,.34,.51,.39,.85,.16l9.34-4.78c.34-.23,.41-.49,.22-.77l-16.64-24.33c-.27-.39-.36-.76-.27-1.11,.09-.35,.35-.63,.78-.84l11.95-6.2c.43-.21,.85-.27,1.24-.17,.4,.1,.71,.32,.94,.65l26.66,38.98c.27,.39,.36,.76,.27,1.11s-.35,.63-.78,.84l-61.19,31.59c-.43,.21-.83,.28-1.21,.21s-.7-.3-.97-.7l-26.66-38.98c-.23-.34-.3-.68-.21-1.03,.09-.35,.35-.63,.78-.84l11.95-6.2c.43-.21,.84-.28,1.21-.21h0Z"/><path class="cls-1" d="M108.51,516.59c-.15,.33-.46,.56-.92,.69l-14.24,4.41c-.56,.25-1.24,.22-2.05-.08l-46.5-15.29c-.27-.1-.45-.09-.55,.02-.09,.12-.09,.3,.02,.55l11.28,25.01c.2,.43,.22,.82,.07,1.14-.15,.33-.46,.56-.92,.69l-12.85,4c-.46,.13-.88,.12-1.25-.05s-.64-.44-.81-.81l-19.58-43.42c-.2-.43-.22-.81-.07-1.14,.15-.33,.46-.56,.92-.69l14.14-4.36c.8-.21,1.52-.2,2.14,.04l46.63,15.56c.24,.04,.42,.02,.53-.07s.11-.25,0-.5l-11.4-25.29c-.17-.37-.17-.72-.03-1.05,.15-.33,.46-.56,.92-.69l12.85-4c.46-.13,.87-.13,1.23,0,.36,.14,.64,.42,.83,.86l19.58,43.42c.17,.37,.18,.72,.03,1.05h0Z"/><path class="cls-1" d="M81.47,448.28c-.21,.29-.55,.46-1.03,.51l-68.46,7.43c-.48,.04-.88-.04-1.21-.24-.33-.2-.54-.53-.65-1l-3.58-15.19c-.11-.46-.06-.84,.15-1.14,.21-.29,.56-.46,1.03-.5l68.44-7.53c.48-.04,.89,.05,1.22,.29,.34,.24,.56,.59,.67,1.05l3.58,15.19c.11,.46,.06,.84-.15,1.14h-.01Z"/><path class="cls-1" d="M69.38,417.41c-3.61,4.72-8.81,7.4-15.58,8.04-1.76,.17-3.09,.23-3.98,.17l-20.75-.58c-5.2-.12-9.9-1.36-14.08-3.73-4.19-2.37-7.57-5.63-10.15-9.79-2.58-4.16-4.13-8.95-4.65-14.36-.72-7.51,.61-13.63,3.99-18.36,3.38-4.73,8.28-7.4,14.71-8.01,.68-.06,1.83-.11,3.47-.13,.27-.03,.52,.1,.75,.39s.4,.63,.51,1.03l2.51,15.64,.03,.3c.08,.81-.26,1.19-1.02,1.12-.34-.03-.86-.02-1.53,.04-2.37,.22-4.17,1.08-5.39,2.56s-1.72,3.41-1.5,5.78c.25,2.64,1.29,4.78,3.12,6.41,1.83,1.64,4.15,2.49,6.96,2.57l22.08,.56c.35,.04,.86,.02,1.53-.04,2.3-.22,4.06-1.09,5.28-2.6,1.22-1.52,1.72-3.42,1.5-5.73-.25-2.64-1.29-4.76-3.12-6.36-1.83-1.6-4.11-2.44-6.85-2.52-.34-.03-.65-.18-.91-.43s-.38-.61-.36-1.09l-.67-15.61c.05-.96,.34-1.43,.89-1.42,4.93,.15,9.39,1.39,13.37,3.75,3.98,2.35,7.21,5.61,9.69,9.78,2.48,4.17,3.98,8.96,4.5,14.38,.71,7.45-.74,13.53-4.36,18.24h.01Z"/><path class="cls-1" d="M70.77,367.21c-.28,.23-.66,.3-1.13,.21L1.69,356.27c-.47-.09-.84-.27-1.1-.55-.26-.28-.38-.66-.36-1.14l.61-15.59c.02-.47,.17-.83,.45-1.05,.28-.23,.66-.3,1.13-.21l67.96,11.04c.47,.09,.84,.29,1.1,.61,.26,.32,.38,.71,.36,1.19l-.61,15.59c-.02,.48-.17,.83-.45,1.05h-.01Z"/></g></g></g></svg>