<svg width="34" height="54" viewBox="0 0 34 54" fill="none" xmlns="http://www.w3.org/2000/svg">
<g clip-path="url(#clip0_150_409)">
<path d="M17.2095 18.1088H28.6825V23.003H14.8021C14.0802 24.7323 13.6097 26.1647 13.3551 27C13.6161 27.8614 14.1092 29.3558 14.8698 31.1601H28.8436V36.0544H17.3062C20.5579 41.6208 25.9045 47.4743 34 47.4743V54C25.4372 54 17.9991 49.3733 12.4914 40.6224C11.5117 39.066 10.677 37.5129 9.97763 36.0544H0.161137V31.1601H7.93119C7.23185 29.2057 6.90635 27.9103 6.87412 27.7961L6.67754 27L6.87412 26.2039C6.90313 26.0929 7.21251 24.8694 7.86995 23.003H0V18.1088H9.90028C10.6157 16.6013 11.4762 14.9895 12.4914 13.3776C17.9991 4.62671 25.4372 0 34 0V6.52568C25.8271 6.52568 20.4548 12.4934 17.2095 18.1088Z" fill="white"/>
</g>
<defs>
<clipPath id="clip0_150_409">
<rect width="34" height="54" fill="white"/>
</clipPath>
</defs>
</svg>
