<svg width="93" height="398" viewBox="0 0 93 398" fill="none" xmlns="http://www.w3.org/2000/svg">
<path d="M29.3115 61.1051L29.3115 335.945H92.6435L92.6435 61.1051H29.3115Z" fill="#ECA380"/>
<path d="M29.2242 210.053C34.766 209.129 39.0156 204.321 39.0301 198.525C39.0156 192.729 34.7709 187.921 29.2242 186.997V141.498L28.7789 142.05C21.5382 150.99 15.3526 161.11 9.87853 172.987C6.96482 179.295 4.3512 185.773 2.1151 192.236C1.73274 193.334 1.34553 194.427 0.953488 195.521L0.271042 197.432C0.0726006 198.012 0 198.211 0 198.52C0 198.83 0.0774407 199.023 0.271042 199.609L0.953488 201.52C1.34553 202.613 1.73274 203.706 2.1151 204.804C4.3512 211.268 6.96482 217.745 9.87853 224.054C15.3526 235.93 21.5382 246.051 28.7789 254.991L29.2242 255.542V210.044V210.053ZM36.8763 198.525C36.8618 203.15 33.5512 207.015 29.1709 207.891V203.266L24.4277 198.525L29.1709 193.784V189.159C33.5512 190.035 36.8618 193.9 36.8763 198.525ZM27.0171 192.894L21.3833 198.525L27.0171 204.156V208.065C21.8625 207.92 17.7146 203.706 17.6952 198.525C17.7146 193.344 21.8625 189.13 27.0171 188.985V192.894ZM22.5401 229.796C18.5906 222.496 13.1262 211.147 9.46712 198.525C13.1214 185.903 18.5906 174.554 22.5401 167.254C23.8372 164.932 25.6232 161.729 26.9929 159.552L27.0171 186.837C20.6767 186.982 15.5607 192.163 15.5462 198.525C15.5656 204.891 20.6815 210.073 27.0171 210.213L26.9929 237.498C25.6232 235.321 23.8372 232.118 22.5401 229.796Z" fill="#182649"/>
<path d="M29.3164 61.1051V32.3594C29.3164 7.93385 61.0138 0 61.0138 0C61.0138 0 92.6484 7.93868 92.6484 32.3594V61.1051H29.3164Z" fill="#ECA380"/>
<path d="M92.6484 335.945V364.691C92.6484 389.116 60.9509 397.05 60.9509 397.05C60.9509 397.05 29.3164 389.111 29.3164 364.691V335.945H92.6484Z" fill="#ECA380"/>
<path d="M44.9951 86.7597C44.9951 86.493 45.1285 86.3597 45.3951 86.3597L72.5951 86.3597C72.8618 86.3597 72.9951 86.493 72.9951 86.7597L72.9951 89.7997C72.9951 90.0664 72.8618 90.1997 72.5951 90.1997L45.3951 90.1997C45.1285 90.1997 44.9951 90.0664 44.9951 89.7997L44.9951 86.7597ZM72.5951 113.23C72.8618 113.23 72.9951 113.364 72.9951 113.63L72.9951 116.67C72.9951 116.937 72.8618 117.07 72.5951 117.07L45.3951 117.07C45.1284 117.07 44.9951 116.937 44.9951 116.67L44.9951 113.75C44.9951 113.564 45.0884 113.404 45.2751 113.27L65.7151 100.75C65.7951 100.724 65.8218 100.684 65.7951 100.63C65.7951 100.577 65.7551 100.55 65.6751 100.55L45.3951 100.59C45.1284 100.59 44.9951 100.457 44.9951 100.19L44.9951 97.1503C44.9951 96.8837 45.1284 96.7503 45.3951 96.7503L72.5951 96.7503C72.8618 96.7503 72.9951 96.8837 72.9951 97.1503L72.9951 100.11C72.9951 100.297 72.9018 100.457 72.7151 100.59L52.2751 113.07C52.1951 113.097 52.1551 113.137 52.1551 113.19C52.1818 113.244 52.2351 113.27 52.3151 113.27L72.5951 113.23ZM44.6751 132.304C44.6751 130.251 44.9951 128.464 45.6351 126.944C46.2751 125.451 47.1818 124.291 48.3551 123.464C49.5284 122.664 50.9018 122.264 52.4751 122.264L53.6351 122.264C53.9018 122.264 54.0351 122.398 54.0351 122.664L54.0351 125.584C54.0351 125.851 53.9018 125.984 53.6351 125.984L52.6751 125.984C51.3151 125.984 50.1951 126.571 49.3151 127.744C48.4351 128.918 47.9951 130.531 47.9951 132.584C47.9951 134.424 48.3818 135.811 49.1551 136.744C49.9284 137.678 50.9418 138.144 52.1951 138.144C53.0218 138.144 53.7284 137.904 54.3151 137.424C54.9018 136.944 55.4351 136.238 55.9151 135.304C56.4218 134.398 57.0218 133.064 57.7151 131.304C58.4618 129.358 59.1418 127.811 59.7551 126.664C60.3684 125.544 61.1684 124.611 62.1551 123.864C63.1684 123.118 64.4351 122.744 65.9551 122.744C68.2484 122.744 70.0484 123.558 71.3551 125.184C72.6618 126.838 73.3151 129.064 73.3151 131.864C73.3151 133.838 72.9818 135.571 72.3151 137.064C71.6484 138.558 70.7151 139.704 69.5151 140.504C68.3151 141.331 66.9284 141.744 65.3551 141.744L64.5551 141.744C64.2884 141.744 64.1551 141.611 64.1551 141.344L64.1551 138.344C64.1551 138.078 64.2884 137.944 64.5551 137.944L65.1551 137.944C66.5418 137.944 67.6885 137.384 68.5951 136.264C69.5284 135.171 69.9951 133.651 69.9951 131.704C69.9951 130.051 69.6484 128.771 68.9551 127.864C68.2884 126.958 67.3151 126.504 66.0351 126.504C65.1551 126.504 64.4351 126.731 63.8751 127.184C63.3151 127.638 62.8084 128.304 62.3551 129.184C61.9284 130.091 61.3684 131.464 60.6751 133.304C59.9284 135.198 59.2351 136.731 58.5951 137.904C57.9818 139.078 57.1551 140.051 56.1151 140.824C55.1018 141.598 53.8351 141.984 52.3151 141.984C49.9684 141.984 48.1018 141.118 46.7151 139.384C45.3551 137.678 44.6751 135.318 44.6751 132.304ZM44.6351 156.18C44.6351 154.26 45.0084 152.553 45.7551 151.06C46.5284 149.593 47.6084 148.447 48.9951 147.62C50.4084 146.82 52.0218 146.42 53.8351 146.42L64.1951 146.42C66.0084 146.42 67.5951 146.82 68.9551 147.62C70.3418 148.447 71.4084 149.593 72.1551 151.06C72.9284 152.553 73.3151 154.26 73.3151 156.18C73.3151 158.1 72.9418 159.793 72.1951 161.26C71.4751 162.727 70.4484 163.86 69.1151 164.66C67.7818 165.487 66.2351 165.9 64.4751 165.9L64.4351 165.9C64.3018 165.9 64.1951 165.86 64.1151 165.78C64.0351 165.7 63.9951 165.607 63.9951 165.5L63.8351 162.46C63.8351 162.193 63.9551 162.06 64.1951 162.06L64.3151 162.06C66.0218 162.06 67.3951 161.527 68.4351 160.46C69.4751 159.393 69.9951 157.967 69.9951 156.18C69.9951 154.393 69.4751 152.953 68.4351 151.86C67.3951 150.793 66.0218 150.26 64.3151 150.26L53.6751 150.26C51.9684 150.26 50.5951 150.793 49.5551 151.86C48.5151 152.953 47.9951 154.393 47.9951 156.18C47.9951 157.967 48.5151 159.393 49.5551 160.46C50.5951 161.527 51.9684 162.06 53.6751 162.06L53.7551 162.06C53.9951 162.06 54.1151 162.193 54.1151 162.46L53.9551 165.5C53.9551 165.767 53.8218 165.9 53.5551 165.9C51.7951 165.9 50.2351 165.487 48.8751 164.66C47.5418 163.86 46.5018 162.727 45.7551 161.26C45.0084 159.793 44.6351 158.1 44.6351 156.18ZM44.9951 187.437C44.9951 187.224 45.0884 187.077 45.2751 186.997L57.2351 181.397C57.3151 181.37 57.3551 181.317 57.3551 181.237L57.3551 175.477C57.3551 175.37 57.3018 175.317 57.1951 175.317L45.3951 175.317C45.1284 175.317 44.9951 175.184 44.9951 174.917L44.9951 171.877C44.9951 171.61 45.1284 171.477 45.3951 171.477L72.5951 171.477C72.8618 171.477 72.9951 171.61 72.9951 171.877L72.9951 182.637C72.9951 184.237 72.6618 185.637 71.9951 186.837C71.3284 188.064 70.3951 189.01 69.1951 189.677C67.9951 190.344 66.6084 190.677 65.0351 190.677C63.1684 190.677 61.5818 190.184 60.2751 189.197C58.9951 188.237 58.1284 186.89 57.6751 185.157C57.6218 185.05 57.5551 185.024 57.4751 185.077L45.4751 190.877C45.4218 190.904 45.3551 190.917 45.2751 190.917C45.0884 190.917 44.9951 190.81 44.9951 190.597L44.9951 187.437ZM69.6751 175.477C69.6751 175.37 69.6218 175.317 69.5151 175.317L60.5551 175.317C60.4484 175.317 60.3951 175.37 60.3951 175.477L60.3951 182.157C60.3951 183.57 60.8084 184.704 61.6351 185.557C62.4884 186.41 63.6084 186.837 64.9951 186.837C66.4084 186.837 67.5418 186.41 68.3951 185.557C69.2484 184.704 69.6751 183.57 69.6751 182.157L69.6751 175.477ZM44.9951 196.408C44.9951 196.141 45.1284 196.008 45.3951 196.008L72.5951 196.008C72.8618 196.008 72.9951 196.141 72.9951 196.408L72.9951 199.448C72.9951 199.715 72.8618 199.848 72.5951 199.848L45.3951 199.848C45.1284 199.848 44.9951 199.715 44.9951 199.448L44.9951 196.408ZM73.0351 217.359C73.0351 218.985 72.6884 220.412 71.9951 221.639C71.3284 222.892 70.3818 223.852 69.1551 224.519C67.9284 225.212 66.5151 225.559 64.9151 225.559C63.3151 225.559 61.9151 225.212 60.7151 224.519C59.5151 223.825 58.5818 222.839 57.9151 221.559C57.2484 220.305 56.9151 218.852 56.9151 217.199L56.9151 210.159C56.9151 210.052 56.8618 209.999 56.7551 209.999L45.3951 209.999C45.1284 209.999 44.9951 209.865 44.9951 209.599L44.9951 206.559C44.9951 206.292 45.1284 206.159 45.3951 206.159L72.6351 206.159C72.9018 206.159 73.0351 206.292 73.0351 206.559L73.0351 217.359ZM60.0351 216.839C60.0351 218.305 60.4751 219.479 61.3551 220.359C62.2351 221.265 63.3951 221.719 64.8351 221.719C66.3018 221.719 67.4751 221.265 68.3551 220.359C69.2618 219.479 69.7151 218.305 69.7151 216.839L69.7151 210.159C69.7151 210.052 69.6618 209.999 69.5551 209.999L60.1951 209.999C60.0884 209.999 60.0351 210.052 60.0351 210.159L60.0351 216.839ZM72.9951 247.91C72.9951 248.176 72.8618 248.31 72.5951 248.31L70.0351 248.31C69.7684 248.31 69.6351 248.176 69.6351 247.91L69.6351 240.23C69.6351 240.123 69.5818 240.07 69.4751 240.07L45.3951 240.07C45.1284 240.07 44.9951 239.936 44.9951 239.67L44.9951 236.63C44.9951 236.363 45.1284 236.23 45.3951 236.23L69.4751 236.23C69.5818 236.23 69.6351 236.176 69.6351 236.07L69.6351 228.75C69.6351 228.483 69.7684 228.35 70.0351 228.35L72.5951 228.35C72.8618 228.35 72.9951 228.483 72.9951 228.75L72.9951 247.91ZM44.9951 253.478C44.9951 253.212 45.1284 253.078 45.3951 253.078L72.5951 253.078C72.8618 253.078 72.9951 253.212 72.9951 253.478L72.9951 256.518C72.9951 256.785 72.8618 256.918 72.5951 256.918L45.3951 256.918C45.1284 256.918 44.9951 256.785 44.9951 256.518L44.9951 253.478ZM44.6351 272.589C44.6351 270.642 45.0351 268.922 45.8351 267.429C46.6351 265.936 47.7551 264.776 49.1951 263.949C50.6618 263.122 52.3418 262.709 54.2351 262.709L63.7551 262.709C65.6484 262.709 67.3151 263.122 68.7551 263.949C70.1951 264.776 71.3151 265.936 72.1151 267.429C72.9151 268.922 73.3151 270.642 73.3151 272.589C73.3151 274.562 72.9151 276.296 72.1151 277.789C71.3151 279.282 70.1951 280.442 68.7551 281.269C67.3151 282.096 65.6484 282.509 63.7551 282.509L54.2351 282.509C52.3418 282.509 50.6618 282.096 49.1951 281.269C47.7551 280.442 46.6351 279.282 45.8351 277.789C45.0351 276.296 44.6351 274.562 44.6351 272.589ZM47.9551 272.589C47.9551 274.402 48.5151 275.869 49.6351 276.989C50.7551 278.109 52.2351 278.669 54.0751 278.669L63.7951 278.669C65.6618 278.669 67.1551 278.109 68.2751 276.989C69.4218 275.869 69.9951 274.402 69.9951 272.589C69.9951 270.776 69.4218 269.309 68.2751 268.189C67.1551 267.096 65.6618 266.549 63.7951 266.549L54.0751 266.549C52.2351 266.549 50.7551 267.096 49.6351 268.189C48.5151 269.309 47.9551 270.776 47.9551 272.589ZM72.5951 304.832C72.8618 304.832 72.9951 304.965 72.9951 305.232L72.9951 308.272C72.9951 308.539 72.8618 308.672 72.5951 308.672L45.3951 308.672C45.1284 308.672 44.9951 308.539 44.9951 308.272L44.9951 305.352C44.9951 305.165 45.0884 305.005 45.2751 304.872L65.7151 292.352C65.7951 292.325 65.8218 292.285 65.7951 292.232C65.7951 292.179 65.7551 292.152 65.6751 292.152L45.3951 292.192C45.1284 292.192 44.9951 292.059 44.9951 291.792L44.9951 288.752C44.9951 288.485 45.1284 288.352 45.3951 288.352L72.5951 288.352C72.8618 288.352 72.9951 288.485 72.9951 288.752L72.9951 291.712C72.9951 291.899 72.9018 292.059 72.7151 292.192L52.2751 304.672C52.1951 304.699 52.1551 304.739 52.1551 304.792C52.1818 304.845 52.2351 304.872 52.3151 304.872L72.5951 304.832Z" fill="white"/>
</svg>
