<svg width="1072" height="804" viewBox="0 0 1072 804" fill="none" xmlns="http://www.w3.org/2000/svg">
<path d="M1035.06 10.8192H46.6686C26.8103 10.8192 10.7119 26.9097 10.7119 46.7585V767.093C10.7119 786.942 26.8103 803.032 46.6686 803.032H1035.06C1054.92 803.032 1071.02 786.942 1071.02 767.093V46.7585C1071.02 26.9097 1054.92 10.8192 1035.06 10.8192Z" fill="#ECA380"/>
<path d="M1026.35 2H37.9567C18.0984 2 2 18.0906 2 37.9393V758.274C2 778.123 18.0984 794.213 37.9567 794.213H1026.35C1046.2 794.213 1062.3 778.123 1062.3 758.274V37.9393C1062.3 18.0906 1046.2 2 1026.35 2Z" fill="white" stroke="#182649" stroke-width="4" stroke-miterlimit="10"/>
</svg>
