<?xml version="1.0" encoding="UTF-8"?><svg id="Calque_2" xmlns="http://www.w3.org/2000/svg" viewBox="0 0 621.47 573.61"><defs><style>.cls-1{fill:#87040d;}.cls-2{fill:#161944;}</style></defs><g id="Calque_1-2"><path class="cls-2" d="M621.47,142.81h-99.8c4.64,13.67,9.05,26.67,13.53,39.9-.84,.08-1.5,.18-2.15,.19-10.01,.02-20.03,0-30.04,.08-1.85,.01-2.79-.32-3.44-2.4-3.71-11.93-7.71-23.77-11.49-35.67-.42-1.32-.97-1.88-2.24-1.9-.86-.02-1.73-.05-2.59-.04-20.55,.01-41.09,.07-61.63,0-2.51,0-3.74,.63-4.57,3.25-3.68,11.68-7.63,23.27-11.59,34.86-.28,.82-1.42,1.9-2.17,1.91-10.18,.12-20.37,.08-30.56,.07-.24,0-.47-.16-1.01-.35,.97-3.02,1.9-6.04,2.89-9.03,6.87-20.62,13.73-41.25,20.63-61.86,11.97-35.77,23.97-71.54,35.92-107.32,.54-1.62,1.23-2.29,3.07-2.28,11.91,.06,23.82-.03,35.74-.08,1.44,0,2.94-.27,4.28,.08,.85,.22,1.86,1.21,2.14,2.06,7.87,24.19,15.65,48.41,23.45,72.62,3.6,11.16,7.25,22.31,10.76,33.5,.72,2.29,2.02,2.8,4.19,2.79,30.99-.13,61.98-.19,92.97-.28,4.57-.01,9.14-.08,13.72-.13v30.05Zm-192.99-29.56c1.04,0,1.88,0,2.73,0,14.32-.02,28.64-.03,42.97-.05,3.2,0,3.45-.38,2.5-3.45-1.81-5.83-3.61-11.66-5.39-17.5-3.61-11.86-7.21-23.73-10.82-35.59-2.27-7.47-4.54-14.94-6.83-22.46-1.7,1.19-25.31,75.35-25.16,79.05Z"/><path class="cls-2" d="M211.27,2.62c10.09,0,20.09,.01,30.09,0,13.98-.02,27.97-.32,41.94,0,13.69,.3,26.68,3.8,38.82,10.24,14.9,7.9,26.04,19.55,33.66,34.48,7.01,13.73,10.53,28.36,10.72,43.86,.18,14.94-1.85,29.38-7.83,43.16-4.12,9.48-9.74,17.95-17.26,25.05-11.39,10.75-24.87,17.56-40.16,20.9-8.87,1.94-17.83,2.9-26.91,2.88-20.02-.04-40.05,0-60.07,.01-.93,0-1.85-.08-2.99-.13V2.62Zm32.55,90.25h.09c0,19.33,.03,38.66-.05,58,0,2.06,.57,2.67,2.62,2.65,9.06-.1,18.13-.27,27.18,.01,9.37,.29,18.29-1.83,26.99-4.75,8.42-2.82,15.16-8.34,20.69-15.27,7.12-8.92,10.51-19.39,11.54-30.5,1.37-14.83-.47-29.3-7.82-42.57-9.8-17.69-25.04-27.08-45.13-28.04-10.93-.53-21.92-.06-32.88-.06-3.24,0-3.24-.03-3.24,3.32,0,19.07,0,38.15,0,57.22Z"/><path class="cls-2" d="M113.61,477.21c32.02,0,63.33,0,94.65,0,17.18,0,34.36,.02,51.53,.03,4.57,0,4.93-.15,5.69-4.61,.88-5.18,3.49-9.5,6.66-13.44,8.79-10.93,20.43-16.07,34.27-14.6,14.71,1.57,28.18,11.1,33.31,28.06,.22,.74,.52,1.49,.59,2.25,.16,2.02,1.32,2.44,3.15,2.43,15.28-.03,30.56,.03,45.84,.04,33.66,.02,67.33,.03,100.99,.05,.22,0,.45,.11,1.16,.3-1.88,1.54-3.43,2.92-5.1,4.15-7.84,5.78-15.64,11.63-23.59,17.25-5.16,3.64-10.45,7.15-15.9,10.34-10.7,6.25-21.43,12.47-32.37,18.28-10.47,5.56-21.07,10.95-31.91,15.75-13.92,6.16-28.07,11.85-42.26,17.36-11.34,4.41-22.86,8.37-34.39,12.26-2.03,.68-4.69,.64-6.73-.05-11.51-3.9-23.02-7.83-34.33-12.25-13.52-5.28-26.85-11.07-40.27-16.61-1.09-.45-2.35-.52-3.41-1.02-1.21-.56-2.23-1.52-3.42-2.11-7-3.44-14.02-6.85-21.06-10.23-14.91-7.15-29.02-15.71-42.9-24.63-6.92-4.45-13.84-8.94-20.51-13.75-6.57-4.74-12.83-9.91-19.68-15.25Zm61.34,7.09l-.39,.81c2.01,1.22,4,2.46,6.02,3.66,15.65,9.32,31.75,17.83,48.25,25.52,8.66,4.04,17.47,7.81,26.39,11.24,14.09,5.41,28.34,10.42,42.51,15.61,2.73,1,5.4,1.37,8.29,.34,7.76-2.76,15.66-5.14,23.37-8.01,11.08-4.13,22.16-8.29,33.04-12.91,21.7-9.23,42.58-20.13,62.92-32.07,1.87-1.1,3.69-2.26,5.53-3.4-.98-.67-1.79-.79-2.6-.79-11.22,0-22.44,0-33.66,0-16.74-.01-33.49,0-50.23-.11-2.33-.02-3.36,.83-3.48,3.04-.04,.69-.09,1.38-.17,2.06-1.42,11.25-7.19,20.16-16.25,26.37-9.71,6.65-20.77,8.62-32.38,5.26-11.37-3.29-19.7-10.39-24.56-21.08-2.17-4.78-3.13-10.12-4.73-15.54h-87.89Zm96.65-7.03c4.73,0,8.95-.1,13.16,.06,1.14,.04,2.51,.59,3.32,1.37,4.24,4.04,8.39,8.19,12.46,12.41,1.43,1.48,2.4,1.45,3.81-.02,4.07-4.22,8.21-8.37,12.44-12.44,.76-.73,2.05-1.23,3.11-1.28,3.79-.15,7.59-.09,11.38-.02,1.79,.03,2.42-.76,1.91-2.39-3.82-12.37-12.81-20.51-24.5-22.64-13.23-2.4-24.31,2.09-32.29,13.19-2.4,3.33-4.16,7.05-4.81,11.76Zm31.08,25.59c-5.82-5.79-11.42-11.4-17.08-16.95-.75-.73-1.8-1.56-2.75-1.62-3.35-.21-6.73-.19-10.09-.02-.64,.03-1.75,1.18-1.73,1.79,.05,1.87,.37,3.78,.88,5.59,3.91,13.98,14.83,21.91,27.52,23.46,6.99,.85,13.62-1,19.63-4.81,8.74-5.54,13.65-13.49,15.14-23.68,.27-1.86-.28-2.49-2.16-2.4-2.67,.12-5.36,.13-8.02-.02-2.01-.12-3.41,.64-4.77,2.03-5.43,5.53-10.93,10.99-16.57,16.63Z"/><path class="cls-2" d="M79.19,32.43c1.25-4.96,2.38-9.54,3.55-14.11,1.18-4.59,2.35-9.19,3.68-13.74,.21-.7,1.26-1.65,1.92-1.66,28.92-.1,57.83-.11,86.75-.13,.07,0,.15,.07,.59,.29,0,2.33,.01,4.86,0,7.38-.05,7.76-.19,15.52-.16,23.28,.12,32.36,.37,64.72,.39,97.08,0,12.39-3.22,23.97-10.8,33.96-6.66,8.78-15.63,14.17-26.14,17.48-11.08,3.49-22.39,3.13-33.72,3.14-34.44,.02-68.88,.01-103.32,.02-.59,0-1.19,0-1.92,0v-29.76c4.67,0,9.32,0,13.97,0,33.92-.04,67.85,.24,101.76-.29,12.82-.2,23.25-6.1,26.6-20.46,.68-2.92,1.12-5.97,1.12-8.96,.01-29.61-.1-59.21-.17-88.82,0-.26,0-.52,0-.78-.06-3.95-.06-4.02-3.97-3.94-5.06,.1-10.11,.47-15.17,.45-8.26-.03-16.52-.34-24.78-.43-6.55-.08-13.1-.02-20.16-.02Z"/><path class="cls-2" d="M465.7,460.92c14.16-10.69,27.37-22.2,39.57-34.84,19.08-19.76,34.73-41.81,45.74-67.1,6.16-14.15,10.96-28.73,13.59-43.88,1.82-10.49,3.13-21.19,3.29-31.82,.53-37.02,.48-74.04,.58-111.06,0-2.01,.49-2.69,2.61-2.66,8.11,.11,16.23,.02,24.34,.01,.67,0,1.35,.1,2.33,.17,0,2.65,0,5.2,0,7.75-.02,16.23-.11,32.45-.04,48.68,.06,16.04,.61,32.1,.31,48.13-.21,11-1.26,22-2.36,32.96-1.77,17.58-6.32,34.54-12.43,51.09-8.05,21.81-19.37,41.83-33.27,60.45-11.29,15.12-24.23,28.69-37.93,41.58-.55,.52-1.46,.93-2.2,.94-14.5,.05-29,.04-43.5,.02-.13,0-.26-.17-.62-.42Z"/><path class="cls-2" d="M138.78,460.92s-.49,.1-.97,.1c-13.81,0-27.63,.03-41.44-.08-1.3-.01-2.89-.61-3.84-1.48-20.48-18.87-38.48-39.81-52.72-63.83-12.23-20.61-21.23-42.54-26.54-65.96-3.81-16.78-6.03-33.73-6.04-50.96,0-6.55-.47-13.09-.46-19.64,.03-15.7,.21-31.4,.33-47.1,0-.25,.11-.49,.25-1.1,.87,0,1.79,0,2.71,0,7.68,0,15.37,0,23.05,0q3.45,0,3.46,3.37c.04,23.74-.17,47.48,.26,71.22,.16,8.74,1.65,17.47,2.85,26.16,2.15,15.63,6.59,30.66,12.69,45.19,8.73,20.8,20.67,39.65,35.62,56.48,7.77,8.75,15.95,17.19,24.49,25.18,8.46,7.91,17.61,15.08,26.31,22.44Z"/><path class="cls-2" d="M6.98,1.71c8.79,0,17.59,.07,26.38-.05,2.24-.03,2.26,1.12,2.26,2.75,.04,24.08,.07,48.17,.2,72.25,.09,16.91,.29,33.83,.5,50.74,.04,2.86-.29,3.73-3.62,3.66-7.68-.15-15.37-.05-23.05-.05-.76,0-1.52,0-2.67,0V1.71Z"/><path class="cls-2" d="M569.32,87.63V0h29.48V87.63h-29.48Z"/><path class="cls-1" d="M83.56,296.38c0-4.3,0-8.68,0-13.05-.02-13.1,.02-26.21-.12-39.31-.03-2.37,.73-2.88,2.94-2.83,6.38,.14,12.76,.11,19.14,.01,5.02-.07,9.73,.82,13.55,4.29,1.17,1.07,2.14,2.56,2.72,4.04,2.16,5.54,2.54,13.09-4.05,17.52-1.31,.88-.96,1.32,.22,2.18,7.24,5.28,8.18,16.83,1.9,22.85-2.97,2.84-6.76,4.38-10.73,4.54-8.18,.32-16.38,.13-24.56,.13-.24,0-.47-.17-.98-.36Zm11.1-9.37c4.06,0,7.85,.16,11.63-.05,3.58-.2,6.13-2.69,6.54-5.9,.41-3.25-1.06-6.21-3.8-7.17-4.68-1.63-9.49-.86-14.37-.85v13.96Zm-.13-35.95c0,3.94-.09,7.47,.07,10.99,.03,.71,1.02,1.97,1.53,1.96,3.93-.11,7.9-.21,11.77-.84,3.09-.51,4.32-2.93,4.18-6.7-.1-2.63-1.98-5.14-4.71-5.33-4.17-.29-8.38-.07-12.85-.07Z"/><path class="cls-1" d="M376.1,357.16c0,3.5,0,7.01,0,10.51,0,6.21,.01,12.42,.01,18.63,0,3.89-1.46,5.01-5.33,4.25-1.78-.35-3.6-.5-5.57-.76v-54.37c3.48,0,6.84-.11,10.19,.1,.64,.04,1.31,1.24,1.79,2.02,5.82,9.56,11.61,19.14,17.42,28.71,.49,.81,1.09,1.55,1.64,2.33,.25-.08,.5-.16,.75-.23v-33.44c3.56,0,6.74-.14,9.88,.13,.57,.05,1.42,1.74,1.43,2.67,.11,12.51,.1,25.02,.11,37.53,0,4.23-.04,8.46,.05,12.68,.04,1.87-.41,2.5-2.55,2.79-6.06,.82-9.71-1.14-12.58-6.85-4.19-8.33-9.49-16.09-14.36-24.07-.65-1.06-1.53-1.98-2.3-2.97-.19,.12-.38,.23-.57,.35Z"/><path class="cls-1" d="M471.27,241.31c.23,.68,.65,1.36,.66,2.03,.03,17.51,.01,35.02,0,52.53,0,.16-.1,.32-.27,.8-3.12,0-6.36,.07-9.59-.07-.53-.02-1.15-.9-1.52-1.51-6.18-10.08-12.31-20.18-18.49-30.27-.45-.73-1.09-1.33-1.65-2-.23,.07-.46,.15-.68,.22-.08,.96-.23,1.93-.21,2.89,.14,9.4,.27,18.79,.51,28.18,.05,1.99-.47,2.81-2.59,2.68-2.74-.17-5.5-.04-8.39-.04v-55.67c3.13,0,6.15-.19,9.12,.11,.99,.1,2.13,1.3,2.74,2.29,5.73,9.32,11.35,18.7,17.02,28.06,.68,1.12,1.46,2.17,2.2,3.26,.31-.08,.63-.16,.94-.24v-15.78c.12,1.27,.34,2.54,.35,3.81,.05,3.49,.02,6.98,.02,10.47,.37-9.49,.43-18.97,.33-28.45-.02-2.2,.52-3.12,2.89-2.97,2.19,.14,4.41-.2,6.62-.33Z"/><path class="cls-1" d="M198.89,390.51v-55.63c1.02,0,2,0,2.99,0,6.21,0,12.42-.13,18.62,.03,5.42,.14,10.34,1.66,14.35,5.7,2.82,2.84,4.26,6.1,4.28,10.01,.06,7.93-.02,15.86,.04,23.79,.05,6.93-4.19,13-10.85,14.93-2.44,.71-5.06,1.07-7.61,1.12-7.22,.15-14.45,.05-21.84,.05Zm10.84-27.93c0,5.26,.06,10.52-.03,15.78-.03,1.76,.45,2.5,2.32,2.41,2.75-.14,5.52-.03,8.28-.06,4.16-.05,7.12-1.85,7.44-5.94,.6-7.61,.9-15.31,.36-22.9-.39-5.36-3.41-7.17-8.88-7.26-2.33-.04-4.66,.07-6.99-.03-1.84-.08-2.59,.45-2.54,2.47,.14,5.17,.05,10.35,.04,15.52Z"/><path class="cls-1" d="M409.08,259.9c-.18-4.03-1.36-7.3-4.98-8.96-3.7-1.7-7.39-1.34-10.77,1.03-2.83,1.98-3.57,5.05-3.67,8.17-.19,5.6-.17,11.22-.04,16.83,.14,6.27,2.92,9.66,9.03,10.7,3.15,.54,6.19-.45,8.48-2.83,2.25-2.35,2.02-5.39,1.77-8.32-.03-.4-1.13-.96-1.76-1-2.15-.14-4.32,.02-6.46-.15-.64-.05-1.7-.8-1.74-1.28-.17-2.56-.08-5.13-.08-8.01,6.7,0,13.14-.04,19.57,.08,.53,.01,1.46,1.16,1.5,1.82,.37,7.54,.44,15.08-2.81,22.14-.53,1.16-1.74,2.16-2.87,2.86-4.97,3.11-10.34,4.49-16.31,4.29-5.5-.18-10.04-2.01-13.88-5.8-3.42-3.38-5.06-7.56-5.11-12.31-.07-6.64-.02-13.29-.01-19.94,0-11.21,7.27-17.76,17.39-18.9,8.51-.96,16.26,1.27,21.05,9.06,1.55,2.51,1.86,5.81,2.5,8.8,.09,.43-1.14,1.6-1.81,1.64-2.92,.18-5.85,.08-8.99,.08Z"/><path class="cls-1" d="M310.71,259.88c-.15-.71-.3-1.21-.37-1.72-.7-5.38-4.02-8.25-9.44-8.16-5.28,.09-9.05,3.26-9.26,8.45-.28,6.8-.18,13.62-.1,20.43,.04,3.69,1.91,6.45,5.29,7.93,3.71,1.62,7.4,1.45,10.79-.97,2.23-1.59,3.87-6.4,2.97-9.13-.19-.59-1.38-1.17-2.14-1.21-2.64-.15-5.29-.06-8.15-.06,0-2.88-.11-5.29,.08-7.67,.05-.6,1.08-1.6,1.67-1.61,5.87-.12,11.74-.11,17.61,0,.62,.01,1.76,.85,1.76,1.3,0,6.43,1.08,12.96-1.63,19.16-1.92,4.39-5.03,7.6-9.59,9.16-6.88,2.37-13.72,2.41-20.29-1.09-6.11-3.25-9.08-8.65-9.38-15.34-.31-7.06-.19-14.15-.05-21.23,.17-8.4,6.01-15.12,14.2-17.09,8.72-2.09,16.38-.52,22.66,6.08,2.77,2.91,3.87,6.63,4.22,10.59,.14,1.59-.58,2.18-2.08,2.17-2.84-.02-5.69,0-8.75,0Z"/><path class="cls-1" d="M356.21,363.13c0,3.11,.03,6.21,0,9.32-.13,11.11-8.06,18.46-18.59,19.08-8.61,.5-16.03-1.73-20.44-9.66-1.57-2.83-2.5-6.3-2.7-9.54-.41-6.45-.36-12.95-.07-19.41,.4-8.92,6.37-17.08,16.31-18.2,6.48-.73,12.55-.29,17.98,3.65,4.96,3.61,7.18,8.69,7.47,14.65,.16,3.36,.03,6.73,.03,10.09,0,0,.02,0,.03,0Zm-30.61-.47h.02c0,2.85,.1,5.7-.02,8.54-.26,6.45,3.02,11.16,10.86,10.57,4.34-.33,8.44-3.75,8.6-8.13,.24-6.98,.47-14.01-.04-20.96-.46-6.31-4.57-8.79-9.9-8.71-5.42,.08-9.65,3.72-9.53,9.63,.06,3.02,.01,6.04,.01,9.06Z"/><path class="cls-1" d="M328.89,268.7c.34-4.71,.32-9.48,1.09-14.12,1.18-7.06,5.93-11.64,12.49-13.51,6.09-1.74,12.43-1.44,18.36,1.62,7.46,3.84,10.14,10.37,10.23,18.22,.08,6.63,.04,13.29-.41,19.9-.54,7.83-5.86,13.77-13.41,15.89-5.52,1.54-10.93,1.76-16.3-.64-7.26-3.25-10.88-9.06-11.62-16.72-.34-3.5-.06-7.07-.06-10.61-.12,0-.24-.01-.36-.02Zm31.54,.48c-.13,0-.26-.02-.39-.03,0-3.19,.15-6.39-.03-9.57-.42-7.64-7.49-11.82-14.44-8.56-2.86,1.34-4.94,3.56-5.04,6.84-.21,6.89-.16,13.78-.21,20.67,0,.93-.22,2,.15,2.78,1.82,3.79,4.25,6.65,9.46,6.65,4.76,0,8.3-2.24,9.34-6.8,.88-3.88,.81-7.98,1.16-11.98Z"/><path class="cls-1" d="M131.82,268.43c0-2.76,.13-5.53-.03-8.28-.51-9.03,6.09-17.25,14.85-19.23,8.71-1.97,18.83,.98,23.19,7.41,2.18,3.21,3.51,6.71,3.51,10.63,0,6.47-.04,12.94,0,19.42,.06,9.13-5.33,16.3-14.2,18.56-7.13,1.82-13.97,1.09-19.95-3.43-4.96-3.75-7.31-9-7.37-15.23-.03-3.28,0-6.56,0-9.84Zm31.19,.5c-.36-3.99-.48-8.23-1.19-12.35-.7-3.99-4.66-6.56-9.1-6.51-4.74,.06-9.15,2.8-9.37,6.87-.44,7.87-.53,15.8-.06,23.67,.27,4.6,4.09,7.29,8.57,7.38,5.27,.1,9.19-2.36,10.07-7.01,.73-3.86,.73-7.86,1.08-12.04Z"/><path class="cls-1" d="M223.03,241.18c0,3.96,0,7.65,0,11.34,0,8.37-.19,16.74,.06,25.1,.26,8.7-4.76,17.66-15.57,19.33-8.12,1.25-15.7,.23-21.42-6.49-2.9-3.41-4.17-7.58-4.23-11.94-.16-11.64-.04-23.29-.14-34.94-.02-2,.68-2.53,2.56-2.43,2.75,.14,5.51,.04,8.71,.04,0,1.18,0,2.18,0,3.17,.02,11.39,.01,22.78,.08,34.16,.03,5.13,2.78,8.17,8.23,9.29,3.42,.71,8.22-1.62,9.63-5.09,.76-1.85,1.01-4.02,1.02-6.04,.09-10.87,.12-21.74-.02-32.61-.03-2.5,.76-3.13,3.09-2.93,2.48,.2,4.99,.05,7.99,.05Z"/><path class="cls-1" d="M497.23,250.69q-4.73,.34-4.71,5.29c0,1.73,.07,3.46-.03,5.17-.11,1.8,.63,2.47,2.41,2.44,4.31-.07,8.63-.02,12.94,0,3.29,0,3.44,.15,3.43,3.29q0,6.55-6.59,6.55c-3.36,0-6.73,.06-10.09,.04-1.37,0-2.08,.49-2.06,1.97,.04,3.7,.01,7.39,.01,11.38,1.06,.05,1.97,.13,2.88,.13,7.25,.01,14.49,.08,21.74-.03,2.28-.03,3.37,.56,3.15,3.05-.19,2.13-.04,4.28-.04,6.62h-38.36v-55.37h38.44c0,2.72,.04,5.29-.04,7.85-.01,.37-.59,.73-.91,1.09-8.22,0-16.44,0-24.67,0,0,.1,0,.2,0,.29,.84,.08,1.67,.17,2.51,.25Z"/><path class="cls-1" d="M294.64,335.22h10.48c.13,.66,.47,1.6,.48,2.55,.04,12.08,.15,24.16,.01,36.24-.1,9.15-7.25,16.44-16.7,17.29-6.45,.58-12.61-.32-17.65-4.75-5.37-4.71-6.09-11.1-5.58-17.72,.05-.58,1.38-1.44,2.18-1.52,2.22-.21,4.48-.07,6.72-.06,1.62,0,2.27,.82,2.24,2.44-.04,1.89-.16,3.84,.21,5.66,.96,4.67,4.84,6.94,10.27,6.24,4.17-.53,7.15-3.86,7.16-8.14,.02-11.48-.01-22.95,0-34.43,0-1.27,.12-2.54,.19-3.82Z"/><path class="cls-1" d="M258.78,390.52c-3.11,0-6.12-.03-9.12,.01-1.95,.03-1.64-1.33-1.64-2.51-.02-11.48-.03-22.96-.05-34.44,0-6.11,0-12.22,0-18.52h10.81v55.46Z"/><path class="cls-2" d="M471.27,241.31c-2.21,.13-4.43,.47-6.62,.33-2.37-.15-2.91,.77-2.89,2.97,.1,9.48,.04,18.96-.33,28.45,0-3.49,.03-6.98-.02-10.47-.02-1.27-.23-2.54-.35-3.81,0-2.54,0-5.08,0-7.61,.11-3.3,.22-6.6,.33-9.89,3.3,.01,6.59,.02,9.89,.03Z"/><path class="cls-1" d="M273.16,295.54c-2.77-5.91-5.55-11.82-8.32-17.73-.65-1.4-1.88-2.95-1.65-4.22,.19-1.05,2.13-1.79,3.3-2.66,.2-.15,.43-.28,.64-.43,9.55-6.54,6.93-24.84-3.17-27.85-1.27-.47-2.53-1.33-3.81-1.34-9.09-.09-18.19,0-27.28,.03-.17,.9-.48,1.79-.48,2.69,.02,12.76,.09,25.52,.13,38.28,.02,4.72,0,9.44,0,14.3h11c0-5.59-.02-11.01,0-16.43,.03-6.76,.05-6.8,6.88-6.3,.76,.06,1.79,.81,2.12,1.51,3.06,6.51,5.96,13.09,9,19.6,.34,.72,1.25,1.62,1.94,1.66,3.25,.17,6.52,.08,9.94,.08-.12-.56-.15-.9-.27-1.19Zm-17.95-30.53c-3.26,.16-6.54,.12-9.8-.05-.66-.04-1.79-1.05-1.83-1.66-.18-3.43-.06-6.87-.1-10.31-.02-1.52,.58-2.18,2.14-2.12,1.8,.08,3.61,.02,5.42,.02h0c1.29-.01,2.58-.02,3.87,0,4.33,.03,7.2,2.74,7.33,6.93,.12,3.62-3.05,7-7.03,7.2Z"/><path class="cls-2" d="M497.23,250.69c-.84-.08-1.67-.17-2.51-.25,0-.1,0-.2,0-.29,8.22,0,16.44,0,24.67,0-.19,.16-.37,.32-.55,.48-6.09,.01-12.18,.03-18.27,.04-1.11,0-2.23,.02-3.34,.03Z"/><path class="cls-1" d="M500.57,250.66c6.09-.01,12.18-.03,18.27-.04-6.09,.01-12.18,.03-18.27,.04Z"/><path class="cls-1" d="M461.38,241.27c-.11,3.3-.22,6.59-.33,9.89,.11-3.3,.22-6.59,.33-9.89Z"/></g></svg>