<svg width="895" height="249" viewBox="0 0 895 249" fill="none" xmlns="http://www.w3.org/2000/svg">
<mask id="path-1-inside-1_106_553" fill="white">
<path fill-rule="evenodd" clip-rule="evenodd" d="M52.8455 0.334899C23.1185 30.3947 0 70.9285 0 124.343C0 177.758 23.1185 218.302 52.8455 248.362V249H842.155V248.371C871.886 218.32 895 177.774 895 124.363C895 70.9529 871.877 30.4261 842.155 0.365533V0H53.1774H52.8455V0.334899Z"/>
</mask>
<path d="M52.8455 0.334899L54.2675 1.74122L54.8455 1.15681V0.334899H52.8455ZM52.8455 248.362H54.8455V247.54L54.2675 246.956L52.8455 248.362ZM52.8455 249H50.8455V251H52.8455V249ZM842.155 249V251H844.155V249H842.155ZM842.155 248.371L840.733 246.965L840.155 247.549V248.371H842.155ZM842.155 0.365533H840.155V1.18733L840.732 1.77172L842.155 0.365533ZM842.155 0H844.155V-2H842.155V0ZM52.8455 0V-2H50.8455V0H52.8455ZM2 124.343C2 71.5715 24.8201 31.5184 54.2675 1.74122L51.4234 -1.07142C21.417 29.2709 -2 70.2855 -2 124.343H2ZM54.2675 246.956C24.8202 217.178 2 177.115 2 124.343H-2C-2 178.401 21.4169 219.426 51.4234 249.768L54.2675 246.956ZM50.8455 248.362V249H54.8455V248.362H50.8455ZM52.8455 251H842.155V247H52.8455V251ZM844.155 249V248.371H840.155V249H844.155ZM843.576 249.778C873.588 219.444 897 178.417 897 124.363H893C893 177.131 870.184 217.197 840.733 246.965L843.576 249.778ZM897 124.363C897 70.3097 873.578 29.3023 843.577 -1.04065L840.732 1.77172C870.175 31.55 893 71.5961 893 124.363H897ZM844.155 0.365533V0H840.155V0.365533H844.155ZM842.155 -2H53.1774V2H842.155V-2ZM53.1774 -2H52.8455V2H53.1774V-2ZM50.8455 0V0.334899H54.8455V0H50.8455Z" fill="#1E274A" mask="url(#path-1-inside-1_106_553)"/>
</svg>
