<svg width="394" height="78" viewBox="0 0 394 78" fill="none" xmlns="http://www.w3.org/2000/svg">
<mask id="path-1-inside-1_106_607" fill="white">
<path fill-rule="evenodd" clip-rule="evenodd" d="M7.54583 0C3.30495 9.43833 0 22.1834 0 38.9984C0 55.8135 3.30495 68.5617 7.54583 78H385.915C390.46 68.5633 394 55.8131 394 38.9984C394 22.1838 390.458 9.43985 385.915 0H7.54583Z"/>
</mask>
<path d="M7.54583 0V-2H6.25186L5.72152 -0.819706L7.54583 0ZM7.54583 78L5.72152 78.8197L6.25186 80H7.54583V78ZM385.915 78V80H387.172L387.717 78.8678L385.915 78ZM385.915 0L387.717 -0.867332L387.172 -2H385.915V0ZM2 38.9984C2 22.4537 5.24997 9.98936 9.37013 0.819706L5.72152 -0.819706C1.35992 8.88731 -2 21.913 -2 38.9984H2ZM9.37013 77.1803C5.25 68.0107 2 55.5432 2 38.9984H-2C-2 56.0838 1.35989 69.1126 5.72152 78.8197L9.37013 77.1803ZM7.54583 80H385.915V76H7.54583V80ZM387.717 78.8678C392.396 69.1519 396 56.1041 396 38.9984H392C392 55.5221 388.523 67.9746 384.113 77.1322L387.717 78.8678ZM396 38.9984C396 21.8925 392.395 8.85106 387.717 -0.867332L384.113 0.867332C388.522 10.0286 392 22.4751 392 38.9984H396ZM385.915 -2H7.54583V2H385.915V-2Z" fill="#1E274A" mask="url(#path-1-inside-1_106_607)"/>
</svg>
