<?xml version="1.0" encoding="UTF-8"?>
<svg id="Calque_2" data-name="Calque 2" xmlns="http://www.w3.org/2000/svg" viewBox="0 0 254.61 340.6">
  <defs>
    <style>
      .cls-1 {
        fill: #f5a37b;
      }

      .cls-2 {
        fill: #1e274a;
      }
    </style>
  </defs>
  <g id="Calque_1-2" data-name="Calque 1">
    <g>
      <path class="cls-2" d="m56.37,291.33c-1.62-1.25-3.3-2.53-4.89-3.84-19.3-15.92-31.02-33.07-35.83-52.44-1.82-7.31-2.79-15.12-2.83-22.6l-.02-212.46H.02L0,210.21c-.14,28.66,9.76,53.07,30.26,74.62,2.11,2.22,4.47,4.52,7.31,7.14h19.63l-.83-.64Z"/>
      <path class="cls-2" d="m254.51,188.93l-.06-188.93h-12.7v212.55c-.02,4.37-.36,8.88-1.03,13.4l-.07.47c-.03.2-.06.41-.09.61l-.03.2c-2.83,16.45-10.01,31.48-21.34,44.67-4.94,5.69-10.35,10.97-16.1,15.69-1.66,1.36-3.39,2.72-5.28,4.16l-.3.23h19.62c2.54-2.35,4.96-4.72,7.18-7.05,19.58-20.59,29.46-43.77,30.19-70.87.09-2.29.12-4.3.1-6.17-.04-3.51-.06-11.74-.09-18.97Z"/>
      <path class="cls-1" d="m143.92,298.8c-1.32-7.93-8.2-14-16.5-14.02h0s0,0,0,0,0,0,0,0h0c-8.29.02-15.17,6.09-16.5,14.02H45.82l.79.64c12.79,10.36,27.27,19.2,44.27,27.03,9.03,4.17,18.3,7.91,27.54,11.1,1.57.54,3.14,1.1,4.7,1.66l2.74.98c.83.28,1.11.39,1.55.39h0s0,0,0,0,0,0,0,0h0c.44,0,.72-.11,1.55-.39l2.74-.98c1.57-.56,3.13-1.12,4.7-1.66,9.25-3.2,18.52-6.93,27.54-11.1,16.99-7.83,31.47-16.67,44.27-27.03l.79-.64h-65.1Zm-16.5-10.95c6.62.02,12.15,4.76,13.4,11.02h-6.62l-6.78,6.78-6.78-6.78h-6.62c1.25-6.26,6.78-11,13.4-11.02Zm-8.06,14.1l8.05,8.06h0s0,0,0,0h0s0,0,0,0l8.05-8.06h5.6c-.21,7.37-6.24,13.31-13.65,13.33-7.41-.02-13.45-5.96-13.65-13.33h5.6Zm52.8,6.41c-10.45,5.65-26.68,13.47-44.74,18.69-18.06-5.23-34.3-13.05-44.74-18.69-3.32-1.86-7.9-4.41-11.02-6.37l39.04-.03c.21,9.06,7.62,16.38,16.73,16.41h0s0,0,0,0,0,0,0,0h0c9.11-.03,16.52-7.34,16.73-16.41l39.04.03c-3.12,1.96-7.7,4.51-11.02,6.37Z"/>
    </g>
  </g>
</svg>