<svg width="197" height="50" viewBox="0 0 197 50" fill="none" xmlns="http://www.w3.org/2000/svg">
<path d="M197 27.3056C192.691 35.4183 186.012 40.7915 179.884 44.2598C172.129 48.6529 165.273 50 165.273 50H18.3942C10.7858 50 4.61719 43.8627 4.61719 36.2929V18.469C4.61719 10.8992 10.7858 4.7619 18.3942 4.7619H165.273C165.273 4.7619 171.416 5.51084 178.914 9.64259C179.09 9.73809 179.272 9.83862 179.454 9.94418C185.299 13.2616 191.892 18.645 197 27.3056Z" fill="#F5A37B"/>
<path d="M192.383 22.9392C188.073 31.1942 181.395 36.6617 175.266 40.1908C167.511 44.661 160.656 46.0318 160.656 46.0318H13.777C6.16858 46.0318 0 39.7868 0 32.0841V13.9476C0 6.24497 6.16858 0 13.777 0H160.656C160.656 0 166.799 0.762081 174.296 4.96631C174.473 5.06349 174.655 5.16579 174.837 5.27319C180.682 8.64885 187.275 14.1266 192.383 22.9392Z" fill="#1E274A"/>
<path d="M28.94 17.46C28.94 17.5933 28.8733 17.66 28.74 17.66H21.64C21.5867 17.66 21.56 17.6867 21.56 17.74V22.04C21.56 22.0933 21.5867 22.12 21.64 22.12H26.52C26.6533 22.12 26.72 22.1867 26.72 22.32V23.58C26.72 23.7133 26.6533 23.78 26.52 23.78H21.64C21.5867 23.78 21.56 23.8067 21.56 23.86V28.26C21.56 28.3133 21.5867 28.34 21.64 28.34H28.74C28.8733 28.34 28.94 28.4067 28.94 28.54V29.8C28.94 29.9333 28.8733 30 28.74 30H19.84C19.7067 30 19.64 29.9333 19.64 29.8V16.2C19.64 16.0667 19.7067 16 19.84 16H28.74C28.8733 16 28.94 16.0667 28.94 16.2V17.46ZM39.8331 16.2C39.8331 16.0667 39.8998 16 40.0331 16H41.5531C41.6865 16 41.7531 16.0667 41.7531 16.2V29.8C41.7531 29.9333 41.6865 30 41.5531 30H40.0931C39.9998 30 39.9198 29.9533 39.8531 29.86L33.5931 19.64C33.5798 19.6 33.5598 19.5867 33.5331 19.6C33.5065 19.6 33.4931 19.62 33.4931 19.66L33.5131 29.8C33.5131 29.9333 33.4465 30 33.3131 30H31.7931C31.6598 30 31.5931 29.9333 31.5931 29.8V16.2C31.5931 16.0667 31.6598 16 31.7931 16H33.2731C33.3665 16 33.4465 16.0467 33.5131 16.14L39.7531 26.36C39.7665 26.4 39.7865 26.42 39.8131 26.42C39.8398 26.4067 39.8531 26.38 39.8531 26.34L39.8331 16.2ZM48.5902 30C48.4702 30 48.3902 29.9467 48.3502 29.84L44.0702 16.22L44.0502 16.14C44.0502 16.0467 44.1102 16 44.2302 16H45.8502C45.9702 16 46.0502 16.0533 46.0902 16.16L49.3902 27.22C49.4035 27.2467 49.4235 27.26 49.4502 27.26C49.4768 27.26 49.4968 27.2467 49.5102 27.22L52.8102 16.16C52.8502 16.0533 52.9235 16 53.0302 16H54.6102C54.7568 16 54.8102 16.0733 54.7702 16.22L50.4502 29.84C50.4102 29.9467 50.3302 30 50.2102 30H48.5902ZM61.0945 30.18C60.1212 30.18 59.2612 29.98 58.5145 29.58C57.7679 29.18 57.1879 28.62 56.7745 27.9C56.3612 27.1667 56.1545 26.3267 56.1545 25.38V20.62C56.1545 19.6733 56.3612 18.84 56.7745 18.12C57.1879 17.4 57.7679 16.84 58.5145 16.44C59.2612 16.04 60.1212 15.84 61.0945 15.84C62.0812 15.84 62.9479 16.04 63.6945 16.44C64.4412 16.84 65.0212 17.4 65.4345 18.12C65.8479 18.84 66.0545 19.6733 66.0545 20.62V25.38C66.0545 26.3267 65.8479 27.1667 65.4345 27.9C65.0212 28.62 64.4412 29.18 63.6945 29.58C62.9479 29.98 62.0812 30.18 61.0945 30.18ZM61.0945 28.52C62.0012 28.52 62.7345 28.24 63.2945 27.68C63.8545 27.12 64.1345 26.38 64.1345 25.46V20.6C64.1345 19.6667 63.8545 18.92 63.2945 18.36C62.7345 17.7867 62.0012 17.5 61.0945 17.5C60.1879 17.5 59.4545 17.7867 58.8945 18.36C58.3479 18.92 58.0745 19.6667 58.0745 20.6V25.46C58.0745 26.38 58.3479 27.12 58.8945 27.68C59.4545 28.24 60.1879 28.52 61.0945 28.52ZM72.0839 29.98C71.9506 29.98 71.8839 29.9133 71.8839 29.78V24.16C71.8839 24.1067 71.8772 24.0733 71.8639 24.06L67.7039 16.24C67.6906 16.2133 67.6839 16.18 67.6839 16.14C67.6839 16.0467 67.7372 16 67.8439 16H69.4839C69.6039 16 69.6839 16.0467 69.7239 16.14L72.7839 22C72.7972 22.0267 72.8172 22.04 72.8439 22.04C72.8706 22.04 72.8906 22.0267 72.9039 22L75.9639 16.14C76.0039 16.0467 76.0839 16 76.2039 16H77.8639C77.9306 16 77.9772 16.0267 78.0039 16.08C78.0439 16.12 78.0439 16.1733 78.0039 16.24L73.8239 24.06C73.8106 24.0733 73.8039 24.1067 73.8039 24.16V29.78C73.8039 29.9133 73.7372 29.98 73.6039 29.98H72.0839ZM89.4283 17.46C89.4283 17.5933 89.3616 17.66 89.2283 17.66H82.1283C82.0749 17.66 82.0483 17.6867 82.0483 17.74V22.04C82.0483 22.0933 82.0749 22.12 82.1283 22.12H87.0083C87.1416 22.12 87.2083 22.1867 87.2083 22.32V23.58C87.2083 23.7133 87.1416 23.78 87.0083 23.78H82.1283C82.0749 23.78 82.0483 23.8067 82.0483 23.86V28.26C82.0483 28.3133 82.0749 28.34 82.1283 28.34H89.2283C89.3616 28.34 89.4283 28.4067 89.4283 28.54V29.8C89.4283 29.9333 89.3616 30 89.2283 30H80.3283C80.1949 30 80.1283 29.9333 80.1283 29.8V16.2C80.1283 16.0667 80.1949 16 80.3283 16H89.2283C89.3616 16 89.4283 16.0667 89.4283 16.2V17.46ZM100.061 30C99.9547 30 99.8814 29.9533 99.8414 29.86L97.0414 23.88C97.0281 23.84 97.0014 23.82 96.9614 23.82H94.0814C94.0281 23.82 94.0014 23.8467 94.0014 23.9V29.8C94.0014 29.9333 93.9347 30 93.8014 30H92.2814C92.1481 30 92.0814 29.9333 92.0814 29.8V16.2C92.0814 16.0667 92.1481 16 92.2814 16H97.6614C98.4614 16 99.1614 16.1667 99.7614 16.5C100.375 16.8333 100.848 17.3 101.181 17.9C101.515 18.5 101.681 19.1933 101.681 19.98C101.681 20.9133 101.435 21.7067 100.941 22.36C100.461 23 99.7881 23.4333 98.9214 23.66C98.8681 23.6867 98.8547 23.72 98.8814 23.76L101.781 29.76C101.795 29.7867 101.801 29.82 101.801 29.86C101.801 29.9533 101.748 30 101.641 30H100.061ZM94.0814 17.66C94.0281 17.66 94.0014 17.6867 94.0014 17.74V22.22C94.0014 22.2733 94.0281 22.3 94.0814 22.3H97.4214C98.1281 22.3 98.6947 22.0933 99.1214 21.68C99.5481 21.2533 99.7614 20.6933 99.7614 20C99.7614 19.2933 99.5481 18.7267 99.1214 18.3C98.6947 17.8733 98.1281 17.66 97.4214 17.66H94.0814Z" fill="#F5A37B"/>
</svg>
