<svg width="100" height="103" viewBox="0 0 100 103" fill="none" xmlns="http://www.w3.org/2000/svg">
<g clip-path="url(#clip0_106_906)">
<path d="M67.3748 21.1344H77.6728L79.6009 27.0914H84.8156L82.7999 21.1344H100.022L98.8822 16.6666H81.288L75.9199 0.175207H69.4125L60.4072 27.0695H65.3809L67.3748 21.1125V21.1344ZM68.799 16.6666L72.5457 4.6649L76.2048 16.6666H68.799Z" fill="#1E274A"/>
<path d="M59.6627 13.7757C59.6627 5.75994 54.2727 0.175207 46.5164 0.175207H36.4375V27.0695H46.1439C54.3604 27.0695 59.6847 21.8571 59.6847 13.7757H59.6627ZM46.122 22.6455H41.3455V4.57729H46.2754C51.2052 4.57729 54.6671 8.40995 54.6671 13.9071C54.6671 19.4042 51.4024 22.6236 46.122 22.6236V22.6455Z" fill="#1E274A"/>
<path d="M31.2226 18.7034V0.175207H17.9229L16.7616 4.64299H26.3146V18.4625C26.3146 21.4629 24.6933 22.996 21.5162 23.0179H1.20508L0 27.4857H21.9544C27.936 27.4418 31.2226 24.3319 31.2226 18.7472V18.7034Z" fill="#1E274A"/>
<path d="M10.2762 0H5.91602V19.2947H10.2762V0Z" fill="#1E274A"/>
<path d="M94.1503 0H89.79V12.9653H94.1503V0Z" fill="#1E274A"/>
<path d="M25.4163 68.4185C24.8466 67.9804 24.2769 67.5424 23.7292 67.0825C17.0245 61.5635 12.9711 55.6064 11.3058 48.9047C10.6704 46.3642 10.3418 43.6704 10.3199 41.0642V31.2088H5.87202V40.2977C5.80629 50.2407 9.24625 58.6945 16.3672 66.1627C17.0902 66.9292 17.9229 67.7395 18.9088 68.6375H25.723L25.4382 68.4185H25.4163Z" fill="#1E274A"/>
<path d="M94.128 32.9171V25.1203H89.7021V41.108C89.7021 42.6192 89.5706 44.196 89.3515 45.751V45.9043C89.3515 45.9043 89.3077 46.0357 89.2858 46.1233V46.189C88.2998 51.8833 85.802 57.0957 81.88 61.673C80.171 63.6441 78.2867 65.4837 76.2928 67.1044C75.7231 67.5862 75.1096 68.0461 74.4523 68.5499L74.3428 68.6375H81.157C82.0334 67.8271 82.8879 66.9949 83.6548 66.1846C90.4471 59.0449 93.8651 51.0072 94.128 41.6117C94.15 40.8233 94.1719 40.1225 94.1719 39.4655C94.1719 38.239 94.15 35.3919 94.15 32.8952L94.128 32.9171Z" fill="#1E274A"/>
<path d="M55.784 71.0247C55.3239 68.2651 52.9356 66.1627 50.0653 66.1627C47.195 66.1627 44.8068 68.2651 44.3467 71.0247H21.7568L22.0198 71.2437C26.4676 74.8354 31.4851 77.9016 37.3791 80.6173C40.5123 82.0627 43.7332 83.3549 46.9321 84.4718C47.4799 84.6689 48.0277 84.8441 48.5535 85.0413L49.4957 85.3698C49.7805 85.4574 49.8901 85.5012 50.0434 85.5012C50.1968 85.5012 50.2844 85.4574 50.5912 85.3698L51.5333 85.0413C52.0811 84.8441 52.6289 84.647 53.1547 84.4718C56.3537 83.3549 59.5745 82.0627 62.7078 80.6173C68.6017 77.9016 73.6192 74.8354 78.0671 71.2437L78.33 71.0247H55.7402H55.784ZM50.0653 67.2358C52.366 67.2358 54.2722 68.8784 54.7104 71.0466H52.4098L50.0653 73.39L47.7209 71.0466H45.4203C45.8585 68.8784 47.7647 67.2358 50.0653 67.2358ZM47.2608 72.1197L50.0653 74.923L52.8699 72.1197H54.8199C54.7542 74.6821 52.6508 76.7408 50.0872 76.7408C47.5237 76.7408 45.4203 74.6821 45.3546 72.1197H47.3046H47.2608ZM65.578 74.3317C61.9628 76.2809 56.3318 78.9966 50.0653 80.8144C43.7989 78.9966 38.1679 76.2809 34.5526 74.3317C33.3914 73.6966 31.8138 72.7986 30.7402 72.1197H44.2809C44.3467 75.2515 46.9321 77.792 50.0872 77.792C53.2424 77.792 55.8278 75.2515 55.8936 72.0978H69.4343C68.3607 72.7986 66.7612 73.6747 65.6219 74.3098L65.578 74.3317Z" fill="#F5A37B"/>
<path d="M34.618 57.9279C34.618 57.9279 34.5742 57.8622 34.5742 57.8184V49.7589C34.5742 49.7589 34.5742 49.6932 34.618 49.6494C34.64 49.6275 34.6838 49.6056 34.7276 49.6056H37.7074C38.299 49.6056 38.8249 49.7151 39.285 49.9122C39.7451 50.1093 40.0738 50.4159 40.3367 50.8101C40.5777 51.1824 40.7092 51.6424 40.7092 52.1242V55.4093C40.7092 55.913 40.5777 56.3511 40.3367 56.7234C40.0957 57.0957 39.7451 57.4023 39.285 57.6213C38.8249 57.8403 38.3209 57.9279 37.7074 57.9279H34.7276C34.7276 57.9279 34.6619 57.9279 34.618 57.8841V57.9279ZM36.3271 56.5263H37.7732C38.1456 56.5263 38.4305 56.3949 38.6715 56.1539C38.9125 55.913 39.0221 55.5845 39.0221 55.1684V52.4308C39.0221 52.0147 38.9125 51.6862 38.6715 51.4452C38.4524 51.2043 38.1456 51.0729 37.7513 51.0729H36.3271C36.3271 51.0729 36.2613 51.0729 36.2613 51.1386V56.4825C36.2613 56.4825 36.2613 56.5482 36.3271 56.5482V56.5263Z" fill="#1E274A"/>
<path d="M41.9803 57.9279C41.9803 57.9279 41.9365 57.8622 41.9365 57.8184V49.7589C41.9365 49.7589 41.9365 49.6932 41.9803 49.6494C42.0023 49.6275 42.0461 49.6056 42.0899 49.6056H43.4922C43.4922 49.6056 43.5579 49.6056 43.6017 49.6494C43.6236 49.6713 43.6456 49.7151 43.6456 49.7589V57.8184C43.6456 57.8184 43.6456 57.8841 43.6017 57.9279C43.5798 57.9498 43.536 57.9717 43.4922 57.9717H42.0899C42.0899 57.9717 42.0242 57.9717 41.9803 57.9279ZM45.99 57.7308C45.5299 57.5118 45.2012 57.1833 44.9383 56.7672C44.6973 56.3511 44.5658 55.8911 44.5658 55.3436V54.599C44.5658 54.599 44.5658 54.5333 44.6096 54.4895C44.6315 54.4676 44.6753 54.4457 44.7192 54.4457H46.1214C46.1214 54.4457 46.1872 54.4457 46.231 54.4895C46.2529 54.5114 46.2748 54.5552 46.2748 54.599V55.3436C46.2748 55.7159 46.3844 56.0225 46.6254 56.2635C46.8664 56.5044 47.1732 56.6139 47.5895 56.6139C48.0058 56.6139 48.2906 56.5044 48.5535 56.2635C48.7945 56.0225 48.926 55.7159 48.926 55.3436V49.7589C48.926 49.7589 48.926 49.6932 48.9698 49.6494C48.9917 49.6275 49.0356 49.6056 49.0794 49.6056H50.4598C50.4598 49.6056 50.5255 49.6056 50.5693 49.6494C50.5912 49.6713 50.6131 49.7151 50.6131 49.7589V55.3436C50.6131 55.8911 50.4817 56.3511 50.2406 56.7672C49.9996 57.1833 49.6271 57.4899 49.1889 57.7308C48.7507 57.9717 48.2249 58.0812 47.6333 58.0812C47.0417 58.0812 46.4939 57.9717 46.0557 57.7308H45.99Z" fill="#1E274A"/>
<path d="M53.3737 57.7089C52.8917 57.4461 52.5411 57.0957 52.2782 56.6358C52.0153 56.1758 51.8838 55.6502 51.8838 55.0589V52.4965C51.8838 51.9052 52.0153 51.3795 52.2782 50.9415C52.5411 50.4816 52.9136 50.1312 53.3737 49.8903C53.8557 49.6494 54.4035 49.518 55.017 49.518C55.6305 49.518 56.2002 49.6494 56.6603 49.8903C57.1423 50.1312 57.4929 50.4816 57.7558 50.9415C58.0188 51.4014 58.1502 51.9052 58.1502 52.4965V55.0589C58.1502 55.6502 58.0188 56.1758 57.7558 56.6358C57.4929 57.0957 57.1204 57.4461 56.6603 57.7089C56.1783 57.9498 55.6305 58.0812 55.017 58.0812C54.4035 58.0812 53.8557 57.9498 53.3737 57.7089ZM56.0687 56.2196C56.3316 55.9349 56.485 55.5626 56.485 55.1027V52.4746C56.485 52.0147 56.3536 51.6424 56.0906 51.3576C55.8277 51.0729 55.4771 50.9415 55.017 50.9415C54.5569 50.9415 54.2282 51.0729 53.9653 51.3576C53.7024 51.6424 53.5709 52.0147 53.5709 52.4746V55.1027C53.5709 55.5626 53.7024 55.9349 53.9653 56.2196C54.2282 56.5044 54.5788 56.6358 55.017 56.6358C55.4552 56.6358 55.8058 56.5044 56.0687 56.2196Z" fill="#1E274A"/>
<path d="M64.2846 49.6494C64.2846 49.6494 64.3504 49.6056 64.3942 49.6056H65.7965C65.7965 49.6056 65.8622 49.6056 65.906 49.6494C65.9279 49.6713 65.9498 49.7151 65.9498 49.7589V57.8184C65.9498 57.8184 65.9498 57.8841 65.906 57.9279C65.8841 57.9498 65.8403 57.9717 65.7965 57.9717H64.438C64.438 57.9717 64.3065 57.9498 64.2627 57.8841L61.1733 52.7812C61.1733 52.7812 61.1514 52.7374 61.1295 52.7593C61.1295 52.7593 61.1076 52.7812 61.1076 52.8031V57.8403C61.1076 57.8403 61.1076 57.906 61.1076 57.9498C61.0857 57.9717 61.0419 57.9936 60.998 57.9936H59.5958C59.5958 57.9936 59.53 57.9936 59.4862 57.9498C59.4643 57.9279 59.4424 57.8841 59.4424 57.8403V49.7808C59.4424 49.7808 59.4424 49.7151 59.4862 49.6713C59.5081 49.6494 59.5519 49.6275 59.5958 49.6275H60.9542C60.9542 49.6275 61.0857 49.6494 61.1295 49.7151L64.197 54.7961C64.197 54.7961 64.2189 54.8399 64.2408 54.818C64.2408 54.818 64.2627 54.818 64.2627 54.7742V49.7589C64.2627 49.7589 64.2627 49.6932 64.2846 49.6494Z" fill="#1E274A"/>
<path d="M25.1311 36.9687C25.1311 36.9687 25.0653 37.0125 25.0215 37.0125H21.1214C21.1214 37.0125 21.0557 37.0125 21.0557 37.0782V38.9179C21.0557 38.9179 21.0557 38.9836 21.1214 38.9836H23.685C23.685 38.9836 23.7507 38.9836 23.7945 39.0274C23.8164 39.0493 23.8384 39.0931 23.8384 39.1369V40.2977C23.8384 40.2977 23.8384 40.3634 23.7945 40.4072C23.7726 40.4291 23.7288 40.451 23.685 40.451H21.1214C21.1214 40.451 21.0557 40.451 21.0557 40.5167V43.8018C21.0557 43.8018 21.0557 43.8675 21.0119 43.9113C20.99 43.9332 20.9462 43.9551 20.9023 43.9551H19.5001C19.5001 43.9551 19.4343 43.9551 19.3905 43.9113C19.3686 43.8894 19.3467 43.8456 19.3467 43.8018V35.7423C19.3467 35.7423 19.3467 35.6766 19.3905 35.6328C19.4124 35.6109 19.4562 35.589 19.5001 35.589H24.9996C24.9996 35.589 25.0653 35.589 25.1092 35.6328C25.1311 35.6547 25.153 35.6985 25.153 35.7423V36.903C25.153 36.903 25.153 36.9687 25.1092 37.0125L25.1311 36.9687Z" fill="#F5A37B"/>
<path d="M27.3884 43.6704C26.9063 43.4076 26.5558 43.0572 26.2928 42.5973C26.0299 42.1374 25.8984 41.6117 25.8984 41.0204V38.458C25.8984 37.8667 26.0299 37.3411 26.2928 36.903C26.5558 36.4431 26.9282 36.0927 27.3884 35.8518C27.8704 35.6109 28.4182 35.4795 29.0317 35.4795C29.6452 35.4795 30.2148 35.6109 30.675 35.8518C31.157 36.0927 31.5076 36.4431 31.7705 36.903C32.0334 37.363 32.1649 37.8667 32.1649 38.458V41.0204C32.1649 41.6117 32.0334 42.1374 31.7705 42.5973C31.5076 43.0572 31.1351 43.4076 30.675 43.6704C30.1929 43.9113 29.6452 44.0427 29.0317 44.0427C28.4182 44.0427 27.8704 43.9113 27.3884 43.6704ZM30.0834 42.1812C30.3463 41.8965 30.4997 41.5241 30.4997 41.0642V38.4361C30.4997 37.9762 30.3682 37.6039 30.1053 37.3192C29.8423 37.0344 29.4918 36.903 29.0317 36.903C28.5715 36.903 28.2429 37.0344 27.9799 37.3192C27.717 37.6039 27.5856 37.9762 27.5856 38.4361V41.0642C27.5856 41.5241 27.717 41.8965 27.9799 42.1812C28.2429 42.4659 28.5934 42.5973 29.0317 42.5973C29.4699 42.5973 29.8204 42.4659 30.0834 42.1812Z" fill="#F5A37B"/>
<path d="M37.8834 43.8018L36.3935 40.4948C36.3935 40.4948 36.3497 40.451 36.3277 40.451H35.2103C35.2103 40.451 35.1446 40.451 35.1446 40.5167V43.7799C35.1446 43.7799 35.1446 43.8456 35.1008 43.8894C35.0788 43.9113 35.035 43.9332 34.9912 43.9332H33.5889C33.5889 43.9332 33.5232 43.9332 33.4794 43.8894C33.4575 43.8675 33.4355 43.8237 33.4355 43.7799V35.7204C33.4355 35.7204 33.4355 35.6547 33.4794 35.6109C33.5013 35.589 33.5451 35.5671 33.5889 35.5671H37.007C37.5109 35.5671 37.971 35.6766 38.3435 35.8737C38.7379 36.0708 39.0228 36.3774 39.2419 36.7497C39.461 37.1221 39.5486 37.582 39.5486 38.0638C39.5486 38.6113 39.4171 39.0712 39.1323 39.4435C38.8694 39.8378 38.475 40.1006 37.993 40.2539C37.9491 40.2539 37.9491 40.2977 37.9491 40.3415L39.5705 43.7142L39.5924 43.7799C39.5924 43.8456 39.5486 43.8675 39.461 43.8675H37.993C37.993 43.8675 37.8615 43.8237 37.8177 43.758L37.8834 43.8018ZM35.1446 37.0563V39.0931C35.1446 39.0931 35.1446 39.1588 35.2103 39.1588H36.766C37.0946 39.1588 37.3795 39.0493 37.5767 38.8522C37.7958 38.6551 37.8834 38.3923 37.8834 38.0857C37.8834 37.7791 37.7738 37.5163 37.5767 37.2973C37.3575 37.1002 37.0946 36.9906 36.766 36.9906H35.2103C35.2103 36.9906 35.1446 36.9906 35.1446 37.0563Z" fill="#F5A37B"/>
<path d="M46.3186 35.5671H47.7209C47.7209 35.5671 47.7867 35.5671 47.8305 35.6109C47.8524 35.6328 47.8743 35.6766 47.8743 35.7204V43.7799C47.8743 43.7799 47.8743 43.8456 47.8305 43.8894C47.8086 43.9113 47.7648 43.9332 47.7209 43.9332H46.3186C46.3186 43.9332 46.2529 43.9332 46.2091 43.8894C46.1872 43.8675 46.1653 43.8237 46.1653 43.7799V38.5237C46.1653 38.5237 46.1653 38.4799 46.1434 38.4799C46.1215 38.4799 46.1215 38.4799 46.0995 38.5237L44.8287 40.4948C44.8287 40.4948 44.7411 40.5824 44.6534 40.5824H43.9523C43.9523 40.5824 43.8208 40.5605 43.777 40.4948L42.5062 38.5237C42.5062 38.5237 42.4843 38.4799 42.4624 38.5018C42.4405 38.5237 42.4405 38.5237 42.4405 38.5456V43.8018C42.4405 43.8018 42.4405 43.8675 42.3967 43.9113C42.3747 43.9332 42.3309 43.9551 42.2871 43.9551H40.8848C40.8848 43.9551 40.8191 43.9551 40.7753 43.9113C40.7534 43.8894 40.7314 43.8456 40.7314 43.8018V35.7423C40.7314 35.7423 40.7314 35.6766 40.7753 35.6328C40.7972 35.6109 40.841 35.589 40.8848 35.589H42.2871C42.2871 35.589 42.4186 35.6109 42.4624 35.6766L44.2591 38.458C44.2591 38.458 44.3029 38.5018 44.3248 38.458L46.1215 35.6766C46.1215 35.6766 46.2091 35.589 46.2967 35.589L46.3186 35.5671Z" fill="#F5A37B"/>
<path d="M54.469 43.8018L54.1184 42.6411C54.1184 42.6411 54.0746 42.5973 54.0527 42.5973H51.1167C51.1167 42.5973 51.0729 42.5973 51.0509 42.6411L50.7004 43.8018C50.7004 43.8018 50.6346 43.9113 50.547 43.9113H49.0352C49.0352 43.9113 48.9475 43.9113 48.9256 43.8675C48.9037 43.8456 48.9037 43.8018 48.9256 43.7361L51.5111 35.6766C51.5111 35.6766 51.5768 35.5671 51.6644 35.5671H53.5268C53.5268 35.5671 53.6583 35.6109 53.6802 35.6766L56.2657 43.7361C56.2657 43.7361 56.2657 43.7799 56.2657 43.8018C56.2657 43.8675 56.2218 43.9113 56.1342 43.9113H54.6224C54.6224 43.9113 54.4909 43.8675 54.469 43.8018ZM51.533 41.2832H53.6364C53.6364 41.2832 53.7021 41.2613 53.6802 41.2175L52.6066 37.6696C52.6066 37.6696 52.6066 37.6258 52.5628 37.6258C52.5628 37.6258 52.5409 37.6258 52.519 37.6696L51.4672 41.2175C51.4672 41.2175 51.4672 41.2832 51.5111 41.2832H51.533Z" fill="#F5A37B"/>
<path d="M62.1599 35.6109C62.1599 35.6109 62.2037 35.6766 62.2037 35.7204V36.8811C62.2037 36.8811 62.2037 36.9468 62.1599 36.9906C62.138 37.0125 62.0941 37.0344 62.0503 37.0344H59.925C59.925 37.0344 59.8593 37.0344 59.8593 37.1002V43.7799C59.8593 43.7799 59.8592 43.8456 59.8154 43.8894C59.7935 43.9113 59.7497 43.9332 59.7059 43.9332H58.3036C58.3036 43.9332 58.2379 43.9332 58.194 43.8894C58.1721 43.8675 58.1502 43.8237 58.1502 43.7799V37.1002C58.1502 37.1002 58.1502 37.0344 58.0845 37.0344H56.003C56.003 37.0344 55.9373 37.0344 55.8934 36.9906C55.8715 36.9687 55.8496 36.9249 55.8496 36.8811V35.7204C55.8496 35.7204 55.8496 35.6547 55.8934 35.6109C55.9153 35.589 55.9592 35.5671 56.003 35.5671H62.0065C62.0065 35.5671 62.0722 35.5671 62.116 35.6109H62.1599Z" fill="#F5A37B"/>
<path d="M63.3212 43.8675C63.3212 43.8675 63.2773 43.8018 63.2773 43.758V35.6985C63.2773 35.6985 63.2773 35.6328 63.3212 35.589C63.3431 35.5671 63.3869 35.5452 63.4307 35.5452H64.833C64.833 35.5452 64.8987 35.5452 64.9426 35.589C64.9645 35.6109 64.9864 35.6547 64.9864 35.6985V43.758C64.9864 43.758 64.9864 43.8237 64.9426 43.8675C64.9206 43.8894 64.8768 43.9113 64.833 43.9113H63.4307C63.4307 43.9113 63.365 43.9113 63.3212 43.8675Z" fill="#F5A37B"/>
<path d="M67.7468 43.6704C67.2647 43.4076 66.9142 43.0572 66.6512 42.5973C66.3883 42.1374 66.2568 41.6117 66.2568 41.0204V38.458C66.2568 37.8667 66.3883 37.3411 66.6512 36.903C66.9142 36.4431 67.2866 36.0927 67.7468 35.8518C68.2288 35.6109 68.7766 35.4795 69.3901 35.4795C70.0036 35.4795 70.5732 35.6109 71.0333 35.8518C71.5154 36.0927 71.8659 36.4431 72.1289 36.903C72.3918 37.363 72.5233 37.8667 72.5233 38.458V41.0204C72.5233 41.6117 72.3918 42.1374 72.1289 42.5973C71.8659 43.0572 71.4935 43.4076 71.0333 43.6704C70.5513 43.9113 70.0036 44.0427 69.3901 44.0427C68.7766 44.0427 68.2288 43.9113 67.7468 43.6704ZM70.4418 42.1812C70.7047 41.8965 70.8581 41.5241 70.8581 41.0642V38.4361C70.8581 37.9762 70.7266 37.6039 70.4637 37.3192C70.2007 37.0344 69.8502 36.903 69.3901 36.903C68.9299 36.903 68.6013 37.0344 68.3383 37.3192C68.0754 37.6039 67.944 37.9762 67.944 38.4361V41.0642C67.944 41.5241 68.0754 41.8965 68.3383 42.1812C68.6013 42.4659 68.9518 42.5973 69.3901 42.5973C69.8283 42.5973 70.1788 42.4659 70.4418 42.1812Z" fill="#F5A37B"/>
<path d="M78.6587 35.6109C78.6587 35.6109 78.7244 35.5671 78.7682 35.5671H80.1705C80.1705 35.5671 80.2362 35.5671 80.28 35.6109C80.3019 35.6328 80.3239 35.6766 80.3239 35.7204V43.7799C80.3239 43.7799 80.3239 43.8456 80.28 43.8894C80.2581 43.9113 80.2143 43.9332 80.1705 43.9332H78.812C78.812 43.9332 78.6806 43.9113 78.6367 43.8456L75.5473 38.7427C75.5473 38.7427 75.5254 38.6989 75.5035 38.7208C75.5035 38.7208 75.4816 38.7427 75.4816 38.7646V43.8018C75.4816 43.8018 75.4816 43.8675 75.4816 43.9113C75.4597 43.9332 75.4159 43.9551 75.3721 43.9551H73.9698C73.9698 43.9551 73.904 43.9551 73.8602 43.9113C73.8383 43.8894 73.8164 43.8456 73.8164 43.8018V35.7423C73.8164 35.7423 73.8164 35.6766 73.8602 35.6328C73.8821 35.6109 73.926 35.589 73.9698 35.589H75.3282C75.3282 35.589 75.4597 35.6109 75.5035 35.6766L78.571 40.7576C78.571 40.7576 78.5929 40.8014 78.6148 40.7795C78.6148 40.7795 78.6367 40.7795 78.6367 40.7357V35.7204C78.6367 35.7204 78.6367 35.6547 78.6587 35.6109Z" fill="#F5A37B"/>
<path d="M27.2352 97.5467C27.2352 98.1599 27.1694 98.6855 27.0161 99.0797C26.8408 99.6054 26.5559 99.9996 26.1835 100.284C25.811 100.569 25.329 100.7 24.7593 100.7C24.4744 100.7 24.2334 100.657 23.9924 100.547C23.7514 100.438 23.5542 100.284 23.3789 100.087C23.3789 100.087 23.357 100.087 23.3351 100.087C23.3351 100.087 23.3132 100.109 23.3132 100.131V100.438C23.3132 100.438 23.3132 100.547 23.2694 100.569C23.2474 100.591 23.2036 100.613 23.1379 100.613H22.3491C22.3491 100.613 22.2396 100.613 22.2177 100.569C22.1957 100.547 22.1738 100.503 22.1738 100.438V92.4438C22.1738 92.4438 22.1738 92.3343 22.2177 92.3124C22.2396 92.2905 22.2834 92.2686 22.3491 92.2686H23.1379C23.1379 92.2686 23.2474 92.2686 23.2694 92.3124C23.2913 92.3343 23.3132 92.3781 23.3132 92.4438V95.0281C23.3132 95.0281 23.3132 95.0719 23.3351 95.0719C23.3351 95.0719 23.357 95.0719 23.3789 95.0719C23.5542 94.8748 23.7514 94.7215 23.9924 94.612C24.2334 94.5024 24.4744 94.4586 24.7593 94.4586C25.3509 94.4586 25.8329 94.612 26.2273 94.8967C26.6217 95.1814 26.8846 95.5975 27.0599 96.1231C27.1694 96.4954 27.2352 96.9772 27.2352 97.5686V97.5467ZM26.0958 97.5686C26.0958 96.9115 25.9644 96.3859 25.7233 95.9917C25.4823 95.6194 25.1318 95.4223 24.6716 95.4223C24.2115 95.4223 23.8829 95.6194 23.6637 96.0355C23.4666 96.4078 23.357 96.9115 23.357 97.5686C23.357 98.2256 23.4446 98.7293 23.6418 99.0797C23.8829 99.5178 24.2334 99.7149 24.6716 99.7149C25.1975 99.7149 25.5919 99.4959 25.811 99.0578C26.0082 98.6855 26.1177 98.1818 26.1177 97.5686H26.0958Z" fill="#1E274A"/>
<path d="M28.2648 102.934C28.2648 102.934 28.2428 102.869 28.2428 102.803V102.19C28.2428 102.08 28.2648 102.014 28.3086 102.014H28.3743C28.703 102.014 28.944 101.971 29.1193 101.905C29.2946 101.839 29.4479 101.708 29.5794 101.511C29.7109 101.314 29.8204 101.029 29.93 100.635C29.93 100.635 29.93 100.591 29.93 100.569L27.958 94.7434C27.958 94.7434 27.958 94.6996 27.958 94.6777C27.958 94.5901 28.0018 94.5462 28.1114 94.5462H28.944C28.944 94.5462 29.1193 94.5901 29.1412 94.6996L30.4996 98.9921C30.4996 98.9921 30.4996 99.0359 30.5435 99.0359C30.5873 99.0359 30.5654 99.0359 30.5873 98.9921L31.88 94.7215C31.88 94.7215 31.9019 94.6339 31.9457 94.612C31.9896 94.5901 32.0334 94.5682 32.0772 94.5682H32.9098C32.9098 94.5682 33.0194 94.5682 33.0413 94.612C33.0632 94.6558 33.0632 94.6996 33.0413 94.7653L30.9159 101.051C30.7407 101.598 30.5435 102.014 30.3682 102.277C30.1929 102.54 29.9519 102.737 29.6451 102.847C29.3603 102.956 28.944 103.022 28.3962 103.022H28.3086C28.3086 103.022 28.2648 103.022 28.2428 102.978L28.2648 102.934Z" fill="#1E274A"/>
<path d="M42.2003 93.2103C42.2003 93.2103 42.1346 93.2541 42.0688 93.2541H37.9277C37.9277 93.2541 37.862 93.2541 37.862 93.3198V95.8603C37.862 95.8603 37.862 95.926 37.9277 95.926H40.7542C40.7542 95.926 40.8638 95.926 40.8857 95.9698C40.9076 95.9917 40.9295 96.0355 40.9295 96.1012V96.7363C40.9295 96.7363 40.9295 96.8458 40.8857 96.8677C40.8638 96.8896 40.8199 96.9115 40.7542 96.9115H37.9277C37.9277 96.9115 37.862 96.9115 37.862 96.9772V100.438C37.862 100.438 37.862 100.547 37.8182 100.569C37.7963 100.591 37.7525 100.613 37.6867 100.613H36.8979C36.8979 100.613 36.7884 100.613 36.7665 100.569C36.7446 100.547 36.7227 100.503 36.7227 100.438V92.4438C36.7227 92.4438 36.7227 92.3343 36.7665 92.3124C36.7884 92.2905 36.8322 92.2686 36.8979 92.2686H42.0688C42.0688 92.2686 42.1784 92.2686 42.2003 92.3124C42.2222 92.3343 42.2441 92.3781 42.2441 92.4438V93.0789C42.2441 93.0789 42.2441 93.1884 42.2003 93.2103Z" fill="#1E274A"/>
<path d="M43.6901 100.262C43.2519 99.9558 42.9452 99.5397 42.7699 99.014C42.6165 98.576 42.5508 98.0942 42.5508 97.5686C42.5508 97.043 42.6165 96.5173 42.748 96.145C42.9233 95.6194 43.23 95.2033 43.6682 94.9186C44.1064 94.612 44.6323 94.4805 45.2239 94.4805C45.7935 94.4805 46.2975 94.6339 46.7138 94.9186C47.1301 95.2252 47.4368 95.6194 47.634 96.145C47.7874 96.5611 47.8531 97.0211 47.8531 97.5686C47.8531 98.1161 47.7874 98.6198 47.634 99.0359C47.4588 99.5616 47.152 99.9777 46.7357 100.284C46.2975 100.591 45.7935 100.722 45.2239 100.722C44.6542 100.722 44.1064 100.569 43.6682 100.284L43.6901 100.262ZM46.0784 99.4521C46.3194 99.2768 46.4947 99.014 46.5823 98.6855C46.67 98.3789 46.7138 98.0066 46.7138 97.5686C46.7138 97.1306 46.67 96.7582 46.6042 96.4516C46.4947 96.1231 46.3194 95.8822 46.1003 95.6851C45.8593 95.5099 45.5744 95.4223 45.2239 95.4223C44.8733 95.4223 44.6104 95.5099 44.3694 95.6851C44.1283 95.8603 43.9531 96.1231 43.8654 96.4516C43.7778 96.7363 43.734 97.1087 43.734 97.5686C43.734 98.0285 43.7778 98.4008 43.8654 98.6855C43.9531 99.014 44.1283 99.2549 44.3694 99.4521C44.6104 99.6273 44.8952 99.7149 45.2458 99.7149C45.5744 99.7149 45.8374 99.6273 46.0784 99.4521Z" fill="#1E274A"/>
<path d="M52.6737 94.612C52.6737 94.612 52.7833 94.7434 52.7614 94.831L52.5861 95.5975C52.5861 95.5975 52.5423 95.707 52.4765 95.707C52.4327 95.707 52.4108 95.707 52.3889 95.707C52.2793 95.6632 52.126 95.6413 51.9726 95.6413C51.885 95.6413 51.8411 95.6413 51.7973 95.6413C51.4248 95.6413 51.1181 95.7946 50.8771 96.0355C50.636 96.2764 50.5046 96.6049 50.5046 96.9773V100.394C50.5046 100.394 50.5046 100.503 50.4608 100.525C50.4389 100.547 50.395 100.569 50.3293 100.569H49.5405C49.5405 100.569 49.431 100.569 49.4091 100.525C49.3871 100.503 49.3652 100.459 49.3652 100.394V94.6777C49.3652 94.6777 49.3652 94.5681 49.4091 94.5462C49.431 94.5243 49.4748 94.5025 49.5405 94.5025H50.3293C50.3293 94.5025 50.4389 94.5024 50.4608 94.5462C50.4827 94.5681 50.5046 94.612 50.5046 94.6777V95.2252V95.269C50.5046 95.269 50.5265 95.269 50.5484 95.2471C50.899 94.6996 51.381 94.4367 51.9945 94.4367C52.2355 94.4367 52.4546 94.4805 52.6299 94.5682L52.6737 94.612Z" fill="#1E274A"/>
<path d="M61.525 95.0062C61.8756 95.3785 62.0509 95.8603 62.0509 96.5173V100.438C62.0509 100.438 62.0509 100.547 62.0071 100.569C61.9852 100.591 61.9413 100.613 61.8756 100.613H61.1087C61.1087 100.613 60.9992 100.613 60.9773 100.569C60.9554 100.547 60.9334 100.503 60.9334 100.438V96.7582C60.9334 96.364 60.8239 96.0355 60.6048 95.8165C60.3857 95.5756 60.1008 95.4661 59.7284 95.4661C59.3559 95.4661 59.071 95.5756 58.83 95.8165C58.589 96.0574 58.4795 96.364 58.4795 96.7363V100.438C58.4795 100.438 58.4795 100.547 58.4356 100.569C58.4137 100.591 58.3699 100.613 58.3042 100.613H57.5373C57.5373 100.613 57.4278 100.613 57.4058 100.569C57.3839 100.547 57.362 100.503 57.362 100.438V96.7582C57.362 96.364 57.2525 96.0355 57.0334 95.8165C56.8143 95.5756 56.5294 95.4661 56.1569 95.4661C55.7845 95.4661 55.4996 95.5756 55.2805 95.8165C55.0614 96.0574 54.9519 96.364 54.9519 96.7363V100.438C54.9519 100.438 54.9519 100.547 54.908 100.569C54.8861 100.591 54.8423 100.613 54.7766 100.613H53.9878C53.9878 100.613 53.8782 100.613 53.8563 100.569C53.8344 100.547 53.8125 100.503 53.8125 100.438V94.7215C53.8125 94.7215 53.8125 94.6119 53.8563 94.59C53.8782 94.5681 53.9221 94.5462 53.9878 94.5462H54.7766C54.7766 94.5462 54.8861 94.5462 54.908 94.59C54.9299 94.6119 54.9519 94.6558 54.9519 94.7215V95.05C54.9519 95.05 54.9519 95.0938 54.9738 95.0938C54.9738 95.0938 54.9957 95.0938 55.0176 95.0938C55.3682 94.6777 55.8721 94.4805 56.5294 94.4805C56.9238 94.4805 57.2744 94.5682 57.5592 94.7215C57.8441 94.8748 58.0632 95.0938 58.2384 95.4004C58.2604 95.4223 58.2823 95.4223 58.3261 95.4004C58.5014 95.0938 58.7643 94.8529 59.071 94.7215C59.3778 94.5682 59.7284 94.5025 60.1228 94.5025C60.7363 94.5025 61.1964 94.6777 61.5469 95.05L61.525 95.0062Z" fill="#1E274A"/>
<path d="M67.1561 94.6996C67.5286 94.8748 67.7915 95.1157 67.9887 95.4223C68.1859 95.7289 68.2735 96.0793 68.2735 96.4735V100.438C68.2735 100.438 68.2735 100.547 68.2297 100.569C68.2078 100.591 68.164 100.613 68.0982 100.613H67.3094C67.3094 100.613 67.1999 100.613 67.178 100.569C67.1561 100.547 67.1342 100.503 67.1342 100.438V100.109C67.1342 100.109 67.1342 100.065 67.1122 100.065C67.1122 100.065 67.0903 100.065 67.0684 100.065C66.8493 100.262 66.5864 100.438 66.2796 100.547C65.9729 100.657 65.6442 100.722 65.2937 100.722C64.724 100.722 64.242 100.569 63.8695 100.284C63.497 99.9777 63.2998 99.5397 63.2998 98.9264C63.2998 98.3132 63.5189 97.8095 63.9571 97.4591C64.3953 97.1087 64.9869 96.9334 65.7757 96.9334H67.0903C67.0903 96.9334 67.1561 96.9334 67.1561 96.8677V96.5611C67.1561 96.2107 67.0465 95.9479 66.8493 95.7508C66.6521 95.5537 66.3454 95.4661 65.9291 95.4661C65.6004 95.4661 65.3375 95.5318 65.1403 95.6413C64.9431 95.7508 64.8116 95.926 64.7459 96.145C64.724 96.2545 64.6364 96.2983 64.5487 96.2983L63.6942 96.1888C63.6942 96.1888 63.5846 96.1669 63.5627 96.145C63.5408 96.1231 63.5189 96.0793 63.5189 96.0355C63.5846 95.5756 63.8476 95.2033 64.2858 94.9186C64.724 94.6339 65.2718 94.4805 65.9072 94.4805C66.3892 94.4805 66.8055 94.5681 67.178 94.7434L67.1561 94.6996ZM66.674 99.4083C66.9808 99.1892 67.1561 98.9045 67.1561 98.5541V97.8533C67.1561 97.8533 67.1561 97.7876 67.0903 97.7876H65.9729C65.5128 97.7876 65.1403 97.8752 64.8555 98.0723C64.5706 98.2694 64.4392 98.5103 64.4392 98.8388C64.4392 99.1235 64.5487 99.3645 64.7459 99.4959C64.965 99.6492 65.2279 99.7149 65.5566 99.7149C65.9729 99.7149 66.3454 99.6054 66.6521 99.3864L66.674 99.4083Z" fill="#1E274A"/>
<path d="M74.9569 97.5905C74.9569 98.1599 74.8911 98.6417 74.7816 99.0359C74.6063 99.5616 74.3434 99.9777 73.949 100.262C73.5546 100.547 73.0726 100.7 72.481 100.7C72.1961 100.7 71.9551 100.657 71.7141 100.547C71.4731 100.438 71.2759 100.284 71.1006 100.087C71.1006 100.087 71.0787 100.087 71.0568 100.087C71.0568 100.087 71.0349 100.087 71.0349 100.131V102.715C71.0349 102.715 71.0349 102.825 70.991 102.847C70.9691 102.869 70.9253 102.89 70.8596 102.89H70.0708C70.0708 102.89 69.9612 102.89 69.9393 102.847C69.9174 102.825 69.8955 102.781 69.8955 102.715V94.7215C69.8955 94.7215 69.8955 94.6119 69.9393 94.59C69.9612 94.5681 70.0051 94.5462 70.0708 94.5462H70.8596C70.8596 94.5462 70.9691 94.5462 70.991 94.59C71.013 94.6119 71.0349 94.6558 71.0349 94.7215V95.0281C71.0349 95.0281 71.0349 95.0719 71.0568 95.0719C71.0568 95.0719 71.0787 95.0719 71.1006 95.0719C71.2759 94.8748 71.4731 94.7215 71.7141 94.612C71.9551 94.5024 72.1961 94.4586 72.481 94.4586C73.0506 94.4586 73.5327 94.5901 73.9051 94.8748C74.2776 95.1595 74.5625 95.5537 74.7378 96.0793C74.8911 96.4735 74.9569 96.9773 74.9569 97.6124V97.5905ZM73.8175 97.5686C73.8175 96.9553 73.708 96.4735 73.5108 96.0793C73.2697 95.6413 72.8973 95.4223 72.3714 95.4223C71.9113 95.4223 71.5826 95.6413 71.3416 96.0574C71.1444 96.4078 71.0568 96.8896 71.0568 97.5686C71.0568 98.2475 71.1663 98.7293 71.3635 99.1016C71.6045 99.5178 71.9332 99.7149 72.3714 99.7149C72.8096 99.7149 73.1821 99.5178 73.4231 99.1454C73.686 98.7512 73.7956 98.2256 73.7956 97.5686H73.8175Z" fill="#1E274A"/>
<path d="M76.4906 93.4293C76.3372 93.2979 76.2715 93.1008 76.2715 92.8818C76.2715 92.6628 76.3372 92.4876 76.4906 92.3343C76.644 92.2028 76.8192 92.1152 77.0603 92.1152C77.3013 92.1152 77.4766 92.1809 77.6299 92.3343C77.7833 92.4876 77.849 92.6628 77.849 92.8818C77.849 93.1008 77.7833 93.276 77.6299 93.4293C77.4766 93.5607 77.3013 93.6483 77.0603 93.6483C76.8192 93.6483 76.644 93.5826 76.4906 93.4293ZM76.5344 100.569C76.5344 100.569 76.4906 100.503 76.4906 100.438V94.7215C76.4906 94.7215 76.4906 94.6119 76.5344 94.59C76.5782 94.5681 76.6001 94.5462 76.6659 94.5462H77.4547C77.4547 94.5462 77.5642 94.5462 77.5861 94.59C77.608 94.6338 77.6299 94.6558 77.6299 94.7215V100.438C77.6299 100.438 77.6299 100.547 77.5861 100.569C77.5642 100.591 77.5204 100.613 77.4547 100.613H76.6659C76.6659 100.613 76.5563 100.613 76.5344 100.569Z" fill="#1E274A"/>
</g>
<defs>
<clipPath id="clip0_106_906">
<rect width="100" height="103" fill="white"/>
</clipPath>
</defs>
</svg>
