<?xml version="1.0" encoding="UTF-8"?>
<svg id="Calque_2" data-name="Calque 2" xmlns="http://www.w3.org/2000/svg" viewBox="0 0 288.27 246.63">
  <defs>
    <style>
      .cls-1 {
        fill: #fff;
      }
    </style>
  </defs>
  <g id="Calque_1-2" data-name="Calque 1">
    <g>
      <path class="cls-1" d="m194.2,60.92h29.66l5.57,17.15h15.03l-5.83-17.15h49.63l-3.26-12.86h-50.74L218.84.48h-18.79l-25.95,77.59h14.36l5.74-17.15Zm4.14-12.86l10.78-34.61,10.56,34.61h-21.34Z"/>
      <path class="cls-1" d="m172.01,39.73c0-23.11-15.59-39.24-37.9-39.24h-29.07v77.59h27.97c23.7,0,39.01-15.05,39.01-38.35Zm-39.01,25.6h-13.78V13.23h14.22c14.23,0,24.16,11.08,24.16,26.94s-9.43,25.15-24.6,25.15Z"/>
      <path class="cls-1" d="m89.99,53.97V.48h-38.37l-3.37,12.86h27.56v39.86c0,8.64-4.65,13.05-13.82,13.11H3.5l-3.5,12.86h63.29c17.21-.15,26.69-9.09,26.69-25.2Z"/>
      <polygon class="cls-1" points="29.67 55.66 29.63 0 17.05 0 17.05 55.66 29.67 55.66"/>
      <polygon class="cls-1" points="271.49 0 258.9 0 258.86 37.39 271.44 37.39 271.49 0"/>
      <path class="cls-1" d="m73.24,197.35c-1.62-1.25-3.3-2.53-4.89-3.84-19.3-15.92-31.02-33.07-35.83-52.44-1.82-7.31-2.79-15.12-2.83-22.6l-.02-28.45h-12.78l-.02,26.2c-.14,28.66,9.76,53.07,30.26,74.62,2.11,2.22,4.47,4.52,7.31,7.14h19.63l-.83-.64Z"/>
      <path class="cls-1" d="m271.38,94.95l-.06-22.48h-12.7v46.1c-.02,4.37-.36,8.88-1.03,13.4l-.07.47c-.03.2-.06.41-.09.61l-.03.2c-2.83,16.45-10.01,31.48-21.34,44.67-4.94,5.69-10.35,10.97-16.1,15.69-1.66,1.36-3.39,2.72-5.28,4.16l-.3.23h19.62c2.54-2.35,4.96-4.72,7.18-7.05,19.58-20.59,29.46-43.77,30.19-70.87.09-2.29.12-4.3.1-6.17-.04-3.51-.06-11.74-.09-18.97Z"/>
      <path class="cls-1" d="m160.79,204.82c-1.32-7.93-8.2-14-16.5-14.02h0s0,0,0,0,0,0,0,0h0c-8.29.02-15.17,6.09-16.5,14.02H62.69l.79.64c12.79,10.36,27.27,19.2,44.27,27.03,9.03,4.17,18.3,7.91,27.54,11.1,1.57.54,3.14,1.1,4.7,1.66l2.74.98c.83.28,1.11.39,1.55.39h0s0,0,0,0,0,0,0,0h0c.44,0,.72-.11,1.55-.39l2.74-.98c1.57-.56,3.13-1.12,4.7-1.66,9.25-3.2,18.52-6.93,27.54-11.1,16.99-7.83,31.47-16.67,44.27-27.03l.79-.64h-65.1Zm-16.5-10.95c6.62.02,12.15,4.76,13.4,11.02h-6.62l-6.78,6.78-6.78-6.78h-6.62c1.25-6.26,6.78-11,13.4-11.02Zm-8.06,14.1l8.05,8.06h0s0,0,0,0h0s0,0,0,0l8.05-8.06h5.6c-.21,7.37-6.24,13.31-13.65,13.33-7.41-.02-13.45-5.96-13.65-13.33h5.6Zm52.8,6.41c-10.45,5.65-26.68,13.47-44.74,18.69-18.06-5.23-34.3-13.05-44.74-18.69-3.32-1.86-7.9-4.41-11.02-6.37l39.04-.03c.21,9.06,7.62,16.38,16.73,16.41h0s0,0,0,0,0,0,0,0h0c9.11-.03,16.52-7.34,16.73-16.41l39.04.03c-3.12,1.96-7.7,4.51-11.02,6.37Z"/>
      <g>
        <g>
          <path class="cls-1" d="m99.79,167.05c-.08-.08-.12-.18-.12-.29v-23.25c0-.11.04-.21.12-.29.08-.08.18-.12.29-.12h8.6c1.72,0,3.23.3,4.52.91,1.3.61,2.3,1.46,3.01,2.56.71,1.1,1.07,2.37,1.07,3.82v9.49c0,1.44-.36,2.72-1.07,3.82-.71,1.1-1.71,1.96-3.01,2.56-1.29.61-2.8.91-4.52.91h-8.6c-.12,0-.21-.04-.29-.12Zm4.9-4.04h4.16c1.05,0,1.91-.36,2.56-1.07.65-.71.99-1.66,1.01-2.85v-7.91c0-1.19-.33-2.14-.98-2.85-.65-.71-1.53-1.07-2.63-1.07h-4.13c-.11,0-.17.06-.17.17v15.41c0,.11.06.17.17.17Z"/>
          <path class="cls-1" d="m121.05,167.05c-.08-.08-.12-.18-.12-.29v-23.25c0-.11.04-.21.12-.29.08-.08.18-.12.29-.12h4.02c.12,0,.21.04.29.12.08.08.12.18.12.29v23.25c0,.11-.04.21-.12.29-.08.08-.18.12-.29.12h-4.02c-.12,0-.21-.04-.29-.12Zm11.55-.58c-1.29-.65-2.3-1.57-3.01-2.75-.71-1.18-1.07-2.55-1.07-4.11v-2.17c0-.11.04-.21.12-.29.08-.08.18-.12.29-.12h4.02c.11,0,.21.04.29.12.08.08.12.18.12.29v2.17c0,1.1.34,1.99,1.01,2.67.68.68,1.6,1.01,2.77,1.01s2.05-.34,2.77-1.01c.72-.68,1.08-1.56,1.08-2.67v-16.09c0-.11.04-.21.12-.29.08-.08.18-.12.29-.12h3.99c.12,0,.21.04.29.12.08.08.12.18.12.29v16.09c0,1.56-.37,2.93-1.1,4.11-.73,1.18-1.75,2.1-3.06,2.75s-2.81.98-4.51.98-3.26-.33-4.56-.98Z"/>
          <path class="cls-1" d="m153.85,166.45c-1.37-.73-2.42-1.76-3.18-3.08-.76-1.32-1.13-2.84-1.13-4.56v-7.36c0-1.7.38-3.2,1.13-4.5.76-1.31,1.82-2.32,3.18-3.04,1.36-.72,2.94-1.08,4.73-1.08s3.4.36,4.76,1.08,2.42,1.74,3.18,3.04c.76,1.31,1.13,2.81,1.13,4.5v7.36c0,1.72-.38,3.24-1.13,4.57-.76,1.33-1.82,2.36-3.18,3.08s-2.95,1.08-4.76,1.08-3.37-.37-4.73-1.1Zm7.79-4.26c.78-.8,1.17-1.87,1.17-3.2v-7.57c0-1.33-.38-2.4-1.15-3.22-.77-.81-1.79-1.22-3.08-1.22s-2.28.41-3.04,1.22c-.77.81-1.15,1.89-1.15,3.22v7.57c0,1.33.38,2.4,1.15,3.2.77.8,1.78,1.2,3.04,1.2s2.28-.4,3.06-1.2Z"/>
          <path class="cls-1" d="m185.32,143.21c.08-.08.18-.12.29-.12h4.02c.11,0,.21.04.29.12.08.08.12.18.12.29v23.25c0,.11-.04.21-.12.29-.08.08-.18.12-.29.12h-3.89c-.23,0-.39-.09-.48-.27l-8.91-14.72c-.05-.07-.09-.1-.14-.09-.05.01-.07.06-.07.15l.07,14.51c0,.11-.04.21-.12.29-.08.08-.18.12-.29.12h-4.02c-.12,0-.21-.04-.29-.12-.08-.08-.12-.18-.12-.29v-23.25c0-.11.04-.21.12-.29.08-.08.18-.12.29-.12h3.89c.23,0,.39.09.48.28l8.87,14.65c.05.07.09.1.14.09s.07-.06.07-.15l-.03-14.44c0-.11.04-.21.12-.29Z"/>
        </g>
        <g>
          <path class="cls-1" d="m72.44,106.62c-.08.08-.18.12-.29.12h-11.25c-.11,0-.17.06-.17.17v5.33c0,.11.06.17.17.17h7.39c.11,0,.21.04.29.12.08.08.12.18.12.29v3.34c0,.12-.04.21-.12.29s-.18.12-.29.12h-7.39c-.11,0-.17.06-.17.17v9.49c0,.11-.04.21-.12.29-.08.08-.18.12-.29.12h-4.02c-.12,0-.21-.04-.29-.12-.08-.08-.12-.18-.12-.29v-23.25c0-.11.04-.21.12-.29s.18-.12.29-.12h15.85c.11,0,.21.04.29.12.08.08.12.18.12.29v3.34c0,.11-.04.21-.12.29Z"/>
          <path class="cls-1" d="m78.94,125.93c-1.36-.73-2.42-1.76-3.18-3.08-.76-1.32-1.14-2.84-1.14-4.56v-7.36c0-1.7.38-3.2,1.14-4.5.76-1.31,1.82-2.32,3.18-3.04,1.36-.72,2.94-1.08,4.73-1.08s3.4.36,4.76,1.08c1.36.72,2.42,1.74,3.18,3.04.76,1.31,1.13,2.81,1.13,4.5v7.36c0,1.72-.38,3.24-1.13,4.57-.76,1.33-1.82,2.36-3.18,3.08-1.36.72-2.95,1.08-4.76,1.08s-3.36-.37-4.73-1.1Zm7.79-4.26c.78-.8,1.17-1.87,1.17-3.2v-7.57c0-1.33-.38-2.4-1.15-3.22-.77-.81-1.79-1.22-3.08-1.22s-2.28.41-3.04,1.22c-.77.81-1.15,1.89-1.15,3.22v7.57c0,1.33.38,2.4,1.15,3.2.77.8,1.78,1.2,3.04,1.2s2.28-.4,3.06-1.2Z"/>
          <path class="cls-1" d="m109.18,126.34l-4.3-9.53c-.05-.09-.11-.14-.21-.14h-3.2c-.12,0-.17.06-.17.17v9.39c0,.11-.04.21-.12.29-.08.08-.18.12-.29.12h-4.02c-.12,0-.21-.04-.29-.12-.08-.08-.12-.18-.12-.29v-23.25c0-.11.04-.21.12-.29.08-.08.18-.12.29-.12h9.84c1.47,0,2.76.3,3.87.89,1.11.6,1.97,1.44,2.58,2.54.61,1.1.91,2.37.91,3.82,0,1.56-.39,2.89-1.17,4.01-.78,1.11-1.87,1.9-3.27,2.36-.12.05-.15.13-.1.24l4.68,9.73c.05.09.07.16.07.21,0,.18-.13.27-.38.27h-4.23c-.23,0-.39-.1-.48-.31Zm-7.88-19.43v5.88c0,.11.06.17.17.17h4.5c.96,0,1.75-.29,2.36-.86.61-.57.91-1.32.91-2.24s-.3-1.67-.91-2.25c-.61-.58-1.39-.88-2.36-.88h-4.5c-.12,0-.17.06-.17.17Z"/>
          <path class="cls-1" d="m133.53,102.58h4.02c.11,0,.21.04.29.12.08.08.12.18.12.29v23.25c0,.11-.04.21-.12.29-.08.08-.18.12-.29.12h-4.02c-.12,0-.21-.04-.29-.12-.08-.08-.12-.18-.12-.29v-15.17c0-.09-.02-.14-.07-.14s-.09.03-.14.1l-3.65,5.71c-.11.18-.27.27-.48.27h-2.03c-.21,0-.37-.09-.48-.27l-3.65-5.71c-.05-.07-.09-.1-.14-.09-.05.01-.07.06-.07.15v15.13c0,.11-.04.21-.12.29-.08.08-.18.12-.29.12h-4.02c-.12,0-.21-.04-.29-.12-.08-.08-.12-.18-.12-.29v-23.25c0-.11.04-.21.12-.29.08-.08.18-.12.29-.12h4.02c.21,0,.37.09.48.28l5.16,8.01c.07.14.14.14.21,0l5.19-8.01c.11-.18.28-.28.48-.28Z"/>
          <path class="cls-1" d="m157.02,126.31l-1.03-3.37c-.05-.09-.1-.14-.17-.14h-8.46c-.07,0-.13.05-.17.14l-1,3.37c-.07.23-.22.34-.45.34h-4.37c-.14,0-.24-.04-.31-.12-.07-.08-.08-.2-.04-.36l7.43-23.25c.07-.23.22-.34.45-.34h5.4c.23,0,.38.12.45.34l7.43,23.25s.03.1.03.17c0,.21-.13.31-.38.31h-4.37c-.23,0-.38-.11-.45-.34Zm-8.46-7.26h6.05c.14,0,.18-.07.14-.21l-3.1-10.21c-.02-.09-.06-.13-.1-.12-.05.01-.08.05-.1.12l-3.03,10.21c-.02.14.02.21.14.21Z"/>
          <path class="cls-1" d="m179.18,102.7c.08.08.12.18.12.29v3.37c0,.11-.04.21-.12.29-.08.08-.18.12-.29.12h-6.16c-.12,0-.17.06-.17.17v19.29c0,.11-.04.21-.12.29-.08.08-.18.12-.29.12h-4.02c-.12,0-.21-.04-.29-.12-.08-.08-.12-.18-.12-.29v-19.29c0-.11-.06-.17-.17-.17h-5.98c-.12,0-.21-.04-.29-.12-.08-.08-.12-.18-.12-.29v-3.37c0-.11.04-.21.12-.29.08-.08.18-.12.29-.12h17.33c.11,0,.21.04.29.12Z"/>
          <path class="cls-1" d="m182.52,126.53c-.08-.08-.12-.18-.12-.29v-23.25c0-.11.04-.21.12-.29.08-.08.18-.12.29-.12h4.02c.12,0,.21.04.29.12.08.08.12.18.12.29v23.25c0,.11-.04.21-.12.29-.08.08-.18.12-.29.12h-4.02c-.12,0-.21-.04-.29-.12Z"/>
          <path class="cls-1" d="m195.28,125.93c-1.37-.73-2.42-1.76-3.18-3.08-.76-1.32-1.13-2.84-1.13-4.56v-7.36c0-1.7.38-3.2,1.13-4.5.76-1.31,1.82-2.32,3.18-3.04,1.36-.72,2.94-1.08,4.73-1.08s3.4.36,4.76,1.08,2.42,1.74,3.18,3.04c.76,1.31,1.13,2.81,1.13,4.5v7.36c0,1.72-.38,3.24-1.13,4.57-.76,1.33-1.82,2.36-3.18,3.08s-2.95,1.08-4.76,1.08-3.37-.37-4.73-1.1Zm7.79-4.26c.78-.8,1.17-1.87,1.17-3.2v-7.57c0-1.33-.38-2.4-1.15-3.22-.77-.81-1.79-1.22-3.08-1.22s-2.28.41-3.04,1.22c-.77.81-1.15,1.89-1.15,3.22v7.57c0,1.33.38,2.4,1.15,3.2.77.8,1.78,1.2,3.04,1.2s2.28-.4,3.06-1.2Z"/>
          <path class="cls-1" d="m226.75,102.7c.08-.08.18-.12.29-.12h4.02c.11,0,.21.04.29.12.08.08.12.18.12.29v23.25c0,.11-.04.21-.12.29-.08.08-.18.12-.29.12h-3.89c-.23,0-.39-.09-.48-.27l-8.91-14.72c-.05-.07-.09-.1-.14-.09-.05.01-.07.06-.07.15l.07,14.51c0,.11-.04.21-.12.29-.08.08-.18.12-.29.12h-4.02c-.12,0-.21-.04-.29-.12-.08-.08-.12-.18-.12-.29v-23.25c0-.11.04-.21.12-.29.08-.08.18-.12.29-.12h3.89c.23,0,.39.09.48.28l8.87,14.65c.05.07.09.1.14.09.05-.01.07-.06.07-.15l-.04-14.44c0-.11.04-.21.12-.29Z"/>
        </g>
      </g>
    </g>
  </g>
</svg>