<svg width="227" height="140" viewBox="0 0 227 140" fill="none" xmlns="http://www.w3.org/2000/svg">
<g clip-path="url(#clip0_94_95)">
<path d="M215.185 24.5749C212.863 17.4275 210.423 10.3215 208.072 3.17993C207.379 1.07181 205.963 0.0296013 203.801 0.017758C199.075 -0.00592867 194.349 -0.00592867 189.623 0.0236797C187.781 0.035523 186.259 0.757966 185.637 2.60553C183.072 10.2149 180.496 17.8242 178.068 25.475C177.328 27.8081 178.731 29.7327 181.154 30.1294C182.237 30.3071 183.357 30.2952 184.458 30.3012C187.23 30.3248 189.996 30.3071 192.791 30.3071V41.6708H185.471V49.1735H207.935V41.5819H200.674V30.3071C204.252 30.3071 207.639 30.3722 211.027 30.2893C214.729 30.1946 216.31 28.0391 215.185 24.5749ZM186.922 22.5911C188.539 17.7235 190.061 13.0573 191.66 8.41468C191.785 8.04754 192.383 7.82251 192.791 7.59749C192.963 7.50274 193.23 7.56788 193.449 7.5738C196.102 7.6271 199.371 6.76253 201.225 8.00608C202.943 9.16081 203.174 12.5539 204.015 14.9759C204.862 17.4097 205.649 19.8553 206.561 22.5911H186.922ZM158.713 74.3939C158.476 66.6365 153.134 60.0338 145.642 57.7481C144.167 57.2921 143.693 56.6999 143.705 55.1603C143.776 44.8152 143.753 34.47 143.723 24.1308C143.723 22.7392 143.681 21.3002 143.344 19.9619C141.94 14.5022 137.611 11.4229 131.434 11.417C96.9288 11.411 62.4239 11.411 27.9191 11.417C19.6216 11.417 15.1263 15.9707 15.1263 24.3617C15.1204 34.6299 15.1026 44.8981 15.1441 55.1662C15.15 56.4927 14.9546 57.2329 13.4562 57.6948C5.2238 60.247 0.0770959 67.205 0.0415605 75.9809C-0.0295102 95.7829 0.0119477 115.579 0.0297154 135.381C0.0297154 138.579 1.43929 139.959 4.65524 139.982C9.08531 140.012 13.5213 140.006 17.9514 139.982C21.3213 139.964 22.6421 138.644 22.6717 135.28C22.6954 131.899 22.6776 128.518 22.6776 125.018H136.172C136.172 128.482 136.148 131.793 136.178 135.103C136.207 138.585 137.581 139.964 141.01 139.982C145.221 140.006 149.432 139.994 153.643 139.988C157.694 139.982 158.873 138.798 158.873 134.67C158.885 123.662 158.897 112.654 158.873 101.645C158.861 92.5615 158.979 83.4718 158.713 74.3939ZM22.6776 54.4793C22.6776 44.4362 22.6717 34.393 22.6776 24.3499C22.6835 20.1751 23.9095 18.9671 28.1145 18.9671C62.3114 18.9612 96.5142 18.9612 130.717 18.9671C135.088 18.9671 136.166 20.0567 136.172 24.4802V56.5578H128.614C128.614 52.0988 128.662 47.6161 128.585 43.1393C128.555 41.4635 128.526 39.687 127.987 38.1296C126.435 33.6232 123.225 30.6624 118.392 30.5143C110.053 30.2597 101.702 30.2597 93.3693 30.5203C87.9383 30.692 83.5912 35.3819 83.372 40.8417C83.1943 45.2652 83.295 49.7005 83.2773 54.1299C83.2713 54.9234 83.2773 55.711 83.2773 56.623H75.7082C75.7082 55.711 75.7201 54.8583 75.7082 54.0056C75.6372 49.3571 75.803 44.6849 75.418 40.066C74.9916 34.8372 70.6859 30.6801 65.4326 30.5025C57.4667 30.2419 49.4772 30.1946 41.5113 30.4018C34.7241 30.5854 30.4362 35.2694 30.2703 42.1622C30.1756 46.2186 30.2585 50.2868 30.2466 54.349C30.2466 55.0656 30.1874 55.7821 30.1459 56.617H22.6776V54.4793ZM120.933 56.6289H90.9233C90.9233 51.3764 90.8167 46.2304 90.9766 41.0904C91.0358 39.1777 92.475 37.9934 94.4058 37.9756C102.081 37.9105 109.757 37.9164 117.439 37.9638C119.275 37.9756 120.797 39.0652 120.862 40.824C121.063 46.0942 120.933 51.3764 120.933 56.6289ZM68.08 56.5637H37.8571C37.8571 51.5066 37.7564 46.5739 37.9045 41.6471C37.9697 39.2784 39.4029 37.9697 41.766 37.946C49.2225 37.869 56.679 37.869 64.1355 37.9401C66.5401 37.9579 67.9615 39.2192 68.0326 41.5878C68.1807 46.5206 68.08 51.4533 68.08 56.5637ZM151.168 132.32H143.741C143.741 129.163 143.741 126.013 143.741 122.869C143.735 118.398 142.698 117.332 138.322 117.332H20.6343C16.2635 117.332 15.1323 118.469 15.1204 122.833C15.1204 125.788 15.1086 128.743 15.0967 131.698C15.0967 131.84 15.0316 131.976 14.9427 132.343H7.69943V102.332H151.168V132.32ZM151.174 94.5216H7.56914V91.8924C7.56914 86.7228 7.5336 81.5532 7.57506 76.3836C7.63429 69.4374 11.9341 64.8718 18.8457 64.3389C19.361 64.2974 19.8762 64.3093 20.3915 64.3093C59.7647 64.3093 99.132 64.3211 138.505 64.2915C143.646 64.2915 147.744 66.0325 150.161 70.7876C150.652 71.7528 151.114 72.872 151.126 73.9261C151.215 80.7123 151.174 87.4926 151.174 94.5216Z" fill="#1E274A"/>
<path d="M221.338 56.7118C204.938 56.771 188.539 56.7414 172.139 56.7414C167.62 56.7473 166.465 57.8724 166.465 62.3492C166.453 79.8477 166.459 97.3522 166.465 114.857C166.465 115.644 166.536 116.426 166.578 117.196H174.1V94.7644H219.49V117.385H227V59.3173C225.685 57.2033 223.719 56.7059 221.338 56.7118ZM219.36 86.8767H174.052V80.3629C174.052 75.6374 174.052 70.9119 174.046 66.1864C174.046 65.1798 173.987 64.2915 175.474 64.2915C190.013 64.3211 204.553 64.3093 219.36 64.3093V86.8767Z" fill="#1E274A"/>
<path d="M158.713 74.3939C158.476 66.6365 153.134 60.0338 145.642 57.7481C144.167 57.2921 143.693 56.7 143.705 55.1603C143.776 44.8152 143.753 34.47 143.723 24.1308C143.723 22.7392 143.681 21.3002 143.344 19.9619C141.94 14.5022 137.611 11.4229 131.434 11.417C96.9288 11.4111 62.4239 11.4111 27.9191 11.417C19.6216 11.417 15.1263 15.9707 15.1263 24.3617C15.1204 34.6299 15.1026 44.8981 15.1441 55.1662C15.15 56.4927 14.9546 57.2329 13.4562 57.6948C5.2238 60.247 0.0770959 67.205 0.0415605 75.9809C-0.0295102 95.7829 0.0119477 115.579 0.0297154 135.381C0.0297154 138.579 1.43929 139.959 4.65524 139.982C9.08531 140.012 13.5213 140.006 17.9514 139.982C21.3213 139.964 22.6421 138.644 22.6717 135.28C22.6954 131.899 22.6776 128.518 22.6776 125.018H136.172C136.172 128.482 136.148 131.793 136.178 135.103C136.207 138.585 137.581 139.964 141.01 139.982C145.221 140.006 149.432 139.994 153.643 139.988C157.694 139.982 158.873 138.798 158.873 134.671C158.885 123.662 158.897 112.654 158.873 101.645C158.861 92.5615 158.979 83.4718 158.713 74.3939ZM22.6776 54.4793C22.6776 44.4362 22.6717 34.393 22.6776 24.3499C22.6835 20.1751 23.9095 18.9671 28.1145 18.9671C62.3114 18.9612 96.5142 18.9612 130.717 18.9671C135.088 18.9671 136.166 20.0567 136.172 24.4802V56.5578H128.614C128.614 52.0988 128.662 47.6161 128.585 43.1393C128.555 41.4635 128.526 39.687 127.987 38.1296C126.435 33.6232 123.225 30.6624 118.392 30.5143C110.053 30.2597 101.702 30.2597 93.3693 30.5203C87.9383 30.692 83.5912 35.382 83.372 40.8417C83.1943 45.2652 83.295 49.7005 83.2773 54.1299C83.2713 54.9235 83.2773 55.711 83.2773 56.623H75.7082C75.7082 55.711 75.7201 54.8583 75.7082 54.0056C75.6372 49.3571 75.803 44.6849 75.418 40.066C74.9916 34.8372 70.6859 30.6802 65.4326 30.5025C57.4667 30.2419 49.4772 30.1946 41.5113 30.4018C34.7241 30.5854 30.4362 35.2694 30.2703 42.1623C30.1756 46.2186 30.2585 50.2868 30.2466 54.349C30.2466 55.0656 30.1874 55.7821 30.1459 56.617H22.6776V54.4793ZM120.933 56.6289H90.9233C90.9233 51.3764 90.8167 46.2304 90.9766 41.0904C91.0358 39.1777 92.475 37.9934 94.4058 37.9756C102.081 37.9105 109.757 37.9164 117.439 37.9638C119.275 37.9756 120.797 39.0652 120.862 40.824C121.063 46.0942 120.933 51.3764 120.933 56.6289ZM68.08 56.5637H37.8571C37.8571 51.5066 37.7564 46.5739 37.9045 41.6471C37.9697 39.2784 39.4029 37.9697 41.766 37.946C49.2225 37.8691 56.679 37.8691 64.1355 37.9401C66.5401 37.9579 67.9615 39.2192 68.0326 41.5879C68.1807 46.5206 68.08 51.4534 68.08 56.5637ZM151.168 132.32H143.741C143.741 129.163 143.741 126.013 143.741 122.869C143.735 118.398 142.698 117.332 138.322 117.332H20.6343C16.2635 117.332 15.1323 118.469 15.1204 122.833C15.1204 125.788 15.1086 128.743 15.0967 131.698C15.0967 131.84 15.0316 131.976 14.9427 132.343H7.69943V102.332H151.168V132.32ZM151.174 94.5216H7.56914V91.8924C7.56914 86.7228 7.5336 81.5532 7.57506 76.3836C7.63429 69.4375 11.9341 64.8718 18.8457 64.3389C19.361 64.2974 19.8762 64.3093 20.3915 64.3093C59.7647 64.3093 99.132 64.3211 138.505 64.2915C143.646 64.2915 147.744 66.0325 150.161 70.7876C150.652 71.7528 151.114 72.872 151.126 73.9261C151.215 80.7123 151.174 87.4926 151.174 94.5216Z" fill="#1E274A"/>
<path d="M215.184 24.5749C212.863 17.4275 210.423 10.3215 208.071 3.17993C207.378 1.07181 205.963 0.0296013 203.801 0.017758C199.075 -0.00592867 194.349 -0.00592867 189.623 0.0236797C187.781 0.035523 186.258 0.757966 185.637 2.60553C183.072 10.2149 180.496 17.8242 178.068 25.475C177.327 27.8081 178.731 29.7327 181.153 30.1294C182.237 30.3071 183.356 30.2952 184.458 30.3012C187.23 30.3248 189.996 30.3071 192.791 30.3071V41.6708H185.471V49.1735H207.935V41.5819H200.674V30.3071C204.251 30.3071 207.639 30.3722 211.027 30.2893C214.728 30.1946 216.31 28.0391 215.184 24.5749ZM186.922 22.5911C188.539 17.7235 190.061 13.0573 191.66 8.41468C191.784 8.04754 192.382 7.82251 192.791 7.59749C192.963 7.50274 193.229 7.56788 193.448 7.5738C196.102 7.6271 199.371 6.76253 201.225 8.00608C202.942 9.16081 203.173 12.5539 204.014 14.9759C204.861 17.4097 205.649 19.8553 206.561 22.5911H186.922Z" fill="#1E274A"/>
<path d="M204.234 72.1437H189.333V79.2852H204.234V72.1437Z" fill="#1E274A"/>
</g>
<defs>
<clipPath id="clip0_94_95">
<rect width="227" height="140" fill="white"/>
</clipPath>
</defs>
</svg>
