<?xml version="1.0" encoding="UTF-8"?><svg id="Calque_2" xmlns="http://www.w3.org/2000/svg" viewBox="0 0 288.27 297.04"><defs><style>.cls-1{fill:#f5a37b;}.cls-2{fill:#1e274a;}</style></defs><g id="Calque_1-2"><g><g><path class="cls-2" d="M194.2,60.92h29.66l5.57,17.15h15.03l-5.83-17.15h49.63l-3.26-12.86h-50.74L218.84,.48h-18.79l-25.95,77.59h14.36l5.74-17.15Zm4.14-12.86l10.78-34.61,10.56,34.61h-21.34Z"/><path class="cls-2" d="M172.01,39.73C172.01,16.62,156.43,.48,134.11,.48h-29.07V78.07h27.97c23.7,0,39.01-15.05,39.01-38.35Zm-39.01,25.6h-13.78V13.23h14.22c14.23,0,24.16,11.08,24.16,26.94s-9.43,25.15-24.6,25.15Z"/><path class="cls-2" d="M89.99,53.97V.48H51.61l-3.37,12.86h27.56V53.2c0,8.64-4.65,13.05-13.82,13.11H3.5l-3.5,12.86H63.29c17.21-.15,26.69-9.09,26.69-25.2Z"/><polygon class="cls-2" points="29.67 55.66 29.63 0 17.05 0 17.05 55.66 29.67 55.66"/><polygon class="cls-2" points="271.49 0 258.9 0 258.86 37.39 271.44 37.39 271.49 0"/><path class="cls-2" d="M73.24,197.35c-1.62-1.25-3.3-2.53-4.89-3.84-19.3-15.92-31.02-33.07-35.83-52.44-1.82-7.31-2.79-15.12-2.83-22.6l-.02-28.45h-12.78l-.02,26.2c-.14,28.66,9.76,53.07,30.26,74.62,2.11,2.22,4.47,4.52,7.31,7.14h19.63l-.83-.64Z"/><path class="cls-2" d="M271.38,94.95l-.06-22.48h-12.7v46.1c-.02,4.37-.36,8.88-1.03,13.4l-.07,.47c-.03,.2-.06,.41-.09,.61l-.03,.2c-2.83,16.45-10.01,31.48-21.34,44.67-4.94,5.69-10.35,10.97-16.1,15.69-1.66,1.36-3.39,2.72-5.28,4.16l-.3,.23h19.62c2.54-2.35,4.96-4.72,7.18-7.05,19.58-20.59,29.46-43.77,30.19-70.87,.09-2.29,.12-4.3,.1-6.17-.04-3.51-.06-11.74-.09-18.97Z"/><path class="cls-1" d="M160.79,204.82c-1.32-7.93-8.2-14-16.5-14.02h0s0,0,0,0,0,0,0,0h0c-8.29,.02-15.17,6.09-16.5,14.02H62.69l.79,.64c12.79,10.36,27.27,19.2,44.27,27.03,9.03,4.17,18.3,7.91,27.54,11.1,1.57,.54,3.14,1.1,4.7,1.66l2.74,.98c.83,.28,1.11,.39,1.55,.39h0s0,0,0,0,0,0,0,0h0c.44,0,.72-.11,1.55-.39l2.74-.98c1.57-.56,3.13-1.12,4.7-1.66,9.25-3.2,18.52-6.93,27.54-11.1,16.99-7.83,31.47-16.67,44.27-27.03l.79-.64h-65.1Zm-16.5-10.95c6.62,.02,12.15,4.76,13.4,11.02h-6.62l-6.78,6.78-6.78-6.78h-6.62c1.25-6.26,6.78-11,13.4-11.02Zm-8.06,14.1l8.05,8.06h0s0,0,0,0h0s0,0,0,0l8.05-8.06h5.6c-.21,7.37-6.24,13.31-13.65,13.33-7.41-.02-13.45-5.96-13.65-13.33h5.6Zm52.8,6.41c-10.45,5.65-26.68,13.47-44.74,18.69-18.06-5.23-34.3-13.05-44.74-18.69-3.32-1.86-7.9-4.41-11.02-6.37l39.04-.03c.21,9.06,7.62,16.38,16.73,16.41h0s0,0,0,0,0,0,0,0h0c9.11-.03,16.52-7.34,16.73-16.41l39.04,.03c-3.12,1.96-7.7,4.51-11.02,6.37Z"/><g><g><path class="cls-2" d="M99.79,167.05c-.08-.08-.12-.18-.12-.29v-23.25c0-.11,.04-.21,.12-.29,.08-.08,.18-.12,.29-.12h8.6c1.72,0,3.23,.3,4.52,.91s2.3,1.46,3.01,2.56c.71,1.1,1.07,2.37,1.07,3.82v9.49c0,1.44-.36,2.72-1.07,3.82-.71,1.1-1.71,1.96-3.01,2.56s-2.8,.91-4.52,.91h-8.6c-.12,0-.21-.04-.29-.12Zm4.9-4.04h4.16c1.05,0,1.91-.36,2.56-1.07s.99-1.66,1.01-2.85v-7.91c0-1.19-.33-2.14-.98-2.85-.65-.71-1.53-1.07-2.63-1.07h-4.13c-.11,0-.17,.06-.17,.17v15.41c0,.11,.06,.17,.17,.17Z"/><path class="cls-2" d="M121.05,167.05c-.08-.08-.12-.18-.12-.29v-23.25c0-.11,.04-.21,.12-.29,.08-.08,.18-.12,.29-.12h4.02c.11,0,.21,.04,.29,.12,.08,.08,.12,.18,.12,.29v23.25c0,.12-.04,.21-.12,.29-.08,.08-.18,.12-.29,.12h-4.02c-.12,0-.21-.04-.29-.12Zm11.56-.58c-1.3-.65-2.3-1.57-3.01-2.75-.71-1.18-1.07-2.55-1.07-4.11v-2.17c0-.12,.04-.21,.12-.29,.08-.08,.18-.12,.29-.12h4.02c.11,0,.21,.04,.29,.12,.08,.08,.12,.18,.12,.29v2.17c0,1.1,.34,1.99,1.01,2.67,.68,.68,1.6,1.01,2.77,1.01s2.05-.34,2.77-1.01c.72-.68,1.08-1.56,1.08-2.67v-16.09c0-.11,.04-.21,.12-.29,.08-.08,.18-.12,.29-.12h3.99c.11,0,.21,.04,.29,.12,.08,.08,.12,.18,.12,.29v16.09c0,1.56-.37,2.93-1.1,4.11s-1.75,2.1-3.06,2.75-2.81,.98-4.51,.98-3.26-.33-4.56-.98Z"/><path class="cls-2" d="M153.85,166.45c-1.36-.73-2.42-1.76-3.18-3.08-.76-1.32-1.14-2.84-1.14-4.56v-7.36c0-1.7,.38-3.2,1.14-4.5,.76-1.31,1.82-2.32,3.18-3.04,1.36-.72,2.94-1.08,4.73-1.08s3.4,.36,4.76,1.08c1.36,.72,2.42,1.74,3.18,3.04,.76,1.31,1.13,2.81,1.13,4.5v7.36c0,1.72-.38,3.25-1.13,4.57-.76,1.33-1.82,2.36-3.18,3.08-1.36,.72-2.95,1.08-4.76,1.08s-3.36-.37-4.73-1.1Zm7.79-4.26c.78-.8,1.17-1.87,1.17-3.2v-7.57c0-1.33-.38-2.4-1.15-3.22-.77-.81-1.79-1.22-3.08-1.22s-2.28,.41-3.04,1.22c-.77,.81-1.15,1.89-1.15,3.22v7.57c0,1.33,.38,2.4,1.15,3.2,.77,.8,1.78,1.2,3.04,1.2s2.28-.4,3.06-1.2Z"/><path class="cls-2" d="M185.32,143.21c.08-.08,.18-.12,.29-.12h4.02c.11,0,.21,.04,.29,.12,.08,.08,.12,.18,.12,.29v23.25c0,.12-.04,.21-.12,.29-.08,.08-.18,.12-.29,.12h-3.89c-.23,0-.39-.09-.48-.28l-8.91-14.72c-.05-.07-.09-.1-.14-.09-.05,.01-.07,.06-.07,.16l.07,14.51c0,.12-.04,.21-.12,.29-.08,.08-.18,.12-.29,.12h-4.02c-.12,0-.21-.04-.29-.12-.08-.08-.12-.18-.12-.29v-23.25c0-.11,.04-.21,.12-.29,.08-.08,.18-.12,.29-.12h3.89c.23,0,.39,.09,.48,.28l8.87,14.65c.05,.07,.09,.1,.14,.09,.05-.01,.07-.06,.07-.15l-.03-14.44c0-.11,.04-.21,.12-.29Z"/></g><g><path class="cls-1" d="M72.44,106.62c-.08,.08-.18,.12-.29,.12h-11.25c-.11,0-.17,.06-.17,.17v5.33c0,.12,.06,.17,.17,.17h7.39c.11,0,.21,.04,.29,.12,.08,.08,.12,.18,.12,.29v3.34c0,.12-.04,.21-.12,.29-.08,.08-.18,.12-.29,.12h-7.39c-.11,0-.17,.06-.17,.17v9.49c0,.12-.04,.21-.12,.29-.08,.08-.18,.12-.29,.12h-4.02c-.12,0-.21-.04-.29-.12-.08-.08-.12-.18-.12-.29v-23.25c0-.11,.04-.21,.12-.29,.08-.08,.18-.12,.29-.12h15.85c.11,0,.21,.04,.29,.12,.08,.08,.12,.18,.12,.29v3.34c0,.12-.04,.21-.12,.29Z"/><path class="cls-1" d="M78.94,125.93c-1.36-.73-2.42-1.76-3.18-3.08-.76-1.32-1.14-2.84-1.14-4.56v-7.36c0-1.7,.38-3.2,1.14-4.5,.76-1.31,1.82-2.32,3.18-3.04,1.36-.72,2.94-1.08,4.73-1.08s3.4,.36,4.76,1.08c1.36,.72,2.42,1.74,3.18,3.04,.76,1.31,1.13,2.81,1.13,4.5v7.36c0,1.72-.38,3.25-1.13,4.57-.76,1.33-1.82,2.36-3.18,3.08-1.36,.72-2.95,1.08-4.76,1.08s-3.36-.37-4.73-1.1Zm7.79-4.26c.78-.8,1.17-1.87,1.17-3.2v-7.57c0-1.33-.38-2.4-1.15-3.22-.77-.81-1.79-1.22-3.08-1.22s-2.28,.41-3.04,1.22c-.77,.81-1.15,1.89-1.15,3.22v7.57c0,1.33,.38,2.4,1.15,3.2,.77,.8,1.78,1.2,3.04,1.2s2.28-.4,3.06-1.2Z"/><path class="cls-1" d="M109.18,126.34l-4.3-9.53c-.05-.09-.11-.14-.21-.14h-3.2c-.11,0-.17,.06-.17,.17v9.39c0,.12-.04,.21-.12,.29-.08,.08-.18,.12-.29,.12h-4.02c-.12,0-.21-.04-.29-.12-.08-.08-.12-.18-.12-.29v-23.25c0-.11,.04-.21,.12-.29,.08-.08,.18-.12,.29-.12h9.84c1.47,0,2.76,.3,3.87,.89,1.11,.6,1.97,1.44,2.58,2.54s.91,2.37,.91,3.82c0,1.56-.39,2.89-1.17,4.01-.78,1.11-1.87,1.9-3.27,2.36-.12,.05-.15,.13-.1,.24l4.68,9.73c.05,.09,.07,.16,.07,.21,0,.18-.13,.28-.38,.28h-4.23c-.23,0-.39-.1-.48-.31Zm-7.88-19.43v5.88c0,.11,.06,.17,.17,.17h4.51c.96,0,1.75-.29,2.36-.86,.61-.57,.91-1.32,.91-2.24s-.3-1.67-.91-2.25c-.61-.58-1.39-.88-2.36-.88h-4.51c-.11,0-.17,.06-.17,.17Z"/><path class="cls-1" d="M133.53,102.58h4.02c.11,0,.21,.04,.29,.12,.08,.08,.12,.18,.12,.29v23.25c0,.12-.04,.21-.12,.29-.08,.08-.18,.12-.29,.12h-4.02c-.12,0-.21-.04-.29-.12-.08-.08-.12-.18-.12-.29v-15.17c0-.09-.02-.14-.07-.14s-.09,.03-.14,.1l-3.65,5.71c-.11,.18-.27,.27-.48,.27h-2.03c-.21,0-.37-.09-.48-.27l-3.65-5.71c-.05-.07-.09-.1-.14-.09s-.07,.06-.07,.15v15.13c0,.12-.04,.21-.12,.29-.08,.08-.18,.12-.29,.12h-4.02c-.12,0-.21-.04-.29-.12-.08-.08-.12-.18-.12-.29v-23.25c0-.11,.04-.21,.12-.29,.08-.08,.18-.12,.29-.12h4.02c.21,0,.37,.09,.48,.28l5.16,8.01c.07,.14,.14,.14,.21,0l5.19-8.01c.11-.18,.27-.28,.48-.28Z"/><path class="cls-1" d="M157.02,126.31l-1.03-3.37c-.05-.09-.1-.14-.17-.14h-8.46c-.07,0-.13,.05-.17,.14l-1,3.37c-.07,.23-.22,.34-.45,.34h-4.37c-.14,0-.24-.04-.31-.12-.07-.08-.08-.2-.03-.36l7.43-23.25c.07-.23,.22-.34,.45-.34h5.4c.23,0,.38,.12,.45,.34l7.43,23.25s.03,.1,.03,.17c0,.21-.13,.31-.38,.31h-4.37c-.23,0-.38-.11-.45-.34Zm-8.46-7.26h6.05c.14,0,.18-.07,.14-.21l-3.1-10.21c-.02-.09-.06-.13-.1-.12-.05,.01-.08,.05-.1,.12l-3.03,10.21c-.02,.14,.02,.21,.14,.21Z"/><path class="cls-1" d="M179.18,102.7c.08,.08,.12,.18,.12,.29v3.37c0,.12-.04,.21-.12,.29-.08,.08-.18,.12-.29,.12h-6.16c-.12,0-.17,.06-.17,.17v19.29c0,.12-.04,.21-.12,.29-.08,.08-.18,.12-.29,.12h-4.02c-.12,0-.21-.04-.29-.12-.08-.08-.12-.18-.12-.29v-19.29c0-.11-.06-.17-.17-.17h-5.98c-.11,0-.21-.04-.29-.12-.08-.08-.12-.18-.12-.29v-3.37c0-.11,.04-.21,.12-.29,.08-.08,.18-.12,.29-.12h17.33c.11,0,.21,.04,.29,.12Z"/><path class="cls-1" d="M182.52,126.53c-.08-.08-.12-.18-.12-.29v-23.25c0-.11,.04-.21,.12-.29,.08-.08,.18-.12,.29-.12h4.02c.11,0,.21,.04,.29,.12,.08,.08,.12,.18,.12,.29v23.25c0,.12-.04,.21-.12,.29-.08,.08-.18,.12-.29,.12h-4.02c-.12,0-.21-.04-.29-.12Z"/><path class="cls-1" d="M195.28,125.93c-1.36-.73-2.42-1.76-3.18-3.08-.76-1.32-1.14-2.84-1.14-4.56v-7.36c0-1.7,.38-3.2,1.14-4.5,.76-1.31,1.82-2.32,3.18-3.04,1.36-.72,2.94-1.08,4.73-1.08s3.4,.36,4.76,1.08c1.36,.72,2.42,1.74,3.18,3.04,.76,1.31,1.13,2.81,1.13,4.5v7.36c0,1.72-.38,3.25-1.13,4.57-.76,1.33-1.82,2.36-3.18,3.08-1.36,.72-2.95,1.08-4.76,1.08s-3.36-.37-4.73-1.1Zm7.79-4.26c.78-.8,1.17-1.87,1.17-3.2v-7.57c0-1.33-.38-2.4-1.15-3.22-.77-.81-1.79-1.22-3.08-1.22s-2.28,.41-3.04,1.22c-.77,.81-1.15,1.89-1.15,3.22v7.57c0,1.33,.38,2.4,1.15,3.2,.77,.8,1.78,1.2,3.04,1.2s2.28-.4,3.06-1.2Z"/><path class="cls-1" d="M226.75,102.7c.08-.08,.18-.12,.29-.12h4.02c.11,0,.21,.04,.29,.12,.08,.08,.12,.18,.12,.29v23.25c0,.12-.04,.21-.12,.29-.08,.08-.18,.12-.29,.12h-3.89c-.23,0-.39-.09-.48-.28l-8.91-14.72c-.05-.07-.09-.1-.14-.09-.05,.01-.07,.06-.07,.16l.07,14.51c0,.12-.04,.21-.12,.29-.08,.08-.18,.12-.29,.12h-4.02c-.12,0-.21-.04-.29-.12-.08-.08-.12-.18-.12-.29v-23.25c0-.11,.04-.21,.12-.29,.08-.08,.18-.12,.29-.12h3.89c.23,0,.39,.09,.48,.28l8.87,14.65c.05,.07,.09,.1,.14,.09,.05-.01,.07-.06,.07-.15l-.03-14.44c0-.11,.04-.21,.12-.29Z"/></g></g></g><g><path class="cls-2" d="M78.48,281.35c0,1.79-.21,3.26-.62,4.4-.5,1.49-1.3,2.64-2.39,3.46-1.09,.81-2.46,1.22-4.11,1.22-.8,0-1.54-.15-2.22-.46-.68-.31-1.27-.75-1.77-1.32-.05-.05-.09-.06-.14-.03-.05,.02-.07,.07-.07,.14v.89c0,.16-.05,.29-.14,.38-.09,.09-.22,.14-.38,.14h-2.27c-.16,0-.29-.05-.38-.14-.09-.09-.14-.22-.14-.38v-23.04c0-.16,.05-.29,.14-.38,.09-.09,.22-.14,.38-.14h2.27c.16,0,.29,.05,.38,.14,.09,.09,.14,.22,.14,.38v7.46c0,.07,.02,.11,.07,.12,.05,.01,.09,0,.14-.05,.5-.57,1.09-1.01,1.77-1.31,.68-.3,1.42-.45,2.22-.45,1.7,0,3.1,.42,4.21,1.27,1.11,.85,1.91,2.03,2.39,3.54,.34,1.1,.52,2.49,.52,4.16Zm-3.3,.07c0-1.88-.37-3.39-1.1-4.54-.71-1.1-1.73-1.65-3.06-1.65s-2.26,.58-2.92,1.75c-.6,1.05-.89,2.52-.89,4.4s.27,3.32,.83,4.33c.69,1.24,1.69,1.86,2.99,1.86,1.54,0,2.64-.63,3.3-1.89,.57-1.08,.86-2.5,.86-4.27Z"/><path class="cls-2" d="M81.48,296.9c-.05-.09-.07-.22-.07-.38v-1.75c0-.34,.07-.52,.21-.52h.21c.92,0,1.63-.1,2.15-.31,.52-.21,.95-.59,1.31-1.15,.36-.56,.69-1.41,1.01-2.53,.02-.05,.02-.11,0-.21l-5.67-16.82s-.03-.11-.03-.21c0-.25,.15-.38,.45-.38h2.41c.3,0,.49,.14,.58,.41l3.89,12.38c.02,.09,.06,.14,.1,.14s.08-.05,.1-.14l3.75-12.35c.02-.14,.09-.25,.21-.33,.11-.08,.24-.12,.38-.12h2.41c.18,0,.31,.05,.38,.16,.07,.1,.08,.25,.03,.43l-6.16,18.12c-.53,1.58-1.06,2.76-1.58,3.54-.53,.78-1.22,1.33-2.06,1.65-.85,.32-2.04,.48-3.58,.48h-.24c-.07,0-.13-.04-.17-.14Z"/><path class="cls-2" d="M121.64,268.8c-.09,.09-.22,.14-.38,.14h-11.97c-.11,0-.17,.06-.17,.17v7.33c0,.12,.06,.17,.17,.17h8.15c.16,0,.29,.05,.38,.14,.09,.09,.14,.22,.14,.38v1.82c0,.16-.05,.29-.14,.38-.09,.09-.22,.14-.38,.14h-8.15c-.11,0-.17,.06-.17,.17v10.01c0,.16-.05,.29-.14,.38-.09,.09-.22,.14-.38,.14h-2.27c-.16,0-.29-.05-.38-.14-.09-.09-.14-.22-.14-.38v-23.04c0-.16,.05-.29,.14-.38,.09-.09,.22-.14,.38-.14h14.93c.16,0,.29,.05,.38,.14,.09,.09,.14,.22,.14,.38v1.82c0,.16-.05,.29-.14,.38Z"/><path class="cls-2" d="M125.96,289.14c-1.25-.86-2.13-2.06-2.63-3.59-.41-1.24-.62-2.64-.62-4.2s.19-3,.58-4.13c.5-1.51,1.39-2.7,2.65-3.56,1.26-.86,2.76-1.29,4.51-1.29,1.65,0,3.09,.43,4.32,1.29,1.23,.86,2.1,2.03,2.63,3.52,.41,1.17,.62,2.54,.62,4.13s-.21,3.01-.62,4.23c-.5,1.54-1.38,2.73-2.61,3.59-1.24,.86-2.69,1.29-4.37,1.29s-3.2-.43-4.45-1.29Zm6.86-2.34c.69-.52,1.18-1.24,1.48-2.18,.25-.87,.38-1.95,.38-3.23s-.11-2.35-.34-3.2c-.3-.94-.79-1.67-1.48-2.18-.69-.52-1.52-.77-2.51-.77s-1.75,.26-2.44,.77-1.18,1.24-1.48,2.18c-.25,.8-.38,1.87-.38,3.2s.13,2.41,.38,3.23c.28,.94,.76,1.67,1.46,2.18,.7,.52,1.54,.77,2.53,.77,.92,0,1.72-.26,2.41-.77Z"/><path class="cls-2" d="M151.84,272.86c.25,.14,.34,.36,.27,.65l-.48,2.24c-.02,.23-.14,.34-.34,.34-.11,0-.21-.01-.27-.03-.34-.11-.73-.17-1.17-.17-.23,0-.4,.01-.52,.03-1.08,.05-1.97,.42-2.67,1.12-.7,.7-1.05,1.61-1.05,2.73v9.87c0,.16-.05,.29-.14,.38-.09,.09-.22,.14-.38,.14h-2.27c-.16,0-.29-.05-.38-.14-.09-.09-.14-.22-.14-.38v-16.47c0-.16,.05-.29,.14-.38,.09-.09,.22-.14,.38-.14h2.27c.16,0,.29,.05,.38,.14,.09,.09,.14,.22,.14,.38v1.58c0,.09,.02,.14,.05,.16,.03,.01,.07-.02,.12-.09,1.03-1.56,2.43-2.34,4.2-2.34,.69,0,1.31,.13,1.86,.38Z"/><path class="cls-2" d="M177.39,273.98c1.01,1.04,1.51,2.49,1.51,4.35v11.32c0,.16-.05,.29-.14,.38-.09,.09-.22,.14-.38,.14h-2.24c-.16,0-.29-.05-.38-.14-.09-.09-.14-.22-.14-.38v-10.63c0-1.15-.32-2.06-.95-2.73-.63-.68-1.47-1.01-2.53-1.01s-1.91,.33-2.58,1c-.67,.67-1,1.56-1,2.68v10.7c0,.16-.05,.29-.14,.38-.09,.09-.22,.14-.38,.14h-2.24c-.16,0-.29-.05-.38-.14-.09-.09-.14-.22-.14-.38v-10.63c0-1.15-.32-2.06-.95-2.73-.63-.68-1.47-1.01-2.53-1.01s-1.9,.33-2.53,1c-.63,.67-.95,1.56-.95,2.68v10.7c0,.16-.05,.29-.14,.38-.09,.09-.22,.14-.38,.14h-2.27c-.16,0-.29-.05-.38-.14-.09-.09-.14-.22-.14-.38v-16.47c0-.16,.05-.29,.14-.38,.09-.09,.22-.14,.38-.14h2.27c.16,0,.29,.05,.38,.14,.09,.09,.14,.22,.14,.38v.93c0,.07,.02,.12,.07,.14,.05,.02,.09,.01,.14-.03,1.03-1.19,2.49-1.79,4.37-1.79,1.15,0,2.14,.22,2.98,.67,.84,.45,1.48,1.1,1.94,1.94,.07,.09,.15,.09,.24,0,.53-.89,1.24-1.55,2.15-1.98,.91-.42,1.91-.64,3.01-.64,1.74,0,3.12,.52,4.13,1.56Z"/><path class="cls-2" d="M193.57,273.12c1.04,.49,1.85,1.18,2.41,2.06,.56,.88,.84,1.89,.84,3.01v11.45c0,.16-.05,.29-.14,.38-.09,.09-.22,.14-.38,.14h-2.27c-.16,0-.29-.05-.38-.14-.09-.09-.14-.22-.14-.38v-.96c0-.07-.02-.11-.07-.14-.05-.02-.09-.01-.14,.04-.64,.6-1.4,1.05-2.29,1.38-.88,.32-1.84,.48-2.87,.48-1.67,0-3.05-.43-4.13-1.29-1.08-.86-1.62-2.16-1.62-3.9s.62-3.19,1.87-4.21c1.25-1.02,3-1.53,5.24-1.53h3.82c.11,0,.17-.06,.17-.17v-.89c0-1.01-.29-1.79-.88-2.36-.58-.56-1.47-.84-2.67-.84-.94,0-1.7,.17-2.29,.52-.58,.34-.97,.83-1.15,1.44-.09,.3-.29,.44-.58,.41l-2.48-.31c-.16-.02-.29-.07-.38-.15-.09-.08-.13-.18-.1-.29,.21-1.31,.95-2.38,2.22-3.22,1.27-.84,2.84-1.25,4.69-1.25,1.4,0,2.62,.25,3.66,.74Zm-1.41,13.57c.91-.64,1.36-1.46,1.36-2.44v-1.99c0-.12-.06-.17-.17-.17h-3.2c-1.35,0-2.43,.26-3.23,.79s-1.2,1.26-1.2,2.2c0,.85,.3,1.49,.91,1.93,.61,.44,1.39,.65,2.36,.65,1.22,0,2.28-.32,3.18-.96Z"/><path class="cls-2" d="M216.08,281.46c0,1.67-.17,3.06-.52,4.16-.48,1.51-1.28,2.69-2.39,3.54-1.11,.85-2.52,1.27-4.21,1.27-.8,0-1.54-.15-2.22-.45-.68-.3-1.27-.73-1.77-1.31-.05-.05-.09-.06-.14-.05-.05,.01-.07,.05-.07,.12v7.46c0,.16-.05,.29-.14,.38-.09,.09-.22,.14-.38,.14h-2.27c-.16,0-.29-.05-.38-.14-.09-.09-.14-.22-.14-.38v-23.04c0-.16,.05-.29,.14-.38,.09-.09,.22-.14,.38-.14h2.27c.16,0,.29,.05,.38,.14,.09,.09,.14,.22,.14,.38v.89c0,.07,.02,.12,.07,.14,.05,.02,.09,.01,.14-.03,.5-.57,1.09-1.01,1.77-1.32s1.42-.46,2.22-.46c1.65,0,3.02,.41,4.11,1.22,1.09,.81,1.89,1.97,2.39,3.46,.41,1.15,.62,2.61,.62,4.4Zm-3.3-.07c0-1.77-.29-3.19-.86-4.27-.67-1.26-1.77-1.89-3.3-1.89-1.31,0-2.3,.62-2.99,1.86-.55,.99-.83,2.43-.83,4.33s.3,3.35,.89,4.4c.66,1.17,1.64,1.75,2.92,1.75s2.35-.55,3.06-1.65c.73-1.15,1.1-2.66,1.1-4.54Z"/><path class="cls-2" d="M220.53,269.44c-.42-.4-.64-.92-.64-1.56s.21-1.16,.64-1.57c.42-.4,.97-.6,1.63-.6s1.2,.2,1.62,.6,.62,.92,.62,1.57-.21,1.16-.62,1.56c-.41,.4-.95,.6-1.62,.6s-1.21-.2-1.63-.6Zm.12,20.58c-.09-.09-.14-.22-.14-.38v-16.47c0-.16,.05-.29,.14-.38s.22-.14,.38-.14h2.27c.16,0,.29,.05,.38,.14s.14,.22,.14,.38v16.47c0,.16-.05,.29-.14,.38-.09,.09-.22,.14-.38,.14h-2.27c-.16,0-.29-.05-.38-.14Z"/></g></g></g></svg>