<svg width="306" height="177" viewBox="0 0 306 177" fill="none" xmlns="http://www.w3.org/2000/svg">
<g clip-path="url(#clip0_116_12)">
<path d="M296 80.8747V155.738C296 167.482 286.382 177 274.515 177H30.4803C18.6176 177 9 167.482 9 155.738V80.8747C9 69.1305 18.6176 59.6126 30.4803 59.6126H93.6509C93.6509 14.6243 152.498 0 152.498 0C152.498 0 211.349 14.6243 211.349 59.6126H274.515C286.382 59.6126 296 69.1305 296 80.8747Z" fill="#182649"/>
</g>
<path d="M64.9988 96.12C65.0655 96.04 65.1455 96 65.2388 96H66.7588C66.8922 96 66.9588 96.0667 66.9588 96.2V109.8C66.9588 109.933 66.8922 110 66.7588 110H65.2388C65.1055 110 65.0388 109.933 65.0388 109.8V99.56C65.0388 99.52 65.0255 99.4933 64.9988 99.48C64.9722 99.4667 64.9522 99.48 64.9388 99.52L62.0788 103.88C62.0255 103.96 61.9455 104 61.8388 104H61.0788C60.9855 104 60.9055 103.96 60.8388 103.88L57.9588 99.56C57.9455 99.52 57.9255 99.5067 57.8988 99.52C57.8722 99.5333 57.8588 99.56 57.8588 99.6V109.8C57.8588 109.933 57.7922 110 57.6588 110H56.1388C56.0055 110 55.9388 109.933 55.9388 109.8V96.2C55.9388 96.0667 56.0055 96 56.1388 96H57.6588C57.7655 96 57.8455 96.04 57.8988 96.12L61.3988 101.36C61.4122 101.373 61.4322 101.38 61.4588 101.38C61.4855 101.38 61.5055 101.373 61.5188 101.36L64.9988 96.12ZM73.7157 99.66C74.529 99.66 75.2357 99.8067 75.8357 100.1C76.449 100.38 76.9157 100.78 77.2357 101.3C77.569 101.807 77.7357 102.387 77.7357 103.04V109.8C77.7357 109.933 77.669 110 77.5357 110H76.0157C75.8824 110 75.8157 109.933 75.8157 109.8V109.08C75.8157 109.013 75.7824 109 75.7157 109.04C75.369 109.4 74.9424 109.68 74.4357 109.88C73.9424 110.067 73.389 110.16 72.7757 110.16C71.789 110.16 70.969 109.913 70.3157 109.42C69.6757 108.913 69.3557 108.153 69.3557 107.14C69.3557 106.1 69.7157 105.287 70.4357 104.7C71.169 104.1 72.189 103.8 73.4957 103.8H75.7357C75.789 103.8 75.8157 103.773 75.8157 103.72V103.18C75.8157 102.593 75.6424 102.14 75.2957 101.82C74.9624 101.487 74.449 101.32 73.7557 101.32C73.1957 101.32 72.7357 101.433 72.3757 101.66C72.029 101.873 71.8157 102.167 71.7357 102.54C71.6957 102.673 71.6157 102.733 71.4957 102.72L69.8757 102.5C69.7424 102.473 69.6824 102.42 69.6957 102.34C69.8024 101.553 70.2224 100.913 70.9557 100.42C71.689 99.9133 72.609 99.66 73.7157 99.66ZM73.1957 108.54C73.9024 108.54 74.5157 108.353 75.0357 107.98C75.5557 107.607 75.8157 107.133 75.8157 106.56V105.38C75.8157 105.327 75.789 105.3 75.7357 105.3H73.8557C73.069 105.3 72.4424 105.453 71.9757 105.76C71.509 106.067 71.2757 106.493 71.2757 107.04C71.2757 107.533 71.449 107.907 71.7957 108.16C72.1557 108.413 72.6224 108.54 73.1957 108.54ZM80.3677 110C80.2344 110 80.1677 109.933 80.1677 109.8V100.02C80.1677 99.8867 80.2344 99.82 80.3677 99.82H81.8877C82.0211 99.82 82.0877 99.8867 82.0877 100.02V109.8C82.0877 109.933 82.0211 110 81.8877 110H80.3677ZM78.5677 98.54C78.4877 98.54 78.4344 98.52 78.4077 98.48C78.3811 98.4267 78.3944 98.3667 78.4477 98.3L80.0277 96.12C80.0811 96.04 80.1677 96 80.2877 96H81.9877C82.1077 96 82.1944 96.04 82.2477 96.12L83.8277 98.3C83.8544 98.3267 83.8677 98.3667 83.8677 98.42C83.8677 98.4467 83.8544 98.4733 83.8277 98.5C83.8011 98.5267 83.7611 98.54 83.7077 98.54H82.5277C82.4211 98.54 82.3411 98.5 82.2877 98.42L81.2277 96.9C81.2144 96.8733 81.1944 96.86 81.1677 96.86C81.1411 96.86 81.1211 96.8733 81.1077 96.9L80.0077 98.42C79.9544 98.5 79.8744 98.54 79.7677 98.54H78.5677ZM89.7618 101.2C89.7618 101.333 89.6951 101.4 89.5618 101.4H87.4018C87.3485 101.4 87.3218 101.427 87.3218 101.48V106.78C87.3218 107.34 87.4485 107.747 87.7018 108C87.9551 108.24 88.3485 108.36 88.8818 108.36H89.4618C89.5951 108.36 89.6618 108.427 89.6618 108.56V109.8C89.6618 109.933 89.5951 110 89.4618 110C89.0351 110.027 88.7285 110.04 88.5418 110.04C87.5285 110.04 86.7618 109.86 86.2418 109.5C85.7351 109.127 85.4818 108.447 85.4818 107.46V101.48C85.4818 101.427 85.4551 101.4 85.4018 101.4H84.1818C84.0485 101.4 83.9818 101.333 83.9818 101.2V100.02C83.9818 99.8867 84.0485 99.82 84.1818 99.82H85.4018C85.4551 99.82 85.4818 99.7933 85.4818 99.74V97.38C85.4818 97.2467 85.5485 97.18 85.6818 97.18H87.1218C87.2551 97.18 87.3218 97.2467 87.3218 97.38V99.74C87.3218 99.7933 87.3485 99.82 87.4018 99.82H89.5618C89.6951 99.82 89.7618 99.8867 89.7618 100.02V101.2ZM96.5846 99.72C97.0113 99.72 97.3979 99.8067 97.7446 99.98C97.8379 100.02 97.8713 100.1 97.8446 100.22L97.5246 101.72C97.5113 101.84 97.4313 101.88 97.2846 101.84C97.0579 101.747 96.7913 101.7 96.4846 101.7L96.2046 101.72C95.5779 101.747 95.0579 101.967 94.6446 102.38C94.2446 102.78 94.0446 103.307 94.0446 103.96V109.8C94.0446 109.933 93.9779 110 93.8446 110H92.3246C92.1913 110 92.1246 109.933 92.1246 109.8V100.02C92.1246 99.8867 92.1913 99.82 92.3246 99.82H93.8446C93.9779 99.82 94.0446 99.8867 94.0446 100.02V101.08C94.0446 101.12 94.0513 101.147 94.0646 101.16C94.0913 101.16 94.1113 101.147 94.1246 101.12C94.7246 100.187 95.5446 99.72 96.5846 99.72ZM107.63 103.64C107.684 104.187 107.704 104.8 107.69 105.48C107.69 105.613 107.624 105.68 107.49 105.68H101.11C101.057 105.68 101.03 105.707 101.03 105.76C101.03 106.213 101.07 106.56 101.15 106.8C101.297 107.333 101.59 107.753 102.03 108.06C102.484 108.353 103.05 108.5 103.73 108.5C104.717 108.5 105.477 108.093 106.01 107.28C106.077 107.147 106.164 107.127 106.27 107.22L107.41 107.98C107.504 108.06 107.524 108.147 107.47 108.24C107.097 108.84 106.564 109.313 105.87 109.66C105.19 110.007 104.417 110.18 103.55 110.18C102.577 110.18 101.757 109.967 101.09 109.54C100.424 109.113 99.9236 108.507 99.5902 107.72C99.2702 106.933 99.1102 105.98 99.1102 104.86C99.1102 103.887 99.1836 103.147 99.3302 102.64C99.5702 101.72 100.05 100.993 100.77 100.46C101.49 99.9267 102.364 99.66 103.39 99.66C104.737 99.66 105.744 100 106.41 100.68C107.077 101.347 107.484 102.333 107.63 103.64ZM103.39 101.32C102.817 101.32 102.344 101.467 101.97 101.76C101.597 102.04 101.344 102.42 101.21 102.9C101.117 103.193 101.057 103.567 101.03 104.02C101.03 104.073 101.057 104.1 101.11 104.1H105.69C105.744 104.1 105.77 104.073 105.77 104.02C105.744 103.58 105.704 103.253 105.65 103.04C105.517 102.52 105.25 102.107 104.85 101.8C104.464 101.48 103.977 101.32 103.39 101.32ZM120.437 96.2C120.437 96.0667 120.503 96 120.637 96H122.157C122.29 96 122.357 96.0667 122.357 96.2V109.8C122.357 109.933 122.29 110 122.157 110H120.637C120.503 110 120.437 109.933 120.437 109.8V109.14C120.437 109.113 120.423 109.093 120.397 109.08C120.383 109.067 120.363 109.073 120.337 109.1C120.043 109.433 119.697 109.693 119.297 109.88C118.897 110.067 118.463 110.16 117.997 110.16C117.037 110.16 116.237 109.927 115.597 109.46C114.97 108.98 114.51 108.307 114.217 107.44C113.963 106.733 113.837 105.88 113.837 104.88C113.837 103.947 113.943 103.14 114.157 102.46C114.437 101.58 114.897 100.893 115.537 100.4C116.177 99.9067 116.997 99.66 117.997 99.66C118.45 99.66 118.877 99.7533 119.277 99.94C119.69 100.113 120.043 100.367 120.337 100.7C120.363 100.727 120.383 100.733 120.397 100.72C120.423 100.707 120.437 100.687 120.437 100.66V96.2ZM119.937 107.42C120.243 106.86 120.397 106.02 120.397 104.9C120.397 103.78 120.23 102.927 119.897 102.34C119.51 101.66 118.943 101.32 118.197 101.32C117.397 101.32 116.803 101.64 116.417 102.28C115.99 102.947 115.777 103.827 115.777 104.92C115.777 105.947 115.943 106.773 116.277 107.4C116.663 108.133 117.297 108.5 118.177 108.5C118.95 108.5 119.537 108.14 119.937 107.42ZM126.771 96C126.838 96 126.885 96.0267 126.911 96.08C126.951 96.12 126.958 96.1733 126.931 96.24L125.371 100.08C125.331 100.187 125.258 100.24 125.151 100.24H124.011C123.945 100.24 123.891 100.22 123.851 100.18C123.825 100.14 123.818 100.087 123.831 100.02L124.991 96.16C125.031 96.0533 125.111 96 125.231 96H126.771ZM131.704 99.66C132.517 99.66 133.224 99.8067 133.824 100.1C134.437 100.38 134.904 100.78 135.224 101.3C135.557 101.807 135.724 102.387 135.724 103.04V109.8C135.724 109.933 135.657 110 135.524 110H134.004C133.871 110 133.804 109.933 133.804 109.8V109.08C133.804 109.013 133.771 109 133.704 109.04C133.357 109.4 132.931 109.68 132.424 109.88C131.931 110.067 131.377 110.16 130.764 110.16C129.777 110.16 128.957 109.913 128.304 109.42C127.664 108.913 127.344 108.153 127.344 107.14C127.344 106.1 127.704 105.287 128.424 104.7C129.157 104.1 130.177 103.8 131.484 103.8H133.724C133.777 103.8 133.804 103.773 133.804 103.72V103.18C133.804 102.593 133.631 102.14 133.284 101.82C132.951 101.487 132.437 101.32 131.744 101.32C131.184 101.32 130.724 101.433 130.364 101.66C130.017 101.873 129.804 102.167 129.724 102.54C129.684 102.673 129.604 102.733 129.484 102.72L127.864 102.5C127.731 102.473 127.671 102.42 127.684 102.34C127.791 101.553 128.211 100.913 128.944 100.42C129.677 99.9133 130.597 99.66 131.704 99.66ZM131.184 108.54C131.891 108.54 132.504 108.353 133.024 107.98C133.544 107.607 133.804 107.133 133.804 106.56V105.38C133.804 105.327 133.777 105.3 133.724 105.3H131.844C131.057 105.3 130.431 105.453 129.964 105.76C129.497 106.067 129.264 106.493 129.264 107.04C129.264 107.533 129.437 107.907 129.784 108.16C130.144 108.413 130.611 108.54 131.184 108.54ZM146.576 102.38C146.829 103.1 146.956 103.953 146.956 104.94C146.956 105.873 146.849 106.68 146.636 107.36C146.356 108.253 145.896 108.947 145.256 109.44C144.616 109.92 143.796 110.16 142.796 110.16C142.343 110.16 141.909 110.073 141.496 109.9C141.096 109.713 140.749 109.453 140.456 109.12C140.429 109.093 140.403 109.087 140.376 109.1C140.363 109.113 140.356 109.133 140.356 109.16V113.62C140.356 113.753 140.289 113.82 140.156 113.82H138.636C138.503 113.82 138.436 113.753 138.436 113.62V100.02C138.436 99.8867 138.503 99.82 138.636 99.82H140.156C140.289 99.82 140.356 99.8867 140.356 100.02V100.68C140.356 100.707 140.363 100.727 140.376 100.74C140.403 100.753 140.429 100.747 140.456 100.72C140.749 100.387 141.096 100.127 141.496 99.94C141.896 99.7533 142.329 99.66 142.796 99.66C143.756 99.66 144.549 99.9 145.176 100.38C145.816 100.847 146.283 101.513 146.576 102.38ZM144.376 107.54C144.803 106.9 145.016 106.02 145.016 104.9C145.016 103.873 144.849 103.047 144.516 102.42C144.129 101.687 143.496 101.32 142.616 101.32C141.843 101.32 141.256 101.68 140.856 102.4C140.536 102.973 140.376 103.813 140.376 104.92C140.376 106.04 140.549 106.893 140.896 107.48C141.283 108.16 141.849 108.5 142.596 108.5C143.396 108.5 143.989 108.18 144.376 107.54ZM157.728 102.38C157.982 103.1 158.108 103.953 158.108 104.94C158.108 105.873 158.002 106.68 157.788 107.36C157.508 108.253 157.048 108.947 156.408 109.44C155.768 109.92 154.948 110.16 153.948 110.16C153.495 110.16 153.062 110.073 152.648 109.9C152.248 109.713 151.902 109.453 151.608 109.12C151.582 109.093 151.555 109.087 151.528 109.1C151.515 109.113 151.508 109.133 151.508 109.16V113.62C151.508 113.753 151.442 113.82 151.308 113.82H149.788C149.655 113.82 149.588 113.753 149.588 113.62V100.02C149.588 99.8867 149.655 99.82 149.788 99.82H151.308C151.442 99.82 151.508 99.8867 151.508 100.02V100.68C151.508 100.707 151.515 100.727 151.528 100.74C151.555 100.753 151.582 100.747 151.608 100.72C151.902 100.387 152.248 100.127 152.648 99.94C153.048 99.7533 153.482 99.66 153.948 99.66C154.908 99.66 155.702 99.9 156.328 100.38C156.968 100.847 157.435 101.513 157.728 102.38ZM155.528 107.54C155.955 106.9 156.168 106.02 156.168 104.9C156.168 103.873 156.002 103.047 155.668 102.42C155.282 101.687 154.648 101.32 153.768 101.32C152.995 101.32 152.408 101.68 152.008 102.4C151.688 102.973 151.528 103.813 151.528 104.92C151.528 106.04 151.702 106.893 152.048 107.48C152.435 108.16 153.002 108.5 153.748 108.5C154.548 108.5 155.142 108.18 155.528 107.54ZM165.081 99.72C165.507 99.72 165.894 99.8067 166.241 99.98C166.334 100.02 166.367 100.1 166.341 100.22L166.021 101.72C166.007 101.84 165.927 101.88 165.781 101.84C165.554 101.747 165.287 101.7 164.981 101.7L164.701 101.72C164.074 101.747 163.554 101.967 163.141 102.38C162.741 102.78 162.541 103.307 162.541 103.96V109.8C162.541 109.933 162.474 110 162.341 110H160.821C160.687 110 160.621 109.933 160.621 109.8V100.02C160.621 99.8867 160.687 99.82 160.821 99.82H162.341C162.474 99.82 162.541 99.8867 162.541 100.02V101.08C162.541 101.12 162.547 101.147 162.561 101.16C162.587 101.16 162.607 101.147 162.621 101.12C163.221 100.187 164.041 99.72 165.081 99.72ZM176.126 103.64C176.18 104.187 176.2 104.8 176.186 105.48C176.186 105.613 176.12 105.68 175.986 105.68H169.606C169.553 105.68 169.526 105.707 169.526 105.76C169.526 106.213 169.566 106.56 169.646 106.8C169.793 107.333 170.086 107.753 170.526 108.06C170.98 108.353 171.546 108.5 172.226 108.5C173.213 108.5 173.973 108.093 174.506 107.28C174.573 107.147 174.66 107.127 174.766 107.22L175.906 107.98C176 108.06 176.02 108.147 175.966 108.24C175.593 108.84 175.06 109.313 174.366 109.66C173.686 110.007 172.913 110.18 172.046 110.18C171.073 110.18 170.253 109.967 169.586 109.54C168.92 109.113 168.42 108.507 168.086 107.72C167.766 106.933 167.606 105.98 167.606 104.86C167.606 103.887 167.68 103.147 167.826 102.64C168.066 101.72 168.546 100.993 169.266 100.46C169.986 99.9267 170.86 99.66 171.886 99.66C173.233 99.66 174.24 100 174.906 100.68C175.573 101.347 175.98 102.333 176.126 103.64ZM171.886 101.32C171.313 101.32 170.84 101.467 170.466 101.76C170.093 102.04 169.84 102.42 169.706 102.9C169.613 103.193 169.553 103.567 169.526 104.02C169.526 104.073 169.553 104.1 169.606 104.1H174.186C174.24 104.1 174.266 104.073 174.266 104.02C174.24 103.58 174.2 103.253 174.146 103.04C174.013 102.52 173.746 102.107 173.346 101.8C172.96 101.48 172.473 101.32 171.886 101.32ZM183.149 99.68C184.242 99.68 185.109 100 185.749 100.64C186.389 101.267 186.709 102.12 186.709 103.2V109.8C186.709 109.933 186.642 110 186.509 110H184.989C184.856 110 184.789 109.933 184.789 109.8V103.58C184.789 102.913 184.596 102.373 184.209 101.96C183.822 101.547 183.309 101.34 182.669 101.34C182.042 101.34 181.529 101.547 181.129 101.96C180.729 102.373 180.529 102.907 180.529 103.56V109.8C180.529 109.933 180.462 110 180.329 110H178.809C178.676 110 178.609 109.933 178.609 109.8V100.02C178.609 99.8867 178.676 99.82 178.809 99.82H180.329C180.462 99.82 180.529 99.8867 180.529 100.02V100.74C180.529 100.767 180.536 100.787 180.549 100.8C180.576 100.813 180.596 100.807 180.609 100.78C181.182 100.047 182.029 99.68 183.149 99.68ZM194.469 101.2C194.469 101.333 194.402 101.4 194.269 101.4H192.109C192.055 101.4 192.029 101.427 192.029 101.48V106.78C192.029 107.34 192.155 107.747 192.409 108C192.662 108.24 193.055 108.36 193.589 108.36H194.169C194.302 108.36 194.369 108.427 194.369 108.56V109.8C194.369 109.933 194.302 110 194.169 110C193.742 110.027 193.435 110.04 193.249 110.04C192.235 110.04 191.469 109.86 190.949 109.5C190.442 109.127 190.189 108.447 190.189 107.46V101.48C190.189 101.427 190.162 101.4 190.109 101.4H188.889C188.755 101.4 188.689 101.333 188.689 101.2V100.02C188.689 99.8867 188.755 99.82 188.889 99.82H190.109C190.162 99.82 190.189 99.7933 190.189 99.74V97.38C190.189 97.2467 190.255 97.18 190.389 97.18H191.829C191.962 97.18 192.029 97.2467 192.029 97.38V99.74C192.029 99.7933 192.055 99.82 192.109 99.82H194.269C194.402 99.82 194.469 99.8867 194.469 100.02V101.2ZM197.992 98.22C197.618 98.22 197.312 98.1 197.072 97.86C196.832 97.62 196.712 97.3133 196.712 96.94C196.712 96.5667 196.832 96.26 197.072 96.02C197.312 95.78 197.618 95.66 197.992 95.66C198.365 95.66 198.672 95.78 198.912 96.02C199.152 96.26 199.272 96.5667 199.272 96.94C199.272 97.3133 199.152 97.62 198.912 97.86C198.672 98.1 198.365 98.22 197.992 98.22ZM197.192 109.98C197.058 109.98 196.992 109.913 196.992 109.78V100.02C196.992 99.8867 197.058 99.82 197.192 99.82H198.712C198.845 99.82 198.912 99.8867 198.912 100.02V109.78C198.912 109.913 198.845 109.98 198.712 109.98H197.192ZM205.509 110.12C204.709 110.12 204.003 110 203.389 109.76C202.789 109.52 202.323 109.193 201.989 108.78C201.656 108.353 201.489 107.887 201.489 107.38V107.16C201.489 107.027 201.556 106.96 201.689 106.96H203.129C203.263 106.96 203.329 107.027 203.329 107.16V107.26C203.329 107.633 203.529 107.96 203.929 108.24C204.343 108.52 204.863 108.66 205.489 108.66C206.089 108.66 206.576 108.533 206.949 108.28C207.323 108.013 207.509 107.68 207.509 107.28C207.509 106.893 207.336 106.607 206.989 106.42C206.643 106.22 206.083 106.013 205.309 105.8C204.549 105.587 203.909 105.373 203.389 105.16C202.883 104.933 202.449 104.62 202.089 104.22C201.743 103.807 201.569 103.28 201.569 102.64C201.569 101.747 201.916 101.04 202.609 100.52C203.316 99.9867 204.249 99.72 205.409 99.72C206.183 99.72 206.863 99.8467 207.449 100.1C208.049 100.34 208.509 100.68 208.829 101.12C209.149 101.56 209.309 102.053 209.309 102.6V102.66C209.309 102.793 209.243 102.86 209.109 102.86H207.709C207.576 102.86 207.509 102.793 207.509 102.66V102.6C207.509 102.213 207.316 101.893 206.929 101.64C206.556 101.373 206.043 101.24 205.389 101.24C204.803 101.24 204.323 101.353 203.949 101.58C203.589 101.807 203.409 102.113 203.409 102.5C203.409 102.887 203.583 103.18 203.929 103.38C204.289 103.58 204.863 103.793 205.649 104.02C206.423 104.233 207.063 104.447 207.569 104.66C208.089 104.86 208.529 105.167 208.889 105.58C209.249 105.98 209.429 106.507 209.429 107.16C209.429 108.067 209.069 108.787 208.349 109.32C207.643 109.853 206.696 110.12 205.509 110.12ZM215.021 110.12C214.221 110.12 213.514 110 212.901 109.76C212.301 109.52 211.834 109.193 211.501 108.78C211.168 108.353 211.001 107.887 211.001 107.38V107.16C211.001 107.027 211.068 106.96 211.201 106.96H212.641C212.774 106.96 212.841 107.027 212.841 107.16V107.26C212.841 107.633 213.041 107.96 213.441 108.24C213.854 108.52 214.374 108.66 215.001 108.66C215.601 108.66 216.088 108.533 216.461 108.28C216.834 108.013 217.021 107.68 217.021 107.28C217.021 106.893 216.848 106.607 216.501 106.42C216.154 106.22 215.594 106.013 214.821 105.8C214.061 105.587 213.421 105.373 212.901 105.16C212.394 104.933 211.961 104.62 211.601 104.22C211.254 103.807 211.081 103.28 211.081 102.64C211.081 101.747 211.428 101.04 212.121 100.52C212.828 99.9867 213.761 99.72 214.921 99.72C215.694 99.72 216.374 99.8467 216.961 100.1C217.561 100.34 218.021 100.68 218.341 101.12C218.661 101.56 218.821 102.053 218.821 102.6V102.66C218.821 102.793 218.754 102.86 218.621 102.86H217.221C217.088 102.86 217.021 102.793 217.021 102.66V102.6C217.021 102.213 216.828 101.893 216.441 101.64C216.068 101.373 215.554 101.24 214.901 101.24C214.314 101.24 213.834 101.353 213.461 101.58C213.101 101.807 212.921 102.113 212.921 102.5C212.921 102.887 213.094 103.18 213.441 103.38C213.801 103.58 214.374 103.793 215.161 104.02C215.934 104.233 216.574 104.447 217.081 104.66C217.601 104.86 218.041 105.167 218.401 105.58C218.761 105.98 218.941 106.507 218.941 107.16C218.941 108.067 218.581 108.787 217.861 109.32C217.154 109.853 216.208 110.12 215.021 110.12ZM224.907 99.66C225.72 99.66 226.427 99.8067 227.027 100.1C227.64 100.38 228.107 100.78 228.427 101.3C228.76 101.807 228.927 102.387 228.927 103.04V109.8C228.927 109.933 228.86 110 228.727 110H227.207C227.074 110 227.007 109.933 227.007 109.8V109.08C227.007 109.013 226.974 109 226.907 109.04C226.56 109.4 226.134 109.68 225.627 109.88C225.134 110.067 224.58 110.16 223.967 110.16C222.98 110.16 222.16 109.913 221.507 109.42C220.867 108.913 220.547 108.153 220.547 107.14C220.547 106.1 220.907 105.287 221.627 104.7C222.36 104.1 223.38 103.8 224.687 103.8H226.927C226.98 103.8 227.007 103.773 227.007 103.72V103.18C227.007 102.593 226.834 102.14 226.487 101.82C226.154 101.487 225.64 101.32 224.947 101.32C224.387 101.32 223.927 101.433 223.567 101.66C223.22 101.873 223.007 102.167 222.927 102.54C222.887 102.673 222.807 102.733 222.687 102.72L221.067 102.5C220.934 102.473 220.874 102.42 220.887 102.34C220.994 101.553 221.414 100.913 222.147 100.42C222.88 99.9133 223.8 99.66 224.907 99.66ZM224.387 108.54C225.094 108.54 225.707 108.353 226.227 107.98C226.747 107.607 227.007 107.133 227.007 106.56V105.38C227.007 105.327 226.98 105.3 226.927 105.3H225.047C224.26 105.3 223.634 105.453 223.167 105.76C222.7 106.067 222.467 106.493 222.467 107.04C222.467 107.533 222.64 107.907 222.987 108.16C223.347 108.413 223.814 108.54 224.387 108.54ZM237.779 100.02C237.779 99.8867 237.846 99.82 237.979 99.82H239.499C239.632 99.82 239.699 99.8867 239.699 100.02V109.48C239.699 111.093 239.239 112.247 238.319 112.94C237.412 113.633 236.192 113.98 234.659 113.98C234.446 113.98 234.112 113.967 233.659 113.94C233.526 113.927 233.459 113.853 233.459 113.72L233.519 112.34C233.519 112.287 233.539 112.24 233.579 112.2C233.619 112.16 233.672 112.147 233.739 112.16C233.926 112.173 234.199 112.18 234.559 112.18C235.692 112.18 236.512 111.967 237.019 111.54C237.526 111.127 237.779 110.42 237.779 109.42V109.06C237.779 109.033 237.766 109.013 237.739 109C237.726 108.987 237.706 108.993 237.679 109.02C237.119 109.673 236.299 110 235.219 110C234.352 110 233.566 109.773 232.859 109.32C232.166 108.867 231.686 108.2 231.419 107.32C231.246 106.733 231.159 105.92 231.159 104.88C231.159 103.773 231.259 102.92 231.459 102.32C231.712 101.52 232.159 100.88 232.799 100.4C233.452 99.9067 234.219 99.66 235.099 99.66C236.192 99.66 237.052 99.9933 237.679 100.66C237.706 100.687 237.726 100.7 237.739 100.7C237.766 100.687 237.779 100.667 237.779 100.64V100.02ZM237.659 106.74C237.699 106.527 237.726 106.3 237.739 106.06C237.766 105.82 237.779 105.42 237.779 104.86C237.779 104.3 237.766 103.907 237.739 103.68C237.726 103.44 237.692 103.213 237.639 103C237.532 102.507 237.292 102.107 236.919 101.8C236.546 101.48 236.079 101.32 235.519 101.32C234.959 101.32 234.492 101.48 234.119 101.8C233.746 102.107 233.479 102.507 233.319 103C233.172 103.4 233.099 104.02 233.099 104.86C233.099 105.78 233.166 106.407 233.299 106.74C233.432 107.233 233.692 107.64 234.079 107.96C234.479 108.267 234.959 108.42 235.519 108.42C236.106 108.42 236.579 108.267 236.939 107.96C237.312 107.64 237.552 107.233 237.659 106.74ZM250.619 103.64C250.672 104.187 250.692 104.8 250.679 105.48C250.679 105.613 250.612 105.68 250.479 105.68H244.099C244.045 105.68 244.019 105.707 244.019 105.76C244.019 106.213 244.059 106.56 244.139 106.8C244.285 107.333 244.579 107.753 245.019 108.06C245.472 108.353 246.039 108.5 246.719 108.5C247.705 108.5 248.465 108.093 248.999 107.28C249.065 107.147 249.152 107.127 249.259 107.22L250.399 107.98C250.492 108.06 250.512 108.147 250.459 108.24C250.085 108.84 249.552 109.313 248.859 109.66C248.179 110.007 247.405 110.18 246.539 110.18C245.565 110.18 244.745 109.967 244.079 109.54C243.412 109.113 242.912 108.507 242.579 107.72C242.259 106.933 242.099 105.98 242.099 104.86C242.099 103.887 242.172 103.147 242.319 102.64C242.559 101.72 243.039 100.993 243.759 100.46C244.479 99.9267 245.352 99.66 246.379 99.66C247.725 99.66 248.732 100 249.399 100.68C250.065 101.347 250.472 102.333 250.619 103.64ZM246.379 101.32C245.805 101.32 245.332 101.467 244.959 101.76C244.585 102.04 244.332 102.42 244.199 102.9C244.105 103.193 244.045 103.567 244.019 104.02C244.019 104.073 244.045 104.1 244.099 104.1H248.679C248.732 104.1 248.759 104.073 248.759 104.02C248.732 103.58 248.692 103.253 248.639 103.04C248.505 102.52 248.239 102.107 247.839 101.8C247.452 101.48 246.965 101.32 246.379 101.32Z" fill="white"/>
<path d="M68.6368 122.18C68.6368 122.247 68.6101 122.307 68.5568 122.36C68.5168 122.4 68.4635 122.42 68.3968 122.42H61.8568C61.7901 122.42 61.7568 122.453 61.7568 122.52V125.62C61.7568 125.687 61.7901 125.72 61.8568 125.72H66.1568C66.2235 125.72 66.2768 125.747 66.3168 125.8C66.3701 125.84 66.3968 125.893 66.3968 125.96V127.9C66.3968 127.967 66.3701 128.027 66.3168 128.08C66.2768 128.12 66.2235 128.14 66.1568 128.14H61.8568C61.7901 128.14 61.7568 128.173 61.7568 128.24V133.76C61.7568 133.827 61.7301 133.887 61.6768 133.94C61.6368 133.98 61.5835 134 61.5168 134H59.1768C59.1101 134 59.0501 133.98 58.9968 133.94C58.9568 133.887 58.9368 133.827 58.9368 133.76V120.24C58.9368 120.173 58.9568 120.12 58.9968 120.08C59.0501 120.027 59.1101 120 59.1768 120H68.3968C68.4635 120 68.5168 120.027 68.5568 120.08C68.6101 120.12 68.6368 120.173 68.6368 120.24V122.18ZM73.3359 134.16C72.2159 134.16 71.2559 133.867 70.4559 133.28C69.6559 132.693 69.1092 131.893 68.8159 130.88C68.6292 130.253 68.5359 129.573 68.5359 128.84C68.5359 128.053 68.6292 127.347 68.8159 126.72C69.1225 125.733 69.6759 124.96 70.4759 124.4C71.2759 123.84 72.2359 123.56 73.3559 123.56C74.4492 123.56 75.3825 123.84 76.1559 124.4C76.9292 124.947 77.4759 125.713 77.7959 126.7C78.0092 127.367 78.1159 128.067 78.1159 128.8C78.1159 129.52 78.0225 130.193 77.8359 130.82C77.5425 131.86 76.9959 132.68 76.1959 133.28C75.4092 133.867 74.4559 134.16 73.3359 134.16ZM73.3359 131.74C73.7759 131.74 74.1492 131.607 74.4559 131.34C74.7625 131.073 74.9825 130.707 75.1159 130.24C75.2225 129.813 75.2759 129.347 75.2759 128.84C75.2759 128.28 75.2225 127.807 75.1159 127.42C74.9692 126.967 74.7425 126.613 74.4359 126.36C74.1292 126.107 73.7559 125.98 73.3159 125.98C72.8625 125.98 72.4825 126.107 72.1759 126.36C71.8825 126.613 71.6692 126.967 71.5359 127.42C71.4292 127.74 71.3759 128.213 71.3759 128.84C71.3759 129.44 71.4225 129.907 71.5159 130.24C71.6492 130.707 71.8692 131.073 72.1759 131.34C72.4959 131.607 72.8825 131.74 73.3359 131.74ZM85.0487 123.58C85.5287 123.58 85.9087 123.673 86.1887 123.86C86.2953 123.913 86.3353 124.013 86.3087 124.16L85.8887 126.44C85.8753 126.6 85.782 126.647 85.6087 126.58C85.4087 126.513 85.1753 126.48 84.9087 126.48C84.802 126.48 84.6553 126.493 84.4687 126.52C83.9887 126.56 83.582 126.74 83.2487 127.06C82.9153 127.367 82.7487 127.78 82.7487 128.3V133.76C82.7487 133.827 82.722 133.887 82.6687 133.94C82.6287 133.98 82.5753 134 82.5087 134H80.1687C80.102 134 80.042 133.98 79.9887 133.94C79.9487 133.887 79.9287 133.827 79.9287 133.76V123.96C79.9287 123.893 79.9487 123.84 79.9887 123.8C80.042 123.747 80.102 123.72 80.1687 123.72H82.5087C82.5753 123.72 82.6287 123.747 82.6687 123.8C82.722 123.84 82.7487 123.893 82.7487 123.96V124.72C82.7487 124.76 82.762 124.787 82.7887 124.8C82.8153 124.813 82.8353 124.807 82.8487 124.78C83.3953 123.98 84.1287 123.58 85.0487 123.58ZM98.9849 123.56C100.025 123.56 100.838 123.873 101.425 124.5C102.012 125.127 102.305 126.007 102.305 127.14V133.76C102.305 133.827 102.278 133.887 102.225 133.94C102.185 133.98 102.132 134 102.065 134H99.7249C99.6583 134 99.5983 133.98 99.5449 133.94C99.5049 133.887 99.4849 133.827 99.4849 133.76V127.76C99.4849 127.213 99.3449 126.78 99.0649 126.46C98.7849 126.14 98.4116 125.98 97.9449 125.98C97.4783 125.98 97.0983 126.14 96.8049 126.46C96.5116 126.78 96.3649 127.207 96.3649 127.74V133.76C96.3649 133.827 96.3383 133.887 96.2849 133.94C96.2449 133.98 96.1916 134 96.1249 134H93.8049C93.7383 134 93.6783 133.98 93.6249 133.94C93.5849 133.887 93.5649 133.827 93.5649 133.76V127.76C93.5649 127.227 93.4183 126.8 93.1249 126.48C92.8316 126.147 92.4516 125.98 91.9849 125.98C91.5583 125.98 91.1983 126.107 90.9049 126.36C90.6249 126.613 90.4583 126.967 90.4049 127.42V133.76C90.4049 133.827 90.3783 133.887 90.3249 133.94C90.2849 133.98 90.2316 134 90.1649 134H87.8249C87.7583 134 87.6983 133.98 87.6449 133.94C87.6049 133.887 87.5849 133.827 87.5849 133.76V123.96C87.5849 123.893 87.6049 123.84 87.6449 123.8C87.6983 123.747 87.7583 123.72 87.8249 123.72H90.1649C90.2316 123.72 90.2849 123.747 90.3249 123.8C90.3783 123.84 90.4049 123.893 90.4049 123.96V124.74C90.4049 124.78 90.4183 124.807 90.4449 124.82C90.4716 124.833 90.4983 124.82 90.5249 124.78C91.0716 123.967 91.9183 123.56 93.0649 123.56C93.7316 123.56 94.3116 123.7 94.8049 123.98C95.3116 124.26 95.6983 124.66 95.9649 125.18C96.0049 125.26 96.0516 125.26 96.1049 125.18C96.3983 124.633 96.7916 124.227 97.2849 123.96C97.7916 123.693 98.3583 123.56 98.9849 123.56ZM108.384 123.56C109.251 123.56 110.024 123.713 110.704 124.02C111.384 124.313 111.911 124.72 112.284 125.24C112.671 125.76 112.864 126.34 112.864 126.98V133.76C112.864 133.827 112.837 133.887 112.784 133.94C112.744 133.98 112.691 134 112.624 134H110.284C110.217 134 110.157 133.98 110.104 133.94C110.064 133.887 110.044 133.827 110.044 133.76V133.1C110.044 133.06 110.031 133.033 110.004 133.02C109.977 133.007 109.951 133.02 109.924 133.06C109.364 133.793 108.464 134.16 107.224 134.16C106.184 134.16 105.344 133.907 104.704 133.4C104.064 132.893 103.744 132.147 103.744 131.16C103.744 130.133 104.104 129.34 104.824 128.78C105.544 128.207 106.571 127.92 107.904 127.92H109.944C110.011 127.92 110.044 127.887 110.044 127.82V127.38C110.044 126.94 109.911 126.6 109.644 126.36C109.377 126.107 108.977 125.98 108.444 125.98C108.031 125.98 107.684 126.053 107.404 126.2C107.137 126.347 106.964 126.553 106.884 126.82C106.844 126.967 106.757 127.033 106.624 127.02L104.204 126.7C104.044 126.673 103.971 126.613 103.984 126.52C104.037 125.96 104.257 125.453 104.644 125C105.044 124.547 105.564 124.193 106.204 123.94C106.857 123.687 107.584 123.56 108.384 123.56ZM107.984 132.06C108.557 132.06 109.044 131.907 109.444 131.6C109.844 131.293 110.044 130.9 110.044 130.42V129.7C110.044 129.633 110.011 129.6 109.944 129.6H108.504C107.904 129.6 107.431 129.713 107.084 129.94C106.751 130.167 106.584 130.487 106.584 130.9C106.584 131.26 106.711 131.547 106.964 131.76C107.217 131.96 107.557 132.06 107.984 132.06ZM120.536 125.74C120.536 125.807 120.509 125.867 120.456 125.92C120.416 125.96 120.362 125.98 120.296 125.98H118.376C118.309 125.98 118.276 126.013 118.276 126.08V130.32C118.276 130.76 118.362 131.087 118.536 131.3C118.722 131.513 119.016 131.62 119.416 131.62H120.076C120.142 131.62 120.196 131.647 120.236 131.7C120.289 131.74 120.316 131.793 120.316 131.86V133.76C120.316 133.907 120.236 133.993 120.076 134.02C119.516 134.047 119.116 134.06 118.876 134.06C117.769 134.06 116.942 133.88 116.396 133.52C115.849 133.147 115.569 132.453 115.556 131.44V126.08C115.556 126.013 115.522 125.98 115.456 125.98H114.316C114.249 125.98 114.189 125.96 114.136 125.92C114.096 125.867 114.076 125.807 114.076 125.74V123.96C114.076 123.893 114.096 123.84 114.136 123.8C114.189 123.747 114.249 123.72 114.316 123.72H115.456C115.522 123.72 115.556 123.687 115.556 123.62V121.24C115.556 121.173 115.576 121.12 115.616 121.08C115.669 121.027 115.729 121 115.796 121H118.036C118.102 121 118.156 121.027 118.196 121.08C118.249 121.12 118.276 121.173 118.276 121.24V123.62C118.276 123.687 118.309 123.72 118.376 123.72H120.296C120.362 123.72 120.416 123.747 120.456 123.8C120.509 123.84 120.536 123.893 120.536 123.96V125.74ZM123.753 122.56C123.3 122.56 122.92 122.413 122.613 122.12C122.32 121.813 122.173 121.433 122.173 120.98C122.173 120.513 122.32 120.133 122.613 119.84C122.907 119.547 123.287 119.4 123.753 119.4C124.22 119.4 124.6 119.547 124.893 119.84C125.187 120.133 125.333 120.513 125.333 120.98C125.333 121.433 125.18 121.813 124.873 122.12C124.58 122.413 124.207 122.56 123.753 122.56ZM122.553 134C122.487 134 122.427 133.98 122.373 133.94C122.333 133.887 122.313 133.827 122.313 133.76V123.94C122.313 123.873 122.333 123.82 122.373 123.78C122.427 123.727 122.487 123.7 122.553 123.7H124.893C124.96 123.7 125.013 123.727 125.053 123.78C125.107 123.82 125.133 123.873 125.133 123.94V133.76C125.133 133.827 125.107 133.887 125.053 133.94C125.013 133.98 124.96 134 124.893 134H122.553ZM131.871 134.16C130.751 134.16 129.791 133.867 128.991 133.28C128.191 132.693 127.644 131.893 127.351 130.88C127.164 130.253 127.071 129.573 127.071 128.84C127.071 128.053 127.164 127.347 127.351 126.72C127.658 125.733 128.211 124.96 129.011 124.4C129.811 123.84 130.771 123.56 131.891 123.56C132.984 123.56 133.918 123.84 134.691 124.4C135.464 124.947 136.011 125.713 136.331 126.7C136.544 127.367 136.651 128.067 136.651 128.8C136.651 129.52 136.558 130.193 136.371 130.82C136.078 131.86 135.531 132.68 134.731 133.28C133.944 133.867 132.991 134.16 131.871 134.16ZM131.871 131.74C132.311 131.74 132.684 131.607 132.991 131.34C133.298 131.073 133.518 130.707 133.651 130.24C133.758 129.813 133.811 129.347 133.811 128.84C133.811 128.28 133.758 127.807 133.651 127.42C133.504 126.967 133.278 126.613 132.971 126.36C132.664 126.107 132.291 125.98 131.851 125.98C131.398 125.98 131.018 126.107 130.711 126.36C130.418 126.613 130.204 126.967 130.071 127.42C129.964 127.74 129.911 128.213 129.911 128.84C129.911 129.44 129.958 129.907 130.051 130.24C130.184 130.707 130.404 131.073 130.711 131.34C131.031 131.607 131.418 131.74 131.871 131.74ZM143.824 123.56C144.89 123.56 145.75 123.887 146.404 124.54C147.057 125.193 147.384 126.08 147.384 127.2V133.76C147.384 133.827 147.357 133.887 147.304 133.94C147.264 133.98 147.21 134 147.144 134H144.804C144.737 134 144.677 133.98 144.624 133.94C144.584 133.887 144.564 133.827 144.564 133.76V127.78C144.564 127.247 144.41 126.813 144.104 126.48C143.81 126.147 143.417 125.98 142.924 125.98C142.43 125.98 142.03 126.147 141.724 126.48C141.43 126.813 141.284 127.247 141.284 127.78V133.76C141.284 133.827 141.257 133.887 141.204 133.94C141.164 133.98 141.11 134 141.044 134H138.704C138.637 134 138.577 133.98 138.524 133.94C138.484 133.887 138.464 133.827 138.464 133.76V123.96C138.464 123.893 138.484 123.84 138.524 123.8C138.577 123.747 138.637 123.72 138.704 123.72H141.044C141.11 123.72 141.164 123.747 141.204 123.8C141.257 123.84 141.284 123.893 141.284 123.96V124.66C141.284 124.7 141.297 124.727 141.324 124.74C141.35 124.753 141.37 124.747 141.384 124.72C141.93 123.947 142.744 123.56 143.824 123.56ZM157.945 134.16C156.825 134.16 155.865 133.867 155.065 133.28C154.265 132.693 153.719 131.893 153.425 130.88C153.239 130.253 153.145 129.573 153.145 128.84C153.145 128.053 153.239 127.347 153.425 126.72C153.732 125.733 154.285 124.96 155.085 124.4C155.885 123.84 156.845 123.56 157.965 123.56C159.059 123.56 159.992 123.84 160.765 124.4C161.539 124.947 162.085 125.713 162.405 126.7C162.619 127.367 162.725 128.067 162.725 128.8C162.725 129.52 162.632 130.193 162.445 130.82C162.152 131.86 161.605 132.68 160.805 133.28C160.019 133.867 159.065 134.16 157.945 134.16ZM157.945 131.74C158.385 131.74 158.759 131.607 159.065 131.34C159.372 131.073 159.592 130.707 159.725 130.24C159.832 129.813 159.885 129.347 159.885 128.84C159.885 128.28 159.832 127.807 159.725 127.42C159.579 126.967 159.352 126.613 159.045 126.36C158.739 126.107 158.365 125.98 157.925 125.98C157.472 125.98 157.092 126.107 156.785 126.36C156.492 126.613 156.279 126.967 156.145 127.42C156.039 127.74 155.985 128.213 155.985 128.84C155.985 129.44 156.032 129.907 156.125 130.24C156.259 130.707 156.479 131.073 156.785 131.34C157.105 131.607 157.492 131.74 157.945 131.74ZM173.638 126.34C173.891 127.033 174.018 127.86 174.018 128.82C174.018 129.74 173.905 130.547 173.678 131.24C173.371 132.147 172.878 132.86 172.198 133.38C171.531 133.9 170.738 134.16 169.818 134.16C168.845 134.16 168.078 133.793 167.518 133.06C167.491 133.033 167.465 133.027 167.438 133.04C167.411 133.04 167.398 133.06 167.398 133.1V133.76C167.398 133.827 167.371 133.887 167.318 133.94C167.278 133.98 167.225 134 167.158 134H164.818C164.751 134 164.691 133.98 164.638 133.94C164.598 133.887 164.578 133.827 164.578 133.76V120.24C164.578 120.173 164.598 120.12 164.638 120.08C164.691 120.027 164.751 120 164.818 120H167.158C167.225 120 167.278 120.027 167.318 120.08C167.371 120.12 167.398 120.173 167.398 120.24V124.52C167.398 124.56 167.411 124.587 167.438 124.6C167.465 124.613 167.491 124.6 167.518 124.56C168.038 123.893 168.778 123.56 169.738 123.56C170.711 123.56 171.525 123.813 172.178 124.32C172.845 124.813 173.331 125.487 173.638 126.34ZM170.678 130.88C170.958 130.373 171.098 129.707 171.098 128.88C171.098 127.96 170.938 127.253 170.618 126.76C170.298 126.24 169.825 125.98 169.198 125.98C168.611 125.98 168.165 126.24 167.858 126.76C167.565 127.267 167.418 127.967 167.418 128.86C167.418 129.753 167.551 130.427 167.818 130.88C168.138 131.453 168.605 131.74 169.218 131.74C169.871 131.74 170.358 131.453 170.678 130.88ZM176.106 134C176.04 134 175.98 133.98 175.926 133.94C175.886 133.887 175.866 133.827 175.866 133.76V120.24C175.866 120.173 175.886 120.12 175.926 120.08C175.98 120.027 176.04 120 176.106 120H178.446C178.513 120 178.566 120.027 178.606 120.08C178.66 120.12 178.686 120.173 178.686 120.24V133.76C178.686 133.827 178.66 133.887 178.606 133.94C178.566 133.98 178.513 134 178.446 134H176.106ZM182.269 122.56C181.816 122.56 181.436 122.413 181.129 122.12C180.836 121.813 180.689 121.433 180.689 120.98C180.689 120.513 180.836 120.133 181.129 119.84C181.422 119.547 181.802 119.4 182.269 119.4C182.736 119.4 183.116 119.547 183.409 119.84C183.702 120.133 183.849 120.513 183.849 120.98C183.849 121.433 183.696 121.813 183.389 122.12C183.096 122.413 182.722 122.56 182.269 122.56ZM181.069 134C181.002 134 180.942 133.98 180.889 133.94C180.849 133.887 180.829 133.827 180.829 133.76V123.94C180.829 123.873 180.849 123.82 180.889 123.78C180.942 123.727 181.002 123.7 181.069 123.7H183.409C183.476 123.7 183.529 123.727 183.569 123.78C183.622 123.82 183.649 123.873 183.649 123.94V133.76C183.649 133.827 183.622 133.887 183.569 133.94C183.529 133.98 183.476 134 183.409 134H181.069ZM192.127 123.96C192.127 123.893 192.147 123.84 192.187 123.8C192.24 123.747 192.3 123.72 192.367 123.72H194.707C194.773 123.72 194.827 123.747 194.867 123.8C194.92 123.84 194.947 123.893 194.947 123.96V133.08C194.947 134.827 194.44 136.073 193.427 136.82C192.427 137.567 191.133 137.94 189.547 137.94C189.08 137.94 188.56 137.907 187.987 137.84C187.853 137.827 187.787 137.74 187.787 137.58L187.867 135.52C187.867 135.347 187.96 135.273 188.147 135.3C188.627 135.38 189.067 135.42 189.467 135.42C190.32 135.42 190.973 135.233 191.427 134.86C191.893 134.487 192.127 133.887 192.127 133.06C192.127 133.02 192.113 133 192.087 133C192.06 132.987 192.033 132.993 192.007 133.02C191.5 133.567 190.76 133.84 189.787 133.84C188.92 133.84 188.12 133.633 187.387 133.22C186.667 132.793 186.153 132.113 185.847 131.18C185.647 130.567 185.547 129.773 185.547 128.8C185.547 127.76 185.667 126.913 185.907 126.26C186.187 125.447 186.66 124.793 187.327 124.3C187.993 123.807 188.767 123.56 189.647 123.56C190.673 123.56 191.46 123.867 192.007 124.48C192.033 124.507 192.06 124.52 192.087 124.52C192.113 124.507 192.127 124.48 192.127 124.44V123.96ZM191.967 130.42C192.073 130.02 192.127 129.473 192.127 128.78C192.127 128.367 192.113 128.047 192.087 127.82C192.06 127.593 192.013 127.38 191.947 127.18C191.827 126.82 191.627 126.533 191.347 126.32C191.067 126.093 190.72 125.98 190.307 125.98C189.907 125.98 189.567 126.093 189.287 126.32C189.007 126.533 188.8 126.82 188.667 127.18C188.48 127.58 188.387 128.12 188.387 128.8C188.387 129.547 188.467 130.08 188.627 130.4C188.747 130.76 188.953 131.053 189.247 131.28C189.553 131.493 189.913 131.6 190.327 131.6C190.753 131.6 191.107 131.493 191.387 131.28C191.667 131.053 191.86 130.767 191.967 130.42ZM201.06 123.56C201.927 123.56 202.7 123.713 203.38 124.02C204.06 124.313 204.587 124.72 204.96 125.24C205.347 125.76 205.54 126.34 205.54 126.98V133.76C205.54 133.827 205.513 133.887 205.46 133.94C205.42 133.98 205.367 134 205.3 134H202.96C202.893 134 202.833 133.98 202.78 133.94C202.74 133.887 202.72 133.827 202.72 133.76V133.1C202.72 133.06 202.707 133.033 202.68 133.02C202.653 133.007 202.627 133.02 202.6 133.06C202.04 133.793 201.14 134.16 199.9 134.16C198.86 134.16 198.02 133.907 197.38 133.4C196.74 132.893 196.42 132.147 196.42 131.16C196.42 130.133 196.78 129.34 197.5 128.78C198.22 128.207 199.247 127.92 200.58 127.92H202.62C202.687 127.92 202.72 127.887 202.72 127.82V127.38C202.72 126.94 202.587 126.6 202.32 126.36C202.053 126.107 201.653 125.98 201.12 125.98C200.707 125.98 200.36 126.053 200.08 126.2C199.813 126.347 199.64 126.553 199.56 126.82C199.52 126.967 199.433 127.033 199.3 127.02L196.88 126.7C196.72 126.673 196.647 126.613 196.66 126.52C196.713 125.96 196.933 125.453 197.32 125C197.72 124.547 198.24 124.193 198.88 123.94C199.533 123.687 200.26 123.56 201.06 123.56ZM200.66 132.06C201.233 132.06 201.72 131.907 202.12 131.6C202.52 131.293 202.72 130.9 202.72 130.42V129.7C202.72 129.633 202.687 129.6 202.62 129.6H201.18C200.58 129.6 200.107 129.713 199.76 129.94C199.427 130.167 199.26 130.487 199.26 130.9C199.26 131.26 199.387 131.547 199.64 131.76C199.893 131.96 200.233 132.06 200.66 132.06ZM213.211 125.74C213.211 125.807 213.185 125.867 213.131 125.92C213.091 125.96 213.038 125.98 212.971 125.98H211.051C210.985 125.98 210.951 126.013 210.951 126.08V130.32C210.951 130.76 211.038 131.087 211.211 131.3C211.398 131.513 211.691 131.62 212.091 131.62H212.751C212.818 131.62 212.871 131.647 212.911 131.7C212.965 131.74 212.991 131.793 212.991 131.86V133.76C212.991 133.907 212.911 133.993 212.751 134.02C212.191 134.047 211.791 134.06 211.551 134.06C210.445 134.06 209.618 133.88 209.071 133.52C208.525 133.147 208.245 132.453 208.231 131.44V126.08C208.231 126.013 208.198 125.98 208.131 125.98H206.991C206.925 125.98 206.865 125.96 206.811 125.92C206.771 125.867 206.751 125.807 206.751 125.74V123.96C206.751 123.893 206.771 123.84 206.811 123.8C206.865 123.747 206.925 123.72 206.991 123.72H208.131C208.198 123.72 208.231 123.687 208.231 123.62V121.24C208.231 121.173 208.251 121.12 208.291 121.08C208.345 121.027 208.405 121 208.471 121H210.711C210.778 121 210.831 121.027 210.871 121.08C210.925 121.12 210.951 121.173 210.951 121.24V123.62C210.951 123.687 210.985 123.72 211.051 123.72H212.971C213.038 123.72 213.091 123.747 213.131 123.8C213.185 123.84 213.211 123.893 213.211 123.96V125.74ZM219.312 134.16C218.192 134.16 217.232 133.867 216.432 133.28C215.632 132.693 215.086 131.893 214.792 130.88C214.606 130.253 214.512 129.573 214.512 128.84C214.512 128.053 214.606 127.347 214.792 126.72C215.099 125.733 215.652 124.96 216.452 124.4C217.252 123.84 218.212 123.56 219.332 123.56C220.426 123.56 221.359 123.84 222.132 124.4C222.906 124.947 223.452 125.713 223.772 126.7C223.986 127.367 224.092 128.067 224.092 128.8C224.092 129.52 223.999 130.193 223.812 130.82C223.519 131.86 222.972 132.68 222.172 133.28C221.386 133.867 220.432 134.16 219.312 134.16ZM219.312 131.74C219.752 131.74 220.126 131.607 220.432 131.34C220.739 131.073 220.959 130.707 221.092 130.24C221.199 129.813 221.252 129.347 221.252 128.84C221.252 128.28 221.199 127.807 221.092 127.42C220.946 126.967 220.719 126.613 220.412 126.36C220.106 126.107 219.732 125.98 219.292 125.98C218.839 125.98 218.459 126.107 218.152 126.36C217.859 126.613 217.646 126.967 217.512 127.42C217.406 127.74 217.352 128.213 217.352 128.84C217.352 129.44 217.399 129.907 217.492 130.24C217.626 130.707 217.846 131.073 218.152 131.34C218.472 131.607 218.859 131.74 219.312 131.74ZM227.425 122.56C226.972 122.56 226.592 122.413 226.285 122.12C225.992 121.813 225.845 121.433 225.845 120.98C225.845 120.513 225.992 120.133 226.285 119.84C226.579 119.547 226.959 119.4 227.425 119.4C227.892 119.4 228.272 119.547 228.565 119.84C228.859 120.133 229.005 120.513 229.005 120.98C229.005 121.433 228.852 121.813 228.545 122.12C228.252 122.413 227.879 122.56 227.425 122.56ZM226.225 134C226.159 134 226.099 133.98 226.045 133.94C226.005 133.887 225.985 133.827 225.985 133.76V123.94C225.985 123.873 226.005 123.82 226.045 123.78C226.099 123.727 226.159 123.7 226.225 123.7H228.565C228.632 123.7 228.685 123.727 228.725 123.78C228.779 123.82 228.805 123.873 228.805 123.94V133.76C228.805 133.827 228.779 133.887 228.725 133.94C228.685 133.98 228.632 134 228.565 134H226.225ZM236.123 123.58C236.603 123.58 236.983 123.673 237.263 123.86C237.37 123.913 237.41 124.013 237.383 124.16L236.963 126.44C236.95 126.6 236.856 126.647 236.683 126.58C236.483 126.513 236.25 126.48 235.983 126.48C235.876 126.48 235.73 126.493 235.543 126.52C235.063 126.56 234.656 126.74 234.323 127.06C233.99 127.367 233.823 127.78 233.823 128.3V133.76C233.823 133.827 233.796 133.887 233.743 133.94C233.703 133.98 233.65 134 233.583 134H231.243C231.176 134 231.116 133.98 231.063 133.94C231.023 133.887 231.003 133.827 231.003 133.76V123.96C231.003 123.893 231.023 123.84 231.063 123.8C231.116 123.747 231.176 123.72 231.243 123.72H233.583C233.65 123.72 233.703 123.747 233.743 123.8C233.796 123.84 233.823 123.893 233.823 123.96V124.72C233.823 124.76 233.836 124.787 233.863 124.8C233.89 124.813 233.91 124.807 233.923 124.78C234.47 123.98 235.203 123.58 236.123 123.58ZM247.505 127.8C247.585 128.307 247.612 128.873 247.585 129.5C247.572 129.66 247.485 129.74 247.325 129.74H241.145C241.065 129.74 241.039 129.773 241.065 129.84C241.105 130.107 241.179 130.373 241.285 130.64C241.632 131.387 242.339 131.76 243.405 131.76C244.259 131.747 244.932 131.4 245.425 130.72C245.479 130.64 245.539 130.6 245.605 130.6C245.645 130.6 245.692 130.627 245.745 130.68L247.185 132.1C247.252 132.167 247.285 132.227 247.285 132.28C247.285 132.307 247.259 132.36 247.205 132.44C246.765 132.987 246.199 133.413 245.505 133.72C244.812 134.013 244.052 134.16 243.225 134.16C242.079 134.16 241.105 133.9 240.305 133.38C239.519 132.86 238.952 132.133 238.605 131.2C238.325 130.533 238.185 129.66 238.185 128.58C238.185 127.847 238.285 127.2 238.485 126.64C238.792 125.693 239.325 124.94 240.085 124.38C240.859 123.82 241.772 123.54 242.825 123.54C244.159 123.54 245.225 123.927 246.025 124.7C246.839 125.473 247.332 126.507 247.505 127.8ZM242.845 125.98C242.005 125.98 241.452 126.373 241.185 127.16C241.132 127.333 241.085 127.547 241.045 127.8C241.045 127.867 241.079 127.9 241.145 127.9H244.605C244.685 127.9 244.712 127.867 244.685 127.8C244.619 127.413 244.585 127.227 244.585 127.24C244.465 126.84 244.252 126.533 243.945 126.32C243.652 126.093 243.285 125.98 242.845 125.98Z" fill="#F5A37B"/>
<g clip-path="url(#clip1_116_12)">
<path d="M166.627 27.987C168.762 30.1207 170.874 32.2349 173.114 34.4734C172.832 34.701 172.5 34.9217 172.222 35.1996C165.515 41.8941 158.82 48.5984 152.102 55.2817C151.656 55.7258 151.09 56.0972 150.512 56.3542C147.844 57.5425 145.153 58.6764 142.471 59.8327C142.034 60.0212 141.595 60.2153 141.185 59.8034C140.773 59.3886 140.981 58.9557 141.169 58.5186C142.37 55.7286 143.556 52.9329 144.772 50.1512C144.943 49.7588 145.213 49.3832 145.517 49.0787C152.454 42.1231 159.402 35.1772 166.349 28.2299C166.445 28.1336 166.554 28.0484 166.625 27.987H166.627ZM150.101 53.8657C149.092 52.8575 148.117 51.8842 147.127 50.8955C146.574 52.1425 145.981 53.4454 145.432 54.7664C145.368 54.92 145.505 55.2398 145.649 55.3739C145.792 55.5079 146.108 55.6155 146.27 55.5484C147.573 55.0052 148.857 54.4187 150.101 53.8643V53.8657Z" fill="white"/>
<path d="M150.062 39.3246C148.855 40.527 147.786 41.6204 146.676 42.6705C146.494 42.8423 146.131 42.8828 145.852 42.8842C142.39 42.8981 138.93 42.8911 135.469 42.8925C134.096 42.8925 133.599 43.3757 133.598 44.7177C133.595 51.6859 133.596 58.6555 133.598 65.6237C133.598 66.8791 134.117 67.3944 135.382 67.3958C142.374 67.3972 149.365 67.3972 156.356 67.3958C157.568 67.3958 158.097 66.8652 158.097 65.6517C158.1 62.1675 158.11 58.682 158.086 55.1979C158.082 54.6854 158.24 54.3377 158.6 53.99C159.597 53.0237 160.558 52.0196 161.644 50.9165C161.669 51.2837 161.696 51.4792 161.696 51.6733C161.699 56.3654 161.704 61.0588 161.696 65.7508C161.69 68.8746 159.572 70.9888 156.434 70.9916C149.397 70.9986 142.358 71 135.321 70.9902C132.083 70.9874 130.005 68.8998 130.002 65.6684C129.998 58.6304 129.997 51.5909 130.005 44.5529C130.008 41.9835 131.473 40.0257 133.802 39.4573C134.226 39.354 134.674 39.3079 135.111 39.3065C139.919 39.2967 144.728 39.2995 149.535 39.3009C149.646 39.3009 149.757 39.3107 150.06 39.326L150.062 39.3246Z" fill="white"/>
<path d="M167.775 26.8321C168.662 25.7988 169.702 25.0405 171.14 25.0014C172.024 24.9777 172.777 25.2709 173.401 25.8937C173.877 26.3685 174.325 26.8782 174.834 27.3167C176.417 28.6824 176.255 30.7212 175.141 32.2C174.852 32.584 174.485 32.9108 174.17 33.2446C172.024 31.0913 169.915 28.977 167.775 26.8321Z" fill="white"/>
</g>
<defs>
<clipPath id="clip0_116_12">
<rect width="287" height="177" fill="white" transform="translate(9)"/>
</clipPath>
<clipPath id="clip1_116_12">
<rect width="46" height="46" fill="white" transform="translate(130 25)"/>
</clipPath>
</defs>
</svg>
