<svg width="306" height="177" viewBox="0 0 306 177" fill="none" xmlns="http://www.w3.org/2000/svg">
<g clip-path="url(#clip0_116_11)">
<path d="M296 80.8747V155.738C296 167.482 286.382 177 274.515 177H30.4803C18.6176 177 9 167.482 9 155.738V80.8747C9 69.1305 18.6176 59.6126 30.4803 59.6126H93.6509C93.6509 14.6243 152.498 0 152.498 0C152.498 0 211.349 14.6243 211.349 59.6126H274.515C286.382 59.6126 296 69.1305 296 80.8747Z" fill="#182649"/>
<g clip-path="url(#clip1_116_11)">
<path d="M158.661 28C159.544 28.1614 160.439 28.2758 161.307 28.4981C162.212 28.7301 163.09 29.0647 163.997 29.3598C163.678 30.9868 163.373 32.5518 163.061 34.1478C158.391 32.4951 153.899 32.7966 149.611 35.2606C147.305 36.5851 144.653 39.3046 144.135 40.8011H157.509V45.9056H142.213C141.882 47.6341 141.884 49.321 142.206 51.0356H157.499V56.1497H144.048C146.045 59.4304 148.761 61.7106 152.322 62.9666C155.895 64.2259 159.469 64.1276 163.057 62.8095C163.37 64.4055 163.676 65.9683 164 67.6189C162.992 67.9364 162 68.303 160.979 68.5596C158.423 69.201 155.842 69.1016 153.299 68.535C146.327 66.9807 141.39 62.926 138.46 56.4747C138.345 56.2224 138.205 56.1593 137.944 56.1614C136.451 56.1732 134.956 56.1668 133.462 56.1668H133.002V51.0463H136.867V45.9269H133V40.8033C133.136 40.8033 133.277 40.8033 133.419 40.8033C134.94 40.8033 136.46 40.7969 137.981 40.8097C138.236 40.8118 138.355 40.7274 138.456 40.4986C140.987 34.8223 145.223 30.9825 151.15 28.9856C152.671 28.4736 154.244 28.1839 155.847 28.0673C155.979 28.0577 156.108 28.0224 156.239 28C157.047 28 157.854 28 158.662 28H158.661Z" fill="white"/>
</g>
</g>
<path d="M67.9154 110C67.7954 110 67.7154 109.947 67.6754 109.84L66.9554 107.5C66.9421 107.46 66.9154 107.44 66.8754 107.44H61.2554C61.2154 107.44 61.1887 107.46 61.1754 107.5L60.4554 109.84C60.4154 109.947 60.3354 110 60.2154 110H58.5954C58.4487 110 58.3954 109.927 58.4354 109.78L62.8154 96.16C62.8554 96.0533 62.9354 96 63.0554 96H65.0554C65.1754 96 65.2554 96.0533 65.2954 96.16L69.7154 109.78L69.7354 109.86C69.7354 109.953 69.6754 110 69.5554 110H67.9154ZM61.6754 105.82C61.6621 105.847 61.6621 105.873 61.6754 105.9C61.7021 105.913 61.7287 105.92 61.7554 105.92H66.3554C66.3821 105.92 66.4021 105.913 66.4154 105.9C66.4421 105.873 66.4487 105.847 66.4354 105.82L64.1154 98.4C64.1021 98.3733 64.0821 98.36 64.0554 98.36C64.0287 98.36 64.0087 98.3733 63.9954 98.4L61.6754 105.82ZM72.933 98.22C72.5597 98.22 72.253 98.1 72.013 97.86C71.773 97.62 71.653 97.3133 71.653 96.94C71.653 96.5667 71.773 96.26 72.013 96.02C72.253 95.78 72.5597 95.66 72.933 95.66C73.3064 95.66 73.613 95.78 73.853 96.02C74.093 96.26 74.213 96.5667 74.213 96.94C74.213 97.3133 74.093 97.62 73.853 97.86C73.613 98.1 73.3064 98.22 72.933 98.22ZM72.133 109.98C71.9997 109.98 71.933 109.913 71.933 109.78V100.02C71.933 99.8867 71.9997 99.82 72.133 99.82H73.653C73.7864 99.82 73.853 99.8867 73.853 100.02V109.78C73.853 109.913 73.7864 109.98 73.653 109.98H72.133ZM83.1907 96.2C83.1907 96.0667 83.2574 96 83.3907 96H84.9107C85.044 96 85.1107 96.0667 85.1107 96.2V109.8C85.1107 109.933 85.044 110 84.9107 110H83.3907C83.2574 110 83.1907 109.933 83.1907 109.8V109.14C83.1907 109.113 83.1774 109.093 83.1507 109.08C83.1374 109.067 83.1174 109.073 83.0907 109.1C82.7974 109.433 82.4507 109.693 82.0507 109.88C81.6507 110.067 81.2174 110.16 80.7507 110.16C79.7907 110.16 78.9907 109.927 78.3507 109.46C77.724 108.98 77.264 108.307 76.9707 107.44C76.7174 106.733 76.5907 105.88 76.5907 104.88C76.5907 103.947 76.6974 103.14 76.9107 102.46C77.1907 101.58 77.6507 100.893 78.2907 100.4C78.9307 99.9067 79.7507 99.66 80.7507 99.66C81.204 99.66 81.6307 99.7533 82.0307 99.94C82.444 100.113 82.7974 100.367 83.0907 100.7C83.1174 100.727 83.1374 100.733 83.1507 100.72C83.1774 100.707 83.1907 100.687 83.1907 100.66V96.2ZM82.6907 107.42C82.9974 106.86 83.1507 106.02 83.1507 104.9C83.1507 103.78 82.984 102.927 82.6507 102.34C82.264 101.66 81.6974 101.32 80.9507 101.32C80.1507 101.32 79.5574 101.64 79.1707 102.28C78.744 102.947 78.5307 103.827 78.5307 104.92C78.5307 105.947 78.6974 106.773 79.0307 107.4C79.4174 108.133 80.0507 108.5 80.9307 108.5C81.704 108.5 82.2907 108.14 82.6907 107.42ZM96.1654 103.64C96.2187 104.187 96.2387 104.8 96.2254 105.48C96.2254 105.613 96.1587 105.68 96.0254 105.68H89.6454C89.5921 105.68 89.5654 105.707 89.5654 105.76C89.5654 106.213 89.6054 106.56 89.6854 106.8C89.8321 107.333 90.1254 107.753 90.5654 108.06C91.0187 108.353 91.5854 108.5 92.2654 108.5C93.2521 108.5 94.0121 108.093 94.5454 107.28C94.6121 107.147 94.6987 107.127 94.8054 107.22L95.9454 107.98C96.0387 108.06 96.0587 108.147 96.0054 108.24C95.6321 108.84 95.0987 109.313 94.4054 109.66C93.7254 110.007 92.9521 110.18 92.0854 110.18C91.1121 110.18 90.2921 109.967 89.6254 109.54C88.9587 109.113 88.4587 108.507 88.1254 107.72C87.8054 106.933 87.6454 105.98 87.6454 104.86C87.6454 103.887 87.7187 103.147 87.8654 102.64C88.1054 101.72 88.5854 100.993 89.3054 100.46C90.0254 99.9267 90.8987 99.66 91.9254 99.66C93.2721 99.66 94.2787 100 94.9454 100.68C95.6121 101.347 96.0187 102.333 96.1654 103.64ZM91.9254 101.32C91.3521 101.32 90.8787 101.467 90.5054 101.76C90.1321 102.04 89.8787 102.42 89.7454 102.9C89.6521 103.193 89.5921 103.567 89.5654 104.02C89.5654 104.073 89.5921 104.1 89.6454 104.1H94.2254C94.2787 104.1 94.3054 104.073 94.3054 104.02C94.2787 103.58 94.2387 103.253 94.1854 103.04C94.0521 102.52 93.7854 102.107 93.3854 101.8C92.9987 101.48 92.5121 101.32 91.9254 101.32ZM106.372 99.66C107.185 99.66 107.892 99.8067 108.492 100.1C109.105 100.38 109.572 100.78 109.892 101.3C110.225 101.807 110.392 102.387 110.392 103.04V109.8C110.392 109.933 110.325 110 110.192 110H108.672C108.539 110 108.472 109.933 108.472 109.8V109.08C108.472 109.013 108.439 109 108.372 109.04C108.025 109.4 107.599 109.68 107.092 109.88C106.599 110.067 106.045 110.16 105.432 110.16C104.445 110.16 103.625 109.913 102.972 109.42C102.332 108.913 102.012 108.153 102.012 107.14C102.012 106.1 102.372 105.287 103.092 104.7C103.825 104.1 104.845 103.8 106.152 103.8H108.392C108.445 103.8 108.472 103.773 108.472 103.72V103.18C108.472 102.593 108.299 102.14 107.952 101.82C107.619 101.487 107.105 101.32 106.412 101.32C105.852 101.32 105.392 101.433 105.032 101.66C104.685 101.873 104.472 102.167 104.392 102.54C104.352 102.673 104.272 102.733 104.152 102.72L102.532 102.5C102.399 102.473 102.339 102.42 102.352 102.34C102.459 101.553 102.879 100.913 103.612 100.42C104.345 99.9133 105.265 99.66 106.372 99.66ZM105.852 108.54C106.559 108.54 107.172 108.353 107.692 107.98C108.212 107.607 108.472 107.133 108.472 106.56V105.38C108.472 105.327 108.445 105.3 108.392 105.3H106.512C105.725 105.3 105.099 105.453 104.632 105.76C104.165 106.067 103.932 106.493 103.932 107.04C103.932 107.533 104.105 107.907 104.452 108.16C104.812 108.413 105.279 108.54 105.852 108.54ZM107.152 98.3C107.165 98.3267 107.172 98.36 107.172 98.4C107.172 98.44 107.152 98.4733 107.112 98.5C107.085 98.5267 107.045 98.54 106.992 98.54H105.912C105.819 98.54 105.739 98.4933 105.672 98.4L104.272 96.24C104.245 96.1867 104.232 96.1467 104.232 96.12C104.232 96.04 104.285 96 104.392 96H105.732C105.852 96 105.932 96.0467 105.972 96.14L107.152 98.3ZM117.188 110C117.055 110 116.988 109.933 116.988 109.8V96.2C116.988 96.0667 117.055 96 117.188 96H118.708C118.841 96 118.908 96.0667 118.908 96.2V109.8C118.908 109.933 118.841 110 118.708 110H117.188ZM123.295 96C123.362 96 123.408 96.0267 123.435 96.08C123.475 96.12 123.482 96.1733 123.455 96.24L121.895 100.08C121.855 100.187 121.782 100.24 121.675 100.24H120.535C120.468 100.24 120.415 100.22 120.375 100.18C120.348 100.14 120.342 100.087 120.355 100.02L121.515 96.16C121.555 96.0533 121.635 96 121.755 96H123.295ZM128.227 99.66C129.041 99.66 129.747 99.8067 130.347 100.1C130.961 100.38 131.427 100.78 131.747 101.3C132.081 101.807 132.247 102.387 132.247 103.04V109.8C132.247 109.933 132.181 110 132.047 110H130.527C130.394 110 130.327 109.933 130.327 109.8V109.08C130.327 109.013 130.294 109 130.227 109.04C129.881 109.4 129.454 109.68 128.947 109.88C128.454 110.067 127.901 110.16 127.287 110.16C126.301 110.16 125.481 109.913 124.827 109.42C124.187 108.913 123.867 108.153 123.867 107.14C123.867 106.1 124.227 105.287 124.947 104.7C125.681 104.1 126.701 103.8 128.007 103.8H130.247C130.301 103.8 130.327 103.773 130.327 103.72V103.18C130.327 102.593 130.154 102.14 129.807 101.82C129.474 101.487 128.961 101.32 128.267 101.32C127.707 101.32 127.247 101.433 126.887 101.66C126.541 101.873 126.327 102.167 126.247 102.54C126.207 102.673 126.127 102.733 126.007 102.72L124.387 102.5C124.254 102.473 124.194 102.42 124.207 102.34C124.314 101.553 124.734 100.913 125.467 100.42C126.201 99.9133 127.121 99.66 128.227 99.66ZM127.707 108.54C128.414 108.54 129.027 108.353 129.547 107.98C130.067 107.607 130.327 107.133 130.327 106.56V105.38C130.327 105.327 130.301 105.3 130.247 105.3H128.367C127.581 105.3 126.954 105.453 126.487 105.76C126.021 106.067 125.787 106.493 125.787 107.04C125.787 107.533 125.961 107.907 126.307 108.16C126.667 108.413 127.134 108.54 127.707 108.54ZM143.099 102.38C143.353 103.1 143.479 103.953 143.479 104.94C143.479 105.873 143.373 106.68 143.159 107.36C142.879 108.253 142.419 108.947 141.779 109.44C141.139 109.92 140.319 110.16 139.319 110.16C138.866 110.16 138.433 110.073 138.019 109.9C137.619 109.713 137.273 109.453 136.979 109.12C136.953 109.093 136.926 109.087 136.899 109.1C136.886 109.113 136.879 109.133 136.879 109.16V113.62C136.879 113.753 136.813 113.82 136.679 113.82H135.159C135.026 113.82 134.959 113.753 134.959 113.62V100.02C134.959 99.8867 135.026 99.82 135.159 99.82H136.679C136.813 99.82 136.879 99.8867 136.879 100.02V100.68C136.879 100.707 136.886 100.727 136.899 100.74C136.926 100.753 136.953 100.747 136.979 100.72C137.273 100.387 137.619 100.127 138.019 99.94C138.419 99.7533 138.853 99.66 139.319 99.66C140.279 99.66 141.073 99.9 141.699 100.38C142.339 100.847 142.806 101.513 143.099 102.38ZM140.899 107.54C141.326 106.9 141.539 106.02 141.539 104.9C141.539 103.873 141.373 103.047 141.039 102.42C140.653 101.687 140.019 101.32 139.139 101.32C138.366 101.32 137.779 101.68 137.379 102.4C137.059 102.973 136.899 103.813 136.899 104.92C136.899 106.04 137.073 106.893 137.419 107.48C137.806 108.16 138.373 108.5 139.119 108.5C139.919 108.5 140.513 108.18 140.899 107.54ZM154.252 102.38C154.505 103.1 154.632 103.953 154.632 104.94C154.632 105.873 154.525 106.68 154.312 107.36C154.032 108.253 153.572 108.947 152.932 109.44C152.292 109.92 151.472 110.16 150.472 110.16C150.018 110.16 149.585 110.073 149.172 109.9C148.772 109.713 148.425 109.453 148.132 109.12C148.105 109.093 148.078 109.087 148.052 109.1C148.038 109.113 148.032 109.133 148.032 109.16V113.62C148.032 113.753 147.965 113.82 147.832 113.82H146.312C146.178 113.82 146.112 113.753 146.112 113.62V100.02C146.112 99.8867 146.178 99.82 146.312 99.82H147.832C147.965 99.82 148.032 99.8867 148.032 100.02V100.68C148.032 100.707 148.038 100.727 148.052 100.74C148.078 100.753 148.105 100.747 148.132 100.72C148.425 100.387 148.772 100.127 149.172 99.94C149.572 99.7533 150.005 99.66 150.472 99.66C151.432 99.66 152.225 99.9 152.852 100.38C153.492 100.847 153.958 101.513 154.252 102.38ZM152.052 107.54C152.478 106.9 152.692 106.02 152.692 104.9C152.692 103.873 152.525 103.047 152.192 102.42C151.805 101.687 151.172 101.32 150.292 101.32C149.518 101.32 148.932 101.68 148.532 102.4C148.212 102.973 148.052 103.813 148.052 104.92C148.052 106.04 148.225 106.893 148.572 107.48C148.958 108.16 149.525 108.5 150.272 108.5C151.072 108.5 151.665 108.18 152.052 107.54ZM161.604 99.72C162.031 99.72 162.417 99.8067 162.764 99.98C162.857 100.02 162.891 100.1 162.864 100.22L162.544 101.72C162.531 101.84 162.451 101.88 162.304 101.84C162.077 101.747 161.811 101.7 161.504 101.7L161.224 101.72C160.597 101.747 160.077 101.967 159.664 102.38C159.264 102.78 159.064 103.307 159.064 103.96V109.8C159.064 109.933 158.997 110 158.864 110H157.344C157.211 110 157.144 109.933 157.144 109.8V100.02C157.144 99.8867 157.211 99.82 157.344 99.82H158.864C158.997 99.82 159.064 99.8867 159.064 100.02V101.08C159.064 101.12 159.071 101.147 159.084 101.16C159.111 101.16 159.131 101.147 159.144 101.12C159.744 100.187 160.564 99.72 161.604 99.72ZM172.65 103.64C172.703 104.187 172.723 104.8 172.71 105.48C172.71 105.613 172.643 105.68 172.51 105.68H166.13C166.076 105.68 166.05 105.707 166.05 105.76C166.05 106.213 166.09 106.56 166.17 106.8C166.316 107.333 166.61 107.753 167.05 108.06C167.503 108.353 168.07 108.5 168.75 108.5C169.736 108.5 170.496 108.093 171.03 107.28C171.096 107.147 171.183 107.127 171.29 107.22L172.43 107.98C172.523 108.06 172.543 108.147 172.49 108.24C172.116 108.84 171.583 109.313 170.89 109.66C170.21 110.007 169.436 110.18 168.57 110.18C167.596 110.18 166.776 109.967 166.11 109.54C165.443 109.113 164.943 108.507 164.61 107.72C164.29 106.933 164.13 105.98 164.13 104.86C164.13 103.887 164.203 103.147 164.35 102.64C164.59 101.72 165.07 100.993 165.79 100.46C166.51 99.9267 167.383 99.66 168.41 99.66C169.756 99.66 170.763 100 171.43 100.68C172.096 101.347 172.503 102.333 172.65 103.64ZM168.41 101.32C167.836 101.32 167.363 101.467 166.99 101.76C166.616 102.04 166.363 102.42 166.23 102.9C166.136 103.193 166.076 103.567 166.05 104.02C166.05 104.073 166.076 104.1 166.13 104.1H170.71C170.763 104.1 170.79 104.073 170.79 104.02C170.763 103.58 170.723 103.253 170.67 103.04C170.536 102.52 170.27 102.107 169.87 101.8C169.483 101.48 168.996 101.32 168.41 101.32ZM179.672 99.68C180.766 99.68 181.632 100 182.272 100.64C182.912 101.267 183.232 102.12 183.232 103.2V109.8C183.232 109.933 183.166 110 183.032 110H181.512C181.379 110 181.312 109.933 181.312 109.8V103.58C181.312 102.913 181.119 102.373 180.732 101.96C180.346 101.547 179.832 101.34 179.192 101.34C178.566 101.34 178.052 101.547 177.652 101.96C177.252 102.373 177.052 102.907 177.052 103.56V109.8C177.052 109.933 176.986 110 176.852 110H175.332C175.199 110 175.132 109.933 175.132 109.8V100.02C175.132 99.8867 175.199 99.82 175.332 99.82H176.852C176.986 99.82 177.052 99.8867 177.052 100.02V100.74C177.052 100.767 177.059 100.787 177.072 100.8C177.099 100.813 177.119 100.807 177.132 100.78C177.706 100.047 178.552 99.68 179.672 99.68ZM190.992 101.2C190.992 101.333 190.926 101.4 190.792 101.4H188.632C188.579 101.4 188.552 101.427 188.552 101.48V106.78C188.552 107.34 188.679 107.747 188.932 108C189.186 108.24 189.579 108.36 190.112 108.36H190.692C190.826 108.36 190.892 108.427 190.892 108.56V109.8C190.892 109.933 190.826 110 190.692 110C190.266 110.027 189.959 110.04 189.772 110.04C188.759 110.04 187.992 109.86 187.472 109.5C186.966 109.127 186.712 108.447 186.712 107.46V101.48C186.712 101.427 186.686 101.4 186.632 101.4H185.412C185.279 101.4 185.212 101.333 185.212 101.2V100.02C185.212 99.8867 185.279 99.82 185.412 99.82H186.632C186.686 99.82 186.712 99.7933 186.712 99.74V97.38C186.712 97.2467 186.779 97.18 186.912 97.18H188.352C188.486 97.18 188.552 97.2467 188.552 97.38V99.74C188.552 99.7933 188.579 99.82 188.632 99.82H190.792C190.926 99.82 190.992 99.8867 190.992 100.02V101.2ZM194.515 98.22C194.142 98.22 193.835 98.1 193.595 97.86C193.355 97.62 193.235 97.3133 193.235 96.94C193.235 96.5667 193.355 96.26 193.595 96.02C193.835 95.78 194.142 95.66 194.515 95.66C194.888 95.66 195.195 95.78 195.435 96.02C195.675 96.26 195.795 96.5667 195.795 96.94C195.795 97.3133 195.675 97.62 195.435 97.86C195.195 98.1 194.888 98.22 194.515 98.22ZM193.715 109.98C193.582 109.98 193.515 109.913 193.515 109.78V100.02C193.515 99.8867 193.582 99.82 193.715 99.82H195.235C195.368 99.82 195.435 99.8867 195.435 100.02V109.78C195.435 109.913 195.368 109.98 195.235 109.98H193.715ZM202.033 110.12C201.233 110.12 200.526 110 199.913 109.76C199.313 109.52 198.846 109.193 198.513 108.78C198.179 108.353 198.013 107.887 198.013 107.38V107.16C198.013 107.027 198.079 106.96 198.213 106.96H199.653C199.786 106.96 199.853 107.027 199.853 107.16V107.26C199.853 107.633 200.053 107.96 200.453 108.24C200.866 108.52 201.386 108.66 202.013 108.66C202.613 108.66 203.099 108.533 203.473 108.28C203.846 108.013 204.033 107.68 204.033 107.28C204.033 106.893 203.859 106.607 203.513 106.42C203.166 106.22 202.606 106.013 201.833 105.8C201.073 105.587 200.433 105.373 199.913 105.16C199.406 104.933 198.973 104.62 198.613 104.22C198.266 103.807 198.093 103.28 198.093 102.64C198.093 101.747 198.439 101.04 199.133 100.52C199.839 99.9867 200.773 99.72 201.933 99.72C202.706 99.72 203.386 99.8467 203.973 100.1C204.573 100.34 205.033 100.68 205.353 101.12C205.673 101.56 205.833 102.053 205.833 102.6V102.66C205.833 102.793 205.766 102.86 205.633 102.86H204.233C204.099 102.86 204.033 102.793 204.033 102.66V102.6C204.033 102.213 203.839 101.893 203.453 101.64C203.079 101.373 202.566 101.24 201.913 101.24C201.326 101.24 200.846 101.353 200.473 101.58C200.113 101.807 199.933 102.113 199.933 102.5C199.933 102.887 200.106 103.18 200.453 103.38C200.813 103.58 201.386 103.793 202.173 104.02C202.946 104.233 203.586 104.447 204.093 104.66C204.613 104.86 205.053 105.167 205.413 105.58C205.773 105.98 205.953 106.507 205.953 107.16C205.953 108.067 205.593 108.787 204.873 109.32C204.166 109.853 203.219 110.12 202.033 110.12ZM211.544 110.12C210.744 110.12 210.038 110 209.424 109.76C208.824 109.52 208.358 109.193 208.024 108.78C207.691 108.353 207.524 107.887 207.524 107.38V107.16C207.524 107.027 207.591 106.96 207.724 106.96H209.164C209.298 106.96 209.364 107.027 209.364 107.16V107.26C209.364 107.633 209.564 107.96 209.964 108.24C210.378 108.52 210.898 108.66 211.524 108.66C212.124 108.66 212.611 108.533 212.984 108.28C213.358 108.013 213.544 107.68 213.544 107.28C213.544 106.893 213.371 106.607 213.024 106.42C212.678 106.22 212.118 106.013 211.344 105.8C210.584 105.587 209.944 105.373 209.424 105.16C208.918 104.933 208.484 104.62 208.124 104.22C207.778 103.807 207.604 103.28 207.604 102.64C207.604 101.747 207.951 101.04 208.644 100.52C209.351 99.9867 210.284 99.72 211.444 99.72C212.218 99.72 212.898 99.8467 213.484 100.1C214.084 100.34 214.544 100.68 214.864 101.12C215.184 101.56 215.344 102.053 215.344 102.6V102.66C215.344 102.793 215.278 102.86 215.144 102.86H213.744C213.611 102.86 213.544 102.793 213.544 102.66V102.6C213.544 102.213 213.351 101.893 212.964 101.64C212.591 101.373 212.078 101.24 211.424 101.24C210.838 101.24 210.358 101.353 209.984 101.58C209.624 101.807 209.444 102.113 209.444 102.5C209.444 102.887 209.618 103.18 209.964 103.38C210.324 103.58 210.898 103.793 211.684 104.02C212.458 104.233 213.098 104.447 213.604 104.66C214.124 104.86 214.564 105.167 214.924 105.58C215.284 105.98 215.464 106.507 215.464 107.16C215.464 108.067 215.104 108.787 214.384 109.32C213.678 109.853 212.731 110.12 211.544 110.12ZM221.431 99.66C222.244 99.66 222.951 99.8067 223.551 100.1C224.164 100.38 224.631 100.78 224.951 101.3C225.284 101.807 225.451 102.387 225.451 103.04V109.8C225.451 109.933 225.384 110 225.251 110H223.731C223.597 110 223.531 109.933 223.531 109.8V109.08C223.531 109.013 223.497 109 223.431 109.04C223.084 109.4 222.657 109.68 222.151 109.88C221.657 110.067 221.104 110.16 220.491 110.16C219.504 110.16 218.684 109.913 218.031 109.42C217.391 108.913 217.071 108.153 217.071 107.14C217.071 106.1 217.431 105.287 218.151 104.7C218.884 104.1 219.904 103.8 221.211 103.8H223.451C223.504 103.8 223.531 103.773 223.531 103.72V103.18C223.531 102.593 223.357 102.14 223.011 101.82C222.677 101.487 222.164 101.32 221.471 101.32C220.911 101.32 220.451 101.433 220.091 101.66C219.744 101.873 219.531 102.167 219.451 102.54C219.411 102.673 219.331 102.733 219.211 102.72L217.591 102.5C217.457 102.473 217.397 102.42 217.411 102.34C217.517 101.553 217.937 100.913 218.671 100.42C219.404 99.9133 220.324 99.66 221.431 99.66ZM220.911 108.54C221.617 108.54 222.231 108.353 222.751 107.98C223.271 107.607 223.531 107.133 223.531 106.56V105.38C223.531 105.327 223.504 105.3 223.451 105.3H221.571C220.784 105.3 220.157 105.453 219.691 105.76C219.224 106.067 218.991 106.493 218.991 107.04C218.991 107.533 219.164 107.907 219.511 108.16C219.871 108.413 220.337 108.54 220.911 108.54ZM234.303 100.02C234.303 99.8867 234.369 99.82 234.503 99.82H236.023C236.156 99.82 236.223 99.8867 236.223 100.02V109.48C236.223 111.093 235.763 112.247 234.843 112.94C233.936 113.633 232.716 113.98 231.183 113.98C230.969 113.98 230.636 113.967 230.183 113.94C230.049 113.927 229.983 113.853 229.983 113.72L230.043 112.34C230.043 112.287 230.063 112.24 230.103 112.2C230.143 112.16 230.196 112.147 230.263 112.16C230.449 112.173 230.723 112.18 231.083 112.18C232.216 112.18 233.036 111.967 233.543 111.54C234.049 111.127 234.303 110.42 234.303 109.42V109.06C234.303 109.033 234.289 109.013 234.263 109C234.249 108.987 234.229 108.993 234.203 109.02C233.643 109.673 232.823 110 231.743 110C230.876 110 230.089 109.773 229.383 109.32C228.689 108.867 228.209 108.2 227.943 107.32C227.769 106.733 227.683 105.92 227.683 104.88C227.683 103.773 227.783 102.92 227.983 102.32C228.236 101.52 228.683 100.88 229.323 100.4C229.976 99.9067 230.743 99.66 231.623 99.66C232.716 99.66 233.576 99.9933 234.203 100.66C234.229 100.687 234.249 100.7 234.263 100.7C234.289 100.687 234.303 100.667 234.303 100.64V100.02ZM234.183 106.74C234.223 106.527 234.249 106.3 234.263 106.06C234.289 105.82 234.303 105.42 234.303 104.86C234.303 104.3 234.289 103.907 234.263 103.68C234.249 103.44 234.216 103.213 234.163 103C234.056 102.507 233.816 102.107 233.443 101.8C233.069 101.48 232.603 101.32 232.043 101.32C231.483 101.32 231.016 101.48 230.643 101.8C230.269 102.107 230.003 102.507 229.843 103C229.696 103.4 229.623 104.02 229.623 104.86C229.623 105.78 229.689 106.407 229.823 106.74C229.956 107.233 230.216 107.64 230.603 107.96C231.003 108.267 231.483 108.42 232.043 108.42C232.629 108.42 233.103 108.267 233.463 107.96C233.836 107.64 234.076 107.233 234.183 106.74ZM247.142 103.64C247.195 104.187 247.215 104.8 247.202 105.48C247.202 105.613 247.135 105.68 247.002 105.68H240.622C240.569 105.68 240.542 105.707 240.542 105.76C240.542 106.213 240.582 106.56 240.662 106.8C240.809 107.333 241.102 107.753 241.542 108.06C241.995 108.353 242.562 108.5 243.242 108.5C244.229 108.5 244.989 108.093 245.522 107.28C245.589 107.147 245.675 107.127 245.782 107.22L246.922 107.98C247.015 108.06 247.035 108.147 246.982 108.24C246.609 108.84 246.075 109.313 245.382 109.66C244.702 110.007 243.929 110.18 243.062 110.18C242.089 110.18 241.269 109.967 240.602 109.54C239.935 109.113 239.435 108.507 239.102 107.72C238.782 106.933 238.622 105.98 238.622 104.86C238.622 103.887 238.695 103.147 238.842 102.64C239.082 101.72 239.562 100.993 240.282 100.46C241.002 99.9267 241.875 99.66 242.902 99.66C244.249 99.66 245.255 100 245.922 100.68C246.589 101.347 246.995 102.333 247.142 103.64ZM242.902 101.32C242.329 101.32 241.855 101.467 241.482 101.76C241.109 102.04 240.855 102.42 240.722 102.9C240.629 103.193 240.569 103.567 240.542 104.02C240.542 104.073 240.569 104.1 240.622 104.1H245.202C245.255 104.1 245.282 104.073 245.282 104.02C245.255 103.58 245.215 103.253 245.162 103.04C245.029 102.52 244.762 102.107 244.362 101.8C243.975 101.48 243.489 101.32 242.902 101.32Z" fill="white"/>
<path d="M94.4262 127.22C94.7462 127.82 94.9062 128.587 94.9062 129.52C94.9062 130.293 94.7795 130.987 94.5262 131.6C94.1795 132.387 93.6395 133.007 92.9062 133.46C92.1728 133.913 91.3062 134.14 90.3062 134.14C89.2795 134.14 88.3928 133.907 87.6462 133.44C86.8995 132.96 86.3595 132.3 86.0262 131.46C85.7862 130.873 85.6662 130.22 85.6662 129.5V123.48C85.6662 122.76 85.8528 122.127 86.2262 121.58C86.6128 121.02 87.1462 120.593 87.8262 120.3C88.5062 119.993 89.2862 119.84 90.1662 119.84C91.0328 119.84 91.7995 119.993 92.4662 120.3C93.1328 120.593 93.6462 121.013 94.0062 121.56C94.3795 122.093 94.5662 122.713 94.5662 123.42V123.98C94.5662 124.047 94.5395 124.107 94.4862 124.16C94.4462 124.2 94.3928 124.22 94.3262 124.22H91.9862C91.9195 124.22 91.8595 124.2 91.8062 124.16C91.7662 124.107 91.7462 124.047 91.7462 123.98V123.8C91.7462 123.36 91.5995 122.993 91.3062 122.7C91.0128 122.407 90.6328 122.26 90.1662 122.26C89.6728 122.26 89.2662 122.413 88.9462 122.72C88.6395 123.013 88.4862 123.393 88.4862 123.86V125.74C88.4862 125.78 88.4995 125.807 88.5262 125.82C88.5528 125.82 88.5795 125.807 88.6062 125.78C89.1528 125.313 89.8795 125.08 90.7862 125.08C91.5862 125.08 92.2995 125.267 92.9262 125.64C93.5662 126 94.0662 126.527 94.4262 127.22ZM91.7862 130.82C91.9862 130.473 92.0862 130.053 92.0862 129.56C92.0862 129.027 91.9795 128.587 91.7662 128.24C91.4328 127.707 90.9462 127.44 90.3062 127.44C89.5862 127.44 89.0862 127.713 88.8062 128.26C88.6062 128.607 88.5062 129.053 88.5062 129.6C88.5062 130.08 88.5928 130.487 88.7662 130.82C89.0595 131.407 89.5662 131.7 90.2862 131.7C90.9795 131.7 91.4795 131.407 91.7862 130.82ZM101.248 134.22C99.7817 134.22 98.6217 133.813 97.7684 133C96.915 132.173 96.4884 131.053 96.4884 129.64V124.36C96.4884 122.973 96.915 121.873 97.7684 121.06C98.6217 120.247 99.7817 119.84 101.248 119.84C102.715 119.84 103.875 120.247 104.728 121.06C105.595 121.873 106.028 122.973 106.028 124.36V129.64C106.028 131.053 105.595 132.173 104.728 133C103.875 133.813 102.715 134.22 101.248 134.22ZM101.248 131.8C101.848 131.8 102.322 131.62 102.668 131.26C103.028 130.887 103.208 130.393 103.208 129.78V124.28C103.208 123.667 103.028 123.18 102.668 122.82C102.322 122.447 101.848 122.26 101.248 122.26C100.662 122.26 100.188 122.447 99.8284 122.82C99.4817 123.18 99.3084 123.667 99.3084 124.28V129.78C99.3084 130.393 99.4817 130.887 99.8284 131.26C100.188 131.62 100.662 131.8 101.248 131.8ZM112.655 134.22C111.188 134.22 110.028 133.813 109.175 133C108.321 132.173 107.895 131.053 107.895 129.64V124.36C107.895 122.973 108.321 121.873 109.175 121.06C110.028 120.247 111.188 119.84 112.655 119.84C114.121 119.84 115.281 120.247 116.135 121.06C117.001 121.873 117.435 122.973 117.435 124.36V129.64C117.435 131.053 117.001 132.173 116.135 133C115.281 133.813 114.121 134.22 112.655 134.22ZM112.655 131.8C113.255 131.8 113.728 131.62 114.075 131.26C114.435 130.887 114.615 130.393 114.615 129.78V124.28C114.615 123.667 114.435 123.18 114.075 122.82C113.728 122.447 113.255 122.26 112.655 122.26C112.068 122.26 111.595 122.447 111.235 122.82C110.888 123.18 110.715 123.667 110.715 124.28V129.78C110.715 130.393 110.888 130.887 111.235 131.26C111.595 131.62 112.068 131.8 112.655 131.8ZM124.061 134.22C122.594 134.22 121.434 133.813 120.581 133C119.728 132.173 119.301 131.053 119.301 129.64V124.36C119.301 122.973 119.728 121.873 120.581 121.06C121.434 120.247 122.594 119.84 124.061 119.84C125.528 119.84 126.688 120.247 127.541 121.06C128.408 121.873 128.841 122.973 128.841 124.36V129.64C128.841 131.053 128.408 132.173 127.541 133C126.688 133.813 125.528 134.22 124.061 134.22ZM124.061 131.8C124.661 131.8 125.134 131.62 125.481 131.26C125.841 130.887 126.021 130.393 126.021 129.78V124.28C126.021 123.667 125.841 123.18 125.481 122.82C125.134 122.447 124.661 122.26 124.061 122.26C123.474 122.26 123.001 122.447 122.641 122.82C122.294 123.18 122.121 123.667 122.121 124.28V129.78C122.121 130.393 122.294 130.887 122.641 131.26C123.001 131.62 123.474 131.8 124.061 131.8ZM136.987 131.74C137.467 131.74 137.867 131.607 138.187 131.34C138.507 131.06 138.707 130.693 138.787 130.24C138.827 130.08 138.92 130.013 139.067 130.04L141.367 130.46C141.447 130.473 141.5 130.507 141.527 130.56C141.567 130.6 141.58 130.66 141.567 130.74C141.394 131.793 140.9 132.627 140.087 133.24C139.274 133.853 138.24 134.16 136.987 134.16C136.067 134.16 135.254 133.98 134.547 133.62C133.854 133.247 133.314 132.727 132.927 132.06C132.54 131.38 132.347 130.593 132.347 129.7V128.98C132.347 128.913 132.314 128.88 132.247 128.88H130.967C130.9 128.88 130.84 128.86 130.787 128.82C130.747 128.767 130.727 128.707 130.727 128.64V127.64C130.727 127.573 130.747 127.52 130.787 127.48C130.84 127.427 130.9 127.4 130.967 127.4H132.247C132.314 127.4 132.347 127.367 132.347 127.3V126.68C132.347 126.613 132.314 126.58 132.247 126.58H130.967C130.9 126.58 130.84 126.56 130.787 126.52C130.747 126.467 130.727 126.407 130.727 126.34V125.34C130.727 125.273 130.747 125.22 130.787 125.18C130.84 125.127 130.9 125.1 130.967 125.1H132.247C132.314 125.1 132.347 125.067 132.347 125V124.28C132.347 123.387 132.534 122.607 132.907 121.94C133.294 121.26 133.834 120.74 134.527 120.38C135.234 120.02 136.054 119.84 136.987 119.84C138.254 119.84 139.3 120.153 140.127 120.78C140.954 121.407 141.447 122.26 141.607 123.34V123.38C141.607 123.5 141.534 123.573 141.387 123.6L139.047 123.9H139.007C138.887 123.9 138.807 123.827 138.767 123.68C138.687 123.24 138.487 122.893 138.167 122.64C137.86 122.387 137.467 122.26 136.987 122.26C136.44 122.26 136 122.44 135.667 122.8C135.334 123.16 135.167 123.627 135.167 124.2V125C135.167 125.067 135.2 125.1 135.267 125.1H139.247C139.327 125.1 139.387 125.127 139.427 125.18C139.467 125.233 139.474 125.3 139.447 125.38L139.147 126.38C139.107 126.513 139.02 126.58 138.887 126.58H135.267C135.2 126.58 135.167 126.613 135.167 126.68V127.3C135.167 127.367 135.2 127.4 135.267 127.4H138.567C138.647 127.4 138.707 127.427 138.747 127.48C138.787 127.533 138.794 127.6 138.767 127.68L138.467 128.68C138.427 128.813 138.34 128.88 138.207 128.88H135.267C135.2 128.88 135.167 128.913 135.167 128.98V129.82C135.167 130.393 135.334 130.86 135.667 131.22C136 131.567 136.44 131.74 136.987 131.74ZM156.687 126.48C156.927 127.16 157.047 127.96 157.047 128.88C157.047 129.8 156.92 130.633 156.667 131.38C156.36 132.233 155.873 132.913 155.207 133.42C154.553 133.913 153.74 134.16 152.767 134.16C151.807 134.16 151.06 133.827 150.527 133.16C150.5 133.12 150.473 133.107 150.447 133.12C150.42 133.133 150.407 133.16 150.407 133.2V137.48C150.407 137.547 150.38 137.6 150.327 137.64C150.287 137.693 150.233 137.72 150.167 137.72H147.827C147.76 137.72 147.7 137.693 147.647 137.64C147.607 137.6 147.587 137.547 147.587 137.48V123.96C147.587 123.893 147.607 123.84 147.647 123.8C147.7 123.747 147.76 123.72 147.827 123.72H150.167C150.233 123.72 150.287 123.747 150.327 123.8C150.38 123.84 150.407 123.893 150.407 123.96V124.62C150.407 124.66 150.42 124.687 150.447 124.7C150.473 124.7 150.5 124.687 150.527 124.66C151.087 123.927 151.86 123.56 152.847 123.56C153.767 123.56 154.56 123.82 155.227 124.34C155.907 124.847 156.393 125.56 156.687 126.48ZM153.627 130.96C153.96 130.44 154.127 129.733 154.127 128.84C154.127 128 153.987 127.333 153.707 126.84C153.4 126.267 152.907 125.98 152.227 125.98C151.613 125.98 151.153 126.267 150.847 126.84C150.567 127.32 150.427 127.993 150.427 128.86C150.427 129.753 150.573 130.447 150.867 130.94C151.173 131.473 151.627 131.74 152.227 131.74C152.827 131.74 153.293 131.48 153.627 130.96ZM163.355 134.16C162.235 134.16 161.275 133.867 160.475 133.28C159.675 132.693 159.129 131.893 158.835 130.88C158.649 130.253 158.555 129.573 158.555 128.84C158.555 128.053 158.649 127.347 158.835 126.72C159.142 125.733 159.695 124.96 160.495 124.4C161.295 123.84 162.255 123.56 163.375 123.56C164.469 123.56 165.402 123.84 166.175 124.4C166.949 124.947 167.495 125.713 167.815 126.7C168.029 127.367 168.135 128.067 168.135 128.8C168.135 129.52 168.042 130.193 167.855 130.82C167.562 131.86 167.015 132.68 166.215 133.28C165.429 133.867 164.475 134.16 163.355 134.16ZM163.355 131.74C163.795 131.74 164.169 131.607 164.475 131.34C164.782 131.073 165.002 130.707 165.135 130.24C165.242 129.813 165.295 129.347 165.295 128.84C165.295 128.28 165.242 127.807 165.135 127.42C164.989 126.967 164.762 126.613 164.455 126.36C164.149 126.107 163.775 125.98 163.335 125.98C162.882 125.98 162.502 126.107 162.195 126.36C161.902 126.613 161.689 126.967 161.555 127.42C161.449 127.74 161.395 128.213 161.395 128.84C161.395 129.44 161.442 129.907 161.535 130.24C161.669 130.707 161.889 131.073 162.195 131.34C162.515 131.607 162.902 131.74 163.355 131.74ZM175.948 123.96C175.948 123.893 175.968 123.84 176.008 123.8C176.062 123.747 176.122 123.72 176.188 123.72H178.528C178.595 123.72 178.648 123.747 178.688 123.8C178.742 123.84 178.768 123.893 178.768 123.96V133.76C178.768 133.827 178.742 133.887 178.688 133.94C178.648 133.98 178.595 134 178.528 134H176.188C176.122 134 176.062 133.98 176.008 133.94C175.968 133.887 175.948 133.827 175.948 133.76V133.08C175.948 133.04 175.935 133.02 175.908 133.02C175.882 133.007 175.855 133.02 175.828 133.06C175.295 133.78 174.468 134.14 173.348 134.14C172.335 134.14 171.502 133.833 170.848 133.22C170.195 132.607 169.868 131.747 169.868 130.64V123.96C169.868 123.893 169.888 123.84 169.928 123.8C169.982 123.747 170.042 123.72 170.108 123.72H172.428C172.495 123.72 172.548 123.747 172.588 123.8C172.642 123.84 172.668 123.893 172.668 123.96V129.94C172.668 130.473 172.808 130.907 173.088 131.24C173.382 131.573 173.782 131.74 174.288 131.74C174.742 131.74 175.115 131.607 175.408 131.34C175.702 131.06 175.882 130.7 175.948 130.26V123.96ZM185.967 123.58C186.447 123.58 186.827 123.673 187.107 123.86C187.213 123.913 187.253 124.013 187.227 124.16L186.807 126.44C186.793 126.6 186.7 126.647 186.527 126.58C186.327 126.513 186.093 126.48 185.827 126.48C185.72 126.48 185.573 126.493 185.387 126.52C184.907 126.56 184.5 126.74 184.167 127.06C183.833 127.367 183.667 127.78 183.667 128.3V133.76C183.667 133.827 183.64 133.887 183.587 133.94C183.547 133.98 183.493 134 183.427 134H181.087C181.02 134 180.96 133.98 180.907 133.94C180.867 133.887 180.847 133.827 180.847 133.76V123.96C180.847 123.893 180.867 123.84 180.907 123.8C180.96 123.747 181.02 123.72 181.087 123.72H183.427C183.493 123.72 183.547 123.747 183.587 123.8C183.64 123.84 183.667 123.893 183.667 123.96V124.72C183.667 124.76 183.68 124.787 183.707 124.8C183.733 124.813 183.753 124.807 183.767 124.78C184.313 123.98 185.047 123.58 185.967 123.58ZM192.747 134C192.68 134 192.62 133.98 192.567 133.94C192.527 133.887 192.507 133.827 192.507 133.76V120.24C192.507 120.173 192.527 120.12 192.567 120.08C192.62 120.027 192.68 120 192.747 120H195.087C195.153 120 195.207 120.027 195.247 120.08C195.3 120.12 195.327 120.173 195.327 120.24V133.76C195.327 133.827 195.3 133.887 195.247 133.94C195.207 133.98 195.153 134 195.087 134H192.747ZM206.49 127.8C206.57 128.307 206.596 128.873 206.57 129.5C206.556 129.66 206.47 129.74 206.31 129.74H200.13C200.05 129.74 200.023 129.773 200.05 129.84C200.09 130.107 200.163 130.373 200.27 130.64C200.616 131.387 201.323 131.76 202.39 131.76C203.243 131.747 203.916 131.4 204.41 130.72C204.463 130.64 204.523 130.6 204.59 130.6C204.63 130.6 204.676 130.627 204.73 130.68L206.17 132.1C206.236 132.167 206.27 132.227 206.27 132.28C206.27 132.307 206.243 132.36 206.19 132.44C205.75 132.987 205.183 133.413 204.49 133.72C203.796 134.013 203.036 134.16 202.21 134.16C201.063 134.16 200.09 133.9 199.29 133.38C198.503 132.86 197.936 132.133 197.59 131.2C197.31 130.533 197.17 129.66 197.17 128.58C197.17 127.847 197.27 127.2 197.47 126.64C197.776 125.693 198.31 124.94 199.07 124.38C199.843 123.82 200.756 123.54 201.81 123.54C203.143 123.54 204.21 123.927 205.01 124.7C205.823 125.473 206.316 126.507 206.49 127.8ZM201.83 125.98C200.99 125.98 200.436 126.373 200.17 127.16C200.116 127.333 200.07 127.547 200.03 127.8C200.03 127.867 200.063 127.9 200.13 127.9H203.59C203.67 127.9 203.696 127.867 203.67 127.8C203.603 127.413 203.57 127.227 203.57 127.24C203.45 126.84 203.236 126.533 202.93 126.32C202.636 126.093 202.27 125.98 201.83 125.98ZM212.271 134.14C211.378 134.14 210.598 134.013 209.931 133.76C209.264 133.507 208.744 133.153 208.371 132.7C208.011 132.247 207.831 131.733 207.831 131.16V130.96C207.831 130.893 207.851 130.84 207.891 130.8C207.944 130.747 208.004 130.72 208.071 130.72H210.291C210.358 130.72 210.411 130.747 210.451 130.8C210.504 130.84 210.531 130.893 210.531 130.96V130.98C210.531 131.273 210.691 131.527 211.011 131.74C211.344 131.94 211.758 132.04 212.251 132.04C212.704 132.04 213.071 131.953 213.351 131.78C213.631 131.593 213.771 131.367 213.771 131.1C213.771 130.86 213.651 130.68 213.411 130.56C213.171 130.44 212.778 130.313 212.231 130.18C211.604 130.02 211.111 129.867 210.751 129.72C209.898 129.427 209.218 129.067 208.711 128.64C208.204 128.213 207.951 127.6 207.951 126.8C207.951 125.813 208.331 125.033 209.091 124.46C209.864 123.873 210.884 123.58 212.151 123.58C213.004 123.58 213.751 123.72 214.391 124C215.031 124.267 215.524 124.647 215.871 125.14C216.231 125.633 216.411 126.193 216.411 126.82C216.411 126.887 216.384 126.947 216.331 127C216.291 127.04 216.238 127.06 216.171 127.06H214.031C213.964 127.06 213.904 127.04 213.851 127C213.811 126.947 213.791 126.887 213.791 126.82C213.791 126.527 213.638 126.28 213.331 126.08C213.038 125.88 212.644 125.78 212.151 125.78C211.711 125.78 211.351 125.86 211.071 126.02C210.791 126.18 210.651 126.4 210.651 126.68C210.651 126.947 210.784 127.147 211.051 127.28C211.331 127.413 211.791 127.553 212.431 127.7C212.578 127.74 212.744 127.787 212.931 127.84C213.118 127.88 213.318 127.933 213.531 128C214.478 128.28 215.224 128.64 215.771 129.08C216.318 129.52 216.591 130.16 216.591 131C216.591 131.987 216.198 132.76 215.411 133.32C214.638 133.867 213.591 134.14 212.271 134.14ZM107.726 153.3C107.66 153.3 107.6 153.28 107.546 153.24C107.506 153.187 107.486 153.127 107.486 153.06V151.12C107.486 151.053 107.506 151 107.546 150.96C107.6 150.907 107.66 150.88 107.726 150.88H114.266C114.333 150.88 114.386 150.907 114.426 150.96C114.48 151 114.506 151.053 114.506 151.12V153.06C114.506 153.127 114.48 153.187 114.426 153.24C114.386 153.28 114.333 153.3 114.266 153.3H107.726ZM122.51 144.24C122.51 144.173 122.53 144.12 122.57 144.08C122.623 144.027 122.683 144 122.75 144H125.09C125.157 144 125.21 144.027 125.25 144.08C125.303 144.12 125.33 144.173 125.33 144.24V157.76C125.33 157.827 125.303 157.887 125.25 157.94C125.21 157.98 125.157 158 125.09 158H122.75C122.683 158 122.623 157.98 122.57 157.94C122.53 157.887 122.51 157.827 122.51 157.76V157.1C122.51 157.06 122.497 157.04 122.47 157.04C122.443 157.027 122.417 157.033 122.39 157.06C121.83 157.793 121.063 158.16 120.09 158.16C119.157 158.16 118.35 157.9 117.67 157.38C117.003 156.86 116.523 156.147 116.23 155.24C116.003 154.547 115.89 153.74 115.89 152.82C115.89 151.873 116.01 151.047 116.25 150.34C116.557 149.487 117.037 148.813 117.69 148.32C118.357 147.813 119.177 147.56 120.15 147.56C121.11 147.56 121.857 147.893 122.39 148.56C122.417 148.6 122.443 148.613 122.47 148.6C122.497 148.587 122.51 148.56 122.51 148.52V144.24ZM122.09 154.88C122.357 154.387 122.49 153.713 122.49 152.86C122.49 151.967 122.343 151.267 122.05 150.76C121.743 150.24 121.297 149.98 120.71 149.98C120.083 149.98 119.61 150.24 119.29 150.76C118.957 151.28 118.79 151.987 118.79 152.88C118.79 153.68 118.93 154.347 119.21 154.88C119.543 155.453 120.037 155.74 120.69 155.74C121.29 155.74 121.757 155.453 122.09 154.88ZM136.558 151.8C136.638 152.307 136.665 152.873 136.638 153.5C136.625 153.66 136.538 153.74 136.378 153.74H130.198C130.118 153.74 130.091 153.773 130.118 153.84C130.158 154.107 130.231 154.373 130.338 154.64C130.685 155.387 131.391 155.76 132.458 155.76C133.311 155.747 133.985 155.4 134.478 154.72C134.531 154.64 134.591 154.6 134.658 154.6C134.698 154.6 134.745 154.627 134.798 154.68L136.238 156.1C136.305 156.167 136.338 156.227 136.338 156.28C136.338 156.307 136.311 156.36 136.258 156.44C135.818 156.987 135.251 157.413 134.558 157.72C133.865 158.013 133.105 158.16 132.278 158.16C131.131 158.16 130.158 157.9 129.358 157.38C128.571 156.86 128.005 156.133 127.658 155.2C127.378 154.533 127.238 153.66 127.238 152.58C127.238 151.847 127.338 151.2 127.538 150.64C127.845 149.693 128.378 148.94 129.138 148.38C129.911 147.82 130.825 147.54 131.878 147.54C133.211 147.54 134.278 147.927 135.078 148.7C135.891 149.473 136.385 150.507 136.558 151.8ZM131.898 149.98C131.058 149.98 130.505 150.373 130.238 151.16C130.185 151.333 130.138 151.547 130.098 151.8C130.098 151.867 130.131 151.9 130.198 151.9H133.658C133.738 151.9 133.765 151.867 133.738 151.8C133.671 151.413 133.638 151.227 133.638 151.24C133.518 150.84 133.305 150.533 132.998 150.32C132.705 150.093 132.338 149.98 131.898 149.98ZM150.88 151.32C151.147 151.933 151.28 152.64 151.28 153.44C151.28 154.16 151.16 154.827 150.92 155.44C150.6 156.293 150.06 156.96 149.3 157.44C148.553 157.92 147.667 158.16 146.64 158.16C145.627 158.16 144.733 157.907 143.96 157.4C143.2 156.893 142.653 156.207 142.32 155.34C142.133 154.82 142.027 154.26 142 153.66C142 153.5 142.08 153.42 142.24 153.42H144.6C144.76 153.42 144.84 153.5 144.84 153.66C144.893 154.1 144.967 154.427 145.06 154.64C145.18 154.987 145.373 155.26 145.64 155.46C145.92 155.647 146.247 155.74 146.62 155.74C147.367 155.74 147.88 155.413 148.16 154.76C148.347 154.36 148.44 153.893 148.44 153.36C148.44 152.733 148.34 152.22 148.14 151.82C147.833 151.193 147.32 150.88 146.6 150.88C146.453 150.88 146.3 150.927 146.14 151.02C145.98 151.1 145.787 151.22 145.56 151.38C145.507 151.42 145.453 151.44 145.4 151.44C145.32 151.44 145.26 151.4 145.22 151.32L144.04 149.66C144.013 149.62 144 149.573 144 149.52C144 149.44 144.027 149.373 144.08 149.32L147.26 146.54C147.287 146.513 147.293 146.487 147.28 146.46C147.28 146.433 147.26 146.42 147.22 146.42H142.52C142.453 146.42 142.393 146.4 142.34 146.36C142.3 146.307 142.28 146.247 142.28 146.18V144.24C142.28 144.173 142.3 144.12 142.34 144.08C142.393 144.027 142.453 144 142.52 144H150.86C150.927 144 150.98 144.027 151.02 144.08C151.073 144.12 151.1 144.173 151.1 144.24V146.44C151.1 146.547 151.053 146.647 150.96 146.74L148.34 149.14C148.313 149.167 148.3 149.193 148.3 149.22C148.313 149.247 148.347 149.26 148.4 149.26C149.56 149.487 150.387 150.173 150.88 151.32ZM157.821 158.22C156.354 158.22 155.194 157.813 154.341 157C153.487 156.173 153.061 155.053 153.061 153.64V148.36C153.061 146.973 153.487 145.873 154.341 145.06C155.194 144.247 156.354 143.84 157.821 143.84C159.287 143.84 160.447 144.247 161.301 145.06C162.167 145.873 162.601 146.973 162.601 148.36V153.64C162.601 155.053 162.167 156.173 161.301 157C160.447 157.813 159.287 158.22 157.821 158.22ZM157.821 155.8C158.421 155.8 158.894 155.62 159.241 155.26C159.601 154.887 159.781 154.393 159.781 153.78V148.28C159.781 147.667 159.601 147.18 159.241 146.82C158.894 146.447 158.421 146.26 157.821 146.26C157.234 146.26 156.761 146.447 156.401 146.82C156.054 147.18 155.881 147.667 155.881 148.28V153.78C155.881 154.393 156.054 154.887 156.401 155.26C156.761 155.62 157.234 155.8 157.821 155.8ZM172.691 147.56C173.557 147.56 174.331 147.713 175.011 148.02C175.691 148.313 176.217 148.72 176.591 149.24C176.977 149.76 177.171 150.34 177.171 150.98V157.76C177.171 157.827 177.144 157.887 177.091 157.94C177.051 157.98 176.997 158 176.931 158H174.591C174.524 158 174.464 157.98 174.411 157.94C174.371 157.887 174.351 157.827 174.351 157.76V157.1C174.351 157.06 174.337 157.033 174.311 157.02C174.284 157.007 174.257 157.02 174.231 157.06C173.671 157.793 172.771 158.16 171.531 158.16C170.491 158.16 169.651 157.907 169.011 157.4C168.371 156.893 168.051 156.147 168.051 155.16C168.051 154.133 168.411 153.34 169.131 152.78C169.851 152.207 170.877 151.92 172.211 151.92H174.251C174.317 151.92 174.351 151.887 174.351 151.82V151.38C174.351 150.94 174.217 150.6 173.951 150.36C173.684 150.107 173.284 149.98 172.751 149.98C172.337 149.98 171.991 150.053 171.711 150.2C171.444 150.347 171.271 150.553 171.191 150.82C171.151 150.967 171.064 151.033 170.931 151.02L168.511 150.7C168.351 150.673 168.277 150.613 168.291 150.52C168.344 149.96 168.564 149.453 168.951 149C169.351 148.547 169.871 148.193 170.511 147.94C171.164 147.687 171.891 147.56 172.691 147.56ZM172.291 156.06C172.864 156.06 173.351 155.907 173.751 155.6C174.151 155.293 174.351 154.9 174.351 154.42V153.7C174.351 153.633 174.317 153.6 174.251 153.6H172.811C172.211 153.6 171.737 153.713 171.391 153.94C171.057 154.167 170.891 154.487 170.891 154.9C170.891 155.26 171.017 155.547 171.271 155.76C171.524 155.96 171.864 156.06 172.291 156.06ZM184.517 147.56C185.584 147.56 186.444 147.887 187.097 148.54C187.751 149.193 188.077 150.08 188.077 151.2V157.76C188.077 157.827 188.051 157.887 187.997 157.94C187.957 157.98 187.904 158 187.837 158H185.497C185.431 158 185.371 157.98 185.317 157.94C185.277 157.887 185.257 157.827 185.257 157.76V151.78C185.257 151.247 185.104 150.813 184.797 150.48C184.504 150.147 184.111 149.98 183.617 149.98C183.124 149.98 182.724 150.147 182.417 150.48C182.124 150.813 181.977 151.247 181.977 151.78V157.76C181.977 157.827 181.951 157.887 181.897 157.94C181.857 157.98 181.804 158 181.737 158H179.397C179.331 158 179.271 157.98 179.217 157.94C179.177 157.887 179.157 157.827 179.157 157.76V147.96C179.157 147.893 179.177 147.84 179.217 147.8C179.271 147.747 179.331 147.72 179.397 147.72H181.737C181.804 147.72 181.857 147.747 181.897 147.8C181.951 147.84 181.977 147.893 181.977 147.96V148.66C181.977 148.7 181.991 148.727 182.017 148.74C182.044 148.753 182.064 148.747 182.077 148.72C182.624 147.947 183.437 147.56 184.517 147.56ZM194.195 158.14C193.301 158.14 192.521 158.013 191.855 157.76C191.188 157.507 190.668 157.153 190.295 156.7C189.935 156.247 189.755 155.733 189.755 155.16V154.96C189.755 154.893 189.775 154.84 189.815 154.8C189.868 154.747 189.928 154.72 189.995 154.72H192.215C192.281 154.72 192.335 154.747 192.375 154.8C192.428 154.84 192.455 154.893 192.455 154.96V154.98C192.455 155.273 192.615 155.527 192.935 155.74C193.268 155.94 193.681 156.04 194.175 156.04C194.628 156.04 194.995 155.953 195.275 155.78C195.555 155.593 195.695 155.367 195.695 155.1C195.695 154.86 195.575 154.68 195.335 154.56C195.095 154.44 194.701 154.313 194.155 154.18C193.528 154.02 193.035 153.867 192.675 153.72C191.821 153.427 191.141 153.067 190.635 152.64C190.128 152.213 189.875 151.6 189.875 150.8C189.875 149.813 190.255 149.033 191.015 148.46C191.788 147.873 192.808 147.58 194.075 147.58C194.928 147.58 195.675 147.72 196.315 148C196.955 148.267 197.448 148.647 197.795 149.14C198.155 149.633 198.335 150.193 198.335 150.82C198.335 150.887 198.308 150.947 198.255 151C198.215 151.04 198.161 151.06 198.095 151.06H195.955C195.888 151.06 195.828 151.04 195.775 151C195.735 150.947 195.715 150.887 195.715 150.82C195.715 150.527 195.561 150.28 195.255 150.08C194.961 149.88 194.568 149.78 194.075 149.78C193.635 149.78 193.275 149.86 192.995 150.02C192.715 150.18 192.575 150.4 192.575 150.68C192.575 150.947 192.708 151.147 192.975 151.28C193.255 151.413 193.715 151.553 194.355 151.7C194.501 151.74 194.668 151.787 194.855 151.84C195.041 151.88 195.241 151.933 195.455 152C196.401 152.28 197.148 152.64 197.695 153.08C198.241 153.52 198.515 154.16 198.515 155C198.515 155.987 198.121 156.76 197.335 157.32C196.561 157.867 195.515 158.14 194.195 158.14Z" fill="#F5A37B"/>
<defs>
<clipPath id="clip0_116_11">
<rect width="287" height="177" fill="white" transform="translate(9)"/>
</clipPath>
<clipPath id="clip1_116_11">
<rect width="31" height="41" fill="white" transform="translate(133 28)"/>
</clipPath>
</defs>
</svg>
