<svg width="306" height="177" viewBox="0 0 306 177" fill="none" xmlns="http://www.w3.org/2000/svg">
<g clip-path="url(#clip0_116_9)">
<path d="M296 80.8747V155.738C296 167.482 286.382 177 274.515 177H30.4803C18.6176 177 9 167.482 9 155.738V80.8747C9 69.1305 18.6176 59.6126 30.4803 59.6126H93.6509C93.6509 14.6243 152.498 0 152.498 0C152.498 0 211.349 14.6243 211.349 59.6126H274.515C286.382 59.6126 296 69.1305 296 80.8747Z" fill="#182649"/>
</g>
<g clip-path="url(#clip1_116_9)">
<path d="M174.353 71.9973C173.302 71.646 172.292 71.3099 171.245 70.96C171.898 68.9848 172.535 67.0605 173.173 65.1362C173.398 64.4585 173.642 63.7877 173.836 63.1017C173.878 62.9516 173.793 62.6582 173.674 62.5838C171.956 61.5135 171.048 59.9832 171.19 57.9528C171.33 55.9279 172.425 54.5202 174.275 53.7061C174.324 53.6841 174.368 53.6496 174.423 53.6152V37.8889C174.201 37.9729 174.017 38.039 173.836 38.1106C167.063 40.8256 160.293 43.5447 153.515 46.2445C153.227 46.3588 152.821 46.396 152.544 46.2858C143.483 42.6603 134.431 39.0129 125.38 35.3681C125.28 35.3282 125.184 35.2758 125 35.1877C125.189 35.0913 125.317 35.0155 125.453 34.9604C134.47 31.3267 143.487 27.693 152.512 24.0785C152.778 23.9711 153.163 23.9752 153.432 24.0827C162.439 27.693 171.438 31.3212 180.439 34.948C180.583 35.0059 180.721 35.0761 180.97 35.1891C179.832 35.6643 178.798 36.0968 177.731 36.5431C177.731 36.7249 177.731 36.9067 177.731 37.0886C177.731 42.4234 177.734 47.7597 177.724 53.0945C177.724 53.4595 177.796 53.6662 178.164 53.8425C179.906 54.68 180.886 56.0974 180.993 58.0299C181.099 59.9446 180.27 61.4405 178.655 62.4571C178.271 62.6981 178.246 62.8951 178.378 63.2863C179.234 65.8139 180.065 68.3512 180.93 70.9587C179.904 71.303 178.895 71.6405 177.822 72C177.254 70.3044 176.701 68.6528 176.149 67.0013C176.109 66.9985 176.07 66.9944 176.031 66.9916C175.479 68.6404 174.928 70.2878 174.354 71.9986L174.353 71.9973Z" fill="white"/>
<path d="M138.18 44.0777C139.997 44.8077 141.754 45.5144 143.51 46.2224C146.504 47.429 149.5 48.6315 152.49 49.8492C152.815 49.9814 153.083 49.9952 153.418 49.8602C157.963 48.0131 162.516 46.1824 167.066 44.3477C167.268 44.2664 167.471 44.192 167.759 44.0818C167.759 44.7788 167.776 45.4262 167.755 46.0722C167.721 47.2238 167.803 48.4029 167.588 49.5214C167.212 51.4787 165.853 52.7791 164.248 53.8204C161.946 55.3108 159.372 56.0298 156.691 56.3783C152.656 56.9031 148.674 56.6745 144.803 55.326C142.742 54.6083 140.86 53.5876 139.459 51.841C138.694 50.8878 138.219 49.8038 138.19 48.5723C138.157 47.1067 138.182 45.6411 138.182 44.0791L138.18 44.0777Z" fill="white"/>
</g>
<path d="M49.6732 110C49.5532 110 49.4732 109.947 49.4332 109.84L48.7132 107.5C48.6999 107.46 48.6732 107.44 48.6332 107.44H43.0132C42.9732 107.44 42.9465 107.46 42.9332 107.5L42.2132 109.84C42.1732 109.947 42.0932 110 41.9732 110H40.3532C40.2065 110 40.1532 109.927 40.1932 109.78L44.5732 96.16C44.6132 96.0533 44.6932 96 44.8132 96H46.8132C46.9332 96 47.0132 96.0533 47.0532 96.16L51.4732 109.78L51.4932 109.86C51.4932 109.953 51.4332 110 51.3132 110H49.6732ZM43.4332 105.82C43.4199 105.847 43.4199 105.873 43.4332 105.9C43.4599 105.913 43.4865 105.92 43.5132 105.92H48.1132C48.1399 105.92 48.1599 105.913 48.1732 105.9C48.1999 105.873 48.2065 105.847 48.1932 105.82L45.8732 98.4C45.8599 98.3733 45.8399 98.36 45.8132 98.36C45.7865 98.36 45.7665 98.3733 45.7532 98.4L43.4332 105.82ZM57.1109 110.12C56.3109 110.12 55.6042 110 54.9909 109.76C54.3909 109.52 53.9242 109.193 53.5909 108.78C53.2575 108.353 53.0909 107.887 53.0909 107.38V107.16C53.0909 107.027 53.1575 106.96 53.2909 106.96H54.7309C54.8642 106.96 54.9309 107.027 54.9309 107.16V107.26C54.9309 107.633 55.1309 107.96 55.5309 108.24C55.9442 108.52 56.4642 108.66 57.0909 108.66C57.6909 108.66 58.1775 108.533 58.5509 108.28C58.9242 108.013 59.1109 107.68 59.1109 107.28C59.1109 106.893 58.9375 106.607 58.5909 106.42C58.2442 106.22 57.6842 106.013 56.9109 105.8C56.1509 105.587 55.5109 105.373 54.9909 105.16C54.4842 104.933 54.0509 104.62 53.6909 104.22C53.3442 103.807 53.1709 103.28 53.1709 102.64C53.1709 101.747 53.5175 101.04 54.2109 100.52C54.9175 99.9867 55.8509 99.72 57.0109 99.72C57.7842 99.72 58.4642 99.8467 59.0509 100.1C59.6509 100.34 60.1109 100.68 60.4309 101.12C60.7509 101.56 60.9109 102.053 60.9109 102.6V102.66C60.9109 102.793 60.8442 102.86 60.7109 102.86H59.3109C59.1775 102.86 59.1109 102.793 59.1109 102.66V102.6C59.1109 102.213 58.9175 101.893 58.5309 101.64C58.1575 101.373 57.6442 101.24 56.9909 101.24C56.4042 101.24 55.9242 101.353 55.5509 101.58C55.1909 101.807 55.0109 102.113 55.0109 102.5C55.0109 102.887 55.1842 103.18 55.5309 103.38C55.8909 103.58 56.4642 103.793 57.2509 104.02C58.0242 104.233 58.6642 104.447 59.1709 104.66C59.6909 104.86 60.1309 105.167 60.4909 105.58C60.8509 105.98 61.0309 106.507 61.0309 107.16C61.0309 108.067 60.6709 108.787 59.9509 109.32C59.2442 109.853 58.2975 110.12 57.1109 110.12ZM66.6226 110.12C65.8226 110.12 65.1159 110 64.5026 109.76C63.9026 109.52 63.4359 109.193 63.1026 108.78C62.7692 108.353 62.6026 107.887 62.6026 107.38V107.16C62.6026 107.027 62.6692 106.96 62.8026 106.96H64.2426C64.3759 106.96 64.4426 107.027 64.4426 107.16V107.26C64.4426 107.633 64.6426 107.96 65.0426 108.24C65.4559 108.52 65.9759 108.66 66.6026 108.66C67.2026 108.66 67.6892 108.533 68.0626 108.28C68.4359 108.013 68.6226 107.68 68.6226 107.28C68.6226 106.893 68.4492 106.607 68.1026 106.42C67.7559 106.22 67.1959 106.013 66.4226 105.8C65.6626 105.587 65.0226 105.373 64.5026 105.16C63.9959 104.933 63.5626 104.62 63.2026 104.22C62.8559 103.807 62.6826 103.28 62.6826 102.64C62.6826 101.747 63.0292 101.04 63.7226 100.52C64.4292 99.9867 65.3626 99.72 66.5226 99.72C67.2959 99.72 67.9759 99.8467 68.5626 100.1C69.1626 100.34 69.6226 100.68 69.9426 101.12C70.2626 101.56 70.4226 102.053 70.4226 102.6V102.66C70.4226 102.793 70.3559 102.86 70.2226 102.86H68.8226C68.6892 102.86 68.6226 102.793 68.6226 102.66V102.6C68.6226 102.213 68.4292 101.893 68.0426 101.64C67.6692 101.373 67.1559 101.24 66.5026 101.24C65.9159 101.24 65.4359 101.353 65.0626 101.58C64.7026 101.807 64.5226 102.113 64.5226 102.5C64.5226 102.887 64.6959 103.18 65.0426 103.38C65.4026 103.58 65.9759 103.793 66.7626 104.02C67.5359 104.233 68.1759 104.447 68.6826 104.66C69.2026 104.86 69.6426 105.167 70.0026 105.58C70.3626 105.98 70.5426 106.507 70.5426 107.16C70.5426 108.067 70.1826 108.787 69.4626 109.32C68.7559 109.853 67.8092 110.12 66.6226 110.12ZM78.8487 100.02C78.8487 99.8867 78.9153 99.82 79.0487 99.82H80.5487C80.682 99.82 80.7487 99.8867 80.7487 100.02V109.8C80.7487 109.933 80.682 110 80.5487 110H79.0487C78.9153 110 78.8487 109.933 78.8487 109.8V109.06C78.8487 109.033 78.8353 109.02 78.8087 109.02C78.7953 109.007 78.7753 109.013 78.7487 109.04C78.2153 109.773 77.3953 110.14 76.2887 110.14C75.6353 110.14 75.0287 110.013 74.4687 109.76C73.922 109.507 73.482 109.133 73.1487 108.64C72.8153 108.147 72.6487 107.547 72.6487 106.84V100.02C72.6487 99.8867 72.7153 99.82 72.8487 99.82H74.3487C74.482 99.82 74.5487 99.8867 74.5487 100.02V106.24C74.5487 106.933 74.7287 107.48 75.0887 107.88C75.462 108.28 75.982 108.48 76.6487 108.48C77.3153 108.48 77.8487 108.28 78.2487 107.88C78.6487 107.467 78.8487 106.92 78.8487 106.24V100.02ZM88.0104 99.72C88.4371 99.72 88.8237 99.8067 89.1704 99.98C89.2637 100.02 89.2971 100.1 89.2704 100.22L88.9504 101.72C88.9371 101.84 88.8571 101.88 88.7104 101.84C88.4837 101.747 88.2171 101.7 87.9104 101.7L87.6304 101.72C87.0037 101.747 86.4837 101.967 86.0704 102.38C85.6704 102.78 85.4704 103.307 85.4704 103.96V109.8C85.4704 109.933 85.4037 110 85.2704 110H83.7504C83.6171 110 83.5504 109.933 83.5504 109.8V100.02C83.5504 99.8867 83.6171 99.82 83.7504 99.82H85.2704C85.4037 99.82 85.4704 99.8867 85.4704 100.02V101.08C85.4704 101.12 85.4771 101.147 85.4904 101.16C85.5171 101.16 85.5371 101.147 85.5504 101.12C86.1504 100.187 86.9704 99.72 88.0104 99.72ZM99.056 103.64C99.1093 104.187 99.1293 104.8 99.116 105.48C99.116 105.613 99.0493 105.68 98.916 105.68H92.536C92.4827 105.68 92.456 105.707 92.456 105.76C92.456 106.213 92.496 106.56 92.576 106.8C92.7227 107.333 93.016 107.753 93.456 108.06C93.9093 108.353 94.476 108.5 95.156 108.5C96.1427 108.5 96.9027 108.093 97.436 107.28C97.5027 107.147 97.5893 107.127 97.696 107.22L98.836 107.98C98.9293 108.06 98.9493 108.147 98.896 108.24C98.5227 108.84 97.9893 109.313 97.296 109.66C96.616 110.007 95.8427 110.18 94.976 110.18C94.0027 110.18 93.1827 109.967 92.516 109.54C91.8493 109.113 91.3493 108.507 91.016 107.72C90.696 106.933 90.536 105.98 90.536 104.86C90.536 103.887 90.6093 103.147 90.756 102.64C90.996 101.72 91.476 100.993 92.196 100.46C92.916 99.9267 93.7893 99.66 94.816 99.66C96.1627 99.66 97.1693 100 97.836 100.68C98.5027 101.347 98.9093 102.333 99.056 103.64ZM94.816 101.32C94.2427 101.32 93.7693 101.467 93.396 101.76C93.0227 102.04 92.7693 102.42 92.636 102.9C92.5427 103.193 92.4827 103.567 92.456 104.02C92.456 104.073 92.4827 104.1 92.536 104.1H97.116C97.1693 104.1 97.196 104.073 97.196 104.02C97.1693 103.58 97.1293 103.253 97.076 103.04C96.9427 102.52 96.676 102.107 96.276 101.8C95.8893 101.48 95.4027 101.32 94.816 101.32ZM93.936 98.54C93.856 98.54 93.796 98.52 93.756 98.48C93.7293 98.4267 93.736 98.3667 93.776 98.3L94.956 96.14C94.996 96.0467 95.076 96 95.196 96H96.536C96.616 96 96.6627 96.0267 96.676 96.08C96.7027 96.12 96.696 96.1733 96.656 96.24L95.236 98.4C95.1693 98.4933 95.0893 98.54 94.996 98.54H93.936ZM109.798 103.64C109.852 104.187 109.872 104.8 109.858 105.48C109.858 105.613 109.792 105.68 109.658 105.68H103.278C103.225 105.68 103.198 105.707 103.198 105.76C103.198 106.213 103.238 106.56 103.318 106.8C103.465 107.333 103.758 107.753 104.198 108.06C104.652 108.353 105.218 108.5 105.898 108.5C106.885 108.5 107.645 108.093 108.178 107.28C108.245 107.147 108.332 107.127 108.438 107.22L109.578 107.98C109.672 108.06 109.692 108.147 109.638 108.24C109.265 108.84 108.732 109.313 108.038 109.66C107.358 110.007 106.585 110.18 105.718 110.18C104.745 110.18 103.925 109.967 103.258 109.54C102.592 109.113 102.092 108.507 101.758 107.72C101.438 106.933 101.278 105.98 101.278 104.86C101.278 103.887 101.352 103.147 101.498 102.64C101.738 101.72 102.218 100.993 102.938 100.46C103.658 99.9267 104.532 99.66 105.558 99.66C106.905 99.66 107.912 100 108.578 100.68C109.245 101.347 109.652 102.333 109.798 103.64ZM105.558 101.32C104.985 101.32 104.512 101.467 104.138 101.76C103.765 102.04 103.512 102.42 103.378 102.9C103.285 103.193 103.225 103.567 103.198 104.02C103.198 104.073 103.225 104.1 103.278 104.1H107.858C107.912 104.1 107.938 104.073 107.938 104.02C107.912 103.58 107.872 103.253 107.818 103.04C107.685 102.52 107.418 102.107 107.018 101.8C106.632 101.48 106.145 101.32 105.558 101.32ZM124.545 102.38C124.798 103.1 124.925 103.953 124.925 104.94C124.925 105.873 124.818 106.68 124.605 107.36C124.325 108.253 123.865 108.947 123.225 109.44C122.585 109.92 121.765 110.16 120.765 110.16C120.311 110.16 119.878 110.073 119.465 109.9C119.065 109.713 118.718 109.453 118.425 109.12C118.398 109.093 118.371 109.087 118.345 109.1C118.331 109.113 118.325 109.133 118.325 109.16V113.62C118.325 113.753 118.258 113.82 118.125 113.82H116.605C116.471 113.82 116.405 113.753 116.405 113.62V100.02C116.405 99.8867 116.471 99.82 116.605 99.82H118.125C118.258 99.82 118.325 99.8867 118.325 100.02V100.68C118.325 100.707 118.331 100.727 118.345 100.74C118.371 100.753 118.398 100.747 118.425 100.72C118.718 100.387 119.065 100.127 119.465 99.94C119.865 99.7533 120.298 99.66 120.765 99.66C121.725 99.66 122.518 99.9 123.145 100.38C123.785 100.847 124.251 101.513 124.545 102.38ZM122.345 107.54C122.771 106.9 122.985 106.02 122.985 104.9C122.985 103.873 122.818 103.047 122.485 102.42C122.098 101.687 121.465 101.32 120.585 101.32C119.811 101.32 119.225 101.68 118.825 102.4C118.505 102.973 118.345 103.813 118.345 104.92C118.345 106.04 118.518 106.893 118.865 107.48C119.251 108.16 119.818 108.5 120.565 108.5C121.365 108.5 121.958 108.18 122.345 107.54ZM131.157 99.66C131.97 99.66 132.677 99.8067 133.277 100.1C133.89 100.38 134.357 100.78 134.677 101.3C135.01 101.807 135.177 102.387 135.177 103.04V109.8C135.177 109.933 135.11 110 134.977 110H133.457C133.324 110 133.257 109.933 133.257 109.8V109.08C133.257 109.013 133.224 109 133.157 109.04C132.81 109.4 132.384 109.68 131.877 109.88C131.384 110.067 130.83 110.16 130.217 110.16C129.23 110.16 128.41 109.913 127.757 109.42C127.117 108.913 126.797 108.153 126.797 107.14C126.797 106.1 127.157 105.287 127.877 104.7C128.61 104.1 129.63 103.8 130.937 103.8H133.177C133.23 103.8 133.257 103.773 133.257 103.72V103.18C133.257 102.593 133.084 102.14 132.737 101.82C132.404 101.487 131.89 101.32 131.197 101.32C130.637 101.32 130.177 101.433 129.817 101.66C129.47 101.873 129.257 102.167 129.177 102.54C129.137 102.673 129.057 102.733 128.937 102.72L127.317 102.5C127.184 102.473 127.124 102.42 127.137 102.34C127.244 101.553 127.664 100.913 128.397 100.42C129.13 99.9133 130.05 99.66 131.157 99.66ZM130.637 108.54C131.344 108.54 131.957 108.353 132.477 107.98C132.997 107.607 133.257 107.133 133.257 106.56V105.38C133.257 105.327 133.23 105.3 133.177 105.3H131.297C130.51 105.3 129.884 105.453 129.417 105.76C128.95 106.067 128.717 106.493 128.717 107.04C128.717 107.533 128.89 107.907 129.237 108.16C129.597 108.413 130.064 108.54 130.637 108.54ZM142.229 99.72C142.656 99.72 143.042 99.8067 143.389 99.98C143.482 100.02 143.516 100.1 143.489 100.22L143.169 101.72C143.156 101.84 143.076 101.88 142.929 101.84C142.702 101.747 142.436 101.7 142.129 101.7L141.849 101.72C141.222 101.747 140.702 101.967 140.289 102.38C139.889 102.78 139.689 103.307 139.689 103.96V109.8C139.689 109.933 139.622 110 139.489 110H137.969C137.836 110 137.769 109.933 137.769 109.8V100.02C137.769 99.8867 137.836 99.82 137.969 99.82H139.489C139.622 99.82 139.689 99.8867 139.689 100.02V101.08C139.689 101.12 139.696 101.147 139.709 101.16C139.736 101.16 139.756 101.147 139.769 101.12C140.369 100.187 141.189 99.72 142.229 99.72ZM149.395 110C149.262 110 149.195 109.933 149.195 109.8V96.2C149.195 96.0667 149.262 96 149.395 96H150.915C151.048 96 151.115 96.0667 151.115 96.2V109.8C151.115 109.933 151.048 110 150.915 110H149.395ZM155.502 96C155.569 96 155.615 96.0267 155.642 96.08C155.682 96.12 155.689 96.1733 155.662 96.24L154.102 100.08C154.062 100.187 153.989 100.24 153.882 100.24H152.742C152.675 100.24 152.622 100.22 152.582 100.18C152.555 100.14 152.549 100.087 152.562 100.02L153.722 96.16C153.762 96.0533 153.842 96 153.962 96H155.502ZM159.781 110.16C158.794 110.16 157.934 109.913 157.201 109.42C156.467 108.913 155.954 108.213 155.661 107.32C155.421 106.6 155.301 105.787 155.301 104.88C155.301 103.933 155.414 103.133 155.641 102.48C155.934 101.6 156.447 100.913 157.181 100.42C157.914 99.9133 158.787 99.66 159.801 99.66C160.761 99.66 161.594 99.9133 162.301 100.42C163.021 100.913 163.534 101.593 163.841 102.46C164.081 103.14 164.201 103.94 164.201 104.86C164.201 105.793 164.081 106.613 163.841 107.32C163.547 108.213 163.041 108.913 162.321 109.42C161.601 109.913 160.754 110.16 159.781 110.16ZM159.781 108.5C160.314 108.5 160.781 108.353 161.181 108.06C161.581 107.753 161.867 107.327 162.041 106.78C162.187 106.273 162.261 105.647 162.261 104.9C162.261 104.153 162.194 103.533 162.061 103.04C161.887 102.493 161.601 102.073 161.201 101.78C160.801 101.473 160.314 101.32 159.741 101.32C159.194 101.32 158.721 101.473 158.321 101.78C157.921 102.073 157.634 102.493 157.461 103.04C157.314 103.507 157.241 104.127 157.241 104.9C157.241 105.673 157.314 106.3 157.461 106.78C157.621 107.327 157.901 107.753 158.301 108.06C158.714 108.353 159.207 108.5 159.781 108.5ZM174.974 102.38C175.228 103.1 175.354 103.953 175.354 104.94C175.354 105.873 175.248 106.68 175.034 107.36C174.754 108.253 174.294 108.947 173.654 109.44C173.014 109.92 172.194 110.16 171.194 110.16C170.741 110.16 170.308 110.073 169.894 109.9C169.494 109.713 169.148 109.453 168.854 109.12C168.828 109.093 168.801 109.087 168.774 109.1C168.761 109.113 168.754 109.133 168.754 109.16V113.62C168.754 113.753 168.688 113.82 168.554 113.82H167.034C166.901 113.82 166.834 113.753 166.834 113.62V100.02C166.834 99.8867 166.901 99.82 167.034 99.82H168.554C168.688 99.82 168.754 99.8867 168.754 100.02V100.68C168.754 100.707 168.761 100.727 168.774 100.74C168.801 100.753 168.828 100.747 168.854 100.72C169.148 100.387 169.494 100.127 169.894 99.94C170.294 99.7533 170.728 99.66 171.194 99.66C172.154 99.66 172.948 99.9 173.574 100.38C174.214 100.847 174.681 101.513 174.974 102.38ZM172.774 107.54C173.201 106.9 173.414 106.02 173.414 104.9C173.414 103.873 173.248 103.047 172.914 102.42C172.528 101.687 171.894 101.32 171.014 101.32C170.241 101.32 169.654 101.68 169.254 102.4C168.934 102.973 168.774 103.813 168.774 104.92C168.774 106.04 168.948 106.893 169.294 107.48C169.681 108.16 170.248 108.5 170.994 108.5C171.794 108.5 172.388 108.18 172.774 107.54ZM185.99 103.64C186.043 104.187 186.063 104.8 186.05 105.48C186.05 105.613 185.983 105.68 185.85 105.68H179.47C179.416 105.68 179.39 105.707 179.39 105.76C179.39 106.213 179.43 106.56 179.51 106.8C179.656 107.333 179.95 107.753 180.39 108.06C180.843 108.353 181.41 108.5 182.09 108.5C183.076 108.5 183.836 108.093 184.37 107.28C184.436 107.147 184.523 107.127 184.63 107.22L185.77 107.98C185.863 108.06 185.883 108.147 185.83 108.24C185.456 108.84 184.923 109.313 184.23 109.66C183.55 110.007 182.776 110.18 181.91 110.18C180.936 110.18 180.116 109.967 179.45 109.54C178.783 109.113 178.283 108.507 177.95 107.72C177.63 106.933 177.47 105.98 177.47 104.86C177.47 103.887 177.543 103.147 177.69 102.64C177.93 101.72 178.41 100.993 179.13 100.46C179.85 99.9267 180.723 99.66 181.75 99.66C183.096 99.66 184.103 100 184.77 100.68C185.436 101.347 185.843 102.333 185.99 103.64ZM181.75 101.32C181.176 101.32 180.703 101.467 180.33 101.76C179.956 102.04 179.703 102.42 179.57 102.9C179.476 103.193 179.416 103.567 179.39 104.02C179.39 104.073 179.416 104.1 179.47 104.1H184.05C184.103 104.1 184.13 104.073 184.13 104.02C184.103 103.58 184.063 103.253 184.01 103.04C183.876 102.52 183.61 102.107 183.21 101.8C182.823 101.48 182.336 101.32 181.75 101.32ZM180.87 98.54C180.79 98.54 180.73 98.52 180.69 98.48C180.663 98.4267 180.67 98.3667 180.71 98.3L181.89 96.14C181.93 96.0467 182.01 96 182.13 96H183.47C183.55 96 183.596 96.0267 183.61 96.08C183.636 96.12 183.63 96.1733 183.59 96.24L182.17 98.4C182.103 98.4933 182.023 98.54 181.93 98.54H180.87ZM192.952 99.72C193.378 99.72 193.765 99.8067 194.112 99.98C194.205 100.02 194.238 100.1 194.212 100.22L193.892 101.72C193.878 101.84 193.798 101.88 193.652 101.84C193.425 101.747 193.158 101.7 192.852 101.7L192.572 101.72C191.945 101.747 191.425 101.967 191.012 102.38C190.612 102.78 190.412 103.307 190.412 103.96V109.8C190.412 109.933 190.345 110 190.212 110H188.692C188.558 110 188.492 109.933 188.492 109.8V100.02C188.492 99.8867 188.558 99.82 188.692 99.82H190.212C190.345 99.82 190.412 99.8867 190.412 100.02V101.08C190.412 101.12 190.418 101.147 190.432 101.16C190.458 101.16 190.478 101.147 190.492 101.12C191.092 100.187 191.912 99.72 192.952 99.72ZM199.556 99.66C200.369 99.66 201.076 99.8067 201.676 100.1C202.289 100.38 202.756 100.78 203.076 101.3C203.409 101.807 203.576 102.387 203.576 103.04V109.8C203.576 109.933 203.509 110 203.376 110H201.856C201.722 110 201.656 109.933 201.656 109.8V109.08C201.656 109.013 201.622 109 201.556 109.04C201.209 109.4 200.782 109.68 200.276 109.88C199.782 110.067 199.229 110.16 198.616 110.16C197.629 110.16 196.809 109.913 196.156 109.42C195.516 108.913 195.196 108.153 195.196 107.14C195.196 106.1 195.556 105.287 196.276 104.7C197.009 104.1 198.029 103.8 199.336 103.8H201.576C201.629 103.8 201.656 103.773 201.656 103.72V103.18C201.656 102.593 201.482 102.14 201.136 101.82C200.802 101.487 200.289 101.32 199.596 101.32C199.036 101.32 198.576 101.433 198.216 101.66C197.869 101.873 197.656 102.167 197.576 102.54C197.536 102.673 197.456 102.733 197.336 102.72L195.716 102.5C195.582 102.473 195.522 102.42 195.536 102.34C195.642 101.553 196.062 100.913 196.796 100.42C197.529 99.9133 198.449 99.66 199.556 99.66ZM199.036 108.54C199.742 108.54 200.356 108.353 200.876 107.98C201.396 107.607 201.656 107.133 201.656 106.56V105.38C201.656 105.327 201.629 105.3 201.576 105.3H199.696C198.909 105.3 198.282 105.453 197.816 105.76C197.349 106.067 197.116 106.493 197.116 107.04C197.116 107.533 197.289 107.907 197.636 108.16C197.996 108.413 198.462 108.54 199.036 108.54ZM211.051 101.2C211.051 101.333 210.984 101.4 210.851 101.4H208.691C208.638 101.4 208.611 101.427 208.611 101.48V106.78C208.611 107.34 208.738 107.747 208.991 108C209.244 108.24 209.638 108.36 210.171 108.36H210.751C210.884 108.36 210.951 108.427 210.951 108.56V109.8C210.951 109.933 210.884 110 210.751 110C210.324 110.027 210.018 110.04 209.831 110.04C208.818 110.04 208.051 109.86 207.531 109.5C207.024 109.127 206.771 108.447 206.771 107.46V101.48C206.771 101.427 206.744 101.4 206.691 101.4H205.471C205.338 101.4 205.271 101.333 205.271 101.2V100.02C205.271 99.8867 205.338 99.82 205.471 99.82H206.691C206.744 99.82 206.771 99.7933 206.771 99.74V97.38C206.771 97.2467 206.838 97.18 206.971 97.18H208.411C208.544 97.18 208.611 97.2467 208.611 97.38V99.74C208.611 99.7933 208.638 99.82 208.691 99.82H210.851C210.984 99.82 211.051 99.8867 211.051 100.02V101.2ZM221.419 103.64C221.473 104.187 221.493 104.8 221.479 105.48C221.479 105.613 221.413 105.68 221.279 105.68H214.899C214.846 105.68 214.819 105.707 214.819 105.76C214.819 106.213 214.859 106.56 214.939 106.8C215.086 107.333 215.379 107.753 215.819 108.06C216.273 108.353 216.839 108.5 217.519 108.5C218.506 108.5 219.266 108.093 219.799 107.28C219.866 107.147 219.953 107.127 220.059 107.22L221.199 107.98C221.293 108.06 221.313 108.147 221.259 108.24C220.886 108.84 220.353 109.313 219.659 109.66C218.979 110.007 218.206 110.18 217.339 110.18C216.366 110.18 215.546 109.967 214.879 109.54C214.213 109.113 213.713 108.507 213.379 107.72C213.059 106.933 212.899 105.98 212.899 104.86C212.899 103.887 212.973 103.147 213.119 102.64C213.359 101.72 213.839 100.993 214.559 100.46C215.279 99.9267 216.153 99.66 217.179 99.66C218.526 99.66 219.533 100 220.199 100.68C220.866 101.347 221.273 102.333 221.419 103.64ZM217.179 101.32C216.606 101.32 216.133 101.467 215.759 101.76C215.386 102.04 215.133 102.42 214.999 102.9C214.906 103.193 214.846 103.567 214.819 104.02C214.819 104.073 214.846 104.1 214.899 104.1H219.479C219.533 104.1 219.559 104.073 219.559 104.02C219.533 103.58 219.493 103.253 219.439 103.04C219.306 102.52 219.039 102.107 218.639 101.8C218.253 101.48 217.766 101.32 217.179 101.32ZM229.962 100.02C229.962 99.8867 230.029 99.82 230.162 99.82H231.662C231.795 99.82 231.862 99.8867 231.862 100.02V109.8C231.862 109.933 231.795 110 231.662 110H230.162C230.029 110 229.962 109.933 229.962 109.8V109.06C229.962 109.033 229.949 109.02 229.922 109.02C229.909 109.007 229.889 109.013 229.862 109.04C229.329 109.773 228.509 110.14 227.402 110.14C226.749 110.14 226.142 110.013 225.582 109.76C225.035 109.507 224.595 109.133 224.262 108.64C223.929 108.147 223.762 107.547 223.762 106.84V100.02C223.762 99.8867 223.829 99.82 223.962 99.82H225.462C225.595 99.82 225.662 99.8867 225.662 100.02V106.24C225.662 106.933 225.842 107.48 226.202 107.88C226.575 108.28 227.095 108.48 227.762 108.48C228.429 108.48 228.962 108.28 229.362 107.88C229.762 107.467 229.962 106.92 229.962 106.24V100.02ZM239.124 99.72C239.55 99.72 239.937 99.8067 240.284 99.98C240.377 100.02 240.41 100.1 240.384 100.22L240.064 101.72C240.05 101.84 239.97 101.88 239.824 101.84C239.597 101.747 239.33 101.7 239.024 101.7L238.744 101.72C238.117 101.747 237.597 101.967 237.184 102.38C236.784 102.78 236.584 103.307 236.584 103.96V109.8C236.584 109.933 236.517 110 236.384 110H234.864C234.73 110 234.664 109.933 234.664 109.8V100.02C234.664 99.8867 234.73 99.82 234.864 99.82H236.384C236.517 99.82 236.584 99.8867 236.584 100.02V101.08C236.584 101.12 236.59 101.147 236.604 101.16C236.63 101.16 236.65 101.147 236.664 101.12C237.264 100.187 238.084 99.72 239.124 99.72ZM252.409 96.2C252.409 96.0667 252.476 96 252.609 96H254.129C254.263 96 254.329 96.0667 254.329 96.2V109.8C254.329 109.933 254.263 110 254.129 110H252.609C252.476 110 252.409 109.933 252.409 109.8V109.14C252.409 109.113 252.396 109.093 252.369 109.08C252.356 109.067 252.336 109.073 252.309 109.1C252.016 109.433 251.669 109.693 251.269 109.88C250.869 110.067 250.436 110.16 249.969 110.16C249.009 110.16 248.209 109.927 247.569 109.46C246.943 108.98 246.483 108.307 246.189 107.44C245.936 106.733 245.809 105.88 245.809 104.88C245.809 103.947 245.916 103.14 246.129 102.46C246.409 101.58 246.869 100.893 247.509 100.4C248.149 99.9067 248.969 99.66 249.969 99.66C250.423 99.66 250.849 99.7533 251.249 99.94C251.663 100.113 252.016 100.367 252.309 100.7C252.336 100.727 252.356 100.733 252.369 100.72C252.396 100.707 252.409 100.687 252.409 100.66V96.2ZM251.909 107.42C252.216 106.86 252.369 106.02 252.369 104.9C252.369 103.78 252.203 102.927 251.869 102.34C251.483 101.66 250.916 101.32 250.169 101.32C249.369 101.32 248.776 101.64 248.389 102.28C247.963 102.947 247.749 103.827 247.749 104.92C247.749 105.947 247.916 106.773 248.249 107.4C248.636 108.133 249.269 108.5 250.149 108.5C250.923 108.5 251.509 108.14 251.909 107.42ZM265.384 103.64C265.437 104.187 265.457 104.8 265.444 105.48C265.444 105.613 265.377 105.68 265.244 105.68H258.864C258.811 105.68 258.784 105.707 258.784 105.76C258.784 106.213 258.824 106.56 258.904 106.8C259.051 107.333 259.344 107.753 259.784 108.06C260.237 108.353 260.804 108.5 261.484 108.5C262.471 108.5 263.231 108.093 263.764 107.28C263.831 107.147 263.917 107.127 264.024 107.22L265.164 107.98C265.257 108.06 265.277 108.147 265.224 108.24C264.851 108.84 264.317 109.313 263.624 109.66C262.944 110.007 262.171 110.18 261.304 110.18C260.331 110.18 259.511 109.967 258.844 109.54C258.177 109.113 257.677 108.507 257.344 107.72C257.024 106.933 256.864 105.98 256.864 104.86C256.864 103.887 256.937 103.147 257.084 102.64C257.324 101.72 257.804 100.993 258.524 100.46C259.244 99.9267 260.117 99.66 261.144 99.66C262.491 99.66 263.497 100 264.164 100.68C264.831 101.347 265.237 102.333 265.384 103.64ZM261.144 101.32C260.571 101.32 260.097 101.467 259.724 101.76C259.351 102.04 259.097 102.42 258.964 102.9C258.871 103.193 258.811 103.567 258.784 104.02C258.784 104.073 258.811 104.1 258.864 104.1H263.444C263.497 104.1 263.524 104.073 263.524 104.02C263.497 103.58 263.457 103.253 263.404 103.04C263.271 102.52 263.004 102.107 262.604 101.8C262.217 101.48 261.731 101.32 261.144 101.32ZM96.9566 134.16C95.9432 134.16 95.0766 133.907 94.3566 133.4C93.6366 132.88 93.1432 132.18 92.8766 131.3C92.6766 130.687 92.5766 129.88 92.5766 128.88C92.5766 127.96 92.6766 127.153 92.8766 126.46C93.1432 125.607 93.6366 124.927 94.3566 124.42C95.0899 123.913 95.9566 123.66 96.9566 123.66C97.9566 123.66 98.8299 123.913 99.5766 124.42C100.323 124.927 100.81 125.567 101.037 126.34C101.117 126.553 101.17 126.773 101.197 127C101.197 127.107 101.137 127.173 101.017 127.2L99.5166 127.42H99.4766C99.3832 127.42 99.3166 127.36 99.2766 127.24L99.2166 126.92C99.1099 126.467 98.8499 126.087 98.4366 125.78C98.0232 125.473 97.5232 125.32 96.9366 125.32C96.3632 125.32 95.8766 125.473 95.4766 125.78C95.0766 126.087 94.8166 126.493 94.6966 127C94.5766 127.48 94.5166 128.113 94.5166 128.9C94.5166 129.673 94.5766 130.3 94.6966 130.78C94.8299 131.313 95.0899 131.733 95.4766 132.04C95.8766 132.347 96.3632 132.5 96.9366 132.5C97.5232 132.5 98.0232 132.347 98.4366 132.04C98.8632 131.733 99.1299 131.333 99.2366 130.84C99.2499 130.827 99.2499 130.813 99.2366 130.8C99.2366 130.773 99.2432 130.753 99.2566 130.74V130.66C99.2966 130.553 99.3699 130.513 99.4766 130.54L100.977 130.78C101.083 130.807 101.137 130.86 101.137 130.94V131.02C101.137 131.14 101.103 131.287 101.037 131.46C100.81 132.273 100.323 132.927 99.5766 133.42C98.8299 133.913 97.9566 134.16 96.9566 134.16ZM107.486 134.16C106.499 134.16 105.639 133.913 104.906 133.42C104.172 132.913 103.659 132.213 103.366 131.32C103.126 130.6 103.006 129.787 103.006 128.88C103.006 127.933 103.119 127.133 103.346 126.48C103.639 125.6 104.152 124.913 104.886 124.42C105.619 123.913 106.492 123.66 107.506 123.66C108.466 123.66 109.299 123.913 110.006 124.42C110.726 124.913 111.239 125.593 111.546 126.46C111.786 127.14 111.906 127.94 111.906 128.86C111.906 129.793 111.786 130.613 111.546 131.32C111.252 132.213 110.746 132.913 110.026 133.42C109.306 133.913 108.459 134.16 107.486 134.16ZM107.486 132.5C108.019 132.5 108.486 132.353 108.886 132.06C109.286 131.753 109.572 131.327 109.746 130.78C109.892 130.273 109.966 129.647 109.966 128.9C109.966 128.153 109.899 127.533 109.766 127.04C109.592 126.493 109.306 126.073 108.906 125.78C108.506 125.473 108.019 125.32 107.446 125.32C106.899 125.32 106.426 125.473 106.026 125.78C105.626 126.073 105.339 126.493 105.166 127.04C105.019 127.507 104.946 128.127 104.946 128.9C104.946 129.673 105.019 130.3 105.166 130.78C105.326 131.327 105.606 131.753 106.006 132.06C106.419 132.353 106.912 132.5 107.486 132.5ZM125 123.68C126.013 123.68 126.813 123.987 127.4 124.6C127.986 125.2 128.28 126.04 128.28 127.12V133.8C128.28 133.933 128.213 134 128.08 134H126.58C126.446 134 126.38 133.933 126.38 133.8V127.52C126.38 126.853 126.193 126.327 125.82 125.94C125.46 125.54 124.973 125.34 124.36 125.34C123.746 125.34 123.246 125.533 122.86 125.92C122.473 126.307 122.28 126.827 122.28 127.48V133.8C122.28 133.933 122.213 134 122.08 134H120.58C120.446 134 120.38 133.933 120.38 133.8V127.52C120.38 126.853 120.193 126.327 119.82 125.94C119.46 125.54 118.973 125.34 118.36 125.34C117.746 125.34 117.253 125.533 116.88 125.92C116.52 126.307 116.34 126.827 116.34 127.48V133.8C116.34 133.933 116.273 134 116.14 134H114.62C114.486 134 114.42 133.933 114.42 133.8V124.02C114.42 123.887 114.486 123.82 114.62 123.82H116.14C116.273 123.82 116.34 123.887 116.34 124.02V124.7C116.34 124.727 116.346 124.747 116.36 124.76C116.386 124.773 116.413 124.767 116.44 124.74C117.026 124.033 117.88 123.68 119 123.68C119.68 123.68 120.26 123.813 120.74 124.08C121.22 124.333 121.593 124.713 121.86 125.22C121.9 125.273 121.94 125.273 121.98 125.22C122.3 124.7 122.72 124.313 123.24 124.06C123.773 123.807 124.36 123.68 125 123.68ZM139.203 126.38C139.456 127.1 139.583 127.953 139.583 128.94C139.583 129.873 139.476 130.68 139.263 131.36C138.983 132.253 138.523 132.947 137.883 133.44C137.243 133.92 136.423 134.16 135.423 134.16C134.97 134.16 134.536 134.073 134.123 133.9C133.723 133.713 133.376 133.453 133.083 133.12C133.056 133.093 133.03 133.087 133.003 133.1C132.99 133.113 132.983 133.133 132.983 133.16V137.62C132.983 137.753 132.916 137.82 132.783 137.82H131.263C131.13 137.82 131.063 137.753 131.063 137.62V124.02C131.063 123.887 131.13 123.82 131.263 123.82H132.783C132.916 123.82 132.983 123.887 132.983 124.02V124.68C132.983 124.707 132.99 124.727 133.003 124.74C133.03 124.753 133.056 124.747 133.083 124.72C133.376 124.387 133.723 124.127 134.123 123.94C134.523 123.753 134.956 123.66 135.423 123.66C136.383 123.66 137.176 123.9 137.803 124.38C138.443 124.847 138.91 125.513 139.203 126.38ZM137.003 131.54C137.43 130.9 137.643 130.02 137.643 128.9C137.643 127.873 137.476 127.047 137.143 126.42C136.756 125.687 136.123 125.32 135.243 125.32C134.47 125.32 133.883 125.68 133.483 126.4C133.163 126.973 133.003 127.813 133.003 128.92C133.003 130.04 133.176 130.893 133.523 131.48C133.91 132.16 134.476 132.5 135.223 132.5C136.023 132.5 136.616 132.18 137.003 131.54ZM150.218 127.64C150.271 128.187 150.291 128.8 150.278 129.48C150.278 129.613 150.211 129.68 150.078 129.68H143.698C143.645 129.68 143.618 129.707 143.618 129.76C143.618 130.213 143.658 130.56 143.738 130.8C143.885 131.333 144.178 131.753 144.618 132.06C145.071 132.353 145.638 132.5 146.318 132.5C147.305 132.5 148.065 132.093 148.598 131.28C148.665 131.147 148.751 131.127 148.858 131.22L149.998 131.98C150.091 132.06 150.111 132.147 150.058 132.24C149.685 132.84 149.151 133.313 148.458 133.66C147.778 134.007 147.005 134.18 146.138 134.18C145.165 134.18 144.345 133.967 143.678 133.54C143.011 133.113 142.511 132.507 142.178 131.72C141.858 130.933 141.698 129.98 141.698 128.86C141.698 127.887 141.771 127.147 141.918 126.64C142.158 125.72 142.638 124.993 143.358 124.46C144.078 123.927 144.951 123.66 145.978 123.66C147.325 123.66 148.331 124 148.998 124.68C149.665 125.347 150.071 126.333 150.218 127.64ZM145.978 125.32C145.405 125.32 144.931 125.467 144.558 125.76C144.185 126.04 143.931 126.42 143.798 126.9C143.705 127.193 143.645 127.567 143.618 128.02C143.618 128.073 143.645 128.1 143.698 128.1H148.278C148.331 128.1 148.358 128.073 148.358 128.02C148.331 127.58 148.291 127.253 148.238 127.04C148.105 126.52 147.838 126.107 147.438 125.8C147.051 125.48 146.565 125.32 145.978 125.32ZM145.098 122.54C145.018 122.54 144.958 122.52 144.918 122.48C144.891 122.427 144.898 122.367 144.938 122.3L146.118 120.14C146.158 120.047 146.238 120 146.358 120H147.698C147.778 120 147.825 120.027 147.838 120.08C147.865 120.12 147.858 120.173 147.818 120.24L146.398 122.4C146.331 122.493 146.251 122.54 146.158 122.54H145.098ZM157.584 125.2C157.584 125.333 157.517 125.4 157.384 125.4H155.224C155.171 125.4 155.144 125.427 155.144 125.48V130.78C155.144 131.34 155.271 131.747 155.524 132C155.777 132.24 156.171 132.36 156.704 132.36H157.284C157.417 132.36 157.484 132.427 157.484 132.56V133.8C157.484 133.933 157.417 134 157.284 134C156.857 134.027 156.551 134.04 156.364 134.04C155.351 134.04 154.584 133.86 154.064 133.5C153.557 133.127 153.304 132.447 153.304 131.46V125.48C153.304 125.427 153.277 125.4 153.224 125.4H152.004C151.871 125.4 151.804 125.333 151.804 125.2V124.02C151.804 123.887 151.871 123.82 152.004 123.82H153.224C153.277 123.82 153.304 123.793 153.304 123.74V121.38C153.304 121.247 153.371 121.18 153.504 121.18H154.944C155.077 121.18 155.144 121.247 155.144 121.38V123.74C155.144 123.793 155.171 123.82 155.224 123.82H157.384C157.517 123.82 157.584 123.887 157.584 124.02V125.2ZM167.953 127.64C168.006 128.187 168.026 128.8 168.013 129.48C168.013 129.613 167.946 129.68 167.813 129.68H161.433C161.379 129.68 161.353 129.707 161.353 129.76C161.353 130.213 161.393 130.56 161.473 130.8C161.619 131.333 161.913 131.753 162.353 132.06C162.806 132.353 163.373 132.5 164.053 132.5C165.039 132.5 165.799 132.093 166.333 131.28C166.399 131.147 166.486 131.127 166.593 131.22L167.733 131.98C167.826 132.06 167.846 132.147 167.793 132.24C167.419 132.84 166.886 133.313 166.193 133.66C165.513 134.007 164.739 134.18 163.873 134.18C162.899 134.18 162.079 133.967 161.413 133.54C160.746 133.113 160.246 132.507 159.913 131.72C159.593 130.933 159.433 129.98 159.433 128.86C159.433 127.887 159.506 127.147 159.653 126.64C159.893 125.72 160.373 124.993 161.093 124.46C161.813 123.927 162.686 123.66 163.713 123.66C165.059 123.66 166.066 124 166.733 124.68C167.399 125.347 167.806 126.333 167.953 127.64ZM163.713 125.32C163.139 125.32 162.666 125.467 162.293 125.76C161.919 126.04 161.666 126.42 161.533 126.9C161.439 127.193 161.379 127.567 161.353 128.02C161.353 128.073 161.379 128.1 161.433 128.1H166.013C166.066 128.1 166.093 128.073 166.093 128.02C166.066 127.58 166.026 127.253 165.973 127.04C165.839 126.52 165.573 126.107 165.173 125.8C164.786 125.48 164.299 125.32 163.713 125.32ZM174.975 123.68C176.068 123.68 176.935 124 177.575 124.64C178.215 125.267 178.535 126.12 178.535 127.2V133.8C178.535 133.933 178.468 134 178.335 134H176.815C176.682 134 176.615 133.933 176.615 133.8V127.58C176.615 126.913 176.422 126.373 176.035 125.96C175.648 125.547 175.135 125.34 174.495 125.34C173.868 125.34 173.355 125.547 172.955 125.96C172.555 126.373 172.355 126.907 172.355 127.56V133.8C172.355 133.933 172.288 134 172.155 134H170.635C170.502 134 170.435 133.933 170.435 133.8V124.02C170.435 123.887 170.502 123.82 170.635 123.82H172.155C172.288 123.82 172.355 123.887 172.355 124.02V124.74C172.355 124.767 172.362 124.787 172.375 124.8C172.402 124.813 172.422 124.807 172.435 124.78C173.008 124.047 173.855 123.68 174.975 123.68ZM185.238 134.16C184.224 134.16 183.358 133.907 182.638 133.4C181.918 132.88 181.424 132.18 181.158 131.3C180.958 130.687 180.858 129.88 180.858 128.88C180.858 127.96 180.958 127.153 181.158 126.46C181.424 125.607 181.918 124.927 182.638 124.42C183.371 123.913 184.238 123.66 185.238 123.66C186.238 123.66 187.111 123.913 187.858 124.42C188.604 124.927 189.091 125.567 189.318 126.34C189.398 126.553 189.451 126.773 189.478 127C189.478 127.107 189.418 127.173 189.298 127.2L187.798 127.42H187.758C187.664 127.42 187.598 127.36 187.558 127.24L187.498 126.92C187.391 126.467 187.131 126.087 186.718 125.78C186.304 125.473 185.804 125.32 185.218 125.32C184.644 125.32 184.158 125.473 183.758 125.78C183.358 126.087 183.098 126.493 182.978 127C182.858 127.48 182.798 128.113 182.798 128.9C182.798 129.673 182.858 130.3 182.978 130.78C183.111 131.313 183.371 131.733 183.758 132.04C184.158 132.347 184.644 132.5 185.218 132.5C185.804 132.5 186.304 132.347 186.718 132.04C187.144 131.733 187.411 131.333 187.518 130.84C187.531 130.827 187.531 130.813 187.518 130.8C187.518 130.773 187.524 130.753 187.538 130.74V130.66C187.578 130.553 187.651 130.513 187.758 130.54L189.258 130.78C189.364 130.807 189.418 130.86 189.418 130.94V131.02C189.418 131.14 189.384 131.287 189.318 131.46C189.091 132.273 188.604 132.927 187.858 133.42C187.111 133.913 186.238 134.16 185.238 134.16ZM199.847 127.64C199.9 128.187 199.92 128.8 199.907 129.48C199.907 129.613 199.84 129.68 199.707 129.68H193.327C193.274 129.68 193.247 129.707 193.247 129.76C193.247 130.213 193.287 130.56 193.367 130.8C193.514 131.333 193.807 131.753 194.247 132.06C194.7 132.353 195.267 132.5 195.947 132.5C196.934 132.5 197.694 132.093 198.227 131.28C198.294 131.147 198.38 131.127 198.487 131.22L199.627 131.98C199.72 132.06 199.74 132.147 199.687 132.24C199.314 132.84 198.78 133.313 198.087 133.66C197.407 134.007 196.634 134.18 195.767 134.18C194.794 134.18 193.974 133.967 193.307 133.54C192.64 133.113 192.14 132.507 191.807 131.72C191.487 130.933 191.327 129.98 191.327 128.86C191.327 127.887 191.4 127.147 191.547 126.64C191.787 125.72 192.267 124.993 192.987 124.46C193.707 123.927 194.58 123.66 195.607 123.66C196.954 123.66 197.96 124 198.627 124.68C199.294 125.347 199.7 126.333 199.847 127.64ZM195.607 125.32C195.034 125.32 194.56 125.467 194.187 125.76C193.814 126.04 193.56 126.42 193.427 126.9C193.334 127.193 193.274 127.567 193.247 128.02C193.247 128.073 193.274 128.1 193.327 128.1H197.907C197.96 128.1 197.987 128.073 197.987 128.02C197.96 127.58 197.92 127.253 197.867 127.04C197.734 126.52 197.467 126.107 197.067 125.8C196.68 125.48 196.194 125.32 195.607 125.32ZM205.753 134.12C204.953 134.12 204.247 134 203.633 133.76C203.033 133.52 202.567 133.193 202.233 132.78C201.9 132.353 201.733 131.887 201.733 131.38V131.16C201.733 131.027 201.8 130.96 201.933 130.96H203.373C203.507 130.96 203.573 131.027 203.573 131.16V131.26C203.573 131.633 203.773 131.96 204.173 132.24C204.587 132.52 205.107 132.66 205.733 132.66C206.333 132.66 206.82 132.533 207.193 132.28C207.567 132.013 207.753 131.68 207.753 131.28C207.753 130.893 207.58 130.607 207.233 130.42C206.887 130.22 206.327 130.013 205.553 129.8C204.793 129.587 204.153 129.373 203.633 129.16C203.127 128.933 202.693 128.62 202.333 128.22C201.987 127.807 201.813 127.28 201.813 126.64C201.813 125.747 202.16 125.04 202.853 124.52C203.56 123.987 204.493 123.72 205.653 123.72C206.427 123.72 207.107 123.847 207.693 124.1C208.293 124.34 208.753 124.68 209.073 125.12C209.393 125.56 209.553 126.053 209.553 126.6V126.66C209.553 126.793 209.487 126.86 209.353 126.86H207.953C207.82 126.86 207.753 126.793 207.753 126.66V126.6C207.753 126.213 207.56 125.893 207.173 125.64C206.8 125.373 206.287 125.24 205.633 125.24C205.047 125.24 204.567 125.353 204.193 125.58C203.833 125.807 203.653 126.113 203.653 126.5C203.653 126.887 203.827 127.18 204.173 127.38C204.533 127.58 205.107 127.793 205.893 128.02C206.667 128.233 207.307 128.447 207.813 128.66C208.333 128.86 208.773 129.167 209.133 129.58C209.493 129.98 209.673 130.507 209.673 131.16C209.673 132.067 209.313 132.787 208.593 133.32C207.887 133.853 206.94 134.12 205.753 134.12Z" fill="white"/>
<path d="M134.727 158.22C133.687 158.22 132.767 158.007 131.967 157.58C131.181 157.153 130.567 156.56 130.127 155.8C129.687 155.027 129.467 154.14 129.467 153.14V148.86C129.467 147.873 129.687 147 130.127 146.24C130.567 145.48 131.181 144.893 131.967 144.48C132.767 144.053 133.687 143.84 134.727 143.84C135.781 143.84 136.701 144.053 137.487 144.48C138.287 144.893 138.907 145.48 139.347 146.24C139.787 147 140.007 147.873 140.007 148.86V153.14C140.007 154.14 139.787 155.027 139.347 155.8C138.907 156.573 138.287 157.173 137.487 157.6C136.701 158.013 135.781 158.22 134.727 158.22ZM134.727 155.8C135.461 155.8 136.054 155.567 136.507 155.1C136.961 154.633 137.187 154.013 137.187 153.24V148.84C137.187 148.067 136.961 147.447 136.507 146.98C136.067 146.5 135.474 146.26 134.727 146.26C133.994 146.26 133.401 146.5 132.947 146.98C132.507 147.447 132.287 148.067 132.287 148.84V153.24C132.287 154.013 132.507 154.633 132.947 155.1C133.401 155.567 133.994 155.8 134.727 155.8ZM147.949 143.98C148.829 143.98 149.603 144.16 150.269 144.52C150.936 144.88 151.449 145.393 151.809 146.06C152.183 146.713 152.369 147.467 152.369 148.32C152.369 149.16 152.176 149.9 151.789 150.54C151.416 151.18 150.883 151.68 150.189 152.04C149.509 152.387 148.723 152.56 147.829 152.56H144.989C144.923 152.56 144.889 152.593 144.889 152.66V157.76C144.889 157.827 144.863 157.887 144.809 157.94C144.769 157.98 144.716 158 144.649 158H142.309C142.243 158 142.183 157.98 142.129 157.94C142.089 157.887 142.069 157.827 142.069 157.76V144.22C142.069 144.153 142.089 144.1 142.129 144.06C142.183 144.007 142.243 143.98 142.309 143.98H147.949ZM147.529 150.3C148.143 150.3 148.636 150.127 149.009 149.78C149.383 149.42 149.569 148.953 149.569 148.38C149.569 147.793 149.383 147.32 149.009 146.96C148.636 146.6 148.143 146.42 147.529 146.42H144.989C144.923 146.42 144.889 146.453 144.889 146.52V150.2C144.889 150.267 144.923 150.3 144.989 150.3H147.529ZM159.023 158.16C157.983 158.16 157.069 157.96 156.283 157.56C155.496 157.147 154.889 156.573 154.463 155.84C154.036 155.107 153.823 154.26 153.823 153.3V148.68C153.823 147.72 154.036 146.873 154.463 146.14C154.889 145.407 155.496 144.84 156.283 144.44C157.069 144.04 157.983 143.84 159.023 143.84C160.049 143.84 160.949 144.033 161.723 144.42C162.509 144.793 163.116 145.333 163.543 146.04C163.983 146.733 164.203 147.54 164.203 148.46C164.203 148.58 164.123 148.653 163.963 148.68L161.623 148.82H161.583C161.449 148.82 161.383 148.747 161.383 148.6C161.383 147.893 161.163 147.327 160.723 146.9C160.296 146.473 159.729 146.26 159.023 146.26C158.303 146.26 157.723 146.473 157.283 146.9C156.856 147.327 156.643 147.893 156.643 148.6V153.42C156.643 154.113 156.856 154.673 157.283 155.1C157.723 155.527 158.303 155.74 159.023 155.74C159.729 155.74 160.296 155.527 160.723 155.1C161.163 154.673 161.383 154.113 161.383 153.42C161.383 153.273 161.463 153.2 161.623 153.2L163.963 153.3C164.029 153.3 164.083 153.32 164.123 153.36C164.176 153.4 164.203 153.447 164.203 153.5C164.203 154.42 163.983 155.233 163.543 155.94C163.116 156.647 162.509 157.193 161.723 157.58C160.949 157.967 160.049 158.16 159.023 158.16ZM171.251 158.22C170.211 158.22 169.291 158.007 168.491 157.58C167.704 157.153 167.091 156.56 166.651 155.8C166.211 155.027 165.991 154.14 165.991 153.14V148.86C165.991 147.873 166.211 147 166.651 146.24C167.091 145.48 167.704 144.893 168.491 144.48C169.291 144.053 170.211 143.84 171.251 143.84C172.304 143.84 173.224 144.053 174.011 144.48C174.811 144.893 175.431 145.48 175.871 146.24C176.311 147 176.531 147.873 176.531 148.86V153.14C176.531 154.14 176.311 155.027 175.871 155.8C175.431 156.573 174.811 157.173 174.011 157.6C173.224 158.013 172.304 158.22 171.251 158.22ZM171.251 155.8C171.984 155.8 172.577 155.567 173.031 155.1C173.484 154.633 173.711 154.013 173.711 153.24V148.84C173.711 148.067 173.484 147.447 173.031 146.98C172.591 146.5 171.997 146.26 171.251 146.26C170.517 146.26 169.924 146.5 169.471 146.98C169.031 147.447 168.811 148.067 168.811 148.84V153.24C168.811 154.013 169.031 154.633 169.471 155.1C169.924 155.567 170.517 155.8 171.251 155.8Z" fill="#F5A37B"/>
<defs>
<clipPath id="clip0_116_9">
<rect width="287" height="177" fill="white" transform="translate(9)"/>
</clipPath>
<clipPath id="clip1_116_9">
<rect width="56" height="48" fill="white" transform="translate(125 24)"/>
</clipPath>
</defs>
</svg>
