<svg width="956" height="249" viewBox="0 0 956 249" fill="none" xmlns="http://www.w3.org/2000/svg">
<path fill-rule="evenodd" clip-rule="evenodd" d="M56.9971 0C25.0884 30.0934 0.22168 70.7299 0.22168 124.343C0.22168 177.957 25.0884 218.603 56.9971 248.697L899.013 248.697C930.922 218.613 955.779 177.967 955.779 124.363C955.779 70.7598 930.912 30.1333 899.013 0.0398984V0H56.9971Z" fill="#182649"/>
<path d="M102.331 59.248C100.678 59.248 99.231 58.9897 97.991 58.473C96.751 57.9357 95.79 57.1813 95.108 56.21C94.4467 55.218 94.116 54.071 94.116 52.769V52.087C94.116 51.9837 94.147 51.901 94.209 51.839C94.2917 51.7563 94.3847 51.715 94.488 51.715H98.022C98.1253 51.715 98.208 51.7563 98.27 51.839C98.3527 51.901 98.394 51.9837 98.394 52.087V52.552C98.394 53.3787 98.7763 54.0813 99.541 54.66C100.306 55.218 101.339 55.497 102.641 55.497C103.736 55.497 104.553 55.2697 105.09 54.815C105.627 54.3397 105.896 53.761 105.896 53.079C105.896 52.583 105.731 52.1697 105.4 51.839C105.069 51.4877 104.615 51.188 104.036 50.94C103.478 50.6713 102.579 50.3097 101.339 49.855C99.9543 49.3797 98.7763 48.894 97.805 48.398C96.8543 47.902 96.0483 47.2303 95.387 46.383C94.7463 45.515 94.426 44.4507 94.426 43.19C94.426 41.95 94.7463 40.865 95.387 39.935C96.0277 39.005 96.9163 38.292 98.053 37.796C99.1897 37.3 100.502 37.052 101.99 37.052C103.561 37.052 104.956 37.331 106.175 37.889C107.415 38.447 108.376 39.2323 109.058 40.245C109.761 41.237 110.112 42.3943 110.112 43.717V44.182C110.112 44.2853 110.071 44.3783 109.988 44.461C109.926 44.523 109.843 44.554 109.74 44.554H106.175C106.072 44.554 105.979 44.523 105.896 44.461C105.834 44.3783 105.803 44.2853 105.803 44.182V43.934C105.803 43.066 105.441 42.3323 104.718 41.733C104.015 41.113 103.044 40.803 101.804 40.803C100.833 40.803 100.068 41.0097 99.51 41.423C98.9727 41.8363 98.704 42.4047 98.704 43.128C98.704 43.6447 98.859 44.0787 99.169 44.43C99.4997 44.7813 99.975 45.1017 100.595 45.391C101.236 45.6597 102.217 46.0317 103.54 46.507C105.007 47.0443 106.154 47.5197 106.981 47.933C107.828 48.3463 108.583 48.9663 109.244 49.793C109.926 50.599 110.267 51.653 110.267 52.955C110.267 54.8977 109.554 56.4373 108.128 57.574C106.702 58.69 104.77 59.248 102.331 59.248ZM127.123 59C126.916 59 126.782 58.8967 126.72 58.69L125.79 55.652C125.748 55.5693 125.697 55.528 125.635 55.528H118.009C117.947 55.528 117.895 55.5693 117.854 55.652L116.955 58.69C116.893 58.8967 116.758 59 116.552 59H112.615C112.491 59 112.398 58.969 112.336 58.907C112.274 58.8243 112.263 58.7107 112.305 58.566L119.001 37.61C119.063 37.4033 119.197 37.3 119.404 37.3H124.271C124.477 37.3 124.612 37.4033 124.674 37.61L131.37 58.566C131.39 58.6073 131.401 58.659 131.401 58.721C131.401 58.907 131.287 59 131.06 59H127.123ZM118.97 51.963C118.949 52.087 118.99 52.149 119.094 52.149H124.55C124.674 52.149 124.715 52.087 124.674 51.963L121.884 42.756C121.863 42.6733 121.832 42.6423 121.791 42.663C121.749 42.663 121.718 42.694 121.698 42.756L118.97 51.963ZM134.497 59C134.394 59 134.301 58.969 134.218 58.907C134.156 58.8243 134.125 58.7313 134.125 58.628V37.672C134.125 37.5687 134.156 37.486 134.218 37.424C134.301 37.3413 134.394 37.3 134.497 37.3H138.124C138.228 37.3 138.31 37.3413 138.372 37.424C138.455 37.486 138.496 37.5687 138.496 37.672V55.094C138.496 55.1973 138.548 55.249 138.651 55.249H148.788C148.892 55.249 148.974 55.2903 149.036 55.373C149.119 55.435 149.16 55.5177 149.16 55.621V58.628C149.16 58.7313 149.119 58.8243 149.036 58.907C148.974 58.969 148.892 59 148.788 59H134.497ZM152.238 59C152.134 59 152.041 58.969 151.959 58.907C151.897 58.8243 151.866 58.7313 151.866 58.628V37.672C151.866 37.5687 151.897 37.486 151.959 37.424C152.041 37.3413 152.134 37.3 152.238 37.3H155.865C155.968 37.3 156.051 37.3413 156.113 37.424C156.195 37.486 156.237 37.5687 156.237 37.672V55.094C156.237 55.1973 156.288 55.249 156.392 55.249H166.529C166.632 55.249 166.715 55.2903 166.777 55.373C166.859 55.435 166.901 55.5177 166.901 55.621V58.628C166.901 58.7313 166.859 58.8243 166.777 58.907C166.715 58.969 166.632 59 166.529 59H152.238ZM184.672 40.679C184.672 40.7823 184.631 40.8753 184.548 40.958C184.486 41.02 184.403 41.051 184.3 41.051H174.132C174.029 41.051 173.977 41.1027 173.977 41.206V46.011C173.977 46.1143 174.029 46.166 174.132 46.166H180.797C180.9 46.166 180.983 46.2073 181.045 46.29C181.128 46.352 181.169 46.4347 181.169 46.538V49.545C181.169 49.6483 181.128 49.7413 181.045 49.824C180.983 49.886 180.9 49.917 180.797 49.917H174.132C174.029 49.917 173.977 49.9687 173.977 50.072V55.094C173.977 55.1973 174.029 55.249 174.132 55.249H184.3C184.403 55.249 184.486 55.2903 184.548 55.373C184.631 55.435 184.672 55.5177 184.672 55.621V58.628C184.672 58.7313 184.631 58.8243 184.548 58.907C184.486 58.969 184.403 59 184.3 59H169.978C169.875 59 169.782 58.969 169.699 58.907C169.637 58.8243 169.606 58.7313 169.606 58.628V37.672C169.606 37.5687 169.637 37.486 169.699 37.424C169.782 37.3413 169.875 37.3 169.978 37.3H184.3C184.403 37.3 184.486 37.3413 184.548 37.424C184.631 37.486 184.672 37.5687 184.672 37.672V40.679Z" fill="white"/>
<path d="M95.263 96C95.1597 96 95.0667 95.969 94.984 95.907C94.922 95.8243 94.891 95.7313 94.891 95.628V74.672C94.891 74.5687 94.922 74.486 94.984 74.424C95.0667 74.3413 95.1597 74.3 95.263 74.3H103.013C104.563 74.3 105.917 74.579 107.074 75.137C108.252 75.6743 109.161 76.439 109.802 77.431C110.443 78.423 110.763 79.57 110.763 80.872V89.428C110.763 90.73 110.443 91.877 109.802 92.869C109.161 93.861 108.252 94.636 107.074 95.194C105.917 95.7313 104.563 96 103.013 96H95.263ZM99.262 92.094C99.262 92.1973 99.3137 92.249 99.417 92.249H103.168C104.119 92.249 104.883 91.9287 105.462 91.288C106.061 90.6473 106.371 89.7897 106.392 88.715V81.585C106.392 80.5103 106.092 79.6527 105.493 79.012C104.914 78.3713 104.129 78.051 103.137 78.051H99.417C99.3137 78.051 99.262 78.1027 99.262 78.206V92.094ZM129.12 77.679C129.12 77.7823 129.079 77.8753 128.996 77.958C128.934 78.02 128.851 78.051 128.748 78.051H118.58C118.477 78.051 118.425 78.1027 118.425 78.206V83.011C118.425 83.1143 118.477 83.166 118.58 83.166H125.245C125.348 83.166 125.431 83.2073 125.493 83.29C125.576 83.352 125.617 83.4347 125.617 83.538V86.545C125.617 86.6483 125.576 86.7413 125.493 86.824C125.431 86.886 125.348 86.917 125.245 86.917H118.58C118.477 86.917 118.425 86.9687 118.425 87.072V92.094C118.425 92.1973 118.477 92.249 118.58 92.249H128.748C128.851 92.249 128.934 92.2903 128.996 92.373C129.079 92.435 129.12 92.5177 129.12 92.621V95.628C129.12 95.7313 129.079 95.8243 128.996 95.907C128.934 95.969 128.851 96 128.748 96H114.426C114.323 96 114.23 95.969 114.147 95.907C114.085 95.8243 114.054 95.7313 114.054 95.628V74.672C114.054 74.5687 114.085 74.486 114.147 74.424C114.23 74.3413 114.323 74.3 114.426 74.3H128.748C128.851 74.3 128.934 74.3413 128.996 74.424C129.079 74.486 129.12 74.5687 129.12 74.672V77.679ZM145.99 96.248C144.378 96.248 142.962 95.938 141.743 95.318C140.523 94.6773 139.583 93.7887 138.922 92.652C138.26 91.5153 137.93 90.203 137.93 88.715V81.554C137.93 80.066 138.26 78.7537 138.922 77.617C139.583 76.4803 140.523 75.602 141.743 74.982C142.962 74.362 144.378 74.052 145.99 74.052C147.581 74.052 148.976 74.3517 150.175 74.951C151.394 75.5297 152.334 76.3667 152.996 77.462C153.678 78.5367 154.019 79.787 154.019 81.213C154.019 81.399 153.895 81.5127 153.647 81.554L150.02 81.771H149.958C149.751 81.771 149.648 81.6573 149.648 81.43C149.648 80.3347 149.307 79.4563 148.625 78.795C147.963 78.1337 147.085 77.803 145.99 77.803C144.874 77.803 143.975 78.1337 143.293 78.795C142.631 79.4563 142.301 80.3347 142.301 81.43V88.901C142.301 89.9757 142.631 90.8437 143.293 91.505C143.975 92.1663 144.874 92.497 145.99 92.497C147.085 92.497 147.963 92.1663 148.625 91.505C149.307 90.8437 149.648 89.9757 149.648 88.901C149.648 88.6737 149.772 88.56 150.02 88.56L153.647 88.715C153.75 88.715 153.833 88.746 153.895 88.808C153.977 88.87 154.019 88.9423 154.019 89.025C154.019 90.451 153.678 91.7117 152.996 92.807C152.334 93.9023 151.394 94.7497 150.175 95.349C148.976 95.9483 147.581 96.248 145.99 96.248ZM164.943 96.341C163.331 96.341 161.905 96.0103 160.665 95.349C159.446 94.6877 158.495 93.768 157.813 92.59C157.131 91.3913 156.79 90.017 156.79 88.467V81.833C156.79 80.3037 157.131 78.95 157.813 77.772C158.495 76.594 159.446 75.6847 160.665 75.044C161.905 74.3827 163.331 74.052 164.943 74.052C166.576 74.052 168.002 74.3827 169.221 75.044C170.461 75.6847 171.422 76.594 172.104 77.772C172.786 78.95 173.127 80.3037 173.127 81.833V88.467C173.127 90.017 172.786 91.3913 172.104 92.59C171.422 93.7887 170.461 94.7187 169.221 95.38C168.002 96.0207 166.576 96.341 164.943 96.341ZM164.943 92.59C166.08 92.59 166.999 92.2283 167.702 91.505C168.405 90.7817 168.756 89.8207 168.756 88.622V81.802C168.756 80.6033 168.405 79.6423 167.702 78.919C167.02 78.175 166.1 77.803 164.943 77.803C163.806 77.803 162.887 78.175 162.184 78.919C161.502 79.6423 161.161 80.6033 161.161 81.802V88.622C161.161 89.8207 161.502 90.7817 162.184 91.505C162.887 92.2283 163.806 92.59 164.943 92.59ZM184.352 96.248C182.761 96.248 181.355 95.938 180.136 95.318C178.937 94.698 177.997 93.83 177.315 92.714C176.654 91.5773 176.323 90.2753 176.323 88.808V74.672C176.323 74.5687 176.354 74.486 176.416 74.424C176.499 74.3413 176.592 74.3 176.695 74.3H180.322C180.425 74.3 180.508 74.3413 180.57 74.424C180.653 74.486 180.694 74.5687 180.694 74.672V88.839C180.694 89.9343 181.025 90.823 181.686 91.505C182.368 92.1663 183.257 92.497 184.352 92.497C185.447 92.497 186.326 92.1663 186.987 91.505C187.669 90.823 188.01 89.9343 188.01 88.839V74.672C188.01 74.5687 188.041 74.486 188.103 74.424C188.186 74.3413 188.279 74.3 188.382 74.3H192.009C192.112 74.3 192.195 74.3413 192.257 74.424C192.34 74.486 192.381 74.5687 192.381 74.672V88.808C192.381 90.2753 192.04 91.5773 191.358 92.714C190.697 93.83 189.756 94.698 188.537 95.318C187.338 95.938 185.943 96.248 184.352 96.248ZM207.878 96C207.671 96 207.527 95.907 207.444 95.721L203.569 87.134C203.528 87.0513 203.466 87.01 203.383 87.01H200.5C200.397 87.01 200.345 87.0617 200.345 87.165V95.628C200.345 95.7313 200.304 95.8243 200.221 95.907C200.159 95.969 200.076 96 199.973 96H196.346C196.243 96 196.15 95.969 196.067 95.907C196.005 95.8243 195.974 95.7313 195.974 95.628V74.672C195.974 74.5687 196.005 74.486 196.067 74.424C196.15 74.3413 196.243 74.3 196.346 74.3H205.212C206.535 74.3 207.692 74.5687 208.684 75.106C209.697 75.6433 210.472 76.408 211.009 77.4C211.567 78.392 211.846 79.539 211.846 80.841C211.846 82.2463 211.495 83.4553 210.792 84.468C210.089 85.46 209.108 86.1627 207.847 86.576C207.744 86.6173 207.713 86.6897 207.754 86.793L211.97 95.566C212.011 95.6487 212.032 95.7107 212.032 95.752C212.032 95.9173 211.918 96 211.691 96H207.878ZM200.5 78.051C200.397 78.051 200.345 78.1027 200.345 78.206V83.507C200.345 83.6103 200.397 83.662 200.5 83.662H204.561C205.429 83.662 206.132 83.4037 206.669 82.887C207.227 82.3703 207.506 81.6987 207.506 80.872C207.506 80.0453 207.227 79.3737 206.669 78.857C206.132 78.3197 205.429 78.051 204.561 78.051H200.5ZM222.456 96.248C220.803 96.248 219.356 95.9897 218.116 95.473C216.876 94.9357 215.915 94.1813 215.233 93.21C214.572 92.218 214.241 91.071 214.241 89.769V89.087C214.241 88.9837 214.272 88.901 214.334 88.839C214.417 88.7563 214.51 88.715 214.613 88.715H218.147C218.25 88.715 218.333 88.7563 218.395 88.839C218.478 88.901 218.519 88.9837 218.519 89.087V89.552C218.519 90.3787 218.901 91.0813 219.666 91.66C220.431 92.218 221.464 92.497 222.766 92.497C223.861 92.497 224.678 92.2697 225.215 91.815C225.752 91.3397 226.021 90.761 226.021 90.079C226.021 89.583 225.856 89.1697 225.525 88.839C225.194 88.4877 224.74 88.188 224.161 87.94C223.603 87.6713 222.704 87.3097 221.464 86.855C220.079 86.3797 218.901 85.894 217.93 85.398C216.979 84.902 216.173 84.2303 215.512 83.383C214.871 82.515 214.551 81.4507 214.551 80.19C214.551 78.95 214.871 77.865 215.512 76.935C216.153 76.005 217.041 75.292 218.178 74.796C219.315 74.3 220.627 74.052 222.115 74.052C223.686 74.052 225.081 74.331 226.3 74.889C227.54 75.447 228.501 76.2323 229.183 77.245C229.886 78.237 230.237 79.3943 230.237 80.717V81.182C230.237 81.2853 230.196 81.3783 230.113 81.461C230.051 81.523 229.968 81.554 229.865 81.554H226.3C226.197 81.554 226.104 81.523 226.021 81.461C225.959 81.3783 225.928 81.2853 225.928 81.182V80.934C225.928 80.066 225.566 79.3323 224.843 78.733C224.14 78.113 223.169 77.803 221.929 77.803C220.958 77.803 220.193 78.0097 219.635 78.423C219.098 78.8363 218.829 79.4047 218.829 80.128C218.829 80.6447 218.984 81.0787 219.294 81.43C219.625 81.7813 220.1 82.1017 220.72 82.391C221.361 82.6597 222.342 83.0317 223.665 83.507C225.132 84.0443 226.279 84.5197 227.106 84.933C227.953 85.3463 228.708 85.9663 229.369 86.793C230.051 87.599 230.392 88.653 230.392 89.955C230.392 91.8977 229.679 93.4373 228.253 94.574C226.827 95.69 224.895 96.248 222.456 96.248Z" fill="#F5A37B"/>
<path d="M106.795 176C106.588 176 106.444 175.907 106.361 175.721L102.486 167.134C102.445 167.051 102.383 167.01 102.3 167.01H99.417C99.3137 167.01 99.262 167.062 99.262 167.165V175.628C99.262 175.731 99.2207 175.824 99.138 175.907C99.076 175.969 98.9933 176 98.89 176H95.263C95.1597 176 95.0667 175.969 94.984 175.907C94.922 175.824 94.891 175.731 94.891 175.628V154.672C94.891 154.569 94.922 154.486 94.984 154.424C95.0667 154.341 95.1597 154.3 95.263 154.3H104.129C105.452 154.3 106.609 154.569 107.601 155.106C108.614 155.643 109.389 156.408 109.926 157.4C110.484 158.392 110.763 159.539 110.763 160.841C110.763 162.246 110.412 163.455 109.709 164.468C109.006 165.46 108.025 166.163 106.764 166.576C106.661 166.617 106.63 166.69 106.671 166.793L110.887 175.566C110.928 175.649 110.949 175.711 110.949 175.752C110.949 175.917 110.835 176 110.608 176H106.795ZM99.417 158.051C99.3137 158.051 99.262 158.103 99.262 158.206V163.507C99.262 163.61 99.3137 163.662 99.417 163.662H103.478C104.346 163.662 105.049 163.404 105.586 162.887C106.144 162.37 106.423 161.699 106.423 160.872C106.423 160.045 106.144 159.374 105.586 158.857C105.049 158.32 104.346 158.051 103.478 158.051H99.417ZM128.999 157.679C128.999 157.782 128.958 157.875 128.875 157.958C128.813 158.02 128.73 158.051 128.627 158.051H118.459C118.356 158.051 118.304 158.103 118.304 158.206V163.011C118.304 163.114 118.356 163.166 118.459 163.166H125.124C125.227 163.166 125.31 163.207 125.372 163.29C125.455 163.352 125.496 163.435 125.496 163.538V166.545C125.496 166.648 125.455 166.741 125.372 166.824C125.31 166.886 125.227 166.917 125.124 166.917H118.459C118.356 166.917 118.304 166.969 118.304 167.072V172.094C118.304 172.197 118.356 172.249 118.459 172.249H128.627C128.73 172.249 128.813 172.29 128.875 172.373C128.958 172.435 128.999 172.518 128.999 172.621V175.628C128.999 175.731 128.958 175.824 128.875 175.907C128.813 175.969 128.73 176 128.627 176H114.305C114.202 176 114.109 175.969 114.026 175.907C113.964 175.824 113.933 175.731 113.933 175.628V154.672C113.933 154.569 113.964 154.486 114.026 154.424C114.109 154.341 114.202 154.3 114.305 154.3H128.627C128.73 154.3 128.813 154.341 128.875 154.424C128.958 154.486 128.999 154.569 128.999 154.672V157.679ZM119.668 152.378C119.523 152.378 119.43 152.337 119.389 152.254C119.348 152.171 119.358 152.068 119.42 151.944L121.063 148.813C121.146 148.627 121.301 148.534 121.528 148.534H124.659C124.804 148.534 124.897 148.586 124.938 148.689C125 148.772 124.99 148.875 124.907 148.999L122.706 152.13C122.603 152.295 122.458 152.378 122.272 152.378H119.668ZM147.01 154.3C147.113 154.3 147.196 154.341 147.258 154.424C147.34 154.486 147.382 154.569 147.382 154.672V157.71C147.382 157.813 147.34 157.906 147.258 157.989C147.196 158.051 147.113 158.082 147.01 158.082H141.461C141.357 158.082 141.306 158.134 141.306 158.237V175.628C141.306 175.731 141.264 175.824 141.182 175.907C141.12 175.969 141.037 176 140.934 176H137.307C137.203 176 137.11 175.969 137.028 175.907C136.966 175.824 136.935 175.731 136.935 175.628V158.237C136.935 158.134 136.883 158.082 136.78 158.082H131.386C131.282 158.082 131.189 158.051 131.107 157.989C131.045 157.906 131.014 157.813 131.014 157.71V154.672C131.014 154.569 131.045 154.486 131.107 154.424C131.189 154.341 131.282 154.3 131.386 154.3H147.01ZM162.074 176C161.868 176 161.723 175.907 161.64 175.721L157.765 167.134C157.724 167.051 157.662 167.01 157.579 167.01H154.696C154.593 167.01 154.541 167.062 154.541 167.165V175.628C154.541 175.731 154.5 175.824 154.417 175.907C154.355 175.969 154.273 176 154.169 176H150.542C150.439 176 150.346 175.969 150.263 175.907C150.201 175.824 150.17 175.731 150.17 175.628V154.672C150.17 154.569 150.201 154.486 150.263 154.424C150.346 154.341 150.439 154.3 150.542 154.3H159.408C160.731 154.3 161.888 154.569 162.88 155.106C163.893 155.643 164.668 156.408 165.205 157.4C165.763 158.392 166.042 159.539 166.042 160.841C166.042 162.246 165.691 163.455 164.988 164.468C164.286 165.46 163.304 166.163 162.043 166.576C161.94 166.617 161.909 166.69 161.95 166.793L166.166 175.566C166.208 175.649 166.228 175.711 166.228 175.752C166.228 175.917 166.115 176 165.887 176H162.074ZM154.696 158.051C154.593 158.051 154.541 158.103 154.541 158.206V163.507C154.541 163.61 154.593 163.662 154.696 163.662H158.757C159.625 163.662 160.328 163.404 160.865 162.887C161.423 162.37 161.702 161.699 161.702 160.872C161.702 160.045 161.423 159.374 160.865 158.857C160.328 158.32 159.625 158.051 158.757 158.051H154.696ZM176.931 176.341C175.319 176.341 173.893 176.01 172.653 175.349C171.434 174.688 170.483 173.768 169.801 172.59C169.119 171.391 168.778 170.017 168.778 168.467V161.833C168.778 160.304 169.119 158.95 169.801 157.772C170.483 156.594 171.434 155.685 172.653 155.044C173.893 154.383 175.319 154.052 176.931 154.052C178.564 154.052 179.99 154.383 181.209 155.044C182.449 155.685 183.41 156.594 184.092 157.772C184.774 158.95 185.115 160.304 185.115 161.833V168.467C185.115 170.017 184.774 171.391 184.092 172.59C183.41 173.789 182.449 174.719 181.209 175.38C179.99 176.021 178.564 176.341 176.931 176.341ZM176.931 172.59C178.068 172.59 178.988 172.228 179.69 171.505C180.393 170.782 180.744 169.821 180.744 168.622V161.802C180.744 160.603 180.393 159.642 179.69 158.919C179.008 158.175 178.089 157.803 176.931 157.803C175.795 157.803 174.875 158.175 174.172 158.919C173.49 159.642 173.149 160.603 173.149 161.802V168.622C173.149 169.821 173.49 170.782 174.172 171.505C174.875 172.228 175.795 172.59 176.931 172.59ZM195.906 176.248C194.253 176.248 192.806 175.99 191.566 175.473C190.326 174.936 189.365 174.181 188.683 173.21C188.022 172.218 187.691 171.071 187.691 169.769V169.087C187.691 168.984 187.722 168.901 187.784 168.839C187.867 168.756 187.96 168.715 188.063 168.715H191.597C191.701 168.715 191.783 168.756 191.845 168.839C191.928 168.901 191.969 168.984 191.969 169.087V169.552C191.969 170.379 192.352 171.081 193.116 171.66C193.881 172.218 194.914 172.497 196.216 172.497C197.312 172.497 198.128 172.27 198.665 171.815C199.203 171.34 199.471 170.761 199.471 170.079C199.471 169.583 199.306 169.17 198.975 168.839C198.645 168.488 198.19 168.188 197.611 167.94C197.053 167.671 196.154 167.31 194.914 166.855C193.53 166.38 192.352 165.894 191.38 165.398C190.43 164.902 189.624 164.23 188.962 163.383C188.322 162.515 188.001 161.451 188.001 160.19C188.001 158.95 188.322 157.865 188.962 156.935C189.603 156.005 190.492 155.292 191.628 154.796C192.765 154.3 194.077 154.052 195.565 154.052C197.136 154.052 198.531 154.331 199.75 154.889C200.99 155.447 201.951 156.232 202.633 157.245C203.336 158.237 203.687 159.394 203.687 160.717V161.182C203.687 161.285 203.646 161.378 203.563 161.461C203.501 161.523 203.419 161.554 203.315 161.554H199.75C199.647 161.554 199.554 161.523 199.471 161.461C199.409 161.378 199.378 161.285 199.378 161.182V160.934C199.378 160.066 199.017 159.332 198.293 158.733C197.591 158.113 196.619 157.803 195.379 157.803C194.408 157.803 193.643 158.01 193.085 158.423C192.548 158.836 192.279 159.405 192.279 160.128C192.279 160.645 192.434 161.079 192.744 161.43C193.075 161.781 193.55 162.102 194.17 162.391C194.811 162.66 195.793 163.032 197.115 163.507C198.583 164.044 199.73 164.52 200.556 164.933C201.404 165.346 202.158 165.966 202.819 166.793C203.501 167.599 203.842 168.653 203.842 169.955C203.842 171.898 203.129 173.437 201.703 174.574C200.277 175.69 198.345 176.248 195.906 176.248Z" fill="white"/>
<path d="M103.85 191.269C105.214 191.269 106.413 191.548 107.446 192.106C108.479 192.664 109.275 193.46 109.833 194.493C110.412 195.506 110.701 196.673 110.701 197.996C110.701 199.298 110.401 200.445 109.802 201.437C109.223 202.429 108.397 203.204 107.322 203.762C106.268 204.299 105.049 204.568 103.664 204.568H99.262C99.1587 204.568 99.107 204.62 99.107 204.723V212.628C99.107 212.731 99.0657 212.824 98.983 212.907C98.921 212.969 98.8383 213 98.735 213H95.108C95.0047 213 94.9117 212.969 94.829 212.907C94.767 212.824 94.736 212.731 94.736 212.628V191.641C94.736 191.538 94.767 191.455 94.829 191.393C94.9117 191.31 95.0047 191.269 95.108 191.269H103.85ZM103.199 201.065C104.15 201.065 104.914 200.796 105.493 200.259C106.072 199.701 106.361 198.978 106.361 198.089C106.361 197.18 106.072 196.446 105.493 195.888C104.914 195.33 104.15 195.051 103.199 195.051H99.262C99.1587 195.051 99.107 195.103 99.107 195.206V200.91C99.107 201.013 99.1587 201.065 99.262 201.065H103.199ZM125.292 213C125.085 213 124.941 212.907 124.858 212.721L120.983 204.134C120.942 204.051 120.88 204.01 120.797 204.01H117.914C117.811 204.01 117.759 204.062 117.759 204.165V212.628C117.759 212.731 117.718 212.824 117.635 212.907C117.573 212.969 117.49 213 117.387 213H113.76C113.657 213 113.564 212.969 113.481 212.907C113.419 212.824 113.388 212.731 113.388 212.628V191.672C113.388 191.569 113.419 191.486 113.481 191.424C113.564 191.341 113.657 191.3 113.76 191.3H122.626C123.949 191.3 125.106 191.569 126.098 192.106C127.111 192.643 127.886 193.408 128.423 194.4C128.981 195.392 129.26 196.539 129.26 197.841C129.26 199.246 128.909 200.455 128.206 201.468C127.503 202.46 126.522 203.163 125.261 203.576C125.158 203.617 125.127 203.69 125.168 203.793L129.384 212.566C129.425 212.649 129.446 212.711 129.446 212.752C129.446 212.917 129.332 213 129.105 213H125.292ZM117.914 195.051C117.811 195.051 117.759 195.103 117.759 195.206V200.507C117.759 200.61 117.811 200.662 117.914 200.662H121.975C122.843 200.662 123.546 200.404 124.083 199.887C124.641 199.37 124.92 198.699 124.92 197.872C124.92 197.045 124.641 196.374 124.083 195.857C123.546 195.32 122.843 195.051 121.975 195.051H117.914ZM140.149 213.341C138.537 213.341 137.111 213.01 135.871 212.349C134.652 211.688 133.701 210.768 133.019 209.59C132.337 208.391 131.996 207.017 131.996 205.467V198.833C131.996 197.304 132.337 195.95 133.019 194.772C133.701 193.594 134.652 192.685 135.871 192.044C137.111 191.383 138.537 191.052 140.149 191.052C141.782 191.052 143.208 191.383 144.427 192.044C145.667 192.685 146.628 193.594 147.31 194.772C147.992 195.95 148.333 197.304 148.333 198.833V205.467C148.333 207.017 147.992 208.391 147.31 209.59C146.628 210.789 145.667 211.719 144.427 212.38C143.208 213.021 141.782 213.341 140.149 213.341ZM140.149 209.59C141.286 209.59 142.205 209.228 142.908 208.505C143.611 207.782 143.962 206.821 143.962 205.622V198.802C143.962 197.603 143.611 196.642 142.908 195.919C142.226 195.175 141.306 194.803 140.149 194.803C139.012 194.803 138.093 195.175 137.39 195.919C136.708 196.642 136.367 197.603 136.367 198.802V205.622C136.367 206.821 136.708 207.782 137.39 208.505C138.093 209.228 139.012 209.59 140.149 209.59ZM158.405 213.248C156.834 213.248 155.46 212.959 154.282 212.38C153.125 211.781 152.226 210.954 151.585 209.9C150.944 208.825 150.624 207.585 150.624 206.18V204.227C150.624 204.124 150.655 204.041 150.717 203.979C150.8 203.896 150.893 203.855 150.996 203.855H154.623C154.726 203.855 154.809 203.896 154.871 203.979C154.954 204.041 154.995 204.124 154.995 204.227V206.18C154.995 207.172 155.295 207.978 155.894 208.598C156.514 209.197 157.351 209.497 158.405 209.497C159.418 209.497 160.244 209.197 160.885 208.598C161.546 207.978 161.877 207.172 161.877 206.18V191.672C161.877 191.569 161.908 191.486 161.97 191.424C162.053 191.341 162.146 191.3 162.249 191.3H165.845C165.948 191.3 166.031 191.341 166.093 191.424C166.176 191.486 166.217 191.569 166.217 191.672V206.18C166.217 207.585 165.886 208.825 165.225 209.9C164.564 210.954 163.644 211.781 162.466 212.38C161.288 212.959 159.934 213.248 158.405 213.248ZM185.065 194.679C185.065 194.782 185.024 194.875 184.941 194.958C184.879 195.02 184.797 195.051 184.693 195.051H174.525C174.422 195.051 174.37 195.103 174.37 195.206V200.011C174.37 200.114 174.422 200.166 174.525 200.166H181.19C181.294 200.166 181.376 200.207 181.438 200.29C181.521 200.352 181.562 200.435 181.562 200.538V203.545C181.562 203.648 181.521 203.741 181.438 203.824C181.376 203.886 181.294 203.917 181.19 203.917H174.525C174.422 203.917 174.37 203.969 174.37 204.072V209.094C174.37 209.197 174.422 209.249 174.525 209.249H184.693C184.797 209.249 184.879 209.29 184.941 209.373C185.024 209.435 185.065 209.518 185.065 209.621V212.628C185.065 212.731 185.024 212.824 184.941 212.907C184.879 212.969 184.797 213 184.693 213H170.371C170.268 213 170.175 212.969 170.092 212.907C170.03 212.824 169.999 212.731 169.999 212.628V191.672C169.999 191.569 170.03 191.486 170.092 191.424C170.175 191.341 170.268 191.3 170.371 191.3H184.693C184.797 191.3 184.879 191.341 184.941 191.424C185.024 191.486 185.065 191.569 185.065 191.672V194.679ZM195.729 213.248C194.117 213.248 192.701 212.938 191.482 212.318C190.263 211.677 189.322 210.789 188.661 209.652C188 208.515 187.669 207.203 187.669 205.715V198.554C187.669 197.066 188 195.754 188.661 194.617C189.322 193.48 190.263 192.602 191.482 191.982C192.701 191.362 194.117 191.052 195.729 191.052C197.32 191.052 198.715 191.352 199.914 191.951C201.133 192.53 202.074 193.367 202.735 194.462C203.417 195.537 203.758 196.787 203.758 198.213C203.758 198.399 203.634 198.513 203.386 198.554L199.759 198.771H199.697C199.49 198.771 199.387 198.657 199.387 198.43C199.387 197.335 199.046 196.456 198.364 195.795C197.703 195.134 196.824 194.803 195.729 194.803C194.613 194.803 193.714 195.134 193.032 195.795C192.371 196.456 192.04 197.335 192.04 198.43V205.901C192.04 206.976 192.371 207.844 193.032 208.505C193.714 209.166 194.613 209.497 195.729 209.497C196.824 209.497 197.703 209.166 198.364 208.505C199.046 207.844 199.387 206.976 199.387 205.901C199.387 205.674 199.511 205.56 199.759 205.56L203.386 205.715C203.489 205.715 203.572 205.746 203.634 205.808C203.717 205.87 203.758 205.942 203.758 206.025C203.758 207.451 203.417 208.712 202.735 209.807C202.074 210.902 201.133 211.75 199.914 212.349C198.715 212.948 197.32 213.248 195.729 213.248ZM221.694 191.3C221.797 191.3 221.88 191.341 221.942 191.424C222.025 191.486 222.066 191.569 222.066 191.672V194.71C222.066 194.813 222.025 194.906 221.942 194.989C221.88 195.051 221.797 195.082 221.694 195.082H216.145C216.042 195.082 215.99 195.134 215.99 195.237V212.628C215.99 212.731 215.949 212.824 215.866 212.907C215.804 212.969 215.721 213 215.618 213H211.991C211.888 213 211.795 212.969 211.712 212.907C211.65 212.824 211.619 212.731 211.619 212.628V195.237C211.619 195.134 211.567 195.082 211.464 195.082H206.07C205.967 195.082 205.874 195.051 205.791 194.989C205.729 194.906 205.698 194.813 205.698 194.71V191.672C205.698 191.569 205.729 191.486 205.791 191.424C205.874 191.341 205.967 191.3 206.07 191.3H221.694ZM239.921 194.679C239.921 194.782 239.88 194.875 239.797 194.958C239.735 195.02 239.652 195.051 239.549 195.051H229.381C229.278 195.051 229.226 195.103 229.226 195.206V200.011C229.226 200.114 229.278 200.166 229.381 200.166H236.046C236.149 200.166 236.232 200.207 236.294 200.29C236.377 200.352 236.418 200.435 236.418 200.538V203.545C236.418 203.648 236.377 203.741 236.294 203.824C236.232 203.886 236.149 203.917 236.046 203.917H229.381C229.278 203.917 229.226 203.969 229.226 204.072V209.094C229.226 209.197 229.278 209.249 229.381 209.249H239.549C239.652 209.249 239.735 209.29 239.797 209.373C239.88 209.435 239.921 209.518 239.921 209.621V212.628C239.921 212.731 239.88 212.824 239.797 212.907C239.735 212.969 239.652 213 239.549 213H225.227C225.124 213 225.031 212.969 224.948 212.907C224.886 212.824 224.855 212.731 224.855 212.628V191.672C224.855 191.569 224.886 191.486 224.948 191.424C225.031 191.341 225.124 191.3 225.227 191.3H239.549C239.652 191.3 239.735 191.341 239.797 191.424C239.88 191.486 239.921 191.569 239.921 191.672V194.679ZM250.832 213.248C249.241 213.248 247.836 212.938 246.616 212.318C245.418 211.698 244.477 210.83 243.795 209.714C243.134 208.577 242.803 207.275 242.803 205.808V191.672C242.803 191.569 242.834 191.486 242.896 191.424C242.979 191.341 243.072 191.3 243.175 191.3H246.802C246.906 191.3 246.988 191.341 247.05 191.424C247.133 191.486 247.174 191.569 247.174 191.672V205.839C247.174 206.934 247.505 207.823 248.166 208.505C248.848 209.166 249.737 209.497 250.832 209.497C251.928 209.497 252.806 209.166 253.467 208.505C254.149 207.823 254.49 206.934 254.49 205.839V191.672C254.49 191.569 254.521 191.486 254.583 191.424C254.666 191.341 254.759 191.3 254.862 191.3H258.489C258.593 191.3 258.675 191.341 258.737 191.424C258.82 191.486 258.861 191.569 258.861 191.672V205.808C258.861 207.275 258.52 208.577 257.838 209.714C257.177 210.83 256.237 211.698 255.017 212.318C253.819 212.938 252.424 213.248 250.832 213.248ZM274.358 213C274.152 213 274.007 212.907 273.924 212.721L270.049 204.134C270.008 204.051 269.946 204.01 269.863 204.01H266.98C266.877 204.01 266.825 204.062 266.825 204.165V212.628C266.825 212.731 266.784 212.824 266.701 212.907C266.639 212.969 266.557 213 266.453 213H262.826C262.723 213 262.63 212.969 262.547 212.907C262.485 212.824 262.454 212.731 262.454 212.628V191.672C262.454 191.569 262.485 191.486 262.547 191.424C262.63 191.341 262.723 191.3 262.826 191.3H271.692C273.015 191.3 274.172 191.569 275.164 192.106C276.177 192.643 276.952 193.408 277.489 194.4C278.047 195.392 278.326 196.539 278.326 197.841C278.326 199.246 277.975 200.455 277.272 201.468C276.57 202.46 275.588 203.163 274.327 203.576C274.224 203.617 274.193 203.69 274.234 203.793L278.45 212.566C278.492 212.649 278.512 212.711 278.512 212.752C278.512 212.917 278.399 213 278.171 213H274.358ZM266.98 195.051C266.877 195.051 266.825 195.103 266.825 195.206V200.507C266.825 200.61 266.877 200.662 266.98 200.662H271.041C271.909 200.662 272.612 200.404 273.149 199.887C273.707 199.37 273.986 198.699 273.986 197.872C273.986 197.045 273.707 196.374 273.149 195.857C272.612 195.32 271.909 195.051 271.041 195.051H266.98ZM288.936 213.248C287.283 213.248 285.836 212.99 284.596 212.473C283.356 211.936 282.395 211.181 281.713 210.21C281.052 209.218 280.721 208.071 280.721 206.769V206.087C280.721 205.984 280.752 205.901 280.814 205.839C280.897 205.756 280.99 205.715 281.093 205.715H284.627C284.731 205.715 284.813 205.756 284.875 205.839C284.958 205.901 284.999 205.984 284.999 206.087V206.552C284.999 207.379 285.382 208.081 286.146 208.66C286.911 209.218 287.944 209.497 289.246 209.497C290.342 209.497 291.158 209.27 291.695 208.815C292.233 208.34 292.501 207.761 292.501 207.079C292.501 206.583 292.336 206.17 292.005 205.839C291.675 205.488 291.22 205.188 290.641 204.94C290.083 204.671 289.184 204.31 287.944 203.855C286.56 203.38 285.382 202.894 284.41 202.398C283.46 201.902 282.654 201.23 281.992 200.383C281.352 199.515 281.031 198.451 281.031 197.19C281.031 195.95 281.352 194.865 281.992 193.935C282.633 193.005 283.522 192.292 284.658 191.796C285.795 191.3 287.107 191.052 288.595 191.052C290.166 191.052 291.561 191.331 292.78 191.889C294.02 192.447 294.981 193.232 295.663 194.245C296.366 195.237 296.717 196.394 296.717 197.717V198.182C296.717 198.285 296.676 198.378 296.593 198.461C296.531 198.523 296.449 198.554 296.345 198.554H292.78C292.677 198.554 292.584 198.523 292.501 198.461C292.439 198.378 292.408 198.285 292.408 198.182V197.934C292.408 197.066 292.047 196.332 291.323 195.733C290.621 195.113 289.649 194.803 288.409 194.803C287.438 194.803 286.673 195.01 286.115 195.423C285.578 195.836 285.309 196.405 285.309 197.128C285.309 197.645 285.464 198.079 285.774 198.43C286.105 198.781 286.58 199.102 287.2 199.391C287.841 199.66 288.823 200.032 290.145 200.507C291.613 201.044 292.76 201.52 293.586 201.933C294.434 202.346 295.188 202.966 295.849 203.793C296.531 204.599 296.872 205.653 296.872 206.955C296.872 208.898 296.159 210.437 294.733 211.574C293.307 212.69 291.375 213.248 288.936 213.248Z" fill="#F5A37B"/>
<path d="M524.841 37.548C524.944 37.3827 525.089 37.3 525.275 37.3H528.902C529.005 37.3 529.088 37.3413 529.15 37.424C529.233 37.486 529.274 37.5687 529.274 37.672V58.628C529.274 58.7313 529.233 58.8243 529.15 58.907C529.088 58.969 529.005 59 528.902 59H525.275C525.172 59 525.079 58.969 524.996 58.907C524.934 58.8243 524.903 58.7313 524.903 58.628V44.957C524.903 44.8743 524.882 44.833 524.841 44.833C524.8 44.833 524.758 44.864 524.717 44.926L521.431 50.072C521.328 50.2373 521.183 50.32 520.997 50.32H519.168C518.982 50.32 518.837 50.2373 518.734 50.072L515.448 44.926C515.407 44.864 515.365 44.8433 515.324 44.864C515.283 44.864 515.262 44.9053 515.262 44.988V58.628C515.262 58.7313 515.221 58.8243 515.138 58.907C515.076 58.969 514.993 59 514.89 59H511.263C511.16 59 511.067 58.969 510.984 58.907C510.922 58.8243 510.891 58.7313 510.891 58.628V37.672C510.891 37.5687 510.922 37.486 510.984 37.424C511.067 37.3413 511.16 37.3 511.263 37.3H514.89C515.076 37.3 515.221 37.3827 515.324 37.548L519.974 44.771C520.036 44.895 520.098 44.895 520.16 44.771L524.841 37.548ZM546.846 59C546.639 59 546.505 58.8967 546.443 58.69L545.513 55.652C545.472 55.5693 545.42 55.528 545.358 55.528H537.732C537.67 55.528 537.618 55.5693 537.577 55.652L536.678 58.69C536.616 58.8967 536.482 59 536.275 59H532.338C532.214 59 532.121 58.969 532.059 58.907C531.997 58.8243 531.987 58.7107 532.028 58.566L538.724 37.61C538.786 37.4033 538.92 37.3 539.127 37.3H543.994C544.201 37.3 544.335 37.4033 544.397 37.61L551.093 58.566C551.114 58.6073 551.124 58.659 551.124 58.721C551.124 58.907 551.01 59 550.783 59H546.846ZM538.693 51.963C538.672 52.087 538.714 52.149 538.817 52.149H544.273C544.397 52.149 544.438 52.087 544.397 51.963L541.607 42.756C541.586 42.6733 541.555 42.6423 541.514 42.663C541.473 42.663 541.442 42.694 541.421 42.756L538.693 51.963ZM566.158 37.3C566.261 37.3 566.344 37.3413 566.406 37.424C566.489 37.486 566.53 37.5687 566.53 37.672V40.71C566.53 40.8133 566.489 40.9063 566.406 40.989C566.344 41.051 566.261 41.082 566.158 41.082H560.609C560.506 41.082 560.454 41.1337 560.454 41.237V58.628C560.454 58.7313 560.413 58.8243 560.33 58.907C560.268 58.969 560.185 59 560.082 59H556.455C556.352 59 556.259 58.969 556.176 58.907C556.114 58.8243 556.083 58.7313 556.083 58.628V41.237C556.083 41.1337 556.031 41.082 555.928 41.082H550.534C550.431 41.082 550.338 41.051 550.255 40.989C550.193 40.9063 550.162 40.8133 550.162 40.71V37.672C550.162 37.5687 550.193 37.486 550.255 37.424C550.338 37.3413 550.431 37.3 550.534 37.3H566.158ZM584.385 40.679C584.385 40.7823 584.343 40.8753 584.261 40.958C584.199 41.02 584.116 41.051 584.013 41.051H573.845C573.741 41.051 573.69 41.1027 573.69 41.206V46.011C573.69 46.1143 573.741 46.166 573.845 46.166H580.51C580.613 46.166 580.696 46.2073 580.758 46.29C580.84 46.352 580.882 46.4347 580.882 46.538V49.545C580.882 49.6483 580.84 49.7413 580.758 49.824C580.696 49.886 580.613 49.917 580.51 49.917H573.845C573.741 49.917 573.69 49.9687 573.69 50.072V55.094C573.69 55.1973 573.741 55.249 573.845 55.249H584.013C584.116 55.249 584.199 55.2903 584.261 55.373C584.343 55.435 584.385 55.5177 584.385 55.621V58.628C584.385 58.7313 584.343 58.8243 584.261 58.907C584.199 58.969 584.116 59 584.013 59H569.691C569.587 59 569.494 58.969 569.412 58.907C569.35 58.8243 569.319 58.7313 569.319 58.628V37.672C569.319 37.5687 569.35 37.486 569.412 37.424C569.494 37.3413 569.587 37.3 569.691 37.3H584.013C584.116 37.3 584.199 37.3413 584.261 37.424C584.343 37.486 584.385 37.5687 584.385 37.672V40.679ZM575.054 35.378C574.909 35.378 574.816 35.3367 574.775 35.254C574.733 35.1713 574.744 35.068 574.806 34.944L576.449 31.813C576.531 31.627 576.686 31.534 576.914 31.534H580.045C580.189 31.534 580.282 31.5857 580.324 31.689C580.386 31.7717 580.375 31.875 580.293 31.999L578.092 35.13C577.988 35.2953 577.844 35.378 577.658 35.378H575.054ZM599.326 59C599.12 59 598.975 58.907 598.892 58.721L595.017 50.134C594.976 50.0513 594.914 50.01 594.831 50.01H591.948C591.845 50.01 591.793 50.0617 591.793 50.165V58.628C591.793 58.7313 591.752 58.8243 591.669 58.907C591.607 58.969 591.525 59 591.421 59H587.794C587.691 59 587.598 58.969 587.515 58.907C587.453 58.8243 587.422 58.7313 587.422 58.628V37.672C587.422 37.5687 587.453 37.486 587.515 37.424C587.598 37.3413 587.691 37.3 587.794 37.3H596.66C597.983 37.3 599.14 37.5687 600.132 38.106C601.145 38.6433 601.92 39.408 602.457 40.4C603.015 41.392 603.294 42.539 603.294 43.841C603.294 45.2463 602.943 46.4553 602.24 47.468C601.538 48.46 600.556 49.1627 599.295 49.576C599.192 49.6173 599.161 49.6897 599.202 49.793L603.418 58.566C603.46 58.6487 603.48 58.7107 603.48 58.752C603.48 58.9173 603.367 59 603.139 59H599.326ZM591.948 41.051C591.845 41.051 591.793 41.1027 591.793 41.206V46.507C591.793 46.6103 591.845 46.662 591.948 46.662H596.009C596.877 46.662 597.58 46.4037 598.117 45.887C598.675 45.3703 598.954 44.6987 598.954 43.872C598.954 43.0453 598.675 42.3737 598.117 41.857C597.58 41.3197 596.877 41.051 596.009 41.051H591.948ZM606.836 59C606.733 59 606.64 58.969 606.557 58.907C606.495 58.8243 606.464 58.7313 606.464 58.628V37.672C606.464 37.5687 606.495 37.486 606.557 37.424C606.64 37.3413 606.733 37.3 606.836 37.3H610.463C610.567 37.3 610.649 37.3413 610.711 37.424C610.794 37.486 610.835 37.5687 610.835 37.672V58.628C610.835 58.7313 610.794 58.8243 610.711 58.907C610.649 58.969 610.567 59 610.463 59H606.836ZM629.674 40.679C629.674 40.7823 629.632 40.8753 629.55 40.958C629.488 41.02 629.405 41.051 629.302 41.051H619.134C619.03 41.051 618.979 41.1027 618.979 41.206V46.011C618.979 46.1143 619.03 46.166 619.134 46.166H625.799C625.902 46.166 625.985 46.2073 626.047 46.29C626.129 46.352 626.171 46.4347 626.171 46.538V49.545C626.171 49.6483 626.129 49.7413 626.047 49.824C625.985 49.886 625.902 49.917 625.799 49.917H619.134C619.03 49.917 618.979 49.9687 618.979 50.072V55.094C618.979 55.1973 619.03 55.249 619.134 55.249H629.302C629.405 55.249 629.488 55.2903 629.55 55.373C629.632 55.435 629.674 55.5177 629.674 55.621V58.628C629.674 58.7313 629.632 58.8243 629.55 58.907C629.488 58.969 629.405 59 629.302 59H614.98C614.876 59 614.783 58.969 614.701 58.907C614.639 58.8243 614.608 58.7313 614.608 58.628V37.672C614.608 37.5687 614.639 37.486 614.701 37.424C614.783 37.3413 614.876 37.3 614.98 37.3H629.302C629.405 37.3 629.488 37.3413 629.55 37.424C629.632 37.486 629.674 37.5687 629.674 37.672V40.679ZM633.083 59C632.98 59 632.887 58.969 632.804 58.907C632.742 58.8243 632.711 58.7313 632.711 58.628V37.672C632.711 37.5687 632.742 37.486 632.804 37.424C632.887 37.3413 632.98 37.3 633.083 37.3H636.71C636.814 37.3 636.896 37.3413 636.958 37.424C637.041 37.486 637.082 37.5687 637.082 37.672V55.094C637.082 55.1973 637.134 55.249 637.237 55.249H647.374C647.478 55.249 647.56 55.2903 647.622 55.373C647.705 55.435 647.746 55.5177 647.746 55.621V58.628C647.746 58.7313 647.705 58.8243 647.622 58.907C647.56 58.969 647.478 59 647.374 59H633.083ZM665.617 37.269C666.981 37.269 668.179 37.548 669.213 38.106C670.246 38.664 671.042 39.4597 671.6 40.493C672.178 41.5057 672.468 42.6733 672.468 43.996C672.468 45.298 672.168 46.445 671.569 47.437C670.99 48.429 670.163 49.204 669.089 49.762C668.035 50.2993 666.815 50.568 665.431 50.568H661.029C660.925 50.568 660.874 50.6197 660.874 50.723V58.628C660.874 58.7313 660.832 58.8243 660.75 58.907C660.688 58.969 660.605 59 660.502 59H656.875C656.771 59 656.678 58.969 656.596 58.907C656.534 58.8243 656.503 58.7313 656.503 58.628V37.641C656.503 37.5377 656.534 37.455 656.596 37.393C656.678 37.3103 656.771 37.269 656.875 37.269H665.617ZM664.966 47.065C665.916 47.065 666.681 46.7963 667.26 46.259C667.838 45.701 668.128 44.9777 668.128 44.089C668.128 43.1797 667.838 42.446 667.26 41.888C666.681 41.33 665.916 41.051 664.966 41.051H661.029C660.925 41.051 660.874 41.1027 660.874 41.206V46.91C660.874 47.0133 660.925 47.065 661.029 47.065H664.966ZM690.221 40.679C690.221 40.7823 690.179 40.8753 690.097 40.958C690.035 41.02 689.952 41.051 689.849 41.051H679.681C679.577 41.051 679.526 41.1027 679.526 41.206V46.011C679.526 46.1143 679.577 46.166 679.681 46.166H686.346C686.449 46.166 686.532 46.2073 686.594 46.29C686.676 46.352 686.718 46.4347 686.718 46.538V49.545C686.718 49.6483 686.676 49.7413 686.594 49.824C686.532 49.886 686.449 49.917 686.346 49.917H679.681C679.577 49.917 679.526 49.9687 679.526 50.072V55.094C679.526 55.1973 679.577 55.249 679.681 55.249H689.849C689.952 55.249 690.035 55.2903 690.097 55.373C690.179 55.435 690.221 55.5177 690.221 55.621V58.628C690.221 58.7313 690.179 58.8243 690.097 58.907C690.035 58.969 689.952 59 689.849 59H675.527C675.423 59 675.33 58.969 675.248 58.907C675.186 58.8243 675.155 58.7313 675.155 58.628V37.672C675.155 37.5687 675.186 37.486 675.248 37.424C675.33 37.3413 675.423 37.3 675.527 37.3H689.849C689.952 37.3 690.035 37.3413 690.097 37.424C690.179 37.486 690.221 37.5687 690.221 37.672V40.679ZM680.89 35.378C680.745 35.378 680.652 35.3367 680.611 35.254C680.569 35.1713 680.58 35.068 680.642 34.944L682.285 31.813C682.367 31.627 682.522 31.534 682.75 31.534H685.881C686.025 31.534 686.118 31.5857 686.16 31.689C686.222 31.7717 686.211 31.875 686.129 31.999L683.928 35.13C683.824 35.2953 683.68 35.378 683.494 35.378H680.89ZM693.63 59C693.527 59 693.434 58.969 693.351 58.907C693.289 58.8243 693.258 58.7313 693.258 58.628V37.672C693.258 37.5687 693.289 37.486 693.351 37.424C693.434 37.3413 693.527 37.3 693.63 37.3H701.38C702.93 37.3 704.284 37.579 705.441 38.137C706.619 38.6743 707.529 39.439 708.169 40.431C708.81 41.423 709.13 42.57 709.13 43.872V52.428C709.13 53.73 708.81 54.877 708.169 55.869C707.529 56.861 706.619 57.636 705.441 58.194C704.284 58.7313 702.93 59 701.38 59H693.63ZM697.629 55.094C697.629 55.1973 697.681 55.249 697.784 55.249H701.535C702.486 55.249 703.251 54.9287 703.829 54.288C704.429 53.6473 704.739 52.7897 704.759 51.715V44.585C704.759 43.5103 704.46 42.6527 703.86 42.012C703.282 41.3713 702.496 41.051 701.504 41.051H697.784C697.681 41.051 697.629 41.1027 697.629 41.206V55.094ZM725.036 59C724.829 59 724.695 58.8967 724.633 58.69L723.703 55.652C723.661 55.5693 723.61 55.528 723.548 55.528H715.922C715.86 55.528 715.808 55.5693 715.767 55.652L714.868 58.69C714.806 58.8967 714.671 59 714.465 59H710.528C710.404 59 710.311 58.969 710.249 58.907C710.187 58.8243 710.176 58.7107 710.218 58.566L716.914 37.61C716.976 37.4033 717.11 37.3 717.317 37.3H722.184C722.39 37.3 722.525 37.4033 722.587 37.61L729.283 58.566C729.303 58.6073 729.314 58.659 729.314 58.721C729.314 58.907 729.2 59 728.973 59H725.036ZM716.883 51.963C716.862 52.087 716.903 52.149 717.007 52.149H722.463C722.587 52.149 722.628 52.087 722.587 51.963L719.797 42.756C719.776 42.6733 719.745 42.6423 719.704 42.663C719.662 42.663 719.631 42.694 719.611 42.756L716.883 51.963ZM738.998 59.248C737.407 59.248 736.002 58.9277 734.782 58.287C733.563 57.6463 732.612 56.7577 731.93 55.621C731.269 54.4637 730.938 53.1307 730.938 51.622V44.678C730.938 43.1693 731.269 41.8363 731.93 40.679C732.612 39.5217 733.563 38.633 734.782 38.013C736.002 37.3723 737.407 37.052 738.998 37.052C740.569 37.052 741.954 37.362 743.152 37.982C744.372 38.602 745.312 39.4493 745.973 40.524C746.655 41.578 746.996 42.756 746.996 44.058V44.275C746.996 44.3783 746.955 44.4713 746.872 44.554C746.81 44.616 746.728 44.647 746.624 44.647H742.997C742.894 44.647 742.801 44.616 742.718 44.554C742.656 44.4713 742.625 44.3783 742.625 44.275V44.182C742.625 43.2313 742.295 42.4357 741.633 41.795C740.972 41.1337 740.094 40.803 738.998 40.803C737.882 40.803 736.983 41.1543 736.301 41.857C735.64 42.539 735.309 43.438 735.309 44.554V51.746C735.309 52.862 735.671 53.7713 736.394 54.474C737.118 55.156 738.037 55.497 739.153 55.497C740.228 55.497 741.086 55.218 741.726 54.66C742.367 54.0813 742.687 53.2857 742.687 52.273V50.878C742.687 50.7747 742.636 50.723 742.532 50.723H739.06C738.957 50.723 738.864 50.692 738.781 50.63C738.719 50.5473 738.688 50.4543 738.688 50.351V47.499C738.688 47.3957 738.719 47.313 738.781 47.251C738.864 47.1683 738.957 47.127 739.06 47.127H746.624C746.728 47.127 746.81 47.1683 746.872 47.251C746.955 47.313 746.996 47.3957 746.996 47.499V51.591C746.996 53.1617 746.666 54.5257 746.004 55.683C745.343 56.8403 744.403 57.729 743.183 58.349C741.985 58.9483 740.59 59.248 738.998 59.248ZM758.073 59.341C756.461 59.341 755.035 59.0103 753.795 58.349C752.576 57.6877 751.625 56.768 750.943 55.59C750.261 54.3913 749.92 53.017 749.92 51.467V44.833C749.92 43.3037 750.261 41.95 750.943 40.772C751.625 39.594 752.576 38.6847 753.795 38.044C755.035 37.3827 756.461 37.052 758.073 37.052C759.706 37.052 761.132 37.3827 762.351 38.044C763.591 38.6847 764.552 39.594 765.234 40.772C765.916 41.95 766.257 43.3037 766.257 44.833V51.467C766.257 53.017 765.916 54.3913 765.234 55.59C764.552 56.7887 763.591 57.7187 762.351 58.38C761.132 59.0207 759.706 59.341 758.073 59.341ZM758.073 55.59C759.21 55.59 760.129 55.2283 760.832 54.505C761.535 53.7817 761.886 52.8207 761.886 51.622V44.802C761.886 43.6033 761.535 42.6423 760.832 41.919C760.15 41.175 759.23 40.803 758.073 40.803C756.936 40.803 756.017 41.175 755.314 41.919C754.632 42.6423 754.291 43.6033 754.291 44.802V51.622C754.291 52.8207 754.632 53.7817 755.314 54.505C756.017 55.2283 756.936 55.59 758.073 55.59ZM777.234 59.248C775.642 59.248 774.237 58.9277 773.018 58.287C771.798 57.6463 770.848 56.7577 770.166 55.621C769.504 54.4637 769.174 53.1307 769.174 51.622V44.678C769.174 43.1693 769.504 41.8363 770.166 40.679C770.848 39.5217 771.798 38.633 773.018 38.013C774.237 37.3723 775.642 37.052 777.234 37.052C778.804 37.052 780.189 37.362 781.388 37.982C782.607 38.602 783.547 39.4493 784.209 40.524C784.891 41.578 785.232 42.756 785.232 44.058V44.275C785.232 44.3783 785.19 44.4713 785.108 44.554C785.046 44.616 784.963 44.647 784.86 44.647H781.233C781.129 44.647 781.036 44.616 780.954 44.554C780.892 44.4713 780.861 44.3783 780.861 44.275V44.182C780.861 43.2313 780.53 42.4357 779.869 41.795C779.207 41.1337 778.329 40.803 777.234 40.803C776.118 40.803 775.219 41.1543 774.537 41.857C773.875 42.539 773.545 43.438 773.545 44.554V51.746C773.545 52.862 773.906 53.7713 774.63 54.474C775.353 55.156 776.273 55.497 777.389 55.497C778.463 55.497 779.321 55.218 779.962 54.66C780.602 54.0813 780.923 53.2857 780.923 52.273V50.878C780.923 50.7747 780.871 50.723 780.768 50.723H777.296C777.192 50.723 777.099 50.692 777.017 50.63C776.955 50.5473 776.924 50.4543 776.924 50.351V47.499C776.924 47.3957 776.955 47.313 777.017 47.251C777.099 47.1683 777.192 47.127 777.296 47.127H784.86C784.963 47.127 785.046 47.1683 785.108 47.251C785.19 47.313 785.232 47.3957 785.232 47.499V51.591C785.232 53.1617 784.901 54.5257 784.24 55.683C783.578 56.8403 782.638 57.729 781.419 58.349C780.22 58.9483 778.825 59.248 777.234 59.248ZM788.961 59C788.858 59 788.765 58.969 788.682 58.907C788.62 58.8243 788.589 58.7313 788.589 58.628V37.672C788.589 37.5687 788.62 37.486 788.682 37.424C788.765 37.3413 788.858 37.3 788.961 37.3H792.588C792.692 37.3 792.774 37.3413 792.836 37.424C792.919 37.486 792.96 37.5687 792.96 37.672V58.628C792.96 58.7313 792.919 58.8243 792.836 58.907C792.774 58.969 792.692 59 792.588 59H788.961ZM804.018 37.052C805.588 37.052 806.973 37.3723 808.172 38.013C809.37 38.6537 810.3 39.563 810.962 40.741C811.623 41.919 811.954 43.283 811.954 44.833V51.777C811.954 53.6163 811.458 55.1767 810.466 56.458C809.474 57.7187 808.11 58.5557 806.374 58.969C806.291 58.9897 806.25 59.0413 806.25 59.124V61.666C806.25 61.7693 806.208 61.852 806.126 61.914C806.064 61.9967 805.981 62.038 805.878 62.038H802.251C802.147 62.038 802.054 61.9967 801.972 61.914C801.91 61.852 801.879 61.7693 801.879 61.666V59.155C801.879 59.0723 801.837 59.0207 801.755 59C800.019 58.5867 798.644 57.7393 797.632 56.458C796.619 55.1767 796.113 53.6163 796.113 51.777V44.833C796.113 43.283 796.443 41.9293 797.105 40.772C797.766 39.594 798.696 38.6847 799.895 38.044C801.093 37.3827 802.468 37.052 804.018 37.052ZM807.583 44.616C807.583 43.4793 807.252 42.5597 806.591 41.857C805.95 41.1543 805.092 40.803 804.018 40.803C802.964 40.803 802.106 41.1543 801.445 41.857C800.804 42.5597 800.484 43.4793 800.484 44.616V51.684C800.484 52.8207 800.804 53.7403 801.445 54.443C802.106 55.1457 802.964 55.497 804.018 55.497C805.092 55.497 805.95 55.1457 806.591 54.443C807.252 53.7403 807.583 52.8207 807.583 51.684V44.616ZM822.983 59.248C821.391 59.248 819.986 58.938 818.767 58.318C817.568 57.698 816.628 56.83 815.946 55.714C815.284 54.5773 814.954 53.2753 814.954 51.808V37.672C814.954 37.5687 814.985 37.486 815.047 37.424C815.129 37.3413 815.222 37.3 815.326 37.3H818.953C819.056 37.3 819.139 37.3413 819.201 37.424C819.283 37.486 819.325 37.5687 819.325 37.672V51.839C819.325 52.9343 819.655 53.823 820.317 54.505C820.999 55.1663 821.887 55.497 822.983 55.497C824.078 55.497 824.956 55.1663 825.618 54.505C826.3 53.823 826.641 52.9343 826.641 51.839V37.672C826.641 37.5687 826.672 37.486 826.734 37.424C826.816 37.3413 826.909 37.3 827.013 37.3H830.64C830.743 37.3 830.826 37.3413 830.888 37.424C830.97 37.486 831.012 37.5687 831.012 37.672V51.808C831.012 53.2753 830.671 54.5773 829.989 55.714C829.327 56.83 828.387 57.698 827.168 58.318C825.969 58.938 824.574 59.248 822.983 59.248ZM849.671 40.679C849.671 40.7823 849.63 40.8753 849.547 40.958C849.485 41.02 849.402 41.051 849.299 41.051H839.131C839.028 41.051 838.976 41.1027 838.976 41.206V46.011C838.976 46.1143 839.028 46.166 839.131 46.166H845.796C845.899 46.166 845.982 46.2073 846.044 46.29C846.127 46.352 846.168 46.4347 846.168 46.538V49.545C846.168 49.6483 846.127 49.7413 846.044 49.824C845.982 49.886 845.899 49.917 845.796 49.917H839.131C839.028 49.917 838.976 49.9687 838.976 50.072V55.094C838.976 55.1973 839.028 55.249 839.131 55.249H849.299C849.402 55.249 849.485 55.2903 849.547 55.373C849.63 55.435 849.671 55.5177 849.671 55.621V58.628C849.671 58.7313 849.63 58.8243 849.547 58.907C849.485 58.969 849.402 59 849.299 59H834.977C834.874 59 834.781 58.969 834.698 58.907C834.636 58.8243 834.605 58.7313 834.605 58.628V37.672C834.605 37.5687 834.636 37.486 834.698 37.424C834.781 37.3413 834.874 37.3 834.977 37.3H849.299C849.402 37.3 849.485 37.3413 849.547 37.424C849.63 37.486 849.671 37.5687 849.671 37.672V40.679Z" fill="white"/>
<path d="M511.263 96C511.16 96 511.067 95.969 510.984 95.907C510.922 95.8243 510.891 95.7313 510.891 95.628V74.672C510.891 74.5687 510.922 74.486 510.984 74.424C511.067 74.3413 511.16 74.3 511.263 74.3H519.013C520.563 74.3 521.917 74.579 523.074 75.137C524.252 75.6743 525.161 76.439 525.802 77.431C526.443 78.423 526.763 79.57 526.763 80.872V89.428C526.763 90.73 526.443 91.877 525.802 92.869C525.161 93.861 524.252 94.636 523.074 95.194C521.917 95.7313 520.563 96 519.013 96H511.263ZM515.262 92.094C515.262 92.1973 515.314 92.249 515.417 92.249H519.168C520.119 92.249 520.883 91.9287 521.462 91.288C522.061 90.6473 522.371 89.7897 522.392 88.715V81.585C522.392 80.5103 522.092 79.6527 521.493 79.012C520.914 78.3713 520.129 78.051 519.137 78.051H515.417C515.314 78.051 515.262 78.1027 515.262 78.206V92.094ZM534.022 74.3C534.167 74.3 534.26 74.3413 534.301 74.424C534.342 74.5067 534.342 74.61 534.301 74.734L531.759 81.027C531.697 81.213 531.552 81.306 531.325 81.306H528.597C528.328 81.306 528.225 81.1717 528.287 80.903L529.961 74.61C530.023 74.4033 530.168 74.3 530.395 74.3H534.022ZM544.255 96.248C542.664 96.248 541.259 95.938 540.039 95.318C538.841 94.698 537.9 93.83 537.218 92.714C536.557 91.5773 536.226 90.2753 536.226 88.808V74.672C536.226 74.5687 536.257 74.486 536.319 74.424C536.402 74.3413 536.495 74.3 536.598 74.3H540.225C540.329 74.3 540.411 74.3413 540.473 74.424C540.556 74.486 540.597 74.5687 540.597 74.672V88.839C540.597 89.9343 540.928 90.823 541.589 91.505C542.271 92.1663 543.16 92.497 544.255 92.497C545.351 92.497 546.229 92.1663 546.89 91.505C547.572 90.823 547.913 89.9343 547.913 88.839V74.672C547.913 74.5687 547.944 74.486 548.006 74.424C548.089 74.3413 548.182 74.3 548.285 74.3H551.912C552.016 74.3 552.098 74.3413 552.16 74.424C552.243 74.486 552.284 74.5687 552.284 74.672V88.808C552.284 90.2753 551.943 91.5773 551.261 92.714C550.6 93.83 549.66 94.698 548.44 95.318C547.242 95.938 545.847 96.248 544.255 96.248ZM563.317 96.248C561.664 96.248 560.217 95.9897 558.977 95.473C557.737 94.9357 556.776 94.1813 556.094 93.21C555.433 92.218 555.102 91.071 555.102 89.769V89.087C555.102 88.9837 555.133 88.901 555.195 88.839C555.278 88.7563 555.371 88.715 555.474 88.715H559.008C559.112 88.715 559.194 88.7563 559.256 88.839C559.339 88.901 559.38 88.9837 559.38 89.087V89.552C559.38 90.3787 559.763 91.0813 560.527 91.66C561.292 92.218 562.325 92.497 563.627 92.497C564.723 92.497 565.539 92.2697 566.076 91.815C566.614 91.3397 566.882 90.761 566.882 90.079C566.882 89.583 566.717 89.1697 566.386 88.839C566.056 88.4877 565.601 88.188 565.022 87.94C564.464 87.6713 563.565 87.3097 562.325 86.855C560.941 86.3797 559.763 85.894 558.791 85.398C557.841 84.902 557.035 84.2303 556.373 83.383C555.733 82.515 555.412 81.4507 555.412 80.19C555.412 78.95 555.733 77.865 556.373 76.935C557.014 76.005 557.903 75.292 559.039 74.796C560.176 74.3 561.488 74.052 562.976 74.052C564.547 74.052 565.942 74.331 567.161 74.889C568.401 75.447 569.362 76.2323 570.044 77.245C570.747 78.237 571.098 79.3943 571.098 80.717V81.182C571.098 81.2853 571.057 81.3783 570.974 81.461C570.912 81.523 570.83 81.554 570.726 81.554H567.161C567.058 81.554 566.965 81.523 566.882 81.461C566.82 81.3783 566.789 81.2853 566.789 81.182V80.934C566.789 80.066 566.428 79.3323 565.704 78.733C565.002 78.113 564.03 77.803 562.79 77.803C561.819 77.803 561.054 78.0097 560.496 78.423C559.959 78.8363 559.69 79.4047 559.69 80.128C559.69 80.6447 559.845 81.0787 560.155 81.43C560.486 81.7813 560.961 82.1017 561.581 82.391C562.222 82.6597 563.204 83.0317 564.526 83.507C565.994 84.0443 567.141 84.5197 567.967 84.933C568.815 85.3463 569.569 85.9663 570.23 86.793C570.912 87.599 571.253 88.653 571.253 89.955C571.253 91.8977 570.54 93.4373 569.114 94.574C567.688 95.69 565.756 96.248 563.317 96.248ZM588.109 96C587.902 96 587.768 95.8967 587.706 95.69L586.776 92.652C586.735 92.5693 586.683 92.528 586.621 92.528H578.995C578.933 92.528 578.881 92.5693 578.84 92.652L577.941 95.69C577.879 95.8967 577.745 96 577.538 96H573.601C573.477 96 573.384 95.969 573.322 95.907C573.26 95.8243 573.25 95.7107 573.291 95.566L579.987 74.61C580.049 74.4033 580.183 74.3 580.39 74.3H585.257C585.464 74.3 585.598 74.4033 585.66 74.61L592.356 95.566C592.377 95.6073 592.387 95.659 592.387 95.721C592.387 95.907 592.273 96 592.046 96H588.109ZM579.956 88.963C579.935 89.087 579.977 89.149 580.08 89.149H585.536C585.66 89.149 585.701 89.087 585.66 88.963L582.87 79.756C582.849 79.6733 582.818 79.6423 582.777 79.663C582.736 79.663 582.705 79.694 582.684 79.756L579.956 88.963ZM602.072 96.248C600.48 96.248 599.075 95.9277 597.856 95.287C596.636 94.6463 595.686 93.7577 595.004 92.621C594.342 91.4637 594.012 90.1307 594.012 88.622V81.678C594.012 80.1693 594.342 78.8363 595.004 77.679C595.686 76.5217 596.636 75.633 597.856 75.013C599.075 74.3723 600.48 74.052 602.072 74.052C603.642 74.052 605.027 74.362 606.226 74.982C607.445 75.602 608.385 76.4493 609.047 77.524C609.729 78.578 610.07 79.756 610.07 81.058V81.275C610.07 81.3783 610.028 81.4713 609.946 81.554C609.884 81.616 609.801 81.647 609.698 81.647H606.071C605.967 81.647 605.874 81.616 605.792 81.554C605.73 81.4713 605.699 81.3783 605.699 81.275V81.182C605.699 80.2313 605.368 79.4357 604.707 78.795C604.045 78.1337 603.167 77.803 602.072 77.803C600.956 77.803 600.057 78.1543 599.375 78.857C598.713 79.539 598.383 80.438 598.383 81.554V88.746C598.383 89.862 598.744 90.7713 599.468 91.474C600.191 92.156 601.111 92.497 602.227 92.497C603.301 92.497 604.159 92.218 604.8 91.66C605.44 91.0813 605.761 90.2857 605.761 89.273V87.878C605.761 87.7747 605.709 87.723 605.606 87.723H602.134C602.03 87.723 601.937 87.692 601.855 87.63C601.793 87.5473 601.762 87.4543 601.762 87.351V84.499C601.762 84.3957 601.793 84.313 601.855 84.251C601.937 84.1683 602.03 84.127 602.134 84.127H609.698C609.801 84.127 609.884 84.1683 609.946 84.251C610.028 84.313 610.07 84.3957 610.07 84.499V88.591C610.07 90.1617 609.739 91.5257 609.078 92.683C608.416 93.8403 607.476 94.729 606.257 95.349C605.058 95.9483 603.663 96.248 602.072 96.248ZM628.493 77.679C628.493 77.7823 628.452 77.8753 628.369 77.958C628.307 78.02 628.224 78.051 628.121 78.051H617.953C617.85 78.051 617.798 78.1027 617.798 78.206V83.011C617.798 83.1143 617.85 83.166 617.953 83.166H624.618C624.721 83.166 624.804 83.2073 624.866 83.29C624.949 83.352 624.99 83.4347 624.99 83.538V86.545C624.99 86.6483 624.949 86.7413 624.866 86.824C624.804 86.886 624.721 86.917 624.618 86.917H617.953C617.85 86.917 617.798 86.9687 617.798 87.072V92.094C617.798 92.1973 617.85 92.249 617.953 92.249H628.121C628.224 92.249 628.307 92.2903 628.369 92.373C628.452 92.435 628.493 92.5177 628.493 92.621V95.628C628.493 95.7313 628.452 95.8243 628.369 95.907C628.307 95.969 628.224 96 628.121 96H613.799C613.696 96 613.603 95.969 613.52 95.907C613.458 95.8243 613.427 95.7313 613.427 95.628V74.672C613.427 74.5687 613.458 74.486 613.52 74.424C613.603 74.3413 613.696 74.3 613.799 74.3H628.121C628.224 74.3 628.307 74.3413 628.369 74.424C628.452 74.486 628.493 74.5687 628.493 74.672V77.679Z" fill="#F5A37B"/>
<path d="M524.841 154.851C524.944 154.686 525.089 154.603 525.275 154.603H528.902C529.005 154.603 529.088 154.645 529.15 154.727C529.233 154.789 529.274 154.872 529.274 154.975V175.931C529.274 176.035 529.233 176.128 529.15 176.21C529.088 176.272 529.005 176.303 528.902 176.303H525.275C525.172 176.303 525.079 176.272 524.996 176.21C524.934 176.128 524.903 176.035 524.903 175.931V162.26C524.903 162.178 524.882 162.136 524.841 162.136C524.8 162.136 524.758 162.167 524.717 162.229L521.431 167.375C521.328 167.541 521.183 167.623 520.997 167.623H519.168C518.982 167.623 518.837 167.541 518.734 167.375L515.448 162.229C515.407 162.167 515.365 162.147 515.324 162.167C515.283 162.167 515.262 162.209 515.262 162.291V175.931C515.262 176.035 515.221 176.128 515.138 176.21C515.076 176.272 514.993 176.303 514.89 176.303H511.263C511.16 176.303 511.067 176.272 510.984 176.21C510.922 176.128 510.891 176.035 510.891 175.931V154.975C510.891 154.872 510.922 154.789 510.984 154.727C511.067 154.645 511.16 154.603 511.263 154.603H514.89C515.076 154.603 515.221 154.686 515.324 154.851L519.974 162.074C520.036 162.198 520.098 162.198 520.16 162.074L524.841 154.851ZM546.846 176.303C546.639 176.303 546.505 176.2 546.443 175.993L545.513 172.955C545.472 172.873 545.42 172.831 545.358 172.831H537.732C537.67 172.831 537.618 172.873 537.577 172.955L536.678 175.993C536.616 176.2 536.482 176.303 536.275 176.303H532.338C532.214 176.303 532.121 176.272 532.059 176.21C531.997 176.128 531.987 176.014 532.028 175.869L538.724 154.913C538.786 154.707 538.92 154.603 539.127 154.603H543.994C544.201 154.603 544.335 154.707 544.397 154.913L551.093 175.869C551.114 175.911 551.124 175.962 551.124 176.024C551.124 176.21 551.01 176.303 550.783 176.303H546.846ZM538.693 169.266C538.672 169.39 538.714 169.452 538.817 169.452H544.273C544.397 169.452 544.438 169.39 544.397 169.266L541.607 160.059C541.586 159.977 541.555 159.946 541.514 159.966C541.473 159.966 541.442 159.997 541.421 160.059L538.693 169.266ZM566.158 154.603C566.261 154.603 566.344 154.645 566.406 154.727C566.489 154.789 566.53 154.872 566.53 154.975V158.013C566.53 158.117 566.489 158.21 566.406 158.292C566.344 158.354 566.261 158.385 566.158 158.385H560.609C560.506 158.385 560.454 158.437 560.454 158.54V175.931C560.454 176.035 560.413 176.128 560.33 176.21C560.268 176.272 560.185 176.303 560.082 176.303H556.455C556.352 176.303 556.259 176.272 556.176 176.21C556.114 176.128 556.083 176.035 556.083 175.931V158.54C556.083 158.437 556.031 158.385 555.928 158.385H550.534C550.431 158.385 550.338 158.354 550.255 158.292C550.193 158.21 550.162 158.117 550.162 158.013V154.975C550.162 154.872 550.193 154.789 550.255 154.727C550.338 154.645 550.431 154.603 550.534 154.603H566.158ZM584.385 157.982C584.385 158.086 584.343 158.179 584.261 158.261C584.199 158.323 584.116 158.354 584.013 158.354H573.845C573.741 158.354 573.69 158.406 573.69 158.509V163.314C573.69 163.418 573.741 163.469 573.845 163.469H580.51C580.613 163.469 580.696 163.511 580.758 163.593C580.84 163.655 580.882 163.738 580.882 163.841V166.848C580.882 166.952 580.84 167.045 580.758 167.127C580.696 167.189 580.613 167.22 580.51 167.22H573.845C573.741 167.22 573.69 167.272 573.69 167.375V172.397C573.69 172.501 573.741 172.552 573.845 172.552H584.013C584.116 172.552 584.199 172.594 584.261 172.676C584.343 172.738 584.385 172.821 584.385 172.924V175.931C584.385 176.035 584.343 176.128 584.261 176.21C584.199 176.272 584.116 176.303 584.013 176.303H569.691C569.587 176.303 569.494 176.272 569.412 176.21C569.35 176.128 569.319 176.035 569.319 175.931V154.975C569.319 154.872 569.35 154.789 569.412 154.727C569.494 154.645 569.587 154.603 569.691 154.603H584.013C584.116 154.603 584.199 154.645 584.261 154.727C584.343 154.789 584.385 154.872 584.385 154.975V157.982ZM575.054 152.681C574.909 152.681 574.816 152.64 574.775 152.557C574.733 152.475 574.744 152.371 574.806 152.247L576.449 149.116C576.531 148.93 576.686 148.837 576.914 148.837H580.045C580.189 148.837 580.282 148.889 580.324 148.992C580.386 149.075 580.375 149.178 580.293 149.302L578.092 152.433C577.988 152.599 577.844 152.681 577.658 152.681H575.054ZM599.326 176.303C599.12 176.303 598.975 176.21 598.892 176.024L595.017 167.437C594.976 167.355 594.914 167.313 594.831 167.313H591.948C591.845 167.313 591.793 167.365 591.793 167.468V175.931C591.793 176.035 591.752 176.128 591.669 176.21C591.607 176.272 591.525 176.303 591.421 176.303H587.794C587.691 176.303 587.598 176.272 587.515 176.21C587.453 176.128 587.422 176.035 587.422 175.931V154.975C587.422 154.872 587.453 154.789 587.515 154.727C587.598 154.645 587.691 154.603 587.794 154.603H596.66C597.983 154.603 599.14 154.872 600.132 155.409C601.145 155.947 601.92 156.711 602.457 157.703C603.015 158.695 603.294 159.842 603.294 161.144C603.294 162.55 602.943 163.759 602.24 164.771C601.538 165.763 600.556 166.466 599.295 166.879C599.192 166.921 599.161 166.993 599.202 167.096L603.418 175.869C603.46 175.952 603.48 176.014 603.48 176.055C603.48 176.221 603.367 176.303 603.139 176.303H599.326ZM591.948 158.354C591.845 158.354 591.793 158.406 591.793 158.509V163.81C591.793 163.914 591.845 163.965 591.948 163.965H596.009C596.877 163.965 597.58 163.707 598.117 163.19C598.675 162.674 598.954 162.002 598.954 161.175C598.954 160.349 598.675 159.677 598.117 159.16C597.58 158.623 596.877 158.354 596.009 158.354H591.948ZM606.836 176.303C606.733 176.303 606.64 176.272 606.557 176.21C606.495 176.128 606.464 176.035 606.464 175.931V154.975C606.464 154.872 606.495 154.789 606.557 154.727C606.64 154.645 606.733 154.603 606.836 154.603H610.463C610.567 154.603 610.649 154.645 610.711 154.727C610.794 154.789 610.835 154.872 610.835 154.975V175.931C610.835 176.035 610.794 176.128 610.711 176.21C610.649 176.272 610.567 176.303 610.463 176.303H606.836ZM629.674 157.982C629.674 158.086 629.632 158.179 629.55 158.261C629.488 158.323 629.405 158.354 629.302 158.354H619.134C619.03 158.354 618.979 158.406 618.979 158.509V163.314C618.979 163.418 619.03 163.469 619.134 163.469H625.799C625.902 163.469 625.985 163.511 626.047 163.593C626.129 163.655 626.171 163.738 626.171 163.841V166.848C626.171 166.952 626.129 167.045 626.047 167.127C625.985 167.189 625.902 167.22 625.799 167.22H619.134C619.03 167.22 618.979 167.272 618.979 167.375V172.397C618.979 172.501 619.03 172.552 619.134 172.552H629.302C629.405 172.552 629.488 172.594 629.55 172.676C629.632 172.738 629.674 172.821 629.674 172.924V175.931C629.674 176.035 629.632 176.128 629.55 176.21C629.488 176.272 629.405 176.303 629.302 176.303H614.98C614.876 176.303 614.783 176.272 614.701 176.21C614.639 176.128 614.608 176.035 614.608 175.931V154.975C614.608 154.872 614.639 154.789 614.701 154.727C614.783 154.645 614.876 154.603 614.98 154.603H629.302C629.405 154.603 629.488 154.645 629.55 154.727C629.632 154.789 629.674 154.872 629.674 154.975V157.982ZM633.083 176.303C632.98 176.303 632.887 176.272 632.804 176.21C632.742 176.128 632.711 176.035 632.711 175.931V154.975C632.711 154.872 632.742 154.789 632.804 154.727C632.887 154.645 632.98 154.603 633.083 154.603H636.71C636.814 154.603 636.896 154.645 636.958 154.727C637.041 154.789 637.082 154.872 637.082 154.975V172.397C637.082 172.501 637.134 172.552 637.237 172.552H647.374C647.478 172.552 647.56 172.594 647.622 172.676C647.705 172.738 647.746 172.821 647.746 172.924V175.931C647.746 176.035 647.705 176.128 647.622 176.21C647.56 176.272 647.478 176.303 647.374 176.303H633.083ZM665.617 154.572C666.981 154.572 668.179 154.851 669.213 155.409C670.246 155.967 671.042 156.763 671.6 157.796C672.178 158.809 672.468 159.977 672.468 161.299C672.468 162.601 672.168 163.748 671.569 164.74C670.99 165.732 670.163 166.507 669.089 167.065C668.035 167.603 666.815 167.871 665.431 167.871H661.029C660.925 167.871 660.874 167.923 660.874 168.026V175.931C660.874 176.035 660.832 176.128 660.75 176.21C660.688 176.272 660.605 176.303 660.502 176.303H656.875C656.771 176.303 656.678 176.272 656.596 176.21C656.534 176.128 656.503 176.035 656.503 175.931V154.944C656.503 154.841 656.534 154.758 656.596 154.696C656.678 154.614 656.771 154.572 656.875 154.572H665.617ZM664.966 164.368C665.916 164.368 666.681 164.1 667.26 163.562C667.838 163.004 668.128 162.281 668.128 161.392C668.128 160.483 667.838 159.749 667.26 159.191C666.681 158.633 665.916 158.354 664.966 158.354H661.029C660.925 158.354 660.874 158.406 660.874 158.509V164.213C660.874 164.317 660.925 164.368 661.029 164.368H664.966ZM690.221 157.982C690.221 158.086 690.179 158.179 690.097 158.261C690.035 158.323 689.952 158.354 689.849 158.354H679.681C679.577 158.354 679.526 158.406 679.526 158.509V163.314C679.526 163.418 679.577 163.469 679.681 163.469H686.346C686.449 163.469 686.532 163.511 686.594 163.593C686.676 163.655 686.718 163.738 686.718 163.841V166.848C686.718 166.952 686.676 167.045 686.594 167.127C686.532 167.189 686.449 167.22 686.346 167.22H679.681C679.577 167.22 679.526 167.272 679.526 167.375V172.397C679.526 172.501 679.577 172.552 679.681 172.552H689.849C689.952 172.552 690.035 172.594 690.097 172.676C690.179 172.738 690.221 172.821 690.221 172.924V175.931C690.221 176.035 690.179 176.128 690.097 176.21C690.035 176.272 689.952 176.303 689.849 176.303H675.527C675.423 176.303 675.33 176.272 675.248 176.21C675.186 176.128 675.155 176.035 675.155 175.931V154.975C675.155 154.872 675.186 154.789 675.248 154.727C675.33 154.645 675.423 154.603 675.527 154.603H689.849C689.952 154.603 690.035 154.645 690.097 154.727C690.179 154.789 690.221 154.872 690.221 154.975V157.982ZM680.89 152.681C680.745 152.681 680.652 152.64 680.611 152.557C680.569 152.475 680.58 152.371 680.642 152.247L682.285 149.116C682.367 148.93 682.522 148.837 682.75 148.837H685.881C686.025 148.837 686.118 148.889 686.16 148.992C686.222 149.075 686.211 149.178 686.129 149.302L683.928 152.433C683.824 152.599 683.68 152.681 683.494 152.681H680.89ZM693.63 176.303C693.527 176.303 693.434 176.272 693.351 176.21C693.289 176.128 693.258 176.035 693.258 175.931V154.975C693.258 154.872 693.289 154.789 693.351 154.727C693.434 154.645 693.527 154.603 693.63 154.603H701.38C702.93 154.603 704.284 154.882 705.441 155.44C706.619 155.978 707.529 156.742 708.169 157.734C708.81 158.726 709.13 159.873 709.13 161.175V169.731C709.13 171.033 708.81 172.18 708.169 173.172C707.529 174.164 706.619 174.939 705.441 175.497C704.284 176.035 702.93 176.303 701.38 176.303H693.63ZM697.629 172.397C697.629 172.501 697.681 172.552 697.784 172.552H701.535C702.486 172.552 703.251 172.232 703.829 171.591C704.429 170.951 704.739 170.093 704.759 169.018V161.888C704.759 160.814 704.46 159.956 703.86 159.315C703.282 158.675 702.496 158.354 701.504 158.354H697.784C697.681 158.354 697.629 158.406 697.629 158.509V172.397ZM725.036 176.303C724.829 176.303 724.695 176.2 724.633 175.993L723.703 172.955C723.661 172.873 723.61 172.831 723.548 172.831H715.922C715.86 172.831 715.808 172.873 715.767 172.955L714.868 175.993C714.806 176.2 714.671 176.303 714.465 176.303H710.528C710.404 176.303 710.311 176.272 710.249 176.21C710.187 176.128 710.176 176.014 710.218 175.869L716.914 154.913C716.976 154.707 717.11 154.603 717.317 154.603H722.184C722.39 154.603 722.525 154.707 722.587 154.913L729.283 175.869C729.303 175.911 729.314 175.962 729.314 176.024C729.314 176.21 729.2 176.303 728.973 176.303H725.036ZM716.883 169.266C716.862 169.39 716.903 169.452 717.007 169.452H722.463C722.587 169.452 722.628 169.39 722.587 169.266L719.797 160.059C719.776 159.977 719.745 159.946 719.704 159.966C719.662 159.966 719.631 159.997 719.611 160.059L716.883 169.266ZM738.998 176.551C737.407 176.551 736.002 176.231 734.782 175.59C733.563 174.95 732.612 174.061 731.93 172.924C731.269 171.767 730.938 170.434 730.938 168.925V161.981C730.938 160.473 731.269 159.14 731.93 157.982C732.612 156.825 733.563 155.936 734.782 155.316C736.002 154.676 737.407 154.355 738.998 154.355C740.569 154.355 741.954 154.665 743.152 155.285C744.372 155.905 745.312 156.753 745.973 157.827C746.655 158.881 746.996 160.059 746.996 161.361V161.578C746.996 161.682 746.955 161.775 746.872 161.857C746.81 161.919 746.728 161.95 746.624 161.95H742.997C742.894 161.95 742.801 161.919 742.718 161.857C742.656 161.775 742.625 161.682 742.625 161.578V161.485C742.625 160.535 742.295 159.739 741.633 159.098C740.972 158.437 740.094 158.106 738.998 158.106C737.882 158.106 736.983 158.458 736.301 159.16C735.64 159.842 735.309 160.741 735.309 161.857V169.049C735.309 170.165 735.671 171.075 736.394 171.777C737.118 172.459 738.037 172.8 739.153 172.8C740.228 172.8 741.086 172.521 741.726 171.963C742.367 171.385 742.687 170.589 742.687 169.576V168.181C742.687 168.078 742.636 168.026 742.532 168.026H739.06C738.957 168.026 738.864 167.995 738.781 167.933C738.719 167.851 738.688 167.758 738.688 167.654V164.802C738.688 164.699 738.719 164.616 738.781 164.554C738.864 164.472 738.957 164.43 739.06 164.43H746.624C746.728 164.43 746.81 164.472 746.872 164.554C746.955 164.616 746.996 164.699 746.996 164.802V168.894C746.996 170.465 746.666 171.829 746.004 172.986C745.343 174.144 744.403 175.032 743.183 175.652C741.985 176.252 740.59 176.551 738.998 176.551ZM758.073 176.644C756.461 176.644 755.035 176.314 753.795 175.652C752.576 174.991 751.625 174.071 750.943 172.893C750.261 171.695 749.92 170.32 749.92 168.77V162.136C749.92 160.607 750.261 159.253 750.943 158.075C751.625 156.897 752.576 155.988 753.795 155.347C755.035 154.686 756.461 154.355 758.073 154.355C759.706 154.355 761.132 154.686 762.351 155.347C763.591 155.988 764.552 156.897 765.234 158.075C765.916 159.253 766.257 160.607 766.257 162.136V168.77C766.257 170.32 765.916 171.695 765.234 172.893C764.552 174.092 763.591 175.022 762.351 175.683C761.132 176.324 759.706 176.644 758.073 176.644ZM758.073 172.893C759.21 172.893 760.129 172.532 760.832 171.808C761.535 171.085 761.886 170.124 761.886 168.925V162.105C761.886 160.907 761.535 159.946 760.832 159.222C760.15 158.478 759.23 158.106 758.073 158.106C756.936 158.106 756.017 158.478 755.314 159.222C754.632 159.946 754.291 160.907 754.291 162.105V168.925C754.291 170.124 754.632 171.085 755.314 171.808C756.017 172.532 756.936 172.893 758.073 172.893ZM777.234 176.551C775.642 176.551 774.237 176.231 773.018 175.59C771.798 174.95 770.848 174.061 770.166 172.924C769.504 171.767 769.174 170.434 769.174 168.925V161.981C769.174 160.473 769.504 159.14 770.166 157.982C770.848 156.825 771.798 155.936 773.018 155.316C774.237 154.676 775.642 154.355 777.234 154.355C778.804 154.355 780.189 154.665 781.388 155.285C782.607 155.905 783.547 156.753 784.209 157.827C784.891 158.881 785.232 160.059 785.232 161.361V161.578C785.232 161.682 785.19 161.775 785.108 161.857C785.046 161.919 784.963 161.95 784.86 161.95H781.233C781.129 161.95 781.036 161.919 780.954 161.857C780.892 161.775 780.861 161.682 780.861 161.578V161.485C780.861 160.535 780.53 159.739 779.869 159.098C779.207 158.437 778.329 158.106 777.234 158.106C776.118 158.106 775.219 158.458 774.537 159.16C773.875 159.842 773.545 160.741 773.545 161.857V169.049C773.545 170.165 773.906 171.075 774.63 171.777C775.353 172.459 776.273 172.8 777.389 172.8C778.463 172.8 779.321 172.521 779.962 171.963C780.602 171.385 780.923 170.589 780.923 169.576V168.181C780.923 168.078 780.871 168.026 780.768 168.026H777.296C777.192 168.026 777.099 167.995 777.017 167.933C776.955 167.851 776.924 167.758 776.924 167.654V164.802C776.924 164.699 776.955 164.616 777.017 164.554C777.099 164.472 777.192 164.43 777.296 164.43H784.86C784.963 164.43 785.046 164.472 785.108 164.554C785.19 164.616 785.232 164.699 785.232 164.802V168.894C785.232 170.465 784.901 171.829 784.24 172.986C783.578 174.144 782.638 175.032 781.419 175.652C780.22 176.252 778.825 176.551 777.234 176.551ZM788.961 176.303C788.858 176.303 788.765 176.272 788.682 176.21C788.62 176.128 788.589 176.035 788.589 175.931V154.975C788.589 154.872 788.62 154.789 788.682 154.727C788.765 154.645 788.858 154.603 788.961 154.603H792.588C792.692 154.603 792.774 154.645 792.836 154.727C792.919 154.789 792.96 154.872 792.96 154.975V175.931C792.96 176.035 792.919 176.128 792.836 176.21C792.774 176.272 792.692 176.303 792.588 176.303H788.961ZM804.018 154.355C805.588 154.355 806.973 154.676 808.172 155.316C809.37 155.957 810.3 156.866 810.962 158.044C811.623 159.222 811.954 160.586 811.954 162.136V169.08C811.954 170.92 811.458 172.48 810.466 173.761C809.474 175.022 808.11 175.859 806.374 176.272C806.291 176.293 806.25 176.345 806.25 176.427V178.969C806.25 179.073 806.208 179.155 806.126 179.217C806.064 179.3 805.981 179.341 805.878 179.341H802.251C802.147 179.341 802.054 179.3 801.972 179.217C801.91 179.155 801.879 179.073 801.879 178.969V176.458C801.879 176.376 801.837 176.324 801.755 176.303C800.019 175.89 798.644 175.043 797.632 173.761C796.619 172.48 796.113 170.92 796.113 169.08V162.136C796.113 160.586 796.443 159.233 797.105 158.075C797.766 156.897 798.696 155.988 799.895 155.347C801.093 154.686 802.468 154.355 804.018 154.355ZM807.583 161.919C807.583 160.783 807.252 159.863 806.591 159.16C805.95 158.458 805.092 158.106 804.018 158.106C802.964 158.106 802.106 158.458 801.445 159.16C800.804 159.863 800.484 160.783 800.484 161.919V168.987C800.484 170.124 800.804 171.044 801.445 171.746C802.106 172.449 802.964 172.8 804.018 172.8C805.092 172.8 805.95 172.449 806.591 171.746C807.252 171.044 807.583 170.124 807.583 168.987V161.919ZM822.983 176.551C821.391 176.551 819.986 176.241 818.767 175.621C817.568 175.001 816.628 174.133 815.946 173.017C815.284 171.881 814.954 170.579 814.954 169.111V154.975C814.954 154.872 814.985 154.789 815.047 154.727C815.129 154.645 815.222 154.603 815.326 154.603H818.953C819.056 154.603 819.139 154.645 819.201 154.727C819.283 154.789 819.325 154.872 819.325 154.975V169.142C819.325 170.238 819.655 171.126 820.317 171.808C820.999 172.47 821.887 172.8 822.983 172.8C824.078 172.8 824.956 172.47 825.618 171.808C826.3 171.126 826.641 170.238 826.641 169.142V154.975C826.641 154.872 826.672 154.789 826.734 154.727C826.816 154.645 826.909 154.603 827.013 154.603H830.64C830.743 154.603 830.826 154.645 830.888 154.727C830.97 154.789 831.012 154.872 831.012 154.975V169.111C831.012 170.579 830.671 171.881 829.989 173.017C829.327 174.133 828.387 175.001 827.168 175.621C825.969 176.241 824.574 176.551 822.983 176.551ZM849.671 157.982C849.671 158.086 849.63 158.179 849.547 158.261C849.485 158.323 849.402 158.354 849.299 158.354H839.131C839.028 158.354 838.976 158.406 838.976 158.509V163.314C838.976 163.418 839.028 163.469 839.131 163.469H845.796C845.899 163.469 845.982 163.511 846.044 163.593C846.127 163.655 846.168 163.738 846.168 163.841V166.848C846.168 166.952 846.127 167.045 846.044 167.127C845.982 167.189 845.899 167.22 845.796 167.22H839.131C839.028 167.22 838.976 167.272 838.976 167.375V172.397C838.976 172.501 839.028 172.552 839.131 172.552H849.299C849.402 172.552 849.485 172.594 849.547 172.676C849.63 172.738 849.671 172.821 849.671 172.924V175.931C849.671 176.035 849.63 176.128 849.547 176.21C849.485 176.272 849.402 176.303 849.299 176.303H834.977C834.874 176.303 834.781 176.272 834.698 176.21C834.636 176.128 834.605 176.035 834.605 175.931V154.975C834.605 154.872 834.636 154.789 834.698 154.727C834.781 154.645 834.874 154.603 834.977 154.603H849.299C849.402 154.603 849.485 154.645 849.547 154.727C849.63 154.789 849.671 154.872 849.671 154.975V157.982Z" fill="white"/>
<path d="M524.686 213.303C524.479 213.303 524.345 213.2 524.283 212.993L523.353 209.955C523.312 209.873 523.26 209.831 523.198 209.831H515.572C515.51 209.831 515.458 209.873 515.417 209.955L514.518 212.993C514.456 213.2 514.322 213.303 514.115 213.303H510.178C510.054 213.303 509.961 213.272 509.899 213.21C509.837 213.128 509.827 213.014 509.868 212.869L516.564 191.913C516.626 191.707 516.76 191.603 516.967 191.603H521.834C522.041 191.603 522.175 191.707 522.237 191.913L528.933 212.869C528.954 212.911 528.964 212.962 528.964 213.024C528.964 213.21 528.85 213.303 528.623 213.303H524.686ZM516.533 206.266C516.512 206.39 516.554 206.452 516.657 206.452H522.113C522.237 206.452 522.278 206.39 522.237 206.266L519.447 197.059C519.426 196.977 519.395 196.946 519.354 196.966C519.313 196.966 519.282 196.997 519.261 197.059L516.533 206.266ZM552.93 194.982C552.93 195.086 552.889 195.179 552.806 195.261C552.744 195.323 552.661 195.354 552.558 195.354H542.421C542.318 195.354 542.266 195.406 542.266 195.509V200.314C542.266 200.418 542.318 200.469 542.421 200.469H549.086C549.189 200.469 549.272 200.511 549.334 200.593C549.417 200.655 549.458 200.738 549.458 200.841V203.848C549.458 203.952 549.417 204.045 549.334 204.127C549.272 204.189 549.189 204.22 549.086 204.22H542.421C542.318 204.22 542.266 204.272 542.266 204.375V212.931C542.266 213.035 542.225 213.128 542.142 213.21C542.08 213.272 541.997 213.303 541.894 213.303H538.267C538.164 213.303 538.071 213.272 537.988 213.21C537.926 213.128 537.895 213.035 537.895 212.931V191.975C537.895 191.872 537.926 191.789 537.988 191.727C538.071 191.645 538.164 191.603 538.267 191.603H552.558C552.661 191.603 552.744 191.645 552.806 191.727C552.889 191.789 552.93 191.872 552.93 191.975V194.982ZM555.614 213.303C555.51 213.303 555.417 213.272 555.335 213.21C555.273 213.128 555.242 213.035 555.242 212.931V191.975C555.242 191.872 555.273 191.789 555.335 191.727C555.417 191.645 555.51 191.603 555.614 191.603H559.241C559.344 191.603 559.427 191.645 559.489 191.727C559.571 191.789 559.613 191.872 559.613 191.975V212.931C559.613 213.035 559.571 213.128 559.489 213.21C559.427 213.272 559.344 213.303 559.241 213.303H555.614ZM562.765 213.303C562.62 213.303 562.517 213.262 562.455 213.179C562.393 213.097 562.403 212.993 562.486 212.869L568.5 202.546C568.541 202.484 568.541 202.422 568.5 202.36L562.486 192.037L562.424 191.851C562.424 191.686 562.538 191.603 562.765 191.603H566.702C566.909 191.603 567.064 191.686 567.167 191.851L571.197 198.95C571.259 199.074 571.321 199.074 571.383 198.95L575.413 191.851C575.516 191.686 575.671 191.603 575.878 191.603H579.784C579.929 191.603 580.032 191.645 580.094 191.727C580.156 191.81 580.146 191.913 580.063 192.037L574.049 202.36C574.028 202.422 574.028 202.484 574.049 202.546L580.063 212.869L580.125 213.055C580.125 213.221 580.011 213.303 579.784 213.303H575.878C575.671 213.303 575.516 213.221 575.413 213.055L571.383 205.987C571.321 205.863 571.259 205.863 571.197 205.987L567.136 213.055C567.033 213.221 566.878 213.303 566.671 213.303H562.765ZM597.917 194.982C597.917 195.086 597.876 195.179 597.793 195.261C597.731 195.323 597.648 195.354 597.545 195.354H587.377C587.274 195.354 587.222 195.406 587.222 195.509V200.314C587.222 200.418 587.274 200.469 587.377 200.469H594.042C594.145 200.469 594.228 200.511 594.29 200.593C594.373 200.655 594.414 200.738 594.414 200.841V203.848C594.414 203.952 594.373 204.045 594.29 204.127C594.228 204.189 594.145 204.22 594.042 204.22H587.377C587.274 204.22 587.222 204.272 587.222 204.375V209.397C587.222 209.501 587.274 209.552 587.377 209.552H597.545C597.648 209.552 597.731 209.594 597.793 209.676C597.876 209.738 597.917 209.821 597.917 209.924V212.931C597.917 213.035 597.876 213.128 597.793 213.21C597.731 213.272 597.648 213.303 597.545 213.303H583.223C583.12 213.303 583.027 213.272 582.944 213.21C582.882 213.128 582.851 213.035 582.851 212.931V191.975C582.851 191.872 582.882 191.789 582.944 191.727C583.027 191.645 583.12 191.603 583.223 191.603H597.545C597.648 191.603 597.731 191.645 597.793 191.727C597.876 191.789 597.917 191.872 597.917 191.975V194.982ZM612.858 213.303C612.652 213.303 612.507 213.21 612.424 213.024L608.549 204.437C608.508 204.355 608.446 204.313 608.363 204.313H605.48C605.377 204.313 605.325 204.365 605.325 204.468V212.931C605.325 213.035 605.284 213.128 605.201 213.21C605.139 213.272 605.057 213.303 604.953 213.303H601.326C601.223 213.303 601.13 213.272 601.047 213.21C600.985 213.128 600.954 213.035 600.954 212.931V191.975C600.954 191.872 600.985 191.789 601.047 191.727C601.13 191.645 601.223 191.603 601.326 191.603H610.192C611.515 191.603 612.672 191.872 613.664 192.409C614.677 192.947 615.452 193.711 615.989 194.703C616.547 195.695 616.826 196.842 616.826 198.144C616.826 199.55 616.475 200.759 615.772 201.771C615.07 202.763 614.088 203.466 612.827 203.879C612.724 203.921 612.693 203.993 612.734 204.096L616.95 212.869C616.992 212.952 617.012 213.014 617.012 213.055C617.012 213.221 616.899 213.303 616.671 213.303H612.858ZM605.48 195.354C605.377 195.354 605.325 195.406 605.325 195.509V200.81C605.325 200.914 605.377 200.965 605.48 200.965H609.541C610.409 200.965 611.112 200.707 611.649 200.19C612.207 199.674 612.486 199.002 612.486 198.175C612.486 197.349 612.207 196.677 611.649 196.16C611.112 195.623 610.409 195.354 609.541 195.354H605.48ZM639.998 213.303C639.791 213.303 639.657 213.2 639.595 212.993L638.665 209.955C638.623 209.873 638.572 209.831 638.51 209.831H630.884C630.822 209.831 630.77 209.873 630.729 209.955L629.83 212.993C629.768 213.2 629.633 213.303 629.427 213.303H625.49C625.366 213.303 625.273 213.272 625.211 213.21C625.149 213.128 625.138 213.014 625.18 212.869L631.876 191.913C631.938 191.707 632.072 191.603 632.279 191.603H637.146C637.352 191.603 637.487 191.707 637.549 191.913L644.245 212.869C644.265 212.911 644.276 212.962 644.276 213.024C644.276 213.21 644.162 213.303 643.935 213.303H639.998ZM631.845 206.266C631.824 206.39 631.865 206.452 631.969 206.452H637.425C637.549 206.452 637.59 206.39 637.549 206.266L634.759 197.059C634.738 196.977 634.707 196.946 634.666 196.966C634.624 196.966 634.593 196.997 634.573 197.059L631.845 206.266ZM654.451 213.551C652.859 213.551 651.454 213.241 650.235 212.621C649.036 212.001 648.096 211.133 647.414 210.017C646.752 208.881 646.422 207.579 646.422 206.111V191.975C646.422 191.872 646.453 191.789 646.515 191.727C646.597 191.645 646.69 191.603 646.794 191.603H650.421C650.524 191.603 650.607 191.645 650.669 191.727C650.751 191.789 650.793 191.872 650.793 191.975V206.142C650.793 207.238 651.123 208.126 651.785 208.808C652.467 209.47 653.355 209.8 654.451 209.8C655.546 209.8 656.424 209.47 657.086 208.808C657.768 208.126 658.109 207.238 658.109 206.142V191.975C658.109 191.872 658.14 191.789 658.202 191.727C658.284 191.645 658.377 191.603 658.481 191.603H662.108C662.211 191.603 662.294 191.645 662.356 191.727C662.438 191.789 662.48 191.872 662.48 191.975V206.111C662.48 207.579 662.139 208.881 661.457 210.017C660.795 211.133 659.855 212.001 658.636 212.621C657.437 213.241 656.042 213.551 654.451 213.551ZM679.719 213.551C678.065 213.551 676.619 213.293 675.379 212.776C674.139 212.239 673.178 211.485 672.496 210.513C671.834 209.521 671.504 208.374 671.504 207.072V206.39C671.504 206.287 671.535 206.204 671.597 206.142C671.679 206.06 671.772 206.018 671.876 206.018H675.41C675.513 206.018 675.596 206.06 675.658 206.142C675.74 206.204 675.782 206.287 675.782 206.39V206.855C675.782 207.682 676.164 208.385 676.929 208.963C677.693 209.521 678.727 209.8 680.029 209.8C681.124 209.8 681.94 209.573 682.478 209.118C683.015 208.643 683.284 208.064 683.284 207.382C683.284 206.886 683.118 206.473 682.788 206.142C682.457 205.791 682.002 205.491 681.424 205.243C680.866 204.975 679.967 204.613 678.727 204.158C677.342 203.683 676.164 203.197 675.193 202.701C674.242 202.205 673.436 201.534 672.775 200.686C672.134 199.818 671.814 198.754 671.814 197.493C671.814 196.253 672.134 195.168 672.775 194.238C673.415 193.308 674.304 192.595 675.441 192.099C676.577 191.603 677.89 191.355 679.378 191.355C680.948 191.355 682.343 191.634 683.563 192.192C684.803 192.75 685.764 193.536 686.446 194.548C687.148 195.54 687.5 196.698 687.5 198.02V198.485C687.5 198.589 687.458 198.682 687.376 198.764C687.314 198.826 687.231 198.857 687.128 198.857H683.563C683.459 198.857 683.366 198.826 683.284 198.764C683.222 198.682 683.191 198.589 683.191 198.485V198.237C683.191 197.369 682.829 196.636 682.106 196.036C681.403 195.416 680.432 195.106 679.192 195.106C678.22 195.106 677.456 195.313 676.898 195.726C676.36 196.14 676.092 196.708 676.092 197.431C676.092 197.948 676.247 198.382 676.557 198.733C676.887 199.085 677.363 199.405 677.983 199.694C678.623 199.963 679.605 200.335 680.928 200.81C682.395 201.348 683.542 201.823 684.369 202.236C685.216 202.65 685.97 203.27 686.632 204.096C687.314 204.902 687.655 205.956 687.655 207.258C687.655 209.201 686.942 210.741 685.516 211.877C684.09 212.993 682.157 213.551 679.719 213.551ZM698.434 213.644C696.822 213.644 695.396 213.314 694.156 212.652C692.937 211.991 691.986 211.071 691.304 209.893C690.622 208.695 690.281 207.32 690.281 205.77V199.136C690.281 197.607 690.622 196.253 691.304 195.075C691.986 193.897 692.937 192.988 694.156 192.347C695.396 191.686 696.822 191.355 698.434 191.355C700.067 191.355 701.493 191.686 702.712 192.347C703.952 192.988 704.913 193.897 705.595 195.075C706.277 196.253 706.618 197.607 706.618 199.136V205.77C706.618 207.32 706.277 208.695 705.595 209.893C704.913 211.092 703.952 212.022 702.712 212.683C701.493 213.324 700.067 213.644 698.434 213.644ZM698.434 209.893C699.571 209.893 700.491 209.532 701.193 208.808C701.896 208.085 702.247 207.124 702.247 205.925V199.105C702.247 197.907 701.896 196.946 701.193 196.222C700.511 195.478 699.592 195.106 698.434 195.106C697.298 195.106 696.378 195.478 695.675 196.222C694.993 196.946 694.652 197.907 694.652 199.105V205.925C694.652 207.124 694.993 208.085 695.675 208.808C696.378 209.532 697.298 209.893 698.434 209.893ZM710.341 213.303C710.238 213.303 710.145 213.272 710.062 213.21C710 213.128 709.969 213.035 709.969 212.931V191.975C709.969 191.872 710 191.789 710.062 191.727C710.145 191.645 710.238 191.603 710.341 191.603H713.968C714.071 191.603 714.154 191.645 714.216 191.727C714.299 191.789 714.34 191.872 714.34 191.975V209.397C714.34 209.501 714.392 209.552 714.495 209.552H724.632C724.735 209.552 724.818 209.594 724.88 209.676C724.963 209.738 725.004 209.821 725.004 209.924V212.931C725.004 213.035 724.963 213.128 724.88 213.21C724.818 213.272 724.735 213.303 724.632 213.303H710.341Z" fill="#F5A37B"/>
</svg>
