<svg id="Calque_1" data-name="Calque 1" xmlns="http://www.w3.org/2000/svg" viewBox="0 0 395.5 161.55"><defs><style>.cls-1{fill:#003927;}.cls-2{fill:#10bae7;}</style></defs><g id="logo"><path class="cls-1" d="M202.4,112.23a7,7,0,0,0-2.62-2V110a6,6,0,0,0,1.81-1.81,6.13,6.13,0,0,0,.86-3.23,5.86,5.86,0,0,0-2-4.56,9.71,9.71,0,0,0-6.5-2H177.53v3.36l2.45.47v6h0v16h14.59a10.21,10.21,0,0,0,6.71-2.28,7.31,7.31,0,0,0,2.54-5.59A6.35,6.35,0,0,0,202.4,112.23Zm-16.91-9.59h8.27a3.52,3.52,0,0,1,2.37.82,2.63,2.63,0,0,1,.86,2.07,3.31,3.31,0,0,1-.73,2.07,2.85,2.85,0,0,1-2.15.9H185.5v-5.86Zm12,16.13a4.13,4.13,0,0,1-3.05,1.16H185.5v-7.4h9a4.12,4.12,0,0,1,3,1.12,4,4,0,0,1-.05,5.12Z" transform="translate(-29.06 -17.12)"/><path class="cls-1" d="M229.39,119.94v4.26H208.52V98.38h5.59v21.56Z" transform="translate(-29.06 -17.12)"/><path class="cls-1" d="M232.78,98.38h5.6v14.81a7.55,7.55,0,0,0,1.76,5.34,6.2,6.2,0,0,0,4.73,1.81,6.37,6.37,0,0,0,4.82-1.72c1.16-1.25,1.72-2.93,1.72-5.42V98.39h5.51V113a11.51,11.51,0,0,1-3.27,8.61,12.54,12.54,0,0,1-8.82,3.05,12.7,12.7,0,0,1-8.61-2.88c-2.15-1.94-3.4-4.91-3.44-8.78V98.38Z" transform="translate(-29.06 -17.12)"/><path class="cls-1" d="M262.69,98.38H284v4.35H268.2v5.85h14v4.3h-14v7h16.31v4.35H262.69Z" transform="translate(-29.06 -17.12)"/><path class="cls-1" d="M304.3,110.52v3.36l2.45.47v5.59a18.75,18.75,0,0,1-4,.38,10,10,0,0,1-7.45-2.93,9,9,0,0,1-2.2-6.11,8.82,8.82,0,0,1,2.58-6.63,10.22,10.22,0,0,1,7.06-2.41,20,20,0,0,1,7.57,1.51L312,100a20.16,20.16,0,0,0-9.56-2.07,16.14,16.14,0,0,0-10.5,3.36c-2.75,2.19-4.39,5.55-4.39,10a12.48,12.48,0,0,0,3.79,9.43c2.84,2.67,6.67,4,11.15,4a20.09,20.09,0,0,0,9.55-2.19h0v-12H304.3Z" transform="translate(-29.06 -17.12)"/><path class="cls-1" d="M331.43,98.38a11.06,11.06,0,0,1,7.62,2.58,8.57,8.57,0,0,1,2.71,6.5,8.85,8.85,0,0,1-2.28,6,8.63,8.63,0,0,1-4.22,2.41l2,2.54a6.56,6.56,0,0,0,1.94,1.72,6.29,6.29,0,0,0,2.58.69l-.3,3.74a11.41,11.41,0,0,1-5.08-.86,11.23,11.23,0,0,1-3.83-3.57l-2.62-3.57h-7.06v7.66h-5.51V98.38Zm4.74,9a4.55,4.55,0,0,0-1.33-3.44,5.06,5.06,0,0,0-3.66-1.29h-8.3v9.6h8.39a5.08,5.08,0,0,0,3.66-1.33A5,5,0,0,0,336.17,107.37Z" transform="translate(-29.06 -17.12)"/><path class="cls-1" d="M346.5,98.38h21.26v4.35H352v5.85h14v4.3H352v7h16.31v4.35H346.5Z" transform="translate(-29.06 -17.12)"/><path class="cls-1" d="M373.22,98.38h21.26v4.35H378.73v5.85h14v4.3h-14v7H395v4.35H373.22Z" transform="translate(-29.06 -17.12)"/><polygon class="cls-1" points="387.75 81.26 387.75 84.61 390.21 85.09 390.21 98.99 376.01 81.26 370.88 81.26 370.88 107.08 376.18 107.08 376.18 89.17 390.34 107.08 395.5 107.08 395.5 81.26 387.75 81.26"/><path class="cls-2" d="M134.33,40.46A11.67,11.67,0,1,1,146,28.79,11.68,11.68,0,0,1,134.33,40.46Zm4.34-11.67a4.35,4.35,0,1,0-4.34,4.34A4.35,4.35,0,0,0,138.67,28.79Z" transform="translate(-29.06 -17.12)"/><path class="cls-2" d="M151.66,61.13l-67-22.61A3.66,3.66,0,0,0,79.86,42v99.43a61.78,61.78,0,0,0-30.12,9.86l-13.36-7.71V68.27H68.83a3.66,3.66,0,0,0,0-7.32H32.72a3.66,3.66,0,0,0-3.66,3.66v81.07a3.67,3.67,0,0,0,1.83,3.17L81.7,178.18a3.66,3.66,0,0,0,3.66,0l50.81-29.33a3.67,3.67,0,0,0,1.83-3.17V85.52a3.66,3.66,0,0,0-7.32,0v58l-13.46,7.77a61.71,61.71,0,0,0-30-9.91V89.62l64.46-21.56a3.65,3.65,0,0,0,0-6.93ZM110,155.52,83.52,170.79,57,155.46a54.6,54.6,0,0,1,53,.06ZM87.18,81.92V47.1L139,64.59Z" transform="translate(-29.06 -17.12)"/></g></svg>