<svg width="171" height="171" viewBox="0 0 171 171" fill="none" xmlns="http://www.w3.org/2000/svg">
<g clip-path="url(#clip0_94_89)">
<path d="M128.188 49.7282C127.654 49.095 127.305 48.093 127.295 47.2604C127.22 41.1684 127.265 35.0714 127.25 28.9744C127.235 21.6461 122.425 16.0576 115.57 15.3846C108.731 14.7116 102.898 19.313 101.497 26.4868C101.128 28.3613 100.744 30.2307 100.395 31.9556C95.3405 31.2776 90.4551 30.6296 85.3653 29.9466V15.3746H79.4778V50.7551C79.4728 55.7254 77.6234 59.8582 73.6951 62.9292C69.5524 66.1746 67.6431 70.3822 67.8276 75.5868C68.032 81.3049 68.2563 87.023 68.4806 92.7361C69.1536 109.641 69.8515 126.541 70.4946 143.446C70.6342 147.101 68.1466 149.693 64.7717 149.643C61.4366 149.593 59.1235 147.091 59.2282 143.486C59.5522 131.92 59.9261 120.36 60.2751 108.799C60.6141 97.6666 60.9481 86.5395 61.2671 75.4123C61.4117 70.432 59.647 66.2843 55.6838 63.1834C51.4614 59.8732 49.567 55.541 49.5969 50.2067C49.6568 39.2591 49.6169 28.3114 49.6169 17.3637V15.4394H43.6447V17.5482C43.6447 27.2495 43.6148 36.9559 43.6746 46.6572C43.6846 48.1279 43.2608 49.1997 42.3137 50.3114C33.824 60.262 29.118 71.8279 28.8089 84.8744C28.3304 104.85 36.2916 120.903 52.2789 132.957C52.8871 133.416 53.3657 134.443 53.3856 135.216C53.4554 138.137 53.251 141.058 53.261 143.985C53.2859 150.092 57.7227 155.002 63.6949 155.62C69.6122 156.229 74.9862 152.235 76.2225 146.268C76.4419 145.211 76.5166 144.124 76.6662 142.998C86.0532 144.553 95.1012 143.536 103.97 140.62C104.079 142.758 103.925 144.728 104.319 146.577C105.525 152.32 110.969 156.189 116.722 155.615C122.604 155.027 127.146 150.172 127.23 144.209C127.31 138.426 127.21 132.643 127.295 126.855C127.31 125.968 127.659 124.891 128.227 124.223C146.892 102.193 146.877 71.7382 128.188 49.7282ZM55.3099 75.5369C55.1005 82.1225 54.951 88.7031 54.7466 95.2886C54.4375 105.035 54.1035 114.786 53.7745 124.532C53.7545 125.071 53.7047 125.604 53.6499 126.397C30.808 108.106 29.7511 75.9457 44.6218 57.3207C46.0525 61.9919 48.9289 65.5115 52.6528 68.4778C54.8513 70.2276 55.3946 72.805 55.3099 75.5369ZM107.09 101.047C106.338 111.585 105.595 122.124 104.757 132.653C104.713 133.261 104.05 134.109 103.476 134.338C95.0763 137.634 86.4121 138.571 77.4937 137.055C76.4917 136.886 76.1577 136.517 76.1228 135.515C75.6492 122.847 75.1308 110.175 74.6323 97.5071C74.3531 90.3632 74.1437 83.2143 73.7898 76.0754C73.6053 72.4361 74.7918 69.6344 77.6981 67.3262C82.8179 63.2532 85.3104 57.7744 85.4301 51.2586C85.5148 46.3531 85.445 41.4476 85.445 35.9339C90.2407 36.6119 94.7373 37.245 99.3137 37.8931C98.865 42.2203 98.3416 46.0939 98.0923 49.9824C97.7533 55.3117 97.4841 60.6559 97.4243 65.9951C97.3196 75.6267 97.3894 85.2632 97.3944 94.8998C97.3994 97.9657 98.3515 98.9229 101.382 98.9328C103.237 98.9428 105.091 98.9378 107.1 98.9378C107.1 99.7305 107.14 100.394 107.09 101.047ZM117.838 149.209C114.06 150.914 109.867 148.073 110.032 143.83C110.216 139.114 110.63 134.403 110.974 129.692C111.776 118.784 112.614 107.881 113.397 96.9686C113.601 94.1121 112.484 92.9854 109.623 92.9705C107.634 92.9555 105.645 92.9655 103.601 92.9655C103.481 92.6564 103.396 92.5467 103.396 92.437C103.536 73.807 102.434 55.1272 105.64 36.6219C106.198 33.3814 106.816 30.146 107.509 26.9305C108.287 23.3062 111.457 20.993 114.997 21.332C118.596 21.676 121.263 24.6323 121.273 28.456C121.298 40.64 121.283 52.824 121.283 65.008C121.283 91.0561 121.268 117.104 121.298 143.152C121.303 145.904 120.401 148.053 117.838 149.209ZM127.295 114.97V59.0107C131.463 62.1066 136.219 76.9378 136.204 86.8884C136.194 97.1531 133.322 106.55 127.295 114.97Z" fill="#182649"/>
<path d="M61.4565 15.4145H55.7236V48.088H61.4565V15.4145Z" fill="#182649"/>
<path d="M73.3961 15.4694H67.6084V48.0781H73.3961V15.4694Z" fill="#182649"/>
<path d="M170.995 85.4178C170.003 51.5328 152.326 21.6262 151.573 20.3699L151.219 19.7816L150.631 19.4276C149.374 18.6749 119.464 0.99209 85.5797 0.00500488H85.4999H85.4201C51.5362 0.997075 21.6254 18.6799 20.3691 19.4276L19.7809 19.7816L19.427 20.3748C18.6742 21.6311 0.996924 51.5378 0.00488281 85.4228V85.5025V85.5823C0.996924 119.467 18.6742 149.374 19.427 150.63L19.7809 151.218L20.3691 151.572C21.6254 152.325 51.5362 170.008 85.4201 170.995H85.4999H85.5797C119.464 170.003 149.374 152.32 150.631 151.567L151.219 151.213L151.573 150.625C152.326 149.369 170.003 119.462 170.995 85.5773V85.4975V85.4178ZM147.216 147.21C142.844 149.688 115.346 164.614 85.4999 165.511C55.6589 164.614 28.1559 149.688 23.784 147.21C21.3113 142.843 6.38585 115.344 5.48853 85.5025C6.38585 55.6606 21.3113 28.1569 23.784 23.7898C28.1559 21.3121 55.6589 6.38616 85.4999 5.48881C115.341 6.38117 142.849 21.3071 147.216 23.7848C149.693 28.1519 164.614 55.6557 165.511 85.4975C164.614 115.339 149.693 142.838 147.216 147.21Z" fill="#182649"/>
</g>
<defs>
<clipPath id="clip0_94_89">
<rect width="171" height="171" fill="white"/>
</clipPath>
</defs>
</svg>
